<svg xmlns="http://www.w3.org/2000/svg" width="95.168" height="40" viewBox="0 0 95.168 40"><defs><style>.a{fill:#f0493b;}.b{fill:#fbe02f;}.c{fill:#00b267;}</style></defs><path d="M0,2.334c2.974,0,5.927-.024,8.885.024a11.332,11.332,0,0,1,4.767,1.082A6.258,6.258,0,0,1,17.4,9.118a6.7,6.7,0,0,1-1.417,4.813,7.8,7.8,0,0,1-4.221,2.5,15.72,15.72,0,0,1-3.94.465H2.861v12.63H0ZM2.869,14.5c1.622,0,3.218.035,4.81,0a17.786,17.786,0,0,0,2.866-.295,4.834,4.834,0,0,0,3.328-2.093A4.838,4.838,0,0,0,14.5,8.869,3.883,3.883,0,0,0,12.338,5.64a8.6,8.6,0,0,0-3.831-.906C6.754,4.7,4.991,4.718,3.245,4.716H2.869Z" transform="translate(0 -1.698)"/><path d="M0,125.923l.668-.454a2.036,2.036,0,0,0,2.052.881,1.428,1.428,0,0,0,1.314-1.641,1.3,1.3,0,0,0-.914-.976c-.516-.2-1.052-.357-1.574-.557A1.782,1.782,0,0,1,.205,121.2a1.891,1.891,0,0,1,1.56-1.736,2.967,2.967,0,0,1,3.009.768l-.63.5a1.955,1.955,0,0,0-2.041-.665,1.352,1.352,0,0,0-1.114,1.2,1.171,1.171,0,0,0,.852,1.257c.492.2,1.009.341,1.509.522a1.91,1.91,0,0,1,1.479,2.25A2.082,2.082,0,0,1,2.917,127,3.1,3.1,0,0,1,0,126.01Z" transform="translate(0 -87.074)"/><path d="M91.952,0c.124.457.243.914.389,1.352.016.054.184.078.27.081a10.275,10.275,0,0,1,1.265.07c-.335.227-.665.468-1.011.684a.3.3,0,0,0-.151.435c.132.335.224.684.36,1.122-.47-.314-.86-.579-1.255-.846l-1.2.76a.516.516,0,0,0-.06-.081.271.271,0,0,0,.035-.062c.132-.368.427-.776.341-1.082s-.565-.495-.881-.733c-.081-.065-.17-.122-.349-.254h1.322a.33.33,0,0,0,.408-.284c.1-.392.235-.773.357-1.163Z" transform="translate(-65.453)"/><path d="M314.779,57.424c1.287,2.039,2.579,4.1,3.9,6.186a2.7,2.7,0,0,1-.3.03H314.69a.435.435,0,0,1-.443-.27c-.987-1.766-1.993-3.529-2.974-5.294a.389.389,0,0,0-.411-.251c-.314.022-.633,0-.963,0v5.784H306.34V49.053c.032-.022.051-.043.07-.043,2.071,0,4.148,0,6.219.024a7,7,0,0,1,2.928.646,4.113,4.113,0,0,1-.565,7.63c-.057.022-.122.035-.173.059l-.043.054m-4.9-2.163c.679,0,1.333.019,1.987,0a4.988,4.988,0,0,0,1.179-.189,1.53,1.53,0,0,0,1.2-1.706,1.446,1.446,0,0,0-1.374-1.384c-.982-.111-1.979-.1-2.988-.149Z" transform="translate(-223.509 -35.758)"/><path d="M211.75,49.01h10.121v2.977h-6.554V54.75h6.219v2.831h-6.222V60.6h6.954v3.028H211.75Z" transform="translate(-154.495 -35.758)"/><path d="M266.594,49.492c-.773.792-1.539,1.579-2.317,2.363a3.64,3.64,0,0,0-3.634-1.136,1.409,1.409,0,0,0-1.1.933,1.147,1.147,0,0,0,.671,1.5c.576.27,1.2.457,1.8.679a21.633,21.633,0,0,1,2.039.762,3.816,3.816,0,0,1,2.458,3.515,4.446,4.446,0,0,1-2.482,4.213,8.476,8.476,0,0,1-8.834-1.225c-.038-.043-.081-.087-.146-.151.83-.76,1.66-1.511,2.482-2.26a4.407,4.407,0,0,0,3.407,1.428,2.845,2.845,0,0,0,1.082-.27A1.328,1.328,0,0,0,262.3,57.6a5.177,5.177,0,0,0-1.368-.711c-.852-.33-1.749-.565-2.6-.919a3.718,3.718,0,0,1-2.523-3.153,4.064,4.064,0,0,1,1.974-4.153,7.919,7.919,0,0,1,8.7.719,1.2,1.2,0,0,1,.1.116" transform="translate(-186.08 -34.791)"/><path d="M175.743,55.1v2.917h-5.838V63.68H166.29V49.09h9.934v3.02h-6.3V55.1Z" transform="translate(-121.327 -35.817)"/><path class="a" d="M97.82,42.776a9.463,9.463,0,0,1,4.494,1.206,7.721,7.721,0,0,1-.154-1.33,3.757,3.757,0,0,1,1.352-2.433c.357-.346.768-.644,1.2-1.009,0,.116.019.173,0,.2a4.151,4.151,0,0,0-.679,3.431,13.955,13.955,0,0,0,1.414,4.169l.157.33A9.331,9.331,0,0,1,103.149,47a8.7,8.7,0,0,1-5.2-3.883,1.93,1.93,0,0,1-.116-.346Z" transform="translate(-71.371 -28.608)"/><path class="b" d="M78.485,28.819h0a2.342,2.342,0,0,1-.27-.27,8.7,8.7,0,0,1-1.352-4.077c-.092.127-.162.222-.238.316a2.945,2.945,0,0,1-2.409,1.046,8.022,8.022,0,0,1-2.9-.6,9.635,9.635,0,0,0,1.106-.065,4.867,4.867,0,0,0,2.355-1.211,14.425,14.425,0,0,0,2.942-3.58l.192-.3a8.171,8.171,0,0,1,.576,8.739" transform="translate(-52.036 -14.651)"/><path class="c" d="M76.582,52.579a8.923,8.923,0,0,1-3.307,3.353c1.817.165,2.509,1.374,2.955,2.8a6.894,6.894,0,0,1,.246,1.441,4.676,4.676,0,0,0-3.05-2.35,15.269,15.269,0,0,0-4.118-.717c-.165,0-.335-.016-.508-.024a8.679,8.679,0,0,1,7.782-4.51" transform="translate(-50.197 -38.357)"/><path d="M126.533,125.422c-.222.516-.462,1.017-.652,1.536-.111.306-.27.449-.6.389a2.958,2.958,0,0,0-.443,0c.314-.7.6-1.352.892-2.012.749-1.671,1.5-3.337,2.231-5.013.124-.292.316-.292.565-.295a.427.427,0,0,1,.489.284q1.468,3.362,2.974,6.7c.046.1.076.2.13.335a5.625,5.625,0,0,1-.717,0,.381.381,0,0,1-.23-.211c-.227-.495-.43-1-.66-1.49a.4.4,0,0,0-.27-.2c-1.233-.014-2.463,0-3.7,0m1.939-4.537c-.565,1.328-1.1,2.566-1.636,3.826H130.1c-.038-.1-.059-.192-.095-.27-.5-1.157-1-2.315-1.53-3.55" transform="translate(-91.085 -87.567)"/><path d="M333.37,123.251a6.453,6.453,0,0,1,.47-2.625,2.163,2.163,0,0,1,2.623-1.268,2.085,2.085,0,0,1,1.379,1.217,5.652,5.652,0,0,1,.468,3.139,7.445,7.445,0,0,1-.476,1.982,1.979,1.979,0,0,1-1.944,1.292,2.006,2.006,0,0,1-1.982-1.244,6.49,6.49,0,0,1-.438-1.409,8.828,8.828,0,0,1-.1-1.082m.744-.132h.084c0,.222-.019.449,0,.668a3.8,3.8,0,0,0,.557,1.912,1.274,1.274,0,0,0,2.2,0,2.82,2.82,0,0,0,.37-.8,6.488,6.488,0,0,0,.181-2.62,3.58,3.58,0,0,0-.541-1.73,1.264,1.264,0,0,0-2.19,0,2.163,2.163,0,0,0-.357.765c-.133.595-.2,1.2-.3,1.8" transform="translate(-243.231 -87.019)"/><path d="M289.134,123.227a6.314,6.314,0,0,1,.416-2.434,2.165,2.165,0,0,1,2.661-1.352,2.071,2.071,0,0,1,1.352,1.152,5.9,5.9,0,0,1,.525,2.926,5.358,5.358,0,0,1-.449,2.2,2.163,2.163,0,0,1-2.542,1.3,2.017,2.017,0,0,1-1.4-1.082,5.51,5.51,0,0,1-.565-2.685m4.269.043c-.146-.749-.222-1.428-.419-2.077a1.424,1.424,0,0,0-1.39-1.187c-.635.011-1.111.422-1.384,1.214a5.484,5.484,0,0,0-.254,2.471,8.9,8.9,0,0,0,.4,1.812,1.241,1.241,0,0,0,.979.857,1.306,1.306,0,0,0,1.557-.922,20.2,20.2,0,0,0,.508-2.163" transform="translate(-210.954 -87.085)"/><path d="M193.607,123.441a5.253,5.253,0,0,1-.5,2.312,2.115,2.115,0,0,1-2.479,1.211,2,2,0,0,1-1.422-1.111,5.651,5.651,0,0,1-.514-3.269,6.873,6.873,0,0,1,.468-1.977,2.081,2.081,0,0,1,2.561-1.219,2.163,2.163,0,0,1,1.438,1.3,6.193,6.193,0,0,1,.452,2.75m-.768-.27c-.038-.408-.054-.811-.122-1.228a2.647,2.647,0,0,0-.768-1.668,1.184,1.184,0,0,0-1.639,0,2.688,2.688,0,0,0-.579.917,6.083,6.083,0,0,0-.27,2.644,3.98,3.98,0,0,0,.484,1.79,1.314,1.314,0,0,0,.954.695,1.383,1.383,0,0,0,1.522-.946,5.678,5.678,0,0,0,.408-2.212" transform="translate(-137.637 -87.047)"/><path d="M47.711,120.516l-.625.446a2.985,2.985,0,0,0-4.326-.024,3.389,3.389,0,0,0,.187,4.67,3.031,3.031,0,0,0,4.307-.343l.587.373A3.571,3.571,0,0,1,43.9,126.9a3.694,3.694,0,0,1-2.823-3.356,3.857,3.857,0,0,1,6.63-3.028" transform="translate(-29.968 -87.063)"/><path d="M236.526,120.066v4.84h1.1v.706h-1.082v1.755h-.757v-1.739H232.34a1.32,1.32,0,0,1,.168-1.057q1.379-2.041,2.7-4.1a.711.711,0,0,1,.781-.406,4.026,4.026,0,0,0,.519,0m-3.353,4.84h2.585v-3.969c-.881,1.352-1.712,2.631-2.585,3.967" transform="translate(-169.486 -87.592)"/><path d="M167.243,126.185H171.1v.649h-4.813a1.119,1.119,0,0,1,.37-1.184c.963-.881,1.893-1.809,2.8-2.736a3.409,3.409,0,0,0,.644-.892,1.352,1.352,0,0,0-.692-1.893,1.571,1.571,0,0,0-2.068.811c-.046.105-.078.219-.13.36l-.735-.124a2.123,2.123,0,0,1,1.868-1.779c1.56-.227,2.828.662,2.7,2.2a2.361,2.361,0,0,1-.735,1.5c-.925.919-1.866,1.825-2.807,2.734-.092.092-.206.168-.3.249a.5.5,0,0,0,.049.111" transform="translate(-121.293 -87.086)"/><path d="M311.857,126.2h3.934v.66h-4.808a1.128,1.128,0,0,1,.392-1.2c.963-.884,1.893-1.809,2.8-2.742a3.419,3.419,0,0,0,.644-.927,1.309,1.309,0,0,0-.627-1.809,1.547,1.547,0,0,0-2.012.541,5.072,5.072,0,0,0-.287.581l-.7-.108a2.108,2.108,0,0,1,1.46-1.7,2.464,2.464,0,0,1,2.769.781,1.955,1.955,0,0,1-.035,2.3,12.4,12.4,0,0,1-1.4,1.53c-.681.692-1.379,1.352-2.133,2.093" transform="translate(-226.866 -87.092)"/><path d="M267.712,121.262c-.232-.046-.468-.087-.735-.135a2.028,2.028,0,0,1,.854-1.352,2.666,2.666,0,0,1,2.823-.116,1.987,1.987,0,0,1,.644,2.7,4.978,4.978,0,0,1-.811,1.033c-.811.811-1.676,1.622-2.515,2.417l-.3.308h3.937v.673h-4.8a1.194,1.194,0,0,1,.346-1.157c.946-.852,1.831-1.766,2.734-2.655a2.7,2.7,0,0,0,.857-1.33,1.352,1.352,0,0,0-.876-1.593,1.549,1.549,0,0,0-1.879.6,6.048,6.048,0,0,0-.27.587" transform="translate(-194.656 -87.05)"/><path d="M89.62,120.13h.752v6.608h3.5v.676H89.62Z" transform="translate(-65.388 -87.648)"/><path d="M215.645,127.342h-.771v-6.36l-1.368,1.106c-.165-.181-.311-.335-.487-.525.625-.5,1.228-1.017,1.871-1.468.173-.122.487-.054.754-.076Z" transform="translate(-155.422 -87.568)"/><rect width="0.741" height="7.287" transform="translate(20.325 32.49)"/><rect width="0.754" height="7.282" transform="translate(30.781 32.487)"/><rect width="0.754" height="7.279" transform="translate(7.63 32.49)"/><path d="M53.041,69.815c-.4.27-.811.541-1.244.838l.435,1.4c-.4-.27-.733-.487-1.049-.719a.3.3,0,0,0-.411,0c-.322.227-.66.435-1.082.708.173-.514.322-.941.468-1.387-.411-.27-.811-.568-1.309-.909h1.406a.43.43,0,0,0,.3-.208c.16-.376.287-.765.46-1.252.154.465.27.827.384,1.2a.314.314,0,0,0,.376.27c.408-.019.811,0,1.233,0Z" transform="translate(-35.642 -49.825)"/><path d="M133.655,71.915c-.333-.216-.676-.419-.992-.649a.292.292,0,0,0-.406,0c-.324.23-.662.438-1.082.714.149-.441.27-.811.4-1.141a.27.27,0,0,0-.13-.406,6.642,6.642,0,0,1-1-.757h1.233a.349.349,0,0,0,.414-.292c.114-.379.27-.744.419-1.184.149.46.27.833.389,1.214a.3.3,0,0,0,.354.27,6.349,6.349,0,0,1,1.274.065c-.416.289-.822.56-1.228.83.127.465.241.9.351,1.352Z" transform="translate(-95.171 -49.76)"/><path d="M114.257,88.953c.176-.511.322-.938.484-1.4l-1.211-.83a.47.47,0,0,0,0-.07h1.246a.308.308,0,0,0,.365-.251c.124-.389.27-.776.433-1.236.141.443.27.811.384,1.2a.33.33,0,0,0,.4.295,5.715,5.715,0,0,1,1.222.068c-.341.23-.679.47-1.033.687a.27.27,0,0,0-.132.376c.124.362.235.73.379,1.168-.454-.322-.849-.592-1.246-.863l-1.284.846" transform="translate(-82.833 -62.141)"/><path d="M67.733,88.113l-1.206.787-.049-.087c.127-.352.27-.7.368-1.06a.368.368,0,0,0-.114-.3c-.333-.249-.684-.476-1.122-.779h1.325a.343.343,0,0,0,.4-.284c.114-.368.257-.73.422-1.2.146.46.27.827.381,1.2a.338.338,0,0,0,.406.289,6.079,6.079,0,0,1,1.222.059c-.324.224-.649.46-.987.665a.316.316,0,0,0-.157.46c.132.333.216.687.343,1.114l-1.236-.863" transform="translate(-47.87 -62.156)"/><path d="M116.367,9.663l-1.257-.852-1.287.844c.151-.438.27-.795.4-1.144a.27.27,0,0,0-.13-.4,6.843,6.843,0,0,1-1.006-.762c.427,0,.844-.014,1.265,0a.316.316,0,0,0,.379-.27c.114-.37.27-.727.422-1.2.143.443.27.79.36,1.138a.389.389,0,0,0,.481.333c.387-.03.779,0,1.3,0-.406.27-.711.508-1.046.695a.4.4,0,0,0-.208.6c.127.3.2.622.33,1.025" transform="translate(-82.512 -4.29)"/><path d="M67.33,8.259c-.414-.289-.811-.568-1.23-.849l.022-.065a9.055,9.055,0,0,1,1.082,0,.5.5,0,0,0,.627-.433c.084-.327.214-.638.352-1.033l.481,1.455h1.528a.362.362,0,0,1,.032.065c-.333.233-.665.476-1.011.687-.2.119-.27.235-.173.454.127.338.224.689.36,1.122l-1.26-.852-1.279.838c.17-.506.319-.938.47-1.39" transform="translate(-48.227 -4.29)"/><path d="M132.045,22.228c.178.541.327,1,.487,1.479h1.622c-.5.335-.906.611-1.333.906.132.427.27.86.424,1.4-.408-.27-.733-.495-1.046-.722a.306.306,0,0,0-.416,0c-.322.23-.657.438-1.068.711.178-.519.322-.949.473-1.387l-1.3-.9c.489,0,.884-.019,1.274,0a.4.4,0,0,0,.476-.341c.105-.362.246-.708.4-1.152" transform="translate(-94.769 -16.212)"/><path d="M91.895,94.275c-.416.27-.811.541-1.284.841.17-.492.319-.927.476-1.387-.4-.27-.811-.557-1.276-.881h1.584c.178-.481.343-.936.541-1.487.181.541.333.99.495,1.474h1.622c-.352.235-.606.433-.884.584-.365.192-.495.416-.295.811a6.167,6.167,0,0,1,.284.9l-1.252-.854" transform="translate(-65.526 -66.657)"/><path d="M139.7,49.245c-.322-.2-.635-.427-.971-.606a.468.468,0,0,0-.4,0c-.346.192-.671.425-1.082.7.178-.519.324-.944.476-1.4l-1.306-.906c.511,0,.917-.016,1.322,0,.235,0,.352-.057.416-.27.114-.381.27-.754.416-1.2.178.522.327.982.487,1.46h1.525a.294.294,0,0,0,.024.062c-.33.224-.652.46-.99.668a.339.339,0,0,0-.184.481c.124.319.2.654.292.982l-.024.024" transform="translate(-99.526 -33.248)"/><rect width="2.377" height="0.598" transform="translate(68.884 36.965)"/></svg>