<svg xmlns="http://www.w3.org/2000/svg" width="114.215" height="48" viewBox="0 0 114.215 48"><defs><style>.a{fill:#fff;}.b{fill:#f0493b;}.c{fill:#fbe02f;}.d{fill:#00b267;}</style></defs><path class="a" d="M0,2.337c3.569,0,7.113-.026,10.666.029a13.557,13.557,0,0,1,5.717,1.3,7.51,7.51,0,0,1,4.5,6.814,8.042,8.042,0,0,1-1.7,5.776,9.348,9.348,0,0,1-5.062,3,18.716,18.716,0,0,1-4.728.558H3.436V34.967H0Zm3.443,14.6c1.947,0,3.861.042,5.772,0a21.344,21.344,0,0,0,3.439-.354,5.781,5.781,0,0,0,3.991-2.511A5.806,5.806,0,0,0,17.4,10.18a4.679,4.679,0,0,0-2.6-3.874,10.325,10.325,0,0,0-4.6-1.087C8.109,5.176,5.993,5.2,3.9,5.2H3.443Z" transform="translate(0 -1.575)"/><path class="a" d="M0,127.239l.8-.545a2.443,2.443,0,0,0,2.463,1.058,1.713,1.713,0,0,0,1.577-1.97,1.564,1.564,0,0,0-1.1-1.171c-.62-.24-1.262-.428-1.888-.665a2.178,2.178,0,0,1-1.622-2.378,2.273,2.273,0,0,1,1.872-2.083,3.56,3.56,0,0,1,3.611.922l-.756.6a2.349,2.349,0,0,0-2.434-.8,1.622,1.622,0,0,0-1.34,1.434,1.407,1.407,0,0,0,1.022,1.509c.594.237,1.21.409,1.811.626a2.287,2.287,0,0,1,1.772,2.7,2.494,2.494,0,0,1-2.291,2.06A3.725,3.725,0,0,1,0,127.343Z" transform="translate(0 -80.619)"/><path class="a" d="M92.4,0c.149.548.292,1.1.467,1.622.019.065.221.1.324.1A12.35,12.35,0,0,1,94.71,1.8c-.4.273-.8.561-1.214.821a.367.367,0,0,0-.182.522c.159.4.269.821.432,1.35L92.241,3.478l-1.434.912a.62.62,0,0,0-.071-.1.325.325,0,0,0,.042-.075c.156-.438.513-.931.409-1.3s-.678-.594-1.058-.879c-.1-.078-.2-.146-.419-.305h1.583a.4.4,0,0,0,.493-.341c.123-.47.282-.928.428-1.4Z" transform="translate(-60.601)"/><path class="a" d="M316.467,59.111l4.689,7.418a3.239,3.239,0,0,1-.357.036H316.37a.522.522,0,0,1-.532-.324c-1.184-2.119-2.391-4.234-3.569-6.353a.467.467,0,0,0-.5-.3c-.373.026-.756,0-1.155,0v6.944H306.34V49.062c.039-.026.062-.052.084-.052,2.486,0,4.977,0,7.463.029a8.355,8.355,0,0,1,3.514.779,4.932,4.932,0,0,1-.678,9.153c-.068.026-.146.042-.208.071l-.052.068m-5.876-2.6c.814,0,1.6.023,2.385,0a6.314,6.314,0,0,0,1.415-.23,1.83,1.83,0,0,0,1.437-2.047A1.736,1.736,0,0,0,314.17,52.6c-1.175-.133-2.372-.123-3.569-.178Z" transform="translate(-206.94 -33.107)"/><path class="a" d="M211.75,49.01H223.9v3.572H216.03V55.9h7.463v3.4h-7.466v3.618h8.346v3.634H211.75Z" transform="translate(-143.042 -33.107)"/><path class="a" d="M268.9,49.855c-.931.954-1.849,1.895-2.781,2.839a4.363,4.363,0,0,0-4.361-1.366,1.694,1.694,0,0,0-1.324,1.119,1.376,1.376,0,0,0,.8,1.8c.691.324,1.434.548,2.155.814.821.3,1.668.539,2.447.915a4.566,4.566,0,0,1,2.946,4.218,5.3,5.3,0,0,1-2.975,5.055c-3.057,1.622-8.135.922-10.6-1.47-.045-.052-.1-.1-.175-.182q1.5-1.369,2.979-2.713a5.289,5.289,0,0,0,4.088,1.713,3.384,3.384,0,0,0,1.3-.324,1.593,1.593,0,0,0,.35-2.693,6.262,6.262,0,0,0-1.642-.853c-1.019-.4-2.1-.678-3.115-1.1a4.461,4.461,0,0,1-3.027-3.783,4.875,4.875,0,0,1,2.369-4.984,9.5,9.5,0,0,1,10.442.86c.042.039.071.084.123.14" transform="translate(-172.286 -32.213)"/><path class="a" d="M177.634,56.3v3.5h-7V66.6H166.29V49.09h11.921v3.624h-7.567V56.3Z" transform="translate(-112.333 -33.161)"/><path class="b" d="M97.82,43.49a11.357,11.357,0,0,1,5.393,1.447,9.264,9.264,0,0,1-.185-1.6,4.531,4.531,0,0,1,1.622-2.92c.428-.415.922-.772,1.444-1.21,0,.14.023.208,0,.234a4.991,4.991,0,0,0-.814,4.121,16.717,16.717,0,0,0,1.7,5c.055.114.107.23.188.4a11.314,11.314,0,0,1-2.949-.4,10.455,10.455,0,0,1-6.253-4.672,2.018,2.018,0,0,1-.14-.415Z" transform="translate(-66.08 -26.487)"/><path class="c" d="M79.919,30.567h0a2.544,2.544,0,0,1-.324-.324,10.383,10.383,0,0,1-1.622-4.89c-.11.149-.195.263-.286.376A3.534,3.534,0,0,1,74.8,26.985a9.627,9.627,0,0,1-3.475-.72,12.4,12.4,0,0,0,1.327-.075,5.87,5.87,0,0,0,2.826-1.457A17.223,17.223,0,0,0,79,20.44c.075-.12.153-.234.23-.36a9.805,9.805,0,0,1,.691,10.487" transform="translate(-48.178 -13.565)"/><path class="d" d="M78.135,52.581A10.669,10.669,0,0,1,74.17,56.6c2.177.2,3.008,1.648,3.547,3.362a8.274,8.274,0,0,1,.3,1.729,5.621,5.621,0,0,0-3.66-2.82,18.453,18.453,0,0,0-4.942-.863l-.61-.026c1.246-2.752,5.055-5.516,9.335-5.412" transform="translate(-46.476 -35.513)"/><path class="a" d="M126.871,126.5c-.269.62-.555,1.22-.779,1.846-.136.36-.324.535-.72.464a4.058,4.058,0,0,0-.532,0c.376-.844.724-1.622,1.071-2.414.9-2.005,1.8-4,2.677-6.016.149-.35.38-.35.678-.354a.519.519,0,0,1,.587.344q1.762,4.03,3.569,8.037c.058.12.091.237.156.4a6.751,6.751,0,0,1-.86,0,.474.474,0,0,1-.279-.253c-.269-.594-.513-1.2-.792-1.788a.461.461,0,0,0-.324-.243c-1.48-.016-2.953,0-4.445,0m2.326-5.445c-.678,1.593-1.317,3.076-1.963,4.591h3.91a3.129,3.129,0,0,0-.11-.324c-.6-1.389-1.2-2.778-1.837-4.26" transform="translate(-84.332 -81.078)"/><path class="a" d="M333.38,124.055a7.714,7.714,0,0,1,.561-3.154,2.612,2.612,0,0,1,3.147-1.519,2.515,2.515,0,0,1,1.658,1.46,6.814,6.814,0,0,1,.558,3.77,8.887,8.887,0,0,1-.571,2.372,2.378,2.378,0,0,1-2.333,1.557,2.421,2.421,0,0,1-2.378-1.493,8.074,8.074,0,0,1-.526-1.694,9.916,9.916,0,0,1-.117-1.3m.889-.156h.1c0,.266-.019.539,0,.8a4.524,4.524,0,0,0,.668,2.294,1.527,1.527,0,0,0,2.635,0,3.319,3.319,0,0,0,.445-.954,7.8,7.8,0,0,0,.217-3.147,4.3,4.3,0,0,0-.649-2.077,1.517,1.517,0,0,0-2.628,0,2.6,2.6,0,0,0-.428.918c-.159.714-.24,1.437-.36,2.164" transform="translate(-225.206 -80.575)"/><path class="a" d="M289.134,124a7.528,7.528,0,0,1,.5-2.92,2.6,2.6,0,0,1,3.193-1.622,2.485,2.485,0,0,1,1.622,1.382,7.076,7.076,0,0,1,.629,3.511,6.383,6.383,0,0,1-.542,2.638,2.6,2.6,0,0,1-3.044,1.561,2.417,2.417,0,0,1-1.681-1.3,6.612,6.612,0,0,1-.678-3.222m5.123.052c-.175-.9-.266-1.713-.5-2.492a1.717,1.717,0,0,0-1.671-1.424c-.759.013-1.334.506-1.661,1.457a6.675,6.675,0,0,0-.308,2.966,10.688,10.688,0,0,0,.487,2.174,1.483,1.483,0,0,0,1.175,1.029,1.567,1.567,0,0,0,1.869-1.1,24.469,24.469,0,0,0,.61-2.6" transform="translate(-195.315 -80.629)"/><path class="a" d="M194.6,124.269a6.259,6.259,0,0,1-.6,2.774,2.539,2.539,0,0,1-2.975,1.454,2.4,2.4,0,0,1-1.707-1.334,6.781,6.781,0,0,1-.617-3.923,8.245,8.245,0,0,1,.561-2.372,2.5,2.5,0,0,1,3.073-1.463,2.6,2.6,0,0,1,1.729,1.564,7.48,7.48,0,0,1,.539,3.3m-.922-.324c-.049-.49-.065-.973-.143-1.473a3.2,3.2,0,0,0-.925-2,1.418,1.418,0,0,0-1.966,0,3.212,3.212,0,0,0-.694,1.1,7.233,7.233,0,0,0-.324,3.17,4.737,4.737,0,0,0,.581,2.148,1.577,1.577,0,0,0,1.145.834,1.66,1.66,0,0,0,1.827-1.136,6.814,6.814,0,0,0,.49-2.654" transform="translate(-127.434 -80.594)"/><path class="a" d="M49.051,120.756l-.75.535a3.583,3.583,0,0,0-5.192-.029,4.067,4.067,0,0,0,.224,5.6,3.635,3.635,0,0,0,5.169-.412c.227.153.467.3.7.448a4.29,4.29,0,0,1-4.721,1.519,4.432,4.432,0,0,1-3.381-4.03,4.628,4.628,0,0,1,7.953-3.634" transform="translate(-27.759 -80.612)"/><path class="a" d="M237.371,120.068v5.808h1.317v.847h-1.3v2.106h-.909v-2.086h-4.137a1.622,1.622,0,0,1,.2-1.269q1.661-2.45,3.264-4.919a.853.853,0,0,1,.938-.487,4.828,4.828,0,0,0,.623,0m-4.04,5.808h3.1v-4.76c-1.058,1.622-2.054,3.154-3.1,4.757" transform="translate(-156.921 -81.099)"/><path class="a" d="M167.443,127.548h4.63v.779H166.3a1.343,1.343,0,0,1,.445-1.421c1.155-1.055,2.271-2.171,3.362-3.284a4.092,4.092,0,0,0,.772-1.071,1.6,1.6,0,0,0-.831-2.271,1.879,1.879,0,0,0-2.482.973c-.055.127-.094.26-.156.428l-.883-.149a2.544,2.544,0,0,1,2.245-2.132c1.869-.276,3.391.792,3.245,2.635a2.868,2.868,0,0,1-.886,1.8c-1.11,1.1-2.239,2.19-3.365,3.28-.114.11-.25.2-.367.3a.594.594,0,0,0,.058.133" transform="translate(-112.302 -80.629)"/><path class="a" d="M312.041,127.564h4.718v.792h-5.766a1.353,1.353,0,0,1,.47-1.437c1.155-1.061,2.271-2.171,3.358-3.29a3.926,3.926,0,0,0,.776-1.113,1.574,1.574,0,0,0-.75-2.171,1.863,1.863,0,0,0-2.417.649,6.672,6.672,0,0,0-.344.7l-.844-.13a2.521,2.521,0,0,1,1.752-2.031,2.959,2.959,0,0,1,3.326.934,2.352,2.352,0,0,1-.045,2.765,15.146,15.146,0,0,1-1.674,1.84c-.818.824-1.655,1.622-2.56,2.508" transform="translate(-210.048 -80.638)"/><path class="a" d="M267.9,121.652c-.276-.055-.561-.1-.886-.162a2.456,2.456,0,0,1,1.029-1.622,3.2,3.2,0,0,1,3.391-.14,2.388,2.388,0,0,1,.769,3.245,5.98,5.98,0,0,1-.973,1.239c-.99.973-2.012,1.947-3.021,2.9l-.357.37h4.724v.808h-5.759a1.433,1.433,0,0,1,.415-1.389c1.136-1.019,2.2-2.119,3.28-3.186a3.245,3.245,0,0,0,1.029-1.6,1.622,1.622,0,0,0-1.051-1.911,1.869,1.869,0,0,0-2.271.717c-.123.208-.2.438-.324.707" transform="translate(-180.226 -80.596)"/><path class="a" d="M89.62,120.14h.9v7.927h4.2v.811h-5.1Z" transform="translate(-60.54 -81.157)"/><path class="a" d="M216.177,128.773h-.925v-7.632l-1.642,1.327c-.2-.217-.373-.4-.581-.649.746-.6,1.47-1.214,2.242-1.755.211-.149.584-.068.905-.094Z" transform="translate(-143.907 -81.043)"/><rect class="a" width="0.886" height="8.745" transform="translate(24.391 38.989)"/><rect class="a" width="0.905" height="8.735" transform="translate(36.938 38.986)"/><rect class="a" width="0.905" height="8.735" transform="translate(9.157 38.989)"/><path class="a" d="M53.879,70.127c-.483.324-.973.649-1.493,1.006l.522,1.684c-.48-.324-.883-.584-1.259-.863a.354.354,0,0,0-.493,0c-.386.273-.788.522-1.3.85.208-.617.386-1.129.565-1.665l-1.574-1.09h1.687a.516.516,0,0,0,.36-.25c.191-.451.344-.918.552-1.5.185.555.324.99.461,1.437a.373.373,0,0,0,.451.324c.49-.023.973,0,1.48,0Z" transform="translate(-32.999 -46.138)"/><path class="a" d="M134.3,72.658c-.4-.26-.811-.5-1.191-.779a.354.354,0,0,0-.487,0c-.389.276-.795.526-1.3.857.178-.529.324-.973.477-1.366a.324.324,0,0,0-.159-.49,8.112,8.112,0,0,1-1.2-.909h1.483a.419.419,0,0,0,.493-.35c.136-.454.324-.9.5-1.421.178.552.324,1,.467,1.457a.36.36,0,0,0,.425.324,7.674,7.674,0,0,1,1.532.078l-1.476,1c.149.555.286,1.081.419,1.606Z" transform="translate(-88.115 -46.071)"/><path class="a" d="M114.4,89.7c.208-.613.386-1.126.581-1.674l-1.454-1a.649.649,0,0,0,0-.084h1.5a.376.376,0,0,0,.438-.305c.149-.467.324-.931.519-1.483.172.532.324.973.461,1.437a.4.4,0,0,0,.483.36,6.687,6.687,0,0,1,1.47.078c-.412.276-.818.565-1.243.824a.324.324,0,0,0-.159.451c.149.435.282.876.454,1.4-.545-.386-1.019-.711-1.5-1.035l-1.541,1.016" transform="translate(-76.692 -57.528)"/><path class="a" d="M68.15,88.7l-1.447.944c-.019-.036-.039-.071-.058-.1.153-.425.324-.844.445-1.275a.445.445,0,0,0-.14-.363c-.4-.3-.821-.571-1.35-.934h1.593a.412.412,0,0,0,.483-.337c.14-.445.324-.879.509-1.441.175.552.324.993.458,1.441a.409.409,0,0,0,.487.347,7.058,7.058,0,0,1,1.467.068c-.393.269-.779.552-1.184.8a.383.383,0,0,0-.191.552c.159.4.263.824.415,1.337L68.15,88.7" transform="translate(-44.314 -57.548)"/><path class="a" d="M117.023,10.419c-.558-.383-1.022-.694-1.509-1.022l-1.541,1.012c.178-.526.324-.954.48-1.373a.324.324,0,0,0-.156-.483,7.989,7.989,0,0,1-1.207-.915c.513,0,1.016-.016,1.519,0a.383.383,0,0,0,.454-.324c.133-.445.305-.873.506-1.434.175.532.324.947.432,1.366a.464.464,0,0,0,.578.4c.464-.036.934,0,1.554,0-.487.324-.853.61-1.256.837a.483.483,0,0,0-.25.714c.153.363.243.746.4,1.23" transform="translate(-76.395 -3.972)"/><path class="a" d="M67.583,8.735c-.493-.347-.973-.681-1.473-1.019a.1.1,0,0,1,.023-.078,10.227,10.227,0,0,1,1.3,0,.6.6,0,0,0,.753-.519c.1-.393.256-.766.422-1.239l.578,1.746h1.833a.435.435,0,0,1,.039.078c-.4.279-.795.571-1.214.824-.24.146-.324.282-.208.545.153.406.273.827.432,1.347L68.553,9.4l-1.535,1c.2-.607.383-1.126.565-1.668" transform="translate(-44.659 -3.972)"/><path class="a" d="M132.449,22.236c.214.649.393,1.2.584,1.775h1.947c-.594.4-1.087.733-1.6,1.087.156.516.324,1.032.509,1.678-.49-.324-.879-.594-1.256-.863a.36.36,0,0,0-.5,0c-.386.273-.788.522-1.3.85.217-.623.389-1.139.571-1.665l-1.557-1.077c.584,0,1.061-.026,1.528,0a.483.483,0,0,0,.574-.409c.123-.435.292-.85.474-1.382" transform="translate(-87.717 -15.017)"/><path class="a" d="M92.318,94.858c-.5.324-.973.649-1.541,1.009.2-.591.383-1.116.571-1.665L89.82,93.145h1.9c.211-.578.406-1.123.649-1.785.217.649.4,1.188.594,1.768h1.947c-.422.282-.724.519-1.061.7-.438.234-.594.5-.357.973a6.065,6.065,0,0,1,.324,1.081c-.535-.37-1-.685-1.5-1.025" transform="translate(-60.676 -61.716)"/><path class="a" d="M140.352,49.98c-.386-.243-.763-.513-1.165-.727a.561.561,0,0,0-.483,0c-.415.23-.8.513-1.3.84.214-.62.389-1.132.574-1.671l-1.57-1.09c.61,0,1.1-.019,1.587,0,.282,0,.422-.068.5-.324.136-.458.324-.905.5-1.437.214.629.4,1.178.587,1.752h1.827a.3.3,0,0,0,.029.075c-.4.269-.779.552-1.191.8a.409.409,0,0,0-.217.581c.149.38.237.782.35,1.175l-.029.029" transform="translate(-92.148 -30.784)"/><rect class="a" width="2.849" height="0.717" transform="translate(82.663 44.359)"/></svg>