<svg xmlns="http://www.w3.org/2000/svg" width="38.853" height="40" viewBox="0 0 38.853 40"><defs><style>.a{fill:#d9d1d2;}.b{fill:#bbb5b5;}.b,.c{fill-rule:evenodd;}.c,.p{fill:#fff;}.d{fill:#aa2c23;}.e{fill:#556340;}.f{fill:#717f47;}.g{fill:#303d2c;}.h{fill:#5f7360;}.i{fill:#384b24;}.j{fill:#8a6f54;}.k{fill:#9c8776;}.l{fill:#6c432f;}.m{fill:#b42e25;}.n{fill:#90251d;}.o{fill:#831f19;}.q{fill:#9a2620;}.r{fill:#764c45;}.s{fill:#061a06;}.t{fill:#475930;}.u{fill:#8d8073;}.v{fill:#7d8d5c;}.w{fill:#573b1f;}.x{fill:#3b260c;}.y{fill:#425140;}.z{fill:#5e714f;}.aa{fill:#748a6e;}.ab{fill:#8d8d67;}.ac{fill:#66682d;}.ad{fill:#687460;}.ae{fill:#b7a382;}.af{fill:#8d7b69;}.ag{fill:#9d8d76;}.ah{fill:#aa977b;}.ai{fill:#707e59;}.aj{fill:#526d4d;}.ak{fill:#776554;}</style></defs><path d="M.552,136.671v.911H0V134.86H1.057q.961,0,.961.9a.861.861,0,0,1-.4.8l.389,1.041H1.4l-.317-.911Zm.806-.593a.5.5,0,0,0,.1-.317.466.466,0,0,0-.1-.309.375.375,0,0,0-.3-.116H.552v.864h.513a.356.356,0,0,0,.293-.119" transform="translate(0 -97.635)"/><path d="M9,137.582V134.86h1.761v.48H9.552v.638h.969v.472H9.552v.651h1.209v.48Z" transform="translate(-6.516 -97.635)"/><path d="M18.013,136.789h-.461v.795H17V134.86h1a.846.846,0,0,1,.969.944,1.019,1.019,0,0,1-.246.731.969.969,0,0,1-.723.254m-.45-.472H18c.276,0,.411-.171.411-.513a.53.53,0,0,0-.1-.362.4.4,0,0,0-.312-.11h-.444Z" transform="translate(-12.308 -97.635)"/><path d="M26.036,136.673a.484.484,0,1,0,.966,0V134.86h.552v1.8a.95.95,0,0,1-.257.734,1.1,1.1,0,0,1-.778.235,1.129,1.129,0,0,1-.781-.235.949.949,0,0,1-.257-.734v-1.8h.552Z" transform="translate(-18.445 -97.635)"/><path d="M35.08,134.852h1.082a1,1,0,0,1,.638.168.674.674,0,0,1,.213.552.828.828,0,0,1-.066.362.646.646,0,0,1-.235.24.552.552,0,0,1,.276.218.828.828,0,0,1,.086.4.72.72,0,0,1-.232.588,1.01,1.01,0,0,1-.654.19H35.08Zm1.041.472h-.489v.649h.494a.326.326,0,0,0,0-.649m.017,1.1h-.511v.671h.505a.4.4,0,0,0,.276-.072.328.328,0,0,0,.088-.276c0-.218-.119-.328-.353-.328" transform="translate(-25.397 -97.628)"/><path d="M43.92,134.852h1.068a1,1,0,0,1,.638.168.674.674,0,0,1,.213.552.781.781,0,0,1-.069.362.615.615,0,0,1-.232.24.527.527,0,0,1,.276.218.787.787,0,0,1,.088.4.72.72,0,0,1-.232.588,1.01,1.01,0,0,1-.654.19h-1.1Zm1.041.472h-.489v.649h.494a.325.325,0,1,0-.006-.649m.017,1.1h-.505v.671h.505a.4.4,0,0,0,.276-.072.328.328,0,0,0,.086-.276c0-.218-.116-.328-.351-.328" transform="translate(-31.797 -97.628)"/><path d="M54.3,137.582H52.75V134.86H53.3v2.233h1Z" transform="translate(-38.19 -97.635)"/><rect width="0.552" height="2.724" transform="translate(16.454 37.225)"/><path d="M65.149,137.35a3.494,3.494,0,0,1-.765.094,1.41,1.41,0,0,1-.552-.086.682.682,0,0,1-.323-.276,1.206,1.206,0,0,1-.157-.433,3.538,3.538,0,0,1-.044-.624,1.971,1.971,0,0,1,.221-1.1.941.941,0,0,1,.828-.312,3.525,3.525,0,0,1,.8.108l-.017.442a4.761,4.761,0,0,0-.66-.061.748.748,0,0,0-.375.072.425.425,0,0,0-.166.276,2.877,2.877,0,0,0-.052.671,1.355,1.355,0,0,0,.11.654.469.469,0,0,0,.439.182,4.589,4.589,0,0,0,.7-.058Z" transform="translate(-45.828 -97.448)"/><path d="M70.81,137.584l.6-2.724h1.049l.613,2.724h-.552l-.108-.494H71.47l-.108.494Zm1.041-2.269-.276,1.295h.742l-.276-1.295Z" transform="translate(-51.265 -97.635)"/><rect width="0.552" height="2.724" transform="translate(23.067 37.225)"/><path d="M86.83,135.349v-.489h2v.489h-.72v2.233h-.555v-2.233Z" transform="translate(-62.863 -97.635)"/><path d="M94,137.584l.613-2.724h1.043l.613,2.724h-.552l-.108-.494h-.952l-.1.494Zm1.041-2.269-.276,1.295h.745l-.276-1.295Z" transform="translate(-68.054 -97.635)"/><path d="M105.108,137.582H103.56V134.86h.552v2.233h1Z" transform="translate(-74.975 -97.635)"/><rect width="0.552" height="2.724" transform="translate(30.473 37.225)"/><path d="M113.73,137.584l.613-2.724h1.049l.613,2.724h-.552l-.108-.494h-.955l-.108.494Zm1.041-2.269-.276,1.295h.745l-.276-1.295Z" transform="translate(-82.338 -97.635)"/><path d="M123.29,137.582V134.86h.933l.657,2.241h.041V134.86h.552v2.722h-.908l-.682-2.241h-.041v2.241Z" transform="translate(-89.259 -97.635)"/><path d="M132.52,137.584l.613-2.724h1.052l.61,2.724h-.552l-.108-.494h-.952l-.11.494Zm1.043-2.269-.276,1.295h.745l-.276-1.295Z" transform="translate(-95.942 -97.635)"/><path class="a" d="M55.306,27.626A8.623,8.623,0,1,1,46.682,19a8.623,8.623,0,0,1,8.624,8.626" transform="translate(-27.555 -13.755)"/><path class="b" d="M51.853,21.36a.276.276,0,0,0-.276-.276h-.806a9.825,9.825,0,0,0-.207-1.311l.765-.248a.276.276,0,0,0,.185-.356l-.364-1.1a.276.276,0,0,0-.353-.182l-.767.248a9.693,9.693,0,0,0-.6-1.181l.635-.486a.276.276,0,0,0,.061-.395l-.685-.947a.276.276,0,0,0-.395-.061l-.638.464a10.383,10.383,0,0,0-.938-.938l.472-.649a.276.276,0,0,0-.063-.4l-.941-.687a.276.276,0,0,0-.4.063l-.472.651a10.122,10.122,0,0,0-1.181-.6l.243-.751a.276.276,0,0,0-.179-.356l-1.1-.359a.276.276,0,0,0-.359.179l-.248.765a9.713,9.713,0,0,0-1.308-.2v-.812a.276.276,0,0,0-.276-.276H40.47a.276.276,0,0,0-.276.276v.806a9.713,9.713,0,0,0-1.308.2l-.257-.776a.276.276,0,0,0-.359-.179l-1.1.359a.276.276,0,0,0-.188.373l.251.765a9.936,9.936,0,0,0-1.184.6l-.472-.651a.276.276,0,0,0-.395-.063l-.944.687a.276.276,0,0,0-.063.4l.472.649a11.15,11.15,0,0,0-.938.938l-.651-.472a.276.276,0,0,0-.395.061l-.685.95a.276.276,0,0,0,.063.395l.649.472a9.694,9.694,0,0,0-.6,1.181l-.765-.248a.276.276,0,0,0-.356.182l-.362,1.1a.276.276,0,0,0,.182.356l.765.248a9.385,9.385,0,0,0-.207,1.311h-.806a.276.276,0,0,0-.276.276v1.165a.276.276,0,0,0,.276.276h.806a9.385,9.385,0,0,0,.207,1.311l-.765.248a.276.276,0,0,0-.182.356l.362,1.1a.276.276,0,0,0,.356.2l.765-.248a9.936,9.936,0,0,0,.6,1.184l-.649.475a.276.276,0,0,0-.063.395l.7.955a.276.276,0,0,0,.395.061l.651-.472a10.721,10.721,0,0,0,.938.936l-.472.651a.276.276,0,0,0,.063.4l.944.687a.276.276,0,0,0,.395-.066l.472-.649a9.534,9.534,0,0,0,1.184.6l-.251.765a.276.276,0,0,0,.185.356l1.1.362a.276.276,0,0,0,.356-.182l.251-.765a9.716,9.716,0,0,0,1.308.207v.8a.276.276,0,0,0,.276.276H41.64a.276.276,0,0,0,.276-.276v-.811a9.715,9.715,0,0,0,1.308-.207l.248.765a.276.276,0,0,0,.359.182l1.1-.362a.276.276,0,0,0,.179-.356l-.246-.765a9.693,9.693,0,0,0,1.181-.6l.472.649a.276.276,0,0,0,.4.066l.941-.687a.276.276,0,0,0,.063-.4l-.472-.651a10.008,10.008,0,0,0,.952-.936l.651.472a.276.276,0,0,0,.392-.052l.685-.947a.276.276,0,0,0-.061-.395l-.651-.48a9.935,9.935,0,0,0,.6-1.184l.767.251a.276.276,0,0,0,.353-.185l.364-1.1a.276.276,0,0,0-.185-.356l-.765-.248a9.385,9.385,0,0,0,.207-1.311h.806a.276.276,0,0,0,.276-.276ZM47.8,18.186l-5.024,1.281-.276-4.2-.058-.908A7.729,7.729,0,0,1,47.8,18.186m-8.14-3.831-.047.776-.276,4.336-5.021-1.281a7.729,7.729,0,0,1,5.344-3.831m-6.318,7.591a7.266,7.266,0,0,1,.077-1.076l4.734,1.852-2.8,4.416a7.687,7.687,0,0,1-2.015-5.2m7.729,7.715a7.66,7.66,0,0,1-3.287-.734l3.287-4,3.285,4a7.657,7.657,0,0,1-3.285.734m5.683-2.506-2.791-4.416,4.734-1.852a7.676,7.676,0,0,1-1.943,6.268" transform="translate(-21.908 -8.072)"/><path class="c" d="M50.974,33.308l-4.336,3.149,1.656-5.093L43.96,28.213h5.358l1.656-5.093,1.656,5.093h5.358l-4.336,3.152,1.656,5.093Z" transform="translate(-31.826 -16.738)"/><path class="d" d="M50.083,22.532l1.526,4.692.047.152h5.1l-4,2.909-.13.094.05.152,1.529,4.692-4-2.9-.127-.094-.132.094-3.994,2.9,1.526-4.692.05-.152-.13-.094-3.994-2.9h5.1l.05-.152Zm0-.712-1.739,5.344H42.73l4.543,3.312-1.733,5.33,4.543-3.312,4.543,3.312L52.89,30.465l4.543-3.3H51.819Z" transform="translate(-30.936 -15.797)"/><path class="e" d="M79.249,2.487a3.353,3.353,0,0,0-.232-.257c-.052-.055-.157-.218-.254-.185s-.025.19-.11.251c-.138.1-.226-.058-.276-.155s-.157-.157-.232-.254-.135-.215-.218-.312a1.56,1.56,0,0,0-.334-.3,1.17,1.17,0,0,0-.483-.262c-.207,0-.086.047-.157.152s-.13.039-.188,0c-.138-.091-.166-.254-.34-.276a.927.927,0,0,1-.494-.132C75.71.6,75.078.5,74.866.7c-.108.1,0,.138,0,.235s-.132.108-.229.108c-.213,0-.389.066-.328.3a.469.469,0,0,0,.132.276c.086.077.207.075.3.135.2.135-.014.364.055.552.091.237.254.237.491.259s.386.069.6.072c.094,0,.21.028.215.144s-.124.127-.168.221c-.113.232.21.179.331.144s.141-.083.243-.014a1.959,1.959,0,0,0,.309.237.5.5,0,0,0,.453-.061c.132-.086.431-.146.527.025.141.251-.293.251-.229.466.047.166.511.08.651.08a.828.828,0,0,0,.353-.058,3.9,3.9,0,0,0,.627-.262.784.784,0,0,0,.218-.522.616.616,0,0,0-.171-.538" transform="translate(-53.789 -0.425)"/><path class="f" d="M79.207,2.855a1.8,1.8,0,0,1-.767-.039.95.95,0,0,0-.731,0,2.36,2.36,0,0,1-.828.13c-.2,0-.276-.066-.108-.066.511,0,1.007-.221.969-.3a1.38,1.38,0,0,0-.483-.34,3.552,3.552,0,0,0-.494-.144c-.182-.041-.588-.224-.731-.248a3.175,3.175,0,0,1-.613-.3c-.248-.13-.248-.34-.119-.21s.381.182.5.276.326.116.182-.039a2.343,2.343,0,0,1-.276-.511s.406.444.535.574a2.142,2.142,0,0,0,.508.312c.1.055.066-.127.028-.276s-.21-.312-.039-.257.378.552.494.6a4.249,4.249,0,0,1,.552.326c.237.144.146-.144.052-.276l-.243-.414-.03-.055a.094.094,0,0,0,.03.055c.03.033.124.163.207.1s.058-.144.052-.251a1.474,1.474,0,0,0-.243-.2c-.146-.094-.306-.254-.483-.259s-.088.044-.157.149-.13.039-.188,0c-.138-.091-.166-.254-.337-.276a.955.955,0,0,1-.5-.132C75.718.6,75.086.5,74.873.7c-.108.1,0,.135,0,.235s-.13.1-.224.1c-.215,0-.392.072-.331.306a.447.447,0,0,0,.135.276c.086.077.2.075.3.135.2.132-.017.364.052.552.091.237.257.237.491.257s.386.072.6.072c.094,0,.213.03.215.146s-.124.127-.171.221c-.11.232.21.179.334.144s.141-.08.243-.014a2.114,2.114,0,0,0,.312.237.508.508,0,0,0,.453-.061c.13-.086.431-.146.527.025.138.251-.293.251-.229.464.044.166.508.083.649.083a.828.828,0,0,0,.353-.058,3.588,3.588,0,0,0,.627-.276.762.762,0,0,0,.218-.522.607.607,0,0,0,0-.259,1.38,1.38,0,0,1-.21.088" transform="translate(-53.796 -0.428)"/><path class="g" d="M89.825,7.1a.323.323,0,0,0-.248,0c-.1.05-.075.146-.138.21-.113.121-.519,0-.673,0a.306.306,0,0,0-.345.3,1.314,1.314,0,0,0,.088.4c.036.119.138.213.119.345s-.213.144-.276.276a.436.436,0,0,0,.044.4.61.61,0,0,0,.3.326c.179.055.384-.017.552.036a.323.323,0,0,1,.257.315c0,.248-.3.34-.4.552a.312.312,0,0,0,.044.334c.094.08.276.061.389.069s.409-.044.458.13-.058.276-.052.431.193.246.317.306a1.3,1.3,0,0,0,.571.075c.262,0,.516-.069.781-.083.11,0,.235.028.312-.05a.985.985,0,0,0,.135-.847,3.174,3.174,0,0,0-.2-.538c-.157-.381-.259-.792-.453-1.159-.063-.119-.166-.215-.237-.323s-.1-.174-.152-.257-.141-.174-.2-.276-.052-.138-.091-.2a1.708,1.708,0,0,0-.215-.265c-.1-.113-.237-.075-.32-.2a.731.731,0,0,0-.37-.312" transform="translate(-63.942 -5.125)"/><path class="h" d="M92.055,11.492a3.265,3.265,0,0,0-.2-.538c-.157-.381-.259-.795-.453-1.159-.063-.116-.166-.213-.237-.323s-.1-.174-.149-.257a1.73,1.73,0,0,0-.152-.2c-.276.409-.58.64-.878.306A4.251,4.251,0,0,0,88.508,8.29a.331.331,0,0,0-.08.2,1.314,1.314,0,0,0,.08.4c.036.119.138.213.119.345s-.213.144-.276.276a.428.428,0,0,0,.047.4.6.6,0,0,0,.3.326c.177.055.384-.017.552.036a.328.328,0,0,1,.259.315c0,.248-.3.34-.4.552a.309.309,0,0,0,.047.334c.088.083.276.061.386.069s.409-.044.458.132c.039.135-.058.276-.052.428s.193.248.317.306a1.261,1.261,0,0,0,.574.075c.259,0,.513-.069.778-.08.11,0,.235.022.312-.052.207-.185.185-.6.135-.847" transform="translate(-63.942 -6.001)"/><path class="g" d="M88.838,10.28a1.3,1.3,0,0,0,0,.533c.088-.052.124-.1.124-.174,0-.113-.113-.246-.135-.359" transform="translate(-64.297 -7.442)"/><path class="i" d="M91.139,17.986s0,.127.232.144.375,0,.508.119c.08.072.229.276.041.276a2.628,2.628,0,0,1-.828-.028c-.119-.058-.2-.312.039-.516" transform="translate(-65.867 -13.017)"/><path class="g" d="M93.24,16.56a.422.422,0,0,0,.221.312.406.406,0,0,1,.144.436s.4-.066.381-.276-.127-.342-.745-.466" transform="translate(-67.504 -11.989)"/><path class="e" d="M93.092,8.179a.643.643,0,0,0-.218-.017c-.185.039-.138.2-.166.34a2.483,2.483,0,0,0-.127.42c-.014.171.069.243.146.375a.3.3,0,0,1-.058.389.552.552,0,0,0-.24.375.386.386,0,0,0,.108.353c.229.163.58.144.765.384.1.132,0,.237-.113.306s-.174.1-.262.149a.6.6,0,0,0-.207.116c-.116.132,0,.3.152.345a2,2,0,0,1,.229.094,1.134,1.134,0,0,0,.229.05.872.872,0,0,1,.326.094c.05.044.069.121.108.171.229.29.649.257.977.276a.428.428,0,0,1,.257.052c.16.141-.075.246-.13.34-.1.185.248.2.356.226a.676.676,0,0,0,.257.052.693.693,0,0,0,.177-.1c.086-.05.168-.058.248-.1.229-.113.215-.348.248-.569a.922.922,0,0,0,0-.359,1.6,1.6,0,0,0-.075-.37c-.028-.058-.072-.1-.1-.152a.933.933,0,0,1-.132-.538,2.161,2.161,0,0,0,.03-.48A.98.98,0,0,0,95.692,10a.453.453,0,0,1-.121-.213.958.958,0,0,0-.028-.276c-.028-.094-.1-.384-.257-.276a1.026,1.026,0,0,0-.235.356c-.05.091-.155.124-.2,0s0-.3-.052-.444a1.129,1.129,0,0,0-.146-.411,2.435,2.435,0,0,0-.279-.348.585.585,0,0,0-.351-.146c-.149.019-.072.276-.254.213a1.415,1.415,0,0,1-.213-.141,1.011,1.011,0,0,0-.226-.11,1.145,1.145,0,0,0-.24-.019" transform="translate(-66.911 -5.907)"/><path class="i" d="M95.452,21.321a1.656,1.656,0,0,1-.809.069c-.533-.055-.649-.345-.458-.66s1.134.152,1.267.591" transform="translate(-68.126 -14.933)"/><path class="j" d="M24.994,49.8c-.077-.276-.254.3-.389.323s-.1.2-.108.317c-.028.472.469.276.535,1.09.055.682.229-.74-.039-1.731" transform="translate(-17.735 -36.001)"/><path class="j" d="M26.636,38.48a2.158,2.158,0,0,0-.373-.709c-.207-.237-.135.524-.135.618a1.656,1.656,0,0,1,.2,1.151c-.083.842.306-1.06.306-1.06" transform="translate(-18.908 -27.311)"/><path class="j" d="M29.348,32.358s-.185-.276-.32-.213-.108.2-.2.108-.146-.108-.146.1,0,.276.108.389a.687.687,0,0,1,.215.375c0,.121.345-.765.345-.765" transform="translate(-20.764 -23.265)"/><path class="j" d="M35.629,21.58a2.015,2.015,0,0,1,.041.629,1.187,1.187,0,0,1-.254.375,3.718,3.718,0,0,0,0-.7c-.044-.309.213-.309.213-.309" transform="translate(-25.637 -15.623)"/><path class="j" d="M30.866,33.779a1.049,1.049,0,0,0,.616-.052c.309-.135.174.2-.108.276a1.891,1.891,0,0,1-.654.028Z" transform="translate(-22.241 -24.394)"/><path class="j" d="M28.59,39.834a1.88,1.88,0,0,0-.712.4c-.163.229.146-.828.254-.922a.155.155,0,0,1,.243.16c-.033.135-.215.16-.163.243s.254.05.469,0-.077.108-.077.108" transform="translate(-20.15 -28.436)"/><path class="j" d="M39.494,15.695s-.276.108-.276.3a2.208,2.208,0,0,0,.052.34l-.276.323a5.732,5.732,0,0,1,.03-.765c.039-.229.442-.469.682-.657s-.213.464-.213.464" transform="translate(-28.23 -11.002)"/><path class="k" d="M32.127,72.1a2.545,2.545,0,0,0-.069.737c.055.19-.185.094-.276.03s-.2,0-.03.185.246.306.381.362a4.14,4.14,0,0,0,.552,1.179c0,.309-.028.577.588,1.206a5.178,5.178,0,0,0,1.557,1,1.394,1.394,0,0,0-.657-1.068,1.8,1.8,0,0,1-.858-.806c-.094-.163.039-.276-.16-.323s.025-.171-.276-.276a4.314,4.314,0,0,1-.378-.911.417.417,0,0,1,.257-.522c.146,0-.362-.48-.629-.8" transform="translate(-22.924 -52.191)"/><path class="k" d="M73.12,102.913s.591.475.867.662.535.351.828.552.574.464.6.588a.889.889,0,0,0,.138.45.414.414,0,0,0,.315.177.342.342,0,0,1,.3.185,1.27,1.27,0,0,0,.2.378.947.947,0,0,0,.715,0,2.026,2.026,0,0,0,.5-.389c.088-.088.323-.088.478-.174s.309-.213.16-.389-.3-.149-.524-.138a3.587,3.587,0,0,1-1.275-.712,2.545,2.545,0,0,1-.8-.864l-2.365-.489Z" transform="translate(-52.937 -74.388)"/><path class="l" d="M75.407,104.737a.911.911,0,0,0,.135.45.414.414,0,0,0,.315.177.337.337,0,0,1,.3.185,1.685,1.685,0,0,0,.188.364.552.552,0,0,1,.077-.312,1.455,1.455,0,0,1,.342-.293c.116-.088,0-.149-.058-.1s-.2.182-.3.276-.135-.058-.077-.141.243-.16.185-.168a.687.687,0,0,1-.309-.215,5.373,5.373,0,0,0-.552-.417c-.2-.168-.483-.326-.552-.408s.083-.1.207-.11.671,0,.958,0a2.462,2.462,0,0,1-.662-.759l-2.324-.48-.086.05-.08.1s.588.475.864.662.535.351.828.552.577.464.6.588m.259.163a.2.2,0,1,1,.05.235.174.174,0,0,1-.05-.235" transform="translate(-52.93 -74.41)"/><path class="k" d="M53.88,103.65a3.9,3.9,0,0,1-.5.552,6,6,0,0,0-.552.364c-.113.124-.276.2-.3.3s0,.226-.063.3-.21.063-.323.063-.138.05-.237.138a1.118,1.118,0,0,1-.276.213c-.075.025-.149.039-.1.088s.213.248.113.337-.188.088-.276.149a.414.414,0,0,1-.3.063c-.1,0-.2.177-.276.276s0,.215-.213.276a1.2,1.2,0,0,1-.828-.138,2.931,2.931,0,0,1-.513-.45c-.075-.086-.213-.061-.315-.086s-.1-.127-.022-.237.163-.226.248-.215a.709.709,0,0,0,.453-.163c.149-.124.4-.315.436-.337s-.025-.276.113-.351a.635.635,0,0,1,.312-.113,1.774,1.774,0,0,0,.4-.039,2.187,2.187,0,0,1,.248-.149.731.731,0,0,0,.326-.19c.08-.094.425-.375.425-.375Z" transform="translate(-35.359 -75.04)"/><path class="l" d="M53.538,103.912a4.8,4.8,0,0,0-.428.375l-.033.039a2.3,2.3,0,0,0,.317-.033c.144-.022.381-.1.516-.028s.144.146.075.315-.215.224-.381.306a1.173,1.173,0,0,0-.392.276c-.05.088-.293.254-.359.375s-.166.226-.124.276.066,0,.141-.091a.276.276,0,0,1,.243-.1h.075a.309.309,0,0,1,.11-.044,1.175,1.175,0,0,0,.276-.213c.1-.086.124-.138.237-.138a.542.542,0,0,0,.326-.063c.077-.063.025-.2.061-.3s.177-.171.3-.3.364-.21.552-.364a3.931,3.931,0,0,0,.5-.552Zm-.591,2.043a.163.163,0,0,1-.237-.05.116.116,0,0,0-.2.014c-.025.061-.05.174-.177.086a1.275,1.275,0,0,0-.7-.174c-.251.025-.613,0-.436.05a6.41,6.41,0,0,1,.776.135.748.748,0,0,1,.516.464c.063-.1.16-.276.257-.276a.414.414,0,0,0,.3-.063c.088-.061.174-.061.276-.149s0-.2-.066-.276c-.1.061-.21.193-.3.237m-1.019-.8a.588.588,0,0,0,.433-.072.8.8,0,0,0,.317-.466.2.2,0,0,0,0-.075l-.1.066a.408.408,0,0,1-.1.218.486.486,0,0,1-.442.2.251.251,0,0,1-.218-.237.237.237,0,0,0-.086.185.276.276,0,0,0,.2.182" transform="translate(-37.032 -75.04)"/><path class="m" d="M25.853,89.842a1.3,1.3,0,0,1-.306-.022c-.2-.066-1.822-1.057-2.606-1.571a10.916,10.916,0,0,0-1.082-.616c-.213-.11-.409-.207-.635-.348a4.341,4.341,0,0,1-.765-1.217,8.987,8.987,0,0,0,1.019-2.258l1.949-.044.08-.737c.552.215.745.447.679.682l-.03.094a2.015,2.015,0,0,0-.1.828,1.755,1.755,0,0,0,.309,1.074c.16.124,1.609,1.2,1.709,1.231l1.816-.144-.113-.108a8.7,8.7,0,0,0,.552-1.027,4.171,4.171,0,0,0,.29-1.112.693.693,0,0,1,.028-.141.527.527,0,0,1,.444-.248.275.275,0,0,1,.088,0c.135.039,2.208.806,2.321.881s.8.944.886,1.043l.431-.028a4.707,4.707,0,0,1,.861-.4,4.12,4.12,0,0,1,.469.075l.422-.276.6.582h1a5.258,5.258,0,0,1,.643-.944c.113-.063,1.976-.878,2.208-.941a.356.356,0,0,1,.1,0c.226,0,.6.185.616.306s.32,1.6.323,1.609l.395.483-.113.179c.251.022,1.248.113,1.728.113a.852.852,0,0,0,.229-.017,21.254,21.254,0,0,0,1.786-1.41l.113-1.548a1.066,1.066,0,0,0-.152-.193.235.235,0,0,1-.055-.328c.063-.088.478-.472.494-.491l.246.132.138.662L46.4,83.6a.381.381,0,0,1,.32.119.339.339,0,0,1,.047.381l1.035,1.916a11.1,11.1,0,0,1-.875,1.027,1.248,1.248,0,0,1-.384.226,1.379,1.379,0,0,0-.221.11c-.166.119-1.717,1.151-2.051,1.38a17.012,17.012,0,0,1-1.513.919,1.038,1.038,0,0,1-.229,0c-.533,0-1.932-.058-2.517-.141-.72-.1-1.949-.337-2.239-.417a2.984,2.984,0,0,0-.552-.077,5.947,5.947,0,0,1-.607-.083,12.748,12.748,0,0,1-1.424-.417,3.972,3.972,0,0,1-1.016.6,5.771,5.771,0,0,1-.925-.458s-2.112.34-2.36.373a4.833,4.833,0,0,0-.489.127,13.933,13.933,0,0,1-1.794.422,24.29,24.29,0,0,1-2.746.218" transform="translate(-14.813 -59.981)"/><path class="n" d="M44.405,82.783l.2.138.124.638h1.587a.353.353,0,0,1,.276.1.309.309,0,0,1,.041.342l1.035,1.949s-.64.776-.853.972a3.864,3.864,0,0,1-.6.331c-.166.119-1.717,1.151-2.051,1.38s-1.38.886-1.5.919a1.543,1.543,0,0,1-.218,0c-.552,0-1.932-.061-2.512-.141-.7-.1-1.932-.337-2.236-.42s-.7-.066-1.165-.149a13.218,13.218,0,0,1-1.419-.417,5.581,5.581,0,0,1-1.024.6h0a6.472,6.472,0,0,1-.9-.447s-2.134.331-2.382.364-1.267.4-2.285.552a24.838,24.838,0,0,1-2.746.188,1.321,1.321,0,0,1-.276-.017c-.2-.066-1.78-1.032-2.6-1.565s-1.2-.627-1.733-.958a4.329,4.329,0,0,1-.751-1.2,8.388,8.388,0,0,0,1.016-2.236h1.916l.116-.767c.552.276.657.491.6.665a2.288,2.288,0,0,0-.138.925,1.78,1.78,0,0,0,.328,1.1c.113.086,1.656,1.237,1.722,1.237s1.913-.149,1.913-.149l-.185-.179a3.815,3.815,0,0,0,.552-.988,4.811,4.811,0,0,0,.34-1.239.505.505,0,0,1,.409-.221.237.237,0,0,1,.077,0c.177.047,2.225.812,2.313.875s.875,1.035.875,1.035h.461a5.922,5.922,0,0,1,.85-.425,3.837,3.837,0,0,1,.464.077l.45-.276.552.574h1.024a8.107,8.107,0,0,1,.662-.952c.11-.061,1.974-.872,2.189-.936a.352.352,0,0,1,.083,0,.823.823,0,0,1,.577.276c.025.091.328,1.612.328,1.612l.4.5-.152.19s1.239.116,1.794.116a.984.984,0,0,0,.246-.017c.213-.075,1.8-1.4,1.8-1.4l.124-1.576a.737.737,0,0,0-.163-.224.188.188,0,0,1-.047-.276c.08-.1.494-.486.494-.486m0-.075a.069.069,0,0,0-.052.022c-.041.039-.431.406-.5.5a.276.276,0,0,0,.063.375.69.69,0,0,1,.135.182l-.121,1.524a20.931,20.931,0,0,1-1.755,1.38.657.657,0,0,1-.218.017c-.436,0-1.308-.077-1.656-.108l.063-.077a.075.075,0,0,0,0-.094l-.389-.486c-.088-.433-.309-1.513-.32-1.59-.017-.149-.42-.337-.651-.337a.408.408,0,0,0-.1,0c-.224.066-2.089.881-2.208.944a5.692,5.692,0,0,0-.671.941h-.947l-.533-.552a.066.066,0,0,0-.052-.022.078.078,0,0,0-.041,0l-.422.276a3.4,3.4,0,0,0-.45-.069,4.439,4.439,0,0,0-.869.425H32.3c-.174-.215-.781-.958-.867-1.024s-2.208-.847-2.335-.883a.375.375,0,0,0-.1-.014.569.569,0,0,0-.48.276.827.827,0,0,0-.028.146,4.077,4.077,0,0,1-.306,1.085,3.765,3.765,0,0,1-.552.969.075.075,0,0,0,0,.1l.072.033c-.693.058-1.6.13-1.725.135-.166-.086-1.529-1.1-1.692-1.22a1.756,1.756,0,0,1-.3-1.041,2.136,2.136,0,0,1,.124-.814.321.321,0,0,1,.03-.091c.072-.259-.138-.505-.643-.756H23.48a.1.1,0,0,0-.044,0,.08.08,0,0,0-.039.055l-.108.7-1.852.017a.077.077,0,0,0-.072.058,8.427,8.427,0,0,1-1.007,2.208.088.088,0,0,0,0,.075,4.091,4.091,0,0,0,.784,1.234c.232.13.425.243.632.351a9.747,9.747,0,0,1,1.082.618c.806.524,2.4,1.5,2.617,1.573a1.133,1.133,0,0,0,.312.025,24.563,24.563,0,0,0,2.76-.224,14.038,14.038,0,0,0,1.778-.414c.226-.064.4-.116.483-.127.237-.03,2.1-.32,2.36-.364a5.405,5.405,0,0,0,.905.45,3.885,3.885,0,0,0,1.052-.593,12.183,12.183,0,0,0,1.38.409,5.522,5.522,0,0,0,.613.072,3.112,3.112,0,0,1,.552.075c.3.083,1.526.32,2.244.42.585.083,1.987.144,2.523.144a1.161,1.161,0,0,0,.237,0,16.74,16.74,0,0,0,1.524-.927c.337-.218,1.888-1.253,2.054-1.38a1.424,1.424,0,0,1,.226-.108,1.361,1.361,0,0,0,.392-.229c.2-.185.845-.961.875-.991a.083.083,0,0,0,0-.083l-1.019-1.916a.381.381,0,0,0-.066-.389.425.425,0,0,0-.348-.13H44.792l-.113-.574a.075.075,0,0,0-.03-.047l-.2-.138a.083.083,0,0,0-.041,0" transform="translate(-14.733 -59.873)"/><path class="o" d="M78.4,90.024c.1-.069,2.426-1.344,2.6-1.449s.248-.188-.063-.155a5.056,5.056,0,0,0-1.1.422c-.381.157-.941.431-1.063.5a2.435,2.435,0,0,0-.411.552c-.094.138-.03.168.036.132" transform="translate(-56.694 -64.009)"/><path class="o" d="M31.771,84.486c-.047-.138-.364-.334-.494-.406l-.1.616c.373.028.643-.055.591-.21" transform="translate(-22.574 -60.872)"/><path class="o" d="M25.173,87.022c-.149,0-.248.113,0,.218A13.493,13.493,0,0,1,27.55,88.6a2.25,2.25,0,0,1-.19-.894,2.139,2.139,0,0,1,.061-.7l-2.247.033" transform="translate(-18.115 -62.986)"/><path class="o" d="M108.024,86.654c.243-.116.044-.116-.185-.127s-1.479,0-1.951,0v.022l-.127,1.551-.091.077a6.771,6.771,0,0,1,1.283-.961c.511-.276.828-.464,1.06-.577" transform="translate(-76.503 -62.64)"/><path class="o" d="M51.409,88.117a17.007,17.007,0,0,0,2.208,1.19,4.031,4.031,0,0,0,.988.309c-.232-.276-.668-.828-.731-.861s-1.764-.687-2.208-.845c-.276,0-.342.113-.246.207" transform="translate(-37.197 -63.644)"/><path class="o" d="M64.309,94.609a2.5,2.5,0,0,0,.2.508.711.711,0,0,1-.022.936c-.116.077-.312.221-.436.2a.5.5,0,0,0-.384.069,6.542,6.542,0,0,1-.643.185c-.069.03-.475.135-.9.237l1.3-.2a6.292,6.292,0,0,0,.9.45,5.261,5.261,0,0,0,1.035-.6l.063.022a1.383,1.383,0,0,1,.135-.152c.163-.13.613-.381.7-.458a.472.472,0,0,0,.146-.395c0-.243.072-.37-.077-.552S65.1,93.72,65.1,93.72a13.6,13.6,0,0,0,1,1.2.5.5,0,0,1,.055.464c-.022.1-.149.124-.276.077s-.182.025-.182.025-.083.174-.13.276-.141.312-.232.323-.138-.058-.254.044a4.4,4.4,0,0,1-.552.45.389.389,0,0,1-.406-.124c.395-.141.464-.2.535-.276a2.545,2.545,0,0,1,.276-.334c.1-.094.047-.37-.069-.552s-.127-.312-.243-.508-.2-.671-.345-.828-.58-.124-1.021-.11l-.163.094a2.272,2.272,0,0,1,.947.052c.168.1.246.469.276.632" transform="translate(-44.974 -67.851)"/><path class="o" d="M107.146,84.185l-.113-.569-.019-.017a3.539,3.539,0,0,0-.351.276c-.13.132-.061.348.483.309" transform="translate(-77.181 -60.524)"/><path class="p" d="M22.79,91.914l-.2-.135a.375.375,0,0,1-.2-.3l-.044-.508v-.444c.119,0,.229.05.34.05a.276.276,0,0,0,.251-.127.246.246,0,0,0,.039-.193.315.315,0,0,0-.149-.2c-.05-.03-.1-.055-.157-.083l-.618.972c-.086.127-.166.246-.1.331,0,0-.028.052-.041.052l-.42-.276s0-.063.028-.063h0c.113,0,.185-.108.235-.185l.574-.858c.088-.13.168-.248.1-.337,0,0,.03-.05.041-.05l.538.348a.64.64,0,0,1,.276.34.411.411,0,0,1-.055.353.478.478,0,0,1-.417.2.665.665,0,0,1-.224-.036l.094.569a1.971,1.971,0,0,0,.146.552.028.028,0,0,1,0,.036.022.022,0,0,1-.019,0H22.79" transform="translate(-15.558 -64.839)"/><path class="n" d="M22.373,89.483l.519.348c.3.193.353.455.221.654a.467.467,0,0,1-.395.193.6.6,0,0,1-.212-.039l.052.6a1.676,1.676,0,0,0,.149.552l-.2-.133a.348.348,0,0,1-.179-.276l-.047-.508v-.442a.757.757,0,0,0,.309.08.315.315,0,0,0,.276-.141.3.3,0,0,0-.119-.431,1.292,1.292,0,0,0-.163-.083l-.654.98c-.066.1-.185.251-.1.367h0l-.417-.276h.036c.119,0,.2-.149.262-.24l.552-.828c.069-.1.188-.251.1-.367h0m0-.061a.052.052,0,0,0-.05.028h0a.063.063,0,0,0,0,.072c.047.061,0,.155-.086.276l-.022.036-.552.828-.022.033c-.05.075-.116.179-.188.179h-.025c-.028,0-.047,0-.055.028a.061.061,0,0,0,.014.088l.414.276a.053.053,0,0,0,.033,0,.061.061,0,0,0,.052-.028.072.072,0,0,0,0-.075c-.05-.063,0-.16.083-.276l.019-.03.237-.353v.356l.05.516a.4.4,0,0,0,.2.323l.2.135a.058.058,0,0,0,.036,0,.055.055,0,0,0,.036,0,.066.066,0,0,0,.019-.072,1.744,1.744,0,0,1-.149-.535l-.041-.519a.618.618,0,0,0,.144.017.522.522,0,0,0,.442-.215.442.442,0,0,0,.061-.386.7.7,0,0,0-.293-.362l-.522-.348a.069.069,0,0,0-.033,0m-.061.95.3-.444a.784.784,0,0,1,.108.058.276.276,0,0,1,.135.174.213.213,0,0,1-.033.171.246.246,0,0,1-.226.113.729.729,0,0,1-.276-.072" transform="translate(-15.458 -64.74)"/><path class="p" d="M27.137,94.746l-.927-.591s0-.061.025-.061h0c.116,0,.185-.116.24-.2l.552-.867c.083-.13.163-.251.1-.337,0,0,0-.033.019-.033a.088.088,0,0,0,.017-.019l.718.453a.8.8,0,0,0,.193.1l-.014.337H27.99c0-.094-.24-.232-.348-.3a1.677,1.677,0,0,0-.276-.157l-.226.4.257.127a.229.229,0,0,0,.091.044l-.119.276s-.063,0-.063-.019c0-.066-.075-.116-.135-.157L27,93.639l-.293.527.259.166a.621.621,0,0,0,.381.132.458.458,0,0,0,.088,0s.028.017.028.028v.03l-.276.229h-.033" transform="translate(-18.975 -67.069)"/><path class="n" d="M27.061,92.609l.712.45a1.077,1.077,0,0,0,.2.113h0l-.047.3h0c-.019-.124-.315-.276-.42-.348a1.242,1.242,0,0,0-.235-.13l-.262.414.262.166a.309.309,0,0,0,.108.05h0l-.149.232h0c0-.086-.088-.144-.157-.188l-.166-.1-.334.527.276.2a.66.66,0,0,0,.4.138.34.34,0,0,0,.091,0h0l-.276.232-.927-.588h0a.082.082,0,0,0,.036,0c.119,0,.2-.155.257-.243l.535-.842c.063-.1.179-.257.091-.373h0m0-.058a.05.05,0,0,0-.05.025h0a.063.063,0,0,0,0,.069c.047.066,0,.166-.08.276l-.017.03-.533.828-.019.03c-.047.077-.116.188-.188.188h-.036a.065.065,0,0,0-.03.116l.927.588a.058.058,0,0,0,.033,0,.047.047,0,0,0,.036,0l.276-.226a.056.056,0,0,0-.006-.1.105.105,0,0,0-.041,0h0a.421.421,0,0,1-.083,0,.607.607,0,0,1-.367-.135l-.224-.171.276-.433.116.072c.063.041.132.086.132.135a.055.055,0,0,0,.028.052.058.058,0,0,0,.036,0h0a.074.074,0,0,0,.041-.025l.149-.235a.05.05,0,0,0-.05-.083.21.21,0,0,1-.08-.039L27.1,93.39l.2-.32a1.2,1.2,0,0,1,.182.1l.055.033c.088.052.323.2.334.276a.072.072,0,0,0,.025.041.077.077,0,0,0,.041,0h.022a.052.052,0,0,0,.033-.044l.047-.3a.066.066,0,0,0-.028-.061.138.138,0,0,0-.036,0,.9.9,0,0,1-.163-.094l-.726-.461h-.03" transform="translate(-18.883 -67.01)"/><path class="p" d="M30.18,96.737s0-.058.025-.058h0c.113,0,.182-.119.232-.207l.522-.883c.075-.121.155-.251.091-.337,0,0,.028-.052.039-.052l.552.328c.326.2.444.5.293.748a.491.491,0,0,1-.422.248.7.7,0,0,1-.353-.1A.458.458,0,0,1,31,96.288c.121,0,.215.028.3.028a.342.342,0,0,0,.309-.166.3.3,0,0,0-.152-.453,1.268,1.268,0,0,0-.163-.08l-.574,1.007c-.075.13-.116.2-.05.326,0,0-.028.05-.041.05l-.453-.276" transform="translate(-21.85 -68.922)"/><path class="n" d="M30.967,95.126l.552.328c.293.174.431.45.276.7a.455.455,0,0,1-.411.224.674.674,0,0,1-.337-.094.422.422,0,0,1-.146-.132.569.569,0,0,0,.276.069.37.37,0,0,0,.334-.174.315.315,0,0,0-.155-.469,1.028,1.028,0,0,0-.166-.083l-.607,1.021c-.077.127-.132.215-.052.353h0l-.453-.276h.03c.121,0,.2-.157.254-.251l.508-.853c.063-.1.174-.259.088-.373h0m0-.061h-.014a.047.047,0,0,0-.039.028h0a.058.058,0,0,0,0,.066c.052.069-.019.188-.072.276l-.019.03-.511.853-.014.03c-.05.08-.113.19-.188.19h-.03a.064.064,0,0,0-.052.028.083.083,0,0,0,0,.05.058.058,0,0,0,.025.041l.45.276a.066.066,0,0,0,.033,0h.014a.055.055,0,0,0,.036-.025.077.077,0,0,0,0-.069c-.058-.1-.03-.157.047-.276l.215-.37h0a.442.442,0,0,0,.166.149.707.707,0,0,0,.367.1.527.527,0,0,0,.464-.254.461.461,0,0,0,.03-.436.8.8,0,0,0-.331-.351l-.552-.326h-.019m-.075,1.032.312-.524c.039.017.072.039.11.058a.276.276,0,0,1,.132.389.3.3,0,0,1-.276.146.552.552,0,0,1-.248-.063.041.041,0,0,0-.025,0" transform="translate(-21.731 -68.821)"/><path class="p" d="M36.943,99.57a.039.039,0,0,1-.022,0l-.036-.05a.552.552,0,0,1-.141-.411l.036-1.215a.6.6,0,0,0-.05-.342s0-.03.014-.033.017-.019.025-.019l.359.144v.03a.066.066,0,0,1,0,.039,1.257,1.257,0,0,0-.019.218l-.036,1.242.629-.767c.166-.177.276-.3.174-.392,0,0,.017-.058.03-.058l.367.146L36.967,99.57h-.014Z" transform="translate(-26.592 -70.587)"/><path class="n" d="M36.657,97.47l.359.146L37,97.641a.864.864,0,0,0-.025.254l-.036,1.22.682-.748c.135-.146.3-.312.171-.436h0l.367.146L36.842,99.5a.574.574,0,0,1-.168-.444L36.7,97.9a.754.754,0,0,0-.052-.422h0m0-.058h-.025a.066.066,0,0,0-.03.036h0a.069.069,0,0,0,0,.052.591.591,0,0,1,.044.328v.066l-.03,1.145a.552.552,0,0,0,.144.431l.039.05a.047.047,0,0,0,.044.025h0a.066.066,0,0,0,.044-.019L38.2,98.113a.072.072,0,0,0,.017-.052.058.058,0,0,0-.039-.041l-.367-.149h-.047a.069.069,0,0,0-.03.033.075.075,0,0,0,0,.072c.075.075-.019.185-.16.34h0L37,98.96l.03-1.057v-.019a1.013,1.013,0,0,1,.022-.215v-.022a.061.061,0,0,0,0-.05.074.074,0,0,0-.036-.036l-.353-.141h-.025" transform="translate(-26.491 -70.529)"/><path class="p" d="M42.465,101.287h-.019a.033.033,0,0,1,0-.025h0c.116-.069.11-.215.1-.331L42.518,99.9c0-.152,0-.3-.108-.326v-.069l.635-.019c.375,0,.582.146.591.392a.392.392,0,0,1-.276.378h.017a.422.422,0,0,1,.444.425.552.552,0,0,1-.317.5,1.2,1.2,0,0,1-.552.1h-.48m.552-.886-.182.017.047.618.207-.017a.414.414,0,0,0,.312-.1.276.276,0,0,0,.075-.21c0-.232-.221-.309-.4-.309v-.033Zm-.03-.7-.171.025.039.483.058-.03c.063,0,.384-.025.378-.254a.24.24,0,0,0-.276-.224v-.033Z" transform="translate(-30.704 -72.028)"/><path class="n" d="M42.982,99.325c.326,0,.516.138.524.362a.367.367,0,0,1-.251.351.486.486,0,0,1,.442.453.53.53,0,0,1-.3.472,1.325,1.325,0,0,1-.585.1h-.436c.132-.052.108-.243.1-.367l-.03-.991c0-.119,0-.312-.13-.356h0l.624-.019h.039m-.254.7h.086c.171,0,.411-.069.409-.276a.276.276,0,0,0-.276-.254H42.9l-.177.025.019.516m.293.828c.2,0,.395-.108.386-.342s-.221-.34-.433-.34h-.058l-.182.017.019.649h.268M43,99.25h-.041l-.624.019a.058.058,0,0,0-.041.019.061.061,0,0,0,0,.044.069.069,0,0,0,.039.061c.077.025.086.135.088.276v.041l.033.991v.036c0,.13,0,.243-.069.276a.063.063,0,0,0-.039.058.069.069,0,0,0,.061.066h0l.433-.017h.044a1.289,1.289,0,0,0,.571-.1.588.588,0,0,0,.328-.527.508.508,0,0,0-.375-.48.37.37,0,0,0,.16-.331c0-.259-.232-.422-.582-.422m-.21.3.121-.017h.039a.21.21,0,0,1,.229.2.174.174,0,0,1-.108.168.552.552,0,0,1-.24.055h-.03Zm.022.693.127-.014h.052c.166,0,.364.072.37.276a.24.24,0,0,1-.063.188.361.361,0,0,1-.259.1h-.21Z" transform="translate(-30.613 -71.854)"/><path class="p" d="M47.266,100.83a.046.046,0,0,1-.019,0,.03.03,0,0,1,0-.019h0c.113-.077.094-.221.083-.334l-.1-1.027c-.014-.152-.022-.293-.13-.32v-.069L47.721,99h.108c.3,0,.489.132.511.359a.4.4,0,0,1-.246.395h.052a.42.42,0,0,1,.436.395.552.552,0,0,1-.276.516,1.173,1.173,0,0,1-.552.141l-.475.047m.58-.93a.552.552,0,0,0-.094,0l-.185.028.091.613.2-.028a.408.408,0,0,0,.306-.116.276.276,0,0,0,.066-.221.345.345,0,0,0-.384-.276m-.1-.693h-.063l-.171.033.072.483.052-.036c.066,0,.384-.05.362-.276a.235.235,0,0,0-.251-.207" transform="translate(-34.099 -71.673)"/><path class="n" d="M47.681,98.913c.276,0,.458.124.478.334a.364.364,0,0,1-.229.364.486.486,0,0,1,.472.422.535.535,0,0,1-.276.491,1.38,1.38,0,0,1-.58.138l-.433.041h0c.127-.061.094-.251.083-.37l-.1-.988c0-.119,0-.312-.152-.348h0l.621-.061h.108m-.276.726h.088c.168-.017.409-.1.386-.312a.32.32,0,0,0-.342-.235l-.177.033.052.516m.08.828h.229c.218,0,.428-.119.4-.367a.373.373,0,0,0-.414-.315.552.552,0,0,0-.1,0l-.185.028.063.649m.2-1.6h-.11l-.624.061a.065.065,0,0,0-.006.127c.075.022.088.127.1.257v.039l.094.988v.036c.014.13.019.24-.052.276a.058.058,0,0,0-.033.058.072.072,0,0,0,.061.063h0l.431-.044h.044a1.226,1.226,0,0,0,.552-.141.593.593,0,0,0,.3-.552.516.516,0,0,0-.384-.447.37.37,0,0,0,.138-.34c-.022-.243-.224-.386-.535-.386m-.24.309.119-.028h.055a.213.213,0,0,1,.226.179c.017.2-.276.24-.337.248h-.025Zm.066.687.127-.022H47.7a.317.317,0,0,1,.353.259.243.243,0,0,1-.058.2.375.375,0,0,1-.276.108h-.174Z" transform="translate(-33.955 -71.586)"/><path class="p" d="M52.069,99.844a.028.028,0,0,1-.028-.025h0c.108-.083.08-.232.063-.342l-.163-1.013c-.025-.152-.047-.293-.152-.315,0-.017-.017-.069,0-.069l.5-.08s.03.058.019.063c-.094.055-.066.193-.047.306l.188,1.173.326-.055a.627.627,0,0,0,.414-.226h.019a.03.03,0,0,1,.022,0s.022,0,.019.019l-.08.375-1.1.2" transform="translate(-37.49 -70.949)"/><path class="n" d="M52.193,98.01h0c-.124.069-.075.259-.058.375l.185,1.134.353-.033a.643.643,0,0,0,.436-.232h0l-.069.386-1.071.174h0c.127-.069.077-.259.061-.375l-.157-.98c-.022-.119-.036-.312-.174-.34h0l.5-.08m0-.061h0l-.5.083a.055.055,0,0,0-.05.066.065.065,0,0,0,.05.058c.08.017.1.124.124.254v.039l.157.98v.033c.019.124.036.24-.036.276a.055.055,0,0,0-.028.061.066.066,0,0,0,.061.058h0l1.068-.171a.058.058,0,0,0,.047-.047l.083-.367a.069.069,0,0,0-.017-.055.066.066,0,0,0-.044-.019h0a.075.075,0,0,0-.044.022.571.571,0,0,1-.4.213l-.3.03L52.2,98.411v-.036c-.025-.127-.036-.237.03-.276a.052.052,0,0,0,.03-.058A.066.066,0,0,0,52.235,98a.061.061,0,0,0-.036-.017" transform="translate(-37.39 -70.935)"/><path class="p" d="M56.733,98.939a.028.028,0,0,1-.028-.025h0c.11-.083.083-.232.063-.342l-.16-1.021c-.022-.152-.044-.293-.149-.315V97.17l.494-.08s.033.058.022.063c-.1.055-.069.207-.047.315l.163,1.013c.019.144.041.293.146.315v.063l-.5.08" transform="translate(-40.876 -70.291)"/><path class="n" d="M56.828,97.041h0c-.121.072-.075.276-.058.378l.16.983c.019.116.033.306.171.337h0l-.5.077h0c.124-.066.075-.254.058-.373l-.157-.98c-.019-.119-.033-.309-.171-.342h0l.494-.08m0-.061h0l-.491.077a.058.058,0,0,0-.05.069.069.069,0,0,0,.047.058c.077,0,.1.124.119.251v.039l.157.98v.036c.022.124.036.237-.033.276a.061.061,0,0,0-.028.066.066.066,0,0,0,.061.055h0l.494-.08a.061.061,0,0,0,.039-.025.066.066,0,0,0,0-.044.072.072,0,0,0-.05-.058c-.077-.017-.1-.127-.119-.254v-.033l-.157-.98v-.036c-.022-.124-.036-.24.033-.276a.058.058,0,0,0,.03-.058A.077.077,0,0,0,56.856,97a.069.069,0,0,0-.041-.017" transform="translate(-40.75 -70.211)"/><path class="p" d="M59.772,97.918a.886.886,0,0,1-.936-.792.908.908,0,0,1,.792-1.076,2.272,2.272,0,0,1,.276-.019h.221l.075.326a3.167,3.167,0,0,0-.406-.047.628.628,0,0,0-.124,0,.552.552,0,0,0-.389.235.632.632,0,0,0-.091.466.668.668,0,0,0,.64.6h.1a1.1,1.1,0,0,0,.511-.248l-.025.353a.93.93,0,0,1-.406.166,1.814,1.814,0,0,1-.237.017" transform="translate(-42.584 -69.523)"/><path class="n" d="M59.859,96h.213l.05.3a.974.974,0,0,0-.375-.066.685.685,0,0,0-.13,0,.6.6,0,0,0-.516.745.673.673,0,0,0,.776.616,1.184,1.184,0,0,0,.527-.251h0l-.083.323a.883.883,0,0,1-.381.141,1.359,1.359,0,0,1-.232.019.853.853,0,0,1-.883-.765.872.872,0,0,1,.77-1.041A1.724,1.724,0,0,1,59.87,96m0-.058a1.659,1.659,0,0,0-.276.022.994.994,0,0,0-.657.373.938.938,0,0,0-.163.734.908.908,0,0,0,.952.82,1.489,1.489,0,0,0,.243-.019.95.95,0,0,0,.4-.149.055.055,0,0,0,.025-.036l.083-.32a.063.063,0,0,0,0-.058.052.052,0,0,0-.044-.017h0a.155.155,0,0,0-.033,0,1.1,1.1,0,0,1-.5.243h-.1a.635.635,0,0,1-.607-.574.621.621,0,0,1,.083-.447.552.552,0,0,1,.37-.224.6.6,0,0,1,.121,0,.875.875,0,0,1,.353.08h.022a.064.064,0,0,0,.039,0,.061.061,0,0,0,.019-.061l-.047-.3a.058.058,0,0,0-.055-.047,1.9,1.9,0,0,0-.218,0" transform="translate(-42.538 -69.458)"/><path class="p" d="M64.945,97.584a.025.025,0,0,1-.019,0,.028.028,0,0,1,0-.019h0a.593.593,0,0,0,.185-.381l.276-1.2a.276.276,0,0,0,0-.168.1.1,0,0,0-.058-.028v-.066l.409-.066.787,1.261c.091.155.163.276.3.312V97.3l-.535.083s-.03-.052-.019-.061c.088-.058.086-.061,0-.2l-.218-.389-.627.119-.05.364c-.033.16-.03.2.072.224v.069l-.483.077m.524-.961.475-.119L65.624,96Z" transform="translate(-47.003 -69.255)"/><path class="n" d="M65.657,95.551l.756,1.245c.083.138.152.276.315.328h0l-.533.086h0c.119-.077.094-.1,0-.276l-.218-.342-.657.1-.075.392c-.03.152-.036.229.094.257h0l-.478.077h0a.582.582,0,0,0,.2-.411l.259-1.154c.022-.1.052-.213-.077-.235h0l.409-.066m-.276.944.511-.083-.359-.613-.152.7m.276-1h0l-.409.061a.066.066,0,0,0-.052.072.069.069,0,0,0,.052.055s.033,0,.039.019a1.036,1.036,0,0,1,0,.132L65.011,97v.039a.483.483,0,0,1-.16.334.058.058,0,0,0-.025.061.069.069,0,0,0,.061.055h0l.478-.077a.066.066,0,0,0,.041-.025.05.05,0,0,0,0-.044.069.069,0,0,0-.05-.055c-.055,0-.058-.03-.061-.041a.511.511,0,0,1,0-.146l.069-.348.574-.094.177.309.019.028a.524.524,0,0,1,.058.121s0,.014-.052.044a.055.055,0,0,0,.039.1h0l.533-.083a.066.066,0,0,0,.052-.069.086.086,0,0,0-.044-.058c-.127-.039-.188-.144-.259-.276l-.022-.036L65.7,95.52a.064.064,0,0,0-.052-.03m-.21.93.1-.458.237.4Z" transform="translate(-46.932 -69.132)"/><path class="p" d="M78,98.1v-.069c.108-.019.13-.168.144-.276l.16-1.019c.028-.149.052-.293-.041-.342,0-.017,0-.066.019-.066l.5.08v.063c-.1.025-.127.174-.144.276l-.16,1.013c-.025.144-.05.276.044.345,0,.017,0,.063-.022.063Z" transform="translate(-56.47 -69.74)"/><path class="n" d="M78.149,96.281l.494.077h0c-.135.028-.152.226-.171.342l-.155.98c-.019.116-.066.3.058.373h0l-.5-.061h0c.135-.028.152-.221.171-.34l.155-.98c.019-.119.069-.306-.058-.375h0m0-.061a.061.061,0,0,0-.061.052h0a.063.063,0,0,0,.03.063c.069.036.055.146.033.276v.036l-.152.983v.036c-.019.124-.041.24-.119.254a.055.055,0,0,0-.047.05.063.063,0,0,0,.047.075l.494.08h0a.063.063,0,0,0,.058-.05.077.077,0,0,0-.028-.072c-.072-.039-.055-.152-.036-.276v-.036l.171-1v-.036c.017-.127.041-.24.119-.254a.063.063,0,0,0,0-.124l-.5-.077h0" transform="translate(-56.344 -69.661)"/><path class="p" d="M81.558,98.809s-.014-.066,0-.069c.1-.025.119-.171.132-.276l.149-1.192h-.276a.389.389,0,0,0-.232.066H81.3c-.006,0-.019,0-.017-.025L81.412,97h.036a.375.375,0,0,1,.075,0l1.063.138h.127l-.091.342H82.56c-.017-.061-.072-.1-.188-.11l-.235-.028-.108,1.151c-.019.146-.03.237.083.323v.036a.136.136,0,0,0,0,.028Z" transform="translate(-58.844 -70.22)"/><path class="n" d="M81.354,96.847h0a.493.493,0,0,0,.1.03l1.046.135a.274.274,0,0,0,.063,0,.146.146,0,0,0,.061,0h0l-.124.3h0c-.022-.1-.124-.124-.21-.133l-.237-.03-.149,1.19c-.019.146-.033.251.094.351h0l-.519-.063h0c.138-.033.144-.224.16-.345l.149-1.157-.229-.03h-.08a.414.414,0,0,0-.246.072h0l.124-.317m0-.058a.066.066,0,0,0-.063.033l-.124.3a.077.077,0,0,0,0,.055.075.075,0,0,0,.047.028h0a.135.135,0,0,0,.041,0,.356.356,0,0,1,.21-.061h.072l.171.022-.141,1.1v.036c0,.124-.03.237-.11.257a.061.061,0,0,0-.03.1c0,.014.022.028.036.028l.519.066h0a.04.04,0,0,0,.058-.041.08.08,0,0,0-.022-.063c-.091-.072-.088-.135-.069-.276l.141-1.14.177.022c.13.017.152.055.16.088a.063.063,0,0,0,.05.044h0a.066.066,0,0,0,.061-.036l.124-.3a.064.064,0,0,0,0-.05.069.069,0,0,0-.047-.03H82.5l-1.041-.132h-.019a.212.212,0,0,1-.055-.019h0" transform="translate(-58.759 -70.073)"/><path class="p" d="M86.708,100.128v-.064c.1-.03.1-.036.061-.2l-.119-.428-.632-.061-.152.337c-.039.075-.069.135-.058.177a.133.133,0,0,0,.063.058.091.091,0,0,1,0,.039v.025l-.491-.061s-.017-.061,0-.063a.53.53,0,0,0,.276-.276l.593-1.071c.036-.063.066-.124.055-.16s-.022-.033-.052-.047,0-.066.019-.066l.411.052.4,1.433c.047.177.08.3.2.384,0,.017,0,.063-.022.063l-.552-.075m-.552-.941.489.022-.182-.585Z" transform="translate(-61.808 -71.145)"/><path class="n" d="M86.154,98.137l.414.05.375,1.41a.607.607,0,0,0,.21.4h0l-.535-.066h0c.135-.041.116-.075.069-.276l-.091-.389-.66-.083-.185.353c-.072.138-.1.213.022.276h0l-.48-.058h0c.16-.058.224-.2.3-.34l.571-1.035c.05-.091.113-.193,0-.248h0m.386.941-.171-.69-.342.624.513.066m-.386-1a.061.061,0,0,0-.058.05h0a.058.058,0,0,0,.033.063.08.08,0,0,1,.033.025.4.4,0,0,1-.044.13l-.58,1.043-.019.036c-.066.127-.124.232-.248.276a.063.063,0,0,0-.041.05c0,.033.019.072.052.072l.48.063h0a.064.064,0,0,0,.063-.052.074.074,0,0,0-.03-.066c-.05-.03-.05-.047-.05-.055a.386.386,0,0,1,.055-.141l.163-.317.577.075.086.345V99.7a.478.478,0,0,1,.022.13l-.061.028a.061.061,0,0,0-.044.052.064.064,0,0,0,.052.072l.533.069h0A.063.063,0,0,0,87.2,100a.066.066,0,0,0-.025-.063A.519.519,0,0,1,87,99.606v-.041l-.373-1.41a.072.072,0,0,0-.052-.044l-.414-.05h0m-.033.886.224-.411.113.455Z" transform="translate(-61.712 -70.993)"/><path class="p" d="M92.624,100.675s-.017-.063,0-.066c.1-.033.11-.182.119-.276l.058-1.027c0-.152.022-.3-.08-.339,0-.019,0-.066.014-.066l.505.028s.017.063,0,.069c-.1.03-.11.179-.116.293l-.069,1.181.406.017a.64.64,0,0,0,.378-.13.08.08,0,0,1,.039,0s.019.017,0,.028l-.155.339a.033.033,0,0,1-.03.019l-1.082-.063" transform="translate(-67.048 -71.601)"/><path class="n" d="M92.573,98.761l.5.03h0c-.138.044-.132.237-.138.356l-.069,1.145.359.044a.35.35,0,0,0,.075,0,.643.643,0,0,0,.4-.138h0l-.157.342-1.079-.063h0c.135-.039.132-.232.141-.353l.058-.991c0-.121.033-.312-.1-.367h0m0-.061a.063.063,0,0,0-.061.055h0a.064.064,0,0,0,.036.061c.075.03.075.144.064.276v.033l-.055.994v.017c0,.124,0,.24-.094.276a.066.066,0,0,0-.044.055.072.072,0,0,0,.058.072l1.079.063h0a.064.064,0,0,0,.055-.036l.157-.34a.061.061,0,0,0-.052-.088h0a.091.091,0,0,0-.041,0,.574.574,0,0,1-.364.127.3.3,0,0,1-.069,0l-.3-.033.066-1.1V99.1c0-.132,0-.243.091-.276a.055.055,0,0,0,.041-.052.1.1,0,0,0,0-.047.061.061,0,0,0-.041-.022l-.5-.03h0" transform="translate(-66.903 -71.434)"/><path class="p" d="M97.974,100.844s-.022-.061,0-.063c.1-.039.1-.19.1-.3v-1.03c0-.155,0-.3-.094-.334V99.05h.5s.022.061,0,.066c-.1.039-.1.188-.1.3v1.03c0,.144,0,.3.1.334v.036a.053.053,0,0,0,0,.028Z" transform="translate(-70.924 -71.71)"/><path class="n" d="M97.855,99.008h.5c-.132.05-.119.246-.119.362v.994c0,.119,0,.309.116.362h-.511c.132-.05.116-.246.116-.362V99.37c0-.119.019-.312-.113-.362h0m0-.058a.061.061,0,0,0-.063.058h0a.061.061,0,0,0,.041.055c.075.028.08.135.077.276v1.071c0,.127,0,.24-.077.276a.061.061,0,0,0-.039.058.069.069,0,0,0,.061.066h.5a.058.058,0,0,0,.058-.055.063.063,0,0,0-.036-.066c-.075-.033-.077-.144-.077-.276V99.35c0-.13,0-.246.077-.276a.055.055,0,0,0,.039-.055.063.063,0,0,0-.058-.069Z" transform="translate(-70.791 -71.637)"/><path class="p" d="M100.651,100.254a.041.041,0,0,1-.019,0h0a.588.588,0,0,0,0-.422l-.276-1.192c-.022-.1-.041-.163-.094-.163h-.072l.348-.276,1.256.773a.663.663,0,0,0,.362.163h.061l-.447.353s-.052-.036-.047-.047c.055-.091.05-.091-.088-.188l-.353-.24-.516.373.113.353c.033.133.052.177.113.177h.08l-.406.32h0m.083-1.1.381-.312-.527-.315Z" transform="translate(-72.535 -71.094)"/><path class="n" d="M100.478,98.024l1.215.8a.717.717,0,0,0,.375.166h.05l-.444.306h0c.072-.119.039-.133-.124-.246l-.326-.226-.552.378.1.384c.033.127.058.2.144.2h.055l-.4.276h0a.552.552,0,0,0,0-.447l-.259-1.157c-.019-.086-.039-.188-.124-.188h-.047l.342-.237m.144.98.431-.3-.591-.4.16.7m-.144-1.041a.077.077,0,0,0-.036,0l-.34.237a.055.055,0,0,0-.017.083.072.072,0,0,0,.058.033h.041c.028,0,.044.039.063.124l.276,1.168v.039a.483.483,0,0,1,0,.373.061.061,0,0,0,0,.061.069.069,0,0,0,.058.03.064.064,0,0,0,.03,0l.4-.276a.05.05,0,0,0,.025-.039.061.061,0,0,0,0-.044.069.069,0,0,0-.058-.03h-.039c-.033,0-.052-.017-.086-.155l-.086-.345.478-.328.293.2.028.019a.513.513,0,0,1,.108.083l-.03.061a.063.063,0,0,0,0,.066.077.077,0,0,0,.058.03.063.063,0,0,0,.03,0l.444-.306a.055.055,0,0,0,.025-.036.066.066,0,0,0,0-.047.091.091,0,0,0-.058-.033H102.1a.552.552,0,0,1-.306-.13l-.036-.025-1.245-.809a.069.069,0,0,0-.033,0m.182.938-.1-.458.389.276Z" transform="translate(-72.453 -70.929)"/><path class="p" d="M104.927,95.224a.05.05,0,0,1-.019,0h0c.055-.163,0-.235-.088-.353l-.616-.864c-.077-.1-.13-.174-.243-.174h0a.167.167,0,0,1-.061,0l.309-.276.1.028.063.022,1.488.386-.627-.751c-.08-.108-.13-.177-.24-.177h-.058l.375-.326s.052.033.05.041c-.055.13,0,.2.083.32l.883,1.184a.351.351,0,0,1-.24.086.875.875,0,0,1-.276-.052l-1.408-.375.638.77c.083.11.132.177.246.177a.135.135,0,0,1,.063.014l-.378.326h0Z" transform="translate(-75.221 -67.141)"/><path class="n" d="M105.193,92.713h0c-.066.144,0,.226.086.345l.881,1.184a.643.643,0,0,1-.213.039.975.975,0,0,1-.276-.05l-1.4-.359.6.828c.083.108.138.193.276.193h.041l-.373.276h0c.064-.149,0-.232-.086-.353l-.629-.828c-.08-.11-.138-.188-.276-.188h-.041l.309-.229h0a.149.149,0,0,0,.072.03l.058.019,1.5.4-.6-.8c-.08-.108-.138-.185-.276-.185h-.044l.373-.276m0-.058a.055.055,0,0,0-.03,0l-.375.276a.063.063,0,0,0,0,.086.074.074,0,0,0,.055.03h.041c.091,0,.133.052.21.157l.491.621-1.333-.356-.058-.019a.1.1,0,0,1-.052-.019.041.041,0,0,0-.028,0h0a.08.08,0,0,0-.039,0l-.309.229a.061.061,0,0,0,0,.083.069.069,0,0,0,.052.03h.041c.094,0,.138.055.218.163l.627.845c.094.124.127.179.08.29a.057.057,0,0,0,.044.088h0a.053.053,0,0,0,.036,0l.37-.276a.061.061,0,0,0,.017-.083.074.074,0,0,0-.055-.033h-.036c-.1,0-.138-.047-.218-.16l-.511-.685,1.239.337a1.137,1.137,0,0,0,.293.05.749.749,0,0,0,.232-.041.055.055,0,0,0,.039-.039.052.052,0,0,0,0-.052l-.894-1.179c-.094-.124-.127-.179-.08-.276a.061.061,0,0,0,0-.061.072.072,0,0,0-.055-.028" transform="translate(-75.106 -67.098)"/><path class="p" d="M111.4,92.849a.022.022,0,0,1-.019,0h0a.593.593,0,0,0,0-.42l-.276-1.2c-.022-.1-.041-.166-.1-.166h-.069l.348-.276,1.245.809a.654.654,0,0,0,.362.163h.063l-.45.351s-.055-.036-.047-.047c.052-.086.05-.088-.086-.185l-.356-.246-.516.373.108.351c.036.132.052.179.113.179h.061a.094.094,0,0,1,.047,0l-.406.32H111.4m.088-1.1.384-.312-.527-.317Z" transform="translate(-80.318 -65.729)"/><path class="n" d="M111.249,90.636l1.212.809a.671.671,0,0,0,.378.168h.044l-.444.3h0c.075-.121.041-.132-.121-.246l-.328-.232-.552.362.094.386c.033.13.055.2.144.2a.188.188,0,0,0,.052,0h0l-.4.276h0a.618.618,0,0,0,0-.455l-.254-1.151c-.022-.088-.039-.19-.127-.19H110.9l.345-.235m.141.977.428-.276-.588-.406.16.7m-.141-1.041a.058.058,0,0,0-.033,0l-.342.232a.061.061,0,0,0-.017.086.074.074,0,0,0,.055.033h.041c.03,0,.044.039.063.13l.257,1.165v.041a.489.489,0,0,1,0,.37.058.058,0,0,0,0,.061.069.069,0,0,0,.039.03h0a.058.058,0,0,0,.033,0l.4-.276a.055.055,0,0,0,.019-.08.08.08,0,0,0-.058-.033h0a.108.108,0,0,1-.039,0c-.036,0-.052,0-.086-.155l-.086-.348.5-.315.293.2.03.019c.044.036.1.069.1.083s0,.014-.03.063a.072.072,0,0,0,0,.066.075.075,0,0,0,.086.022l.447-.3a.058.058,0,0,0,.017-.083.075.075,0,0,0-.055-.033h-.044a.535.535,0,0,1-.309-.135l-.036-.022-1.209-.809a.058.058,0,0,0-.036,0m.193.93-.1-.461.386.276Z" transform="translate(-80.246 -65.578)"/><path class="q" d="M84.176,93.751h-.3a25.278,25.278,0,0,1-2.942-.5c.428-.2.138-.119.914-.141a18.069,18.069,0,0,0,1.844-.317l.091.466Z" transform="translate(-58.592 -67.177)"/><path class="q" d="M47.177,93.7a6.476,6.476,0,0,0,1.808-.356,7.839,7.839,0,0,1,1.863-.37c.116,0-.552-.215-.936-.409a6.2,6.2,0,0,0-2.291-.166A4.969,4.969,0,0,1,47,93.542c.052.055.166.16.166.16" transform="translate(-34.027 -66.87)"/><path class="k" d="M30.943,14.75A8.134,8.134,0,0,0,29.1,16.682a19.791,19.791,0,0,0-2.346,4.069,9.385,9.385,0,0,0-.85,3.922,23.35,23.35,0,0,0,.213,2.567c0,.317.19.42.276.621s.406,1.019.478,1.231a9.131,9.131,0,0,0,1.223,1.83,8.443,8.443,0,0,1,1.485,2.183c.2.6.127,1.068.353,1.408a5.817,5.817,0,0,0,.616.731s0,.345.48.276a22.08,22.08,0,0,0,2.68,1.64,8.557,8.557,0,0,1,1.675-.359,7.176,7.176,0,0,1-1.537-1c-.32-.276-.3-.464-.665-.486s-.276.334-.276.334-.776-.5-1.065-.74a3.9,3.9,0,0,1-1.22-1.38,2.44,2.44,0,0,1-.384-1.537c.011-.218-.1-.251-.188-.251a.276.276,0,0,0-.215.2c-.218-.257-.522-.789-.952-1.336a15.423,15.423,0,0,1-1.5-2.081,7.544,7.544,0,0,1-.927-3.149,8.25,8.25,0,0,1,.552-4.262,13.187,13.187,0,0,1,1.761-3.29c.77-.977,2.172-3.058,2.172-3.058" transform="translate(-18.754 -10.678)"/><path class="r" d="M30.289,66.966a.58.58,0,0,0,0-.384c-.083-.149-.337-.3-.337-.414s-.028-.108,0-.177a.315.315,0,0,1,.2-.146.05.05,0,0,0,.036-.058c-.08-.1-.157-.2-.235-.3-.146-.041-.607-.124-.643-.055a.527.527,0,0,1-.135.149,2.815,2.815,0,0,0-.32-.845,1.352,1.352,0,0,0-.414-.483c.11.276.224.552.276.682a9.109,9.109,0,0,0,1.217,1.827,8.374,8.374,0,0,1,1.485,2.183,6.348,6.348,0,0,1,.24,1.007,1.894,1.894,0,0,1,.5.378,10.663,10.663,0,0,0-.925-2.123,8.34,8.34,0,0,0-.936-1.239" transform="translate(-20.59 -46.515)"/><path class="r" d="M26.2,55.574c0,.317.19.422.276.624l.121.309a1.587,1.587,0,0,0-.185-.618.9.9,0,0,1-.163-.773,3.169,3.169,0,0,0-.2-1.2c0-.039-.025-.039-.039-.017.063.729.188,1.446.188,1.656" transform="translate(-18.831 -39.012)"/><path class="i" d="M108.236,52.686a2.1,2.1,0,0,1-.025-.326c0-.171-.127-.4-.075-.552a.516.516,0,0,1,.328-.254c.072,0,.066.019.116.061a1.1,1.1,0,0,0,.243.2c.13.066.094.061.276-.041a.864.864,0,0,0,.552-.7,3.55,3.55,0,0,1,.047-.475c.028-.1-.014-.392.1-.464s.21.1.3.146c.232.116.215-.276.4-.317.124-.025.166.091.276,0s.334-.5.444-.174c.033.1-.028.2-.028.3a.514.514,0,0,0,.077.276.472.472,0,0,1,.086.3c0,.121-.072.155-.124.276-.03.063-.05.061,0,.121s.083.017.146.052a.276.276,0,0,1,.1.276,1.041,1.041,0,0,1-.3.533c-.052.055-.2.144-.1.226s.19-.019.243.135c.075.237-.127.461-.276.6a2.131,2.131,0,0,1-.776.342,3.036,3.036,0,0,1-.856.044,3.5,3.5,0,0,1-.66-.033.621.621,0,0,1-.5-.53" transform="translate(-78.279 -35.953)"/><path class="s" d="M108.595,54.135a1.8,1.8,0,0,1-.025-.436,1.5,1.5,0,0,1,.132-.359c.091-.166.213-.132.373-.13.229,0,.491-.323.613-.516a7.69,7.69,0,0,0,.367-1c.063-.132.088-.276.218-.2.276.152.207.475.2.712,0,.3-.058.613-.075.916,0,.19-.044.276.171.215a.439.439,0,0,1,.516.127c.086.119.1.246.276.218.11-.017.276-.08.224.108a.685.685,0,0,1-.237.331,1.733,1.733,0,0,1-1,.395,3.937,3.937,0,0,1-1.248-.251,2.665,2.665,0,0,1-.464-.108Z" transform="translate(-78.6 -37.267)"/><path class="g" d="M96.96,51.227c-.058.113-.063.163-.19.2s-.218.025-.312.121a.618.618,0,0,0-.108.607c.083.248.359.317.466.53a1.256,1.256,0,0,1,.088.679,2.029,2.029,0,0,1-.036.731c-.1.207-.384-.088-.533.135a.243.243,0,0,0,.025.276.384.384,0,0,1,.055.326c-.036.182-.069.32.088.444a2.03,2.03,0,0,0,.389.21c.166.083.144.21.224.334s.569.207.478.453c-.052.138-.188.05-.3.047s-.171.066-.19.19.036.141.121.224.127.174.2.246a.657.657,0,0,0,.2.094c.086.041.086.094.171.152.229.149.409-.3.533-.422a1.38,1.38,0,0,0,.342-.491,4.216,4.216,0,0,1,.182-.461c.1-.177.342-.317.4-.513a1.468,1.468,0,0,0,0-.466.853.853,0,0,1,.036-.4.919.919,0,0,0,.1-.323.37.37,0,0,0-.1-.276c-.086-.066-.218,0-.3-.044-.166-.083-.2-.472-.45-.337-.083.044-.182.215-.3.132s.025-.232.033-.323c.022-.179-.116-.276-.16-.436a.464.464,0,0,1,.03-.259,2.146,2.146,0,0,0,.047-.276c.033-.215.141-.409.16-.629a.453.453,0,0,0-.141-.3.552.552,0,0,1-.086-.375c0-.083.014-.248-.086-.276s-.119.11-.152.179-.088.215-.19.155-.146-.182-.193-.246c-.1-.132-.276-.2-.392-.058s-.077.3-.146.439" transform="translate(-69.723 -36.703)"/><path class="t" d="M101.2,63.495a5.041,5.041,0,0,0-.061-.941,5.1,5.1,0,0,1-.737-.08c-.055-.028-.019-.088.3-.08a1.118,1.118,0,0,0,.392-.028s-.2-.933-.276-1.173a1.14,1.14,0,0,1-.075-.389s.044-.276.083-.041a6.532,6.532,0,0,0,.179.662c.036.144.063.224.108.08s.16-.24.124-.108a1.717,1.717,0,0,0-.116.442c0,.124.144.552.144.687.127-.036.2-.028.276-.132s.1,0,.017.088a1.592,1.592,0,0,1-.276.179,6.186,6.186,0,0,0,.028.635c0,.188-.119.2-.119.2" transform="translate(-72.675 -43.921)"/><path class="u" d="M80.93,44.372l.709-.4s-.1-.552.276-.759.657-.193.828.2a10.991,10.991,0,0,0,1.468-1.019,2.76,2.76,0,0,0,.693-1.126c.163-.42.453-.972.453-.972a8.03,8.03,0,0,1-.083-.828.243.243,0,0,1,.276-.21c.146.017.259.066.276.259.276-.323.7-.972.969-1.358s1.306-1.529,1.515-1.882A16.285,16.285,0,0,0,89,34.438a3.721,3.721,0,0,0,.226-1.612c-.063-.5-.1-1.317-.207-2a3.312,3.312,0,0,0-.373-1.032c-.05-.2-.248-.039-.248-.213s.182-.177.119-.417-.367-1.027-.53-1.477-.74-1.786-.8-2,.337-.687.513-.174.759,2.112.911,2.388a6.186,6.186,0,0,1,.577,1.515,1.7,1.7,0,0,0,.276.784c.072.127.2.177.213.378a2.161,2.161,0,0,0,.047.671c.088.276.309.121.364.439a2.428,2.428,0,0,1,.025.552,3.136,3.136,0,0,1,.124,1.413,9.6,9.6,0,0,1-1.656,3.412A17.665,17.665,0,0,1,87.5,38.479c-.063.088-.063.386-.276.588s-.3.135-.464.4a5.764,5.764,0,0,0-.737,1.626,6.484,6.484,0,0,0,.95-1.212c.149-.251.5-.734.577-.9a4.208,4.208,0,0,1,.276-.687c.138-.213.276-.05.475-.3s.055-.8.055-.8l.3-.524.326.911a13.351,13.351,0,0,1-.776,1.4c-.149.138-.251.213-.326.3s0,.326-.113.5-.32.48-.428.651-.348.411-.444.588a5.777,5.777,0,0,1-.527.662c-.24.276-.392.317-.472.571a1.085,1.085,0,0,1-.453.69,3.448,3.448,0,0,1-.8.524,5.861,5.861,0,0,0-.7.475,3.45,3.45,0,0,0-.69.511c-.248.276-.312.276-.312.276a14.773,14.773,0,0,1-2-.353" transform="translate(-58.592 -18.304)"/><path class="s" d="M99.494,56s.224.2.328.312a.384.384,0,0,1,.075.431,1.474,1.474,0,0,0-.083.552.629.629,0,0,1-.144.552c-.16.124-.052.251-.224.259a1.272,1.272,0,0,1-.337-.036l.05-1.353Z" transform="translate(-71.753 -40.542)"/><path class="v" d="M96.763,56.564c.235.055.276.138.491,0,.127-.083.025-.3.155-.48s-.05-.224-.1-.342.16-.494.224-.69.025-.627-.276-.731-.221.34-.6.157a.447.447,0,0,1-.2-.478.649.649,0,0,0-.066.552c.086.248.359.317.466.53a1.256,1.256,0,0,1,.088.679,2.03,2.03,0,0,1-.036.723.127.127,0,0,1-.138.077" transform="translate(-69.754 -39.094)"/><path class="w" d="M87.36,87.25c-.155,0-.069.121-.1.276s-.135.1-.306.1-.155.1-.24.207a.419.419,0,0,1-.34.174c-.1-.017-.155-.052-.155.086s-.017.207-.119.19a.312.312,0,0,0-.276.135c-.069.086-.138.171-.257.171a.709.709,0,0,0-.293.1c-.086.036-.224.017-.293.155s-.083.188-.188.171-.177-.224-.367-.431a.585.585,0,0,1-.847.276c-.1-.077-.119-.055-.116-.019s.552.6.552.6l-.127.025c.475.075.869.116.869.116s.063,0,.312-.276a3.535,3.535,0,0,1,.687-.511,6.213,6.213,0,0,1,.7-.475,3.6,3.6,0,0,0,.8-.524,1.1,1.1,0,0,0,.4-.511,1.484,1.484,0,0,0-.3-.041" transform="translate(-60.423 -63.167)"/><path class="w" d="M99.193,77.089c-.039,0-.149.135-.171.166s-.121.086-.226.19-.24.293-.342.414-.171.1-.309.05-.066-.24.036-.428a1.357,1.357,0,0,0,.072-.174l-.119.127a5.84,5.84,0,0,1,.737-1.629.754.754,0,0,1,.32-.293c-.075,0-.1-.066-.168,0s-.036.138-.155.226a2.638,2.638,0,0,0-.552.77c-.1.259-.345.809-.428,1.049s-.155.566-.207.72.088.24.24.276a.11.11,0,0,1,.077.052h0c.08-.254.235-.3.475-.571a5.124,5.124,0,0,0,.522-.665c.022-.036.168-.226.2-.276" transform="translate(-70.711 -54.648)"/><path class="x" d="M106.7,33.575a2.427,2.427,0,0,0-.025-.552c-.055-.317-.276-.174-.364-.439a2.173,2.173,0,0,1-.047-.673c-.014-.2-.141-.248-.215-.375a1.767,1.767,0,0,1-.276-.787,6.145,6.145,0,0,0-.574-1.513c-.124-.232-.552-1.38-.8-2.065a.7.7,0,0,0-.2-.041.588.588,0,0,0-.3.221c.193.486.552,1.33.676,1.673.163.45.466,1.234.533,1.477s-.119.24-.119.417.2.017.246.213a4.265,4.265,0,0,1,.306.8,2,2,0,0,1,.425-.017c.138.017.174.1.174.293a1.41,1.41,0,0,0,.1.431,2.93,2.93,0,0,1,.069.552c0,.155.2.411.224.552a1.38,1.38,0,0,1-.069.585,3.619,3.619,0,0,0-.119.585,2.324,2.324,0,0,0-.019.616,1.305,1.305,0,0,1-.121.466,4.993,4.993,0,0,1-.188.552c-.069.138-.362.588-.651.414a.226.226,0,0,0-.224,0,4.029,4.029,0,0,1-.276.627,12.621,12.621,0,0,1-.8,1.01h.025c.359-.019.323.428.306.616a1.079,1.079,0,0,1-.323.5c-.088.083-.088.221-.138.378a1.778,1.778,0,0,1-.1.237,1.9,1.9,0,0,0,.229-.527c.058-.075.381-.425.875-1.1v.163a4.788,4.788,0,0,1,.373-.527l-.047-.13a9.124,9.124,0,0,0,1.524-3.224,3.047,3.047,0,0,0-.124-1.413" transform="translate(-75.178 -19.641)"/><path class="w" d="M105.385,72.1a1.75,1.75,0,0,0-.185.442,1.934,1.934,0,0,0,.113-.177,4.138,4.138,0,0,1,.243-.378.254.254,0,0,0-.171.124" transform="translate(-76.163 -52.119)"/><path class="w" d="M103.191,77.056c-.086-.05-.1-.177-.135-.306-.091.135-.182.276-.246.375,0,.152.1.069.259.1s.207-.119.121-.171" transform="translate(-74.432 -55.565)"/><path class="v" d="M95.7,12.549l-.2-.381-.472-.789-.417-.707-.574-.69-.516-.662-.511-.593-.259-.276c-.047.069-.03.174-.05.276a2.808,2.808,0,0,0-.127.4c-.014.174.066.246.149.378a.3.3,0,0,1-.061.389.552.552,0,0,0-.24.375.378.378,0,0,0,.108.353c.229.166.58.141.767.384.1.132,0,.237-.116.306s-.174.1-.262.149a.6.6,0,0,0-.2.113c-.121.135,0,.3.149.348a2,2,0,0,1,.229.094,1.121,1.121,0,0,0,.232.05.828.828,0,0,1,.323.1c.05.039.069.119.108.168.229.293.649.257.977.276a.42.42,0,0,1,.254.052c.163.141-.072.248-.127.34-.1.185.248.207.353.226a.648.648,0,0,0,.259.05.607.607,0,0,0,.177-.094c.086-.05.168-.058.248-.1Z" transform="translate(-66.909 -6.117)"/><path class="y" d="M93.978,8.816l.7.905a1.824,1.824,0,0,0-.552.047.892.892,0,0,1,.69.224,7.177,7.177,0,0,1,.552.651,3.941,3.941,0,0,1,.276.328,3.453,3.453,0,0,0-.941,0,2.142,2.142,0,0,1,1.032.207c.2.152.218.331.356.524a3.122,3.122,0,0,1,.276.48s-.552-.028-.718-.028.13.066.276.08.326.039.42.05.168,0,.221.132.2.466.2.466.3.174-.017-.4-.613-.966-.651-1.1.119-.13.2-.276a.93.93,0,0,0,.039-.469,1.06,1.06,0,0,1,.025-.259,1.776,1.776,0,0,0-.1.442c0,.21-.077.276-.166.276s-.16-.044-.315-.257-.248-.251-.276-.356a4.8,4.8,0,0,1,0-.654s-.052.6-.144.552-.168-.276-.337-.417-.124-.276-.141-.491,0-.138-.052.072-.108.041-.276-.179a4.829,4.829,0,0,0-.574-.552" transform="translate(-68.032 -6.378)"/><path class="z" d="M104.029,20.906c.086.257.351.359.508.585s.362.359.522.552c.108.135.395.375.276.577-.052.1-.213.116-.276.215a.977.977,0,0,0-.077.386c0,.317.312.364.491.552.083.086.1.132.226.174a.685.685,0,0,1,.3.11c.19.2-.259.312-.072.552.124.155.478.174.552.375.039.113-.088.171-.113.262a.243.243,0,0,0,.108.276.569.569,0,0,1,.155.571c-.033.121-.342.356-.218.524.041.055.207.058.276.03s.088-.185.108-.276a1.933,1.933,0,0,1,.168-.489c.066-.135.149-.276.21-.4a2.252,2.252,0,0,0,.061-.331,2.719,2.719,0,0,1,.334-.577,1.1,1.1,0,0,0,.141-.635c-.083-.315-.431.028-.475-.174-.028-.141.146-.306.215-.411a.9.9,0,0,0,.16-.453,1.435,1.435,0,0,0-.061-.618c-.044-.1-.066-.2-.19-.193s-.138.108-.179.21-.166.433-.373.392-.058-.276,0-.364a1.4,1.4,0,0,0,.2-.552c0-.1.017-.2.025-.3.03-.3-.19-.524-.213-.809,0-.1-.055-.7-.262-.453-.052.063-.025.221-.138.254s-.146-.119-.138-.21a2.516,2.516,0,0,0,.066-.629.828.828,0,0,0-.13-.276c-.077-.119-.185-.224-.257-.353s-.08-.221-.224-.146c-.091.047-.16.146-.276.075s-.091-.2-.091-.3c0-.29-.1-.328-.337-.439-.094-.044-.364-.348-.489-.276s.05.433,0,.58c-.039.094-.124.108-.2.155a.69.69,0,0,0-.177.229,1.616,1.616,0,0,0-.389.911,4.629,4.629,0,0,0,.276,1.1" transform="translate(-75.13 -12.959)"/><path class="i" d="M111.1,25.05s.075.422-.21.585c-.345.2-.028.533.13.809a4.565,4.565,0,0,1,.276.6.828.828,0,0,0,.34-.679c-.025-.552-.378-.533-.533-1.317" transform="translate(-80.173 -18.135)"/><path class="i" d="M115.08,39.83s.433-.486.552-.5.168,0,0,.243a4.328,4.328,0,0,0-.331.767,1.082,1.082,0,0,1-.221.353,3.808,3.808,0,0,0,0-.861" transform="translate(-83.315 -28.469)"/><path class="i" d="M114.23,36.111a5.794,5.794,0,0,0,.6-.861c0,.381-.039.433-.455,1.071a.323.323,0,0,0-.144-.21" transform="translate(-82.7 -25.52)"/><path class="i" d="M106.257,18.21a2.484,2.484,0,0,0,.306.936,1.856,1.856,0,0,1,.389,1.134c-.433-.34-.64-.654-.809-.7s.127-.16-.025-.444c-.1-.2-.028-.21.075-.237.166-.041,0-.345.063-.685" transform="translate(-76.792 -13.183)"/><path class="i" d="M106.258,26.543a2.8,2.8,0,0,1-.776-.345l-.041-.3a2.28,2.28,0,0,0,.718.328,10.677,10.677,0,0,1-.64-1.344c-.21-.4-.552-.406-.743-.552a2.645,2.645,0,0,1-.516-.629c.127.754-.433.094-.433.094l-.066.353a5.578,5.578,0,0,0,.276.955c.083.257.351.359.508.585s.362.359.522.552c.108.135.395.375.276.577-.055.1-.21.116-.276.213l.541.342a2,2,0,0,1,.651.591c.091.182.1.2-.221.063-.552-.24-.072-.083-.168.182a.337.337,0,0,1,.135.072c.19.2-.276.312-.072.552.127.155.478.174.552.375.039.113-.088.171-.113.262a.315.315,0,0,0,.108.276.552.552,0,0,1,.177.411h.025a7,7,0,0,0-.417-3.588" transform="translate(-75.12 -17.158)"/><path class="g" d="M19.624,52.43c-.185.066-.066.6-.066.85a5.244,5.244,0,0,0,.166,2.134,7.549,7.549,0,0,0,.966,2.081,24.74,24.74,0,0,0,1.656,2.12c.215.2.444.447.657.624s.425.375.552.461a1.143,1.143,0,0,0,.425.127c.077,0,.152-.248-.088-.315s-.348-.11-.552-.461-.414-.856-.6-1.2a3.158,3.158,0,0,1-.328-1.261,9.852,9.852,0,0,0-.864-2.277,8.717,8.717,0,0,0-.847-1.548c-.163-.276-.538-.85-.665-1.063s-.21-.342-.411-.276" transform="translate(-14.128 -37.941)"/><path class="aa" d="M23.84,18.347c-.215-.088-.627.5-.963.988A11.51,11.51,0,0,0,21.552,22.4a11,11,0,0,0-.149,3.486,2.978,2.978,0,0,0,.665,1.863c.386.425.552-.188.323-.163s-.3-.025-.309-.337a8.833,8.833,0,0,1,.475-2.065c.276-.911.61-2.186.961-3.7s.687-2.987.326-3.136" transform="translate(-15.443 -13.276)"/><path class="ab" d="M31.322,7.007c-.2-.1-.613.276-1.364,1.126a14.729,14.729,0,0,0-1.786,3.136c-.34.723-.676,1.775-.861,2.225s-.538,1.675-.364,1.452.535-.889.787-1.314,1.063-1.449,1.488-2.048A23.088,23.088,0,0,0,30.709,9.1c.362-.737.875-1.951.613-2.087" transform="translate(-19.475 -5.061)"/><path class="e" d="M46.132.034c-.08-.1-.483.036-.665.1s-.433.248-.751.364a5.521,5.521,0,0,0-1.617.878A14.225,14.225,0,0,0,41.4,3a15.938,15.938,0,0,0-1.488,1.651c-.072.121-.055.312.3.088s2.738-1.866,3.459-2.3a6.887,6.887,0,0,0,2.048-1.43c.431-.6.544-.8.417-.972" transform="translate(-28.87 0.002)"/><path class="ac" d="M31.878,9.82a27.264,27.264,0,0,0-1.827,2.708,27.5,27.5,0,0,0-1.615,3.086l-.036.254s.933-1.932,1.573-2.976,1.9-3.072,1.9-3.072" transform="translate(-20.561 -7.109)"/><path class="ad" d="M23.881,60.512c-.235-.061-.348-.11-.552-.461s-.414-.85-.6-1.2a3.158,3.158,0,0,1-.323-1.261,9.878,9.878,0,0,0-.864-2.274,8.556,8.556,0,0,0-.847-1.551c-.163-.276-.552-.85-.665-1.063s-.21-.342-.409-.276-.069.6-.069.85a5.311,5.311,0,0,0,.166,2.134,7.433,7.433,0,0,0,.969,2.084c.066.116.276.406.53.734h0a3.732,3.732,0,0,0,.789.729.583.583,0,0,0-.113-.19c-.061-.063-.276-.428-.276-.428l-.163-.177h.1s-.773-1.656-1.082-2.584a26.7,26.7,0,0,1-.828-3.058,38.938,38.938,0,0,0,1.524,4.469,15.313,15.313,0,0,0,1.791,3.006c.417.491.729.629.809.792.091.022.177.033.218.041a.181.181,0,0,0-.088-.315" transform="translate(-14.124 -37.941)"/><path class="g" d="M45.422,1.887A10.014,10.014,0,0,0,42.469,3.3c-1.424,1.007-1.675,1.17-1.675,1.17a12.5,12.5,0,0,0,.955-.894,5.94,5.94,0,0,1,1.035-.905c.276-.177,1.223-.77,1.223-.77s-1.041.544-1.248.679a5.211,5.211,0,0,0-.828.643.668.668,0,0,1-.132.1,7.986,7.986,0,0,1,2.713-2.156A2.9,2.9,0,0,0,45.34.75a4.717,4.717,0,0,1-.6.3,5.413,5.413,0,0,0-1.617.878,13.29,13.29,0,0,0-1.7,1.615,16.672,16.672,0,0,0-1.482,1.656c-.069.121-.052.315.3.088s2.73-1.869,3.447-2.3a11.216,11.216,0,0,0,1.739-1.1" transform="translate(-28.889 -0.542)"/><path class="ab" d="M48.034,4.491c0-.166-1.132-.1-3.166,1.03A8.485,8.485,0,0,0,41.962,8.19c-.166.152,1.1-.483,2.15-.883a14.6,14.6,0,0,0,2.6-1.435c.7-.431,1.317-1.082,1.333-1.38" transform="translate(-30.369 -3.202)"/><path class="ac" d="M49.078,6.33A29.415,29.415,0,0,1,45.07,8.869c1.27-.442,3.69-1.9,4.008-2.539" transform="translate(-32.63 -4.582)"/><path class="ad" d="M36.865,12.679c-.248-.063-.969.618-1.452,1.336s-1.151,1.615-1.353,1.932a3.016,3.016,0,0,0-.6,1.234c0,.384-.516.665-.351,1.733s2.032-2.266,2.8-3.149A4.692,4.692,0,0,0,37,13.529c.083-.466.116-.781-.132-.85" transform="translate(-23.95 -9.176)"/><path class="e" d="M23.418,27.688c-.24.025-.3-.025-.315-.337a9.255,9.255,0,0,1,.475-2.065c.29-.911.613-2.186.963-3.7.334-1.438.654-2.843.373-3.105a16.194,16.194,0,0,0-2.164,8.452v.392a2.178,2.178,0,0,0,.345.527c.386.425.552-.188.326-.163" transform="translate(-16.471 -13.379)"/><path class="g" d="M22.283,25.89a12.608,12.608,0,0,0-.729,1.963,11.108,11.108,0,0,0-.149,3.489,2.978,2.978,0,0,0,.665,1.874.588.588,0,0,0,.11.1c.03-.2-.171-.306-.218-.4s-.193-.135-.13-.351-.039-.3-.039-.574a24.933,24.933,0,0,1,.417-3.793,17.79,17.79,0,0,0-.505,3.4c0,.3-.039.491-.063.417a3.555,3.555,0,0,1-.088-.77c0-.326-.066-.756-.066-.922a7.4,7.4,0,0,1,.179-2.484,14.825,14.825,0,0,1,.629-1.932" transform="translate(-15.446 -18.743)"/><path class="g" d="M34.2,18.033l-.141.213a3.057,3.057,0,0,0-.6,1.234c0,.384-.519.665-.351,1.733a.409.409,0,0,0,.232-.179c.276-.353,1.824-2.73,1.874-2.78s.254-.406.025-.276-.138,0-.025-.215a12.913,12.913,0,0,0,1.019-1.913s-.29.527-1.079,1.656-.933,1.248-1.17,1.587-.215-.248-.022-.5a1.573,1.573,0,0,0,.237-.571" transform="translate(-23.948 -11.474)"/><path class="aa" d="M27.555,31.091c-.1.251-.1.381-.19.483s-.086.207.019.257.138-.05.224-.276a3.616,3.616,0,0,1,.585-.95c.224-.24.947-1.308,1.446-2a9.531,9.531,0,0,0,1.259-2.4c.276-.828.566-1.882.3-2.117s-1.449,1.518-1.932,2.269a10.19,10.19,0,0,0-1.145,2.3c-.251.778-.317,1.871-.552,2.437" transform="translate(-19.766 -17.427)"/><path class="e" d="M30.661,28.048c-.135-.1.276-1.148.276-1.148s-.66,1.165-.886,1.065c-.177-.086.436-.944.436-.944s-.767,1.068-.867,1.038.1-.34.259-.61c-.248.353-.478.7-.638.947A10.191,10.191,0,0,0,28.1,30.7c-.254.778-.317,1.869-.552,2.437-.1.251-.1.378-.19.483s-.086.207.019.259.138-.052.224-.293a3.544,3.544,0,0,1,.585-.95c.224-.24.947-1.306,1.446-2a9.686,9.686,0,0,0,1.259-2.4c.083-.248.168-.522.24-.784-.171.3-.389.649-.469.588" transform="translate(-19.759 -19.474)"/><path class="g" d="M34.811,28.218a8.31,8.31,0,0,0-.662,1.656,4.693,4.693,0,0,1-1.1,1.778,4.9,4.9,0,0,0,.276-.795,2.923,2.923,0,0,1-.458.883,5.4,5.4,0,0,0-.552,1.206c.3-.422.671-.958.963-1.366a9.617,9.617,0,0,0,1.261-2.393,8.888,8.888,0,0,0,.276-.977" transform="translate(-23.392 -20.423)"/><path class="g" d="M33.817,51.775c-.213.014-1.024.552-2.023,2.363a6.9,6.9,0,0,0-1,3.6,1.043,1.043,0,0,0,.323.6c.116.075.2,0,.127-.163a.72.72,0,0,1,0-.627c.113-.2.475-.9.635-1.148s.938-1.524,1.289-2.112a5.678,5.678,0,0,0,.665-1.353c.157-.505.2-1.179-.017-1.168" transform="translate(-22.284 -37.479)"/><path class="ad" d="M31.884,64.814c.022-.036.058-.088.1-.163a1.758,1.758,0,0,1-.182-.662,5.639,5.639,0,0,0-.784,1.963,4.345,4.345,0,0,1,.765-2.208V63.39a2.374,2.374,0,0,0-.607.61,5.521,5.521,0,0,0-.356,2.156,1.03,1.03,0,0,0,.323.6c.113.077.2,0,.124-.163a.731.731,0,0,1,0-.627c.113-.2.475-.9.638-1.148" transform="translate(-22.311 -45.892)"/><path class="g" d="M39.428,55.948c-.113-.121-.538.315-1.088,1.35a10.2,10.2,0,0,0-.662,3.79c.063.29.687-1.2,1.038-1.775a5.675,5.675,0,0,0,.638-2c.11-.7.188-1.239.075-1.364" transform="translate(-27.269 -40.49)"/><path class="e" d="M38.754,57.414a3.779,3.779,0,0,1,.72-1.325.248.248,0,0,0-.047-.135c-.113-.127-.535.312-1.088,1.35a10.143,10.143,0,0,0-.662,3.787c.063.287.552-.869.9-1.532a17.251,17.251,0,0,1,.177-2.145" transform="translate(-27.269 -40.494)"/><path class="g" d="M36.488,49.779c-.163.028-.464.875-.577,1.551a29.209,29.209,0,0,0-.2,3.4c.041.433.179,2.023.251,2.31a6.933,6.933,0,0,1,.276,1.013c0,.213.025.4-.091.436s0,.166.116.138.174-.11.188-.312.061-.436.1-.737A9.432,9.432,0,0,1,36.8,56.2a8.2,8.2,0,0,0,.276-1.339,13.059,13.059,0,0,0,.11-2.926c-.11-1.612-.475-2.208-.685-2.161" transform="translate(-25.853 -36.032)"/><path class="ad" d="M37.163,51.955c-.113-1.612-.478-2.208-.687-2.161-.163.028-.464.875-.577,1.551a28.571,28.571,0,0,0-.2,3.4c.028.328.113,1.311.185,1.9.119.168.323.511.3.276a19.8,19.8,0,0,1,.05-1.979c.05-.632.163-2.672.163-2.672,0,.745,0,1.993-.05,3.517a5.137,5.137,0,0,0,.179,1.8h0a9,9,0,0,1,.248-1.38,8.146,8.146,0,0,0,.276-1.339,13.163,13.163,0,0,0,.113-2.915" transform="translate(-25.846 -36.047)"/><path class="ae" d="M57.3,107.066a.853.853,0,0,1,.629-.257c.127.05.03.207-.16.257a1.146,1.146,0,0,0-.552.323,1.292,1.292,0,0,1-.276.276c-.091.058-.185-.022-.066-.141s.276-.315.442-.455" transform="translate(-41.135 -77.327)"/><path class="r" d="M55.369,110.638c-.083.066-.185.152-.121.193s.113,0,.16-.055.1-.1.066-.138-.1,0-.1,0" transform="translate(-39.984 -80.088)"/><path class="ae" d="M83.78,107.311c-.061-.036-.166.036-.086.119a9.354,9.354,0,0,0,.867.685c.235.141.3.193.406.177s.3-.036.218-.116a2.322,2.322,0,0,0-.5-.276c-.276-.141-.773-.513-.908-.6" transform="translate(-60.572 -77.682)"/><path class="g" d="M103.02,76c.157.033.276-.041.146-.19a.467.467,0,0,1-.133-.442c.019-.246-.022-.276-.119-.276-.155,0-.1.152-.091.232.022.16.05.116.022.276s-.08.32.174.375" transform="translate(-74.43 -54.363)"/><path class="ae" d="M95.527,84.062c-.116.171-.254.2-.373.4a.439.439,0,0,0,0,.522c.1.149.254.055.276-.174s.138-.3.2-.431.121-.213.08-.317-.108-.1-.174,0" transform="translate(-68.828 -60.804)"/><path class="af" d="M47.638,89.136a4.544,4.544,0,0,1-.726-.375c0-.055.309-.215.309-.215l-.386-.213s0,.16-.2.16a.618.618,0,0,1-.511-.243c-.213-.146-.872-.682-1.071-.828S44.433,87,44.433,87s-.1.163-.174.163-.121,0,0,.116.765.511.872.6.025.177-.108.108-.657-.386-.657-.386.511.466.712.6,1.433.858,1.593.95a4.3,4.3,0,0,0,.442.2s.323-.16.524-.229" transform="translate(-31.99 -62.986)"/><path class="ae" d="M99.281,74.872a6.152,6.152,0,0,0-.872,1.571c-.044.4.108.215.149,0a3.156,3.156,0,0,1,.375-.828c.108-.163.334-.536.4-.657s.047-.237-.052-.1" transform="translate(-71.24 -54.15)"/><path class="ae" d="M104.252,70.406c-.041.132-.028.276.066.135s.132-.3.2-.4,0-.177-.08-.08a1.51,1.51,0,0,0-.188.345" transform="translate(-75.46 -50.689)"/><path class="ae" d="M50.787,112.257c-.033.113-.138.171-.458.146a1.479,1.479,0,0,1-.853-.45c-.146-.168-.138-.21-.381-.237s-.177-.11-.121-.157a.422.422,0,0,1,.4-.052,1.317,1.317,0,0,0,.472.119c.235.022,1.063.19.941.632" transform="translate(-35.418 -80.707)"/><path class="ae" d="M86.78,110.511c.088.091.061.237-.127.334s-.375.064-.519.2a1.518,1.518,0,0,1-.508.378.723.723,0,0,1-.593,0,.293.293,0,0,1,.121-.351,2.389,2.389,0,0,1,.414-.276c.155-.055.326-.069.527-.138s.224-.2.348-.226a.326.326,0,0,1,.337.083" transform="translate(-61.549 -79.941)"/><path class="ae" d="M111.007,55.354a8.1,8.1,0,0,1-.293,1.082c-.1.215.075.254.157.047a6.954,6.954,0,0,0,.254-1.054c.025-.193-.083-.276-.119-.075" transform="translate(-80.134 -39.991)"/><path class="w" d="M110.862,50.3c-.028.014-.055,0-.052.033a4.091,4.091,0,0,0,.055.472c.025.13-.036.276.108.276s.221-.061.246-.144-.058-.146-.144-.29a2.01,2.01,0,0,1-.152-.384c0-.019-.03.028-.061.039" transform="translate(-80.224 -36.389)"/><path class="w" d="M52.1,90.63a.5.5,0,0,1-.585.036c0,.08,0,.348.24.384s.428-.083.345-.42" transform="translate(-37.292 -65.614)"/><path class="ag" d="M87.443,90.7a.21.21,0,0,1-.11-.022.878.878,0,0,1-.254-.337.075.075,0,0,1,.144-.036.845.845,0,0,0,.188.243c.036.022.047.025.119-.058a.439.439,0,0,1,.11-.1.3.3,0,0,1,.135-.036.365.365,0,0,0,.063,0,.146.146,0,0,1,0-.022.221.221,0,0,1,.075-.066.312.312,0,0,1,.166-.019.226.226,0,0,0,.1,0,.737.737,0,0,0,.138-.132.618.618,0,0,1,.276-.215.162.162,0,0,0,0-.028.073.073,0,1,1,.146,0,.463.463,0,0,1,0,.066v.039a.069.069,0,0,1-.025.055.085.085,0,0,1-.061.017c-.058,0-.152.1-.221.171a.892.892,0,0,1-.179.166.342.342,0,0,1-.179.019.312.312,0,0,0-.091,0l-.014.025a.218.218,0,0,1-.075.066.323.323,0,0,1-.11.028.157.157,0,0,0-.075.017.553.553,0,0,0-.072.069.276.276,0,0,1-.2.124" transform="translate(-63.043 -65.005)"/><path class="ag" d="M93.58,87.47a.2.2,0,0,1-.166-.075.168.168,0,0,1,0-.177.075.075,0,0,1,.135.066.033.033,0,0,0,0,.017.1.1,0,0,0,.063.017.058.058,0,0,0,.047-.039c0-.044,0-.072-.1-.135a.331.331,0,0,1-.144-.157.073.073,0,0,1,.091-.094.552.552,0,0,1,.174.1.552.552,0,0,0,.141.077.188.188,0,0,0,.13-.025.392.392,0,0,1,.155-.05c.141,0,.155-.022.177-.127v-.05c.028-.146.063-.213.276-.207a.077.077,0,0,1,.072.077.075.075,0,0,1-.077.072c-.1,0-.1,0-.124.083a.494.494,0,0,1,0,.055c-.044.2-.146.229-.309.246a.345.345,0,0,0-.11.036.3.3,0,0,1-.2.041.248.248,0,0,1,0,.1.207.207,0,0,1-.16.149H93.6" transform="translate(-67.612 -62.702)"/><path class="w" d="M96.74,77s.055.224.389.094a2.54,2.54,0,0,0-.276.569c-.03.121-.075-.323-.11-.662" transform="translate(-70.038 -55.746)"/><path class="w" d="M98.63,75.2l.442-.61s-.171.723-.442.61" transform="translate(-71.406 -54.001)"/><path class="l" d="M35.732,83.071a2.917,2.917,0,0,0,.828.944,4.14,4.14,0,0,0,1.206.679.3.3,0,0,0,.356-.188.328.328,0,0,0-.061-.337,1.209,1.209,0,0,0-.378-.177,1.488,1.488,0,0,1,.3.218.229.229,0,0,1,.039.251.207.207,0,0,1-.224.088,4.185,4.185,0,0,1-1.121-.6,2.961,2.961,0,0,1-.787-.778,1.013,1.013,0,0,1-.11-.152c0-.028-.088,0-.058.05" transform="translate(-25.858 -60.097)"/><path class="l" d="M42.736,89.08s.017.32.48.251a20.7,20.7,0,0,0,2.677,1.637l.163-.055a16.06,16.06,0,0,1-1.692-.941c-.731-.491-1.1-.748-1.1-.748s-.428.116-.53-.144" transform="translate(-30.936 -64.491)"/><path class="ah" d="M27.55,31.569c-.11,0-.246.444-.276.552a3.246,3.246,0,0,1-.3.552,4.046,4.046,0,0,0-.259.679,3.061,3.061,0,0,0-.2.593c-.1-.028-.168-.193-.276-.243-.036.149.113.276.141.4a1.074,1.074,0,0,1-.061.439c-.063.254-.1.511-.149.765-.03.171,0,.345-.039.516-.047.306-.028.635-.1.938a1.454,1.454,0,0,0-.108.461,1.035,1.035,0,0,0,.119.32.309.309,0,0,0,.276.179.257.257,0,0,0,0-.362.5.5,0,0,1-.135-.395,9.64,9.64,0,0,1,.1-1.123c.044-.362.077-.726.146-1.079a2.41,2.41,0,0,1,.119-.444c.039-.088.119-.149.141-.276a.812.812,0,0,0,0-.235,3.329,3.329,0,0,1,.254-.828,1.932,1.932,0,0,0,.124-.218c.03-.083,0-.177.044-.254s.116-.1.182-.157c.121-.11.11-.146.132-.3s.017-.42.11-.524" transform="translate(-18.773 -22.826)"/><path class="l" d="M33.111,72.48a2.945,2.945,0,0,0,.588,2.39c-.044-.309-.32-.6-.455-1.1a3.2,3.2,0,0,1-.075-1.242Z" transform="translate(-23.933 -52.473)"/><path class="l" d="M31.85,24.71a18.843,18.843,0,0,0-1.38,2.36,3.651,3.651,0,0,0,.627-.983c.047-.088.364-.646.431-.729s.174-.351.235-.406.077-.243.077-.243" transform="translate(-22.06 -17.889)"/><path class="l" d="M28.262,35s-.34.787-.552,1.366c.08-.072.2-.121.2-.243s.16-.315.166-.453a1.769,1.769,0,0,1,.19-.461.742.742,0,0,0,0-.21" transform="translate(-20.061 -25.339)"/><path class="l" d="M26.276,42.4A7.908,7.908,0,0,0,26,44.448a1.06,1.06,0,0,0,.155-.7,2.608,2.608,0,0,1,.036-.665.977.977,0,0,1,.1-.386.527.527,0,0,0-.014-.293" transform="translate(-18.823 -30.696)"/><path class="s" d="M103.705,23.74a.552.552,0,0,0,.516.386,2.126,2.126,0,0,1,.42.745c.019.127-.364.171-.276.309s.215.2.276.276.425.182.552.331a.6.6,0,0,1,.171.48,2.583,2.583,0,0,0,.022.458c0,.1-.075.063-.193-.022s-.072.033-.276-.235-.709-.508-.845-.759.028-.455.025-.685-.152-.309-.276-.417-.086-.237-.116-.353a.941.941,0,0,1,0-.516" transform="translate(-75.054 -17.187)"/><path class="z" d="M96.43,23.461a.337.337,0,0,1,0,.2.994.994,0,0,0-.066.224c-.022.146-.116.248-.124.389s.121.262.083.386c-.022.072-.1.075-.155.1a.3.3,0,0,0-.166.177.342.342,0,0,0,.019.246c.028.061.041.141.069.207a.552.552,0,0,0,.116.185c.052.047.155.083.2.146a.168.168,0,0,1-.066.218c-.066.044-.146.017-.215.058-.168.1-.083.331-.044.475a1.063,1.063,0,0,0,.276.353.77.77,0,0,0,.3.155,2.838,2.838,0,0,0,.317.13l.381.1a.444.444,0,0,1,.207.124c.155.127.276.3.422.431a4.111,4.111,0,0,1,.373.317.445.445,0,0,1,.108.193,2.554,2.554,0,0,0,.188.588l.055.091a.889.889,0,0,0,.152.185.678.678,0,0,1,.121.218A2.175,2.175,0,0,0,99.3,30a1.254,1.254,0,0,0,.3.276,1.25,1.25,0,0,1,.32.348c.039.061.072.149.157.132.193-.033.21-.386.248-.527.075-.276.041-.809-.378-.646-.13.052-.276.218-.417.066s.022-.436.066-.574a1.075,1.075,0,0,1,.121-.276.428.428,0,0,0,.1-.224c.014-.152-.033-.276-.207-.276s-.257.246-.4.2-.1-.248-.1-.364a2.961,2.961,0,0,1,.124-.6c.03-.155.11-.348-.019-.466a.428.428,0,0,0-.146-.11c-.066-.025-.146-.019-.193-.052-.144-.091,0-.276.108-.315a.828.828,0,0,0,.381-.306.254.254,0,0,0,.061-.21,1.72,1.72,0,0,1,0-.461c.036-.138.163-.246.119-.411s-.235-.138-.381-.138c-.342,0-.491.34-.709.552a.3.3,0,0,1-.4,0c-.11-.127,0-.276.1-.378a.709.709,0,0,1,.213-.174c.259-.16.2-.552.061-.759-.025-.036-.036-.033-.05-.08s0-.066-.017-.091a.893.893,0,0,0-.063-.218c-.066-.116-.243-.254-.309-.063a1.559,1.559,0,0,1-.133.431c-.063.094-.243.293-.309.091-.052-.155.058-.315.039-.475s-.113-.218-.259-.251a.552.552,0,0,1-.185-.088c-.146-.119-.237-.276-.439-.315s-.293.047-.276.229" transform="translate(-69.493 -16.822)"/><path class="i" d="M98.769,26.45c.041-.276-.218-.246-.276-.108s-.094.135-.2.08-.152-.259-.221-.585-.149-.552-.392-.651a1.306,1.306,0,0,1-.613-.7c-.017-.179.08-.707-.11-.828a1.432,1.432,0,0,1-.367-.472.193.193,0,0,0-.132.224.329.329,0,0,1,0,.2.827.827,0,0,0-.063.226c-.025.146-.121.248-.127.389s.121.262.083.384c-.019.075-.1.077-.157.1a.334.334,0,0,0-.166.177.348.348,0,0,0,.022.248c.028.063.041.141.069.207a.527.527,0,0,0,.116.182c.052.05.157.086.193.149a.168.168,0,0,1-.063.218c-.069.044-.146.014-.215.058-.168.1-.083.334-.044.475a1.063,1.063,0,0,0,.276.353.828.828,0,0,0,.3.155,2.639,2.639,0,0,0,.317.13l.384.1a.453.453,0,0,1,.2.13c.155.127.276.3.425.428s.254.2.37.317a.414.414,0,0,1,.1.193,1.268,1.268,0,0,1,.011.152.165.165,0,0,0,.017-.03c.1-.342-.052-.315-.066-.45a5.269,5.269,0,0,0-.436-.8.326.326,0,0,0-.177-.152c-.135-.055-.276-.108-.276-.108a.654.654,0,0,1,.276,0c-.149-.259-.367-.8-.422-.886s-.177-.069-.315-.149-.232-.259-.149-.2a2.631,2.631,0,0,0,.436.149,1.56,1.56,0,0,1-.083-.276c-.025-.149-.121-.552-.121-.552a1.292,1.292,0,0,1,.2.4,1.727,1.727,0,0,0,.135.353s.069-.276.19-.34.177.058.083.135a.856.856,0,0,0-.2.433,7.694,7.694,0,0,0,.668,1.364s.08-.246.149-.552.108-.069.108.083a4.052,4.052,0,0,1-.163.651s.232.505.2.312a1.792,1.792,0,0,1,.124-.624c.039-.152.039-.381.08-.654" transform="translate(-69.51 -16.788)"/><path class="x" d="M105.864,70.536a.7.7,0,0,0-.174-.7.9.9,0,0,1,.345-.373c.113-.072.276-.144.276-.552s.276-.48.4-.1a1.122,1.122,0,0,1-.135.894,3.036,3.036,0,0,1-.715.828" transform="translate(-76.517 -49.64)"/><path class="ai" d="M105.124,58.443a.905.905,0,0,0-.618.088c-.232.168-.077.362.044.552a.32.32,0,0,1,.058.293,1.249,1.249,0,0,1-.086.3.961.961,0,0,1-.157.276.638.638,0,0,0-.1.276.613.613,0,0,0-.017.323c.047.132.171.2.257.293s.342.359.1.483c-.1.05-.171,0-.251.1a.4.4,0,0,0-.041.309c.017.1.061.232-.019.323s-.2.075-.262.207.017.213.08.342-.022.254-.088.373a1.515,1.515,0,0,0-.121.389,1.231,1.231,0,0,1-.243.505c-.05.069-.08.163-.2.146-.066,0-.116-.108-.177-.132-.166-.075-.331.127-.306.293a.649.649,0,0,0,.607.028c.08-.05.144-.146.24-.174s.221.028.326.022.2-.1.317-.171a1.474,1.474,0,0,1,.466-.155c.144-.039.326-.063.381-.2a.406.406,0,0,0,0-.306c-.047-.091-.168-.146-.152-.276s.138-.166.224-.229.2-.188.317-.276a1.053,1.053,0,0,0,.4-.337,2.208,2.208,0,0,1,.221-.328.6.6,0,0,0,.141-.433c-.116-.058-.224,0-.334,0-.033-.121.069-.171.144-.24a4.123,4.123,0,0,0,.414-.593,1.533,1.533,0,0,0,.188-.389c.063-.174.177-.334.259-.511.108-.24.188-.85-.221-.828-.1,0,.017-1.088-.439-1.123a.738.738,0,0,0-.436.226,3.591,3.591,0,0,0-.326.417.715.715,0,0,1-.585.127" transform="translate(-74.549 -41.751)"/><path class="aj" d="M110.167,62.171a2.338,2.338,0,0,0-.411-1.916c-.687-.792-.522-.673-.328-.74s.218-.248.7.066.411.425.411.48.08-.19.2-.218.179-.2.041-.414-.152-.229,0-.135.1.276.138.1a3.715,3.715,0,0,0,.108-.453c0-.094.069.11.03.328s0,.3.108.138.08-.48.094-.166.014.425.179.411.276.014.37.276-.177.828-.3,1.1a3.638,3.638,0,0,1-.439.729c-.149.19-.166.34-.353.45s-.588.466-.535-.028" transform="translate(-79.101 -42.653)"/><path class="aj" d="M109.48,67.33s.718.312.428,1.739.075.552.16.036.166-1.5-.588-1.775" transform="translate(-79.261 -48.745)"/><path class="g" d="M107.9,66.59c-.03-.119.075-.171.146-.24a1.027,1.027,0,0,0,.116-.13c-.036-.061-.03-.218.163-.662,0,0-.351.455-.508.312a4.693,4.693,0,0,1,.21-.936c.039-.119-.132.207-.237.417s0,.262-.127.574-.224.259-.235.42-.028.508-.182.624-.276.34-.367.392-.146.392-.21.552a3.382,3.382,0,0,1-.276.552c-.08.116-.144.4-.276.431a.649.649,0,0,0-.378.221c-.121.133-.157.047-.3.259a.552.552,0,0,1,.174-.127c.1-.03.224.03.328.028s.2-.1.317-.174a1.5,1.5,0,0,1,.466-.155c.144-.039.323-.063.378-.2a.406.406,0,0,0,0-.306c-.05-.091-.174-.149-.155-.276s.138-.166.224-.229.2-.188.317-.276a1.079,1.079,0,0,0,.4-.337,2.007,2.007,0,0,1,.221-.328.569.569,0,0,0,.138-.436c-.113-.055-.221,0-.334,0" transform="translate(-76.336 -46.992)"/><path class="ak" d="M103.229,77.023c.055,0,.072-.066.086-.1a.315.315,0,0,0,0-.24.552.552,0,0,1-.05-.144c0-.047.022-.108.066-.069s.025.091.044.124.033.03.05.052a.829.829,0,0,0,.177.138c.061.052-.091.276-.11.276s-.144.235-.246.37c-.022.025-.022-.022-.058-.019s-.213.166-.257.132-.025-.108,0-.168.019-.193.091-.246.05-.063.108-.083Z" transform="translate(-74.501 -55.352)"/><path class="ak" d="M100.394,79.953a1,1,0,0,0-.08.179c0,.063,0,.11.03.119s-.086.119-.086.119a1.658,1.658,0,0,1-.276.276c-.179.155-.155.207-.246.3s-.163.2-.232.182-.13-.028-.149-.055-.088-.077.066-.174a1.9,1.9,0,0,0,.364-.3c.113-.116.276-.24.312-.293a.552.552,0,0,0,.132-.163.949.949,0,0,1,.072-.276c.055-.088.121-.036.088.072" transform="translate(-71.908 -57.793)"/><path class="l" d="M44,86.59a1.068,1.068,0,0,1,.483.237c.224.2-.315-.086-.483-.237" transform="translate(-31.855 -62.689)"/><path class="af" d="M38.966,77.788a1.329,1.329,0,0,0,.132.246,5.162,5.162,0,0,1,.248.472c.041.091.1.2.127.276s.091.193.121.293c.041.144.11.276.163.414s.028.276.188.315c.075.017.215.1.276.066s0-.2-.033-.276a1.861,1.861,0,0,1-.138-.235c-.055-.127-.149-.243-.21-.364s-.146-.276-.2-.4a2.333,2.333,0,0,0-.174-.375,3.226,3.226,0,0,1-.2-.395c-.039-.088-.1-.171-.138-.257s-.03-.177-.1-.19-.061.1-.063.146a.61.61,0,0,0,0,.276" transform="translate(-28.201 -56.018)"/><path class="x" d="M37.151,17.959a11.041,11.041,0,0,1,1.239-1.493c.243-.19.218-.163.149-.075l-.552.781c-.088.13.014-.171-.16.086s-.168.1-.276.257-.124.392-.411.444" transform="translate(-26.889 -11.817)"/></svg>