<?xml version="1.0" encoding="UTF-8"?>
<svg id="a" data-name="Livello 1" xmlns="http://www.w3.org/2000/svg" width="322.563" height="71.584" xmlns:xlink="http://www.w3.org/1999/xlink" viewBox="0 0 322.563 71.584">
  <defs>
    <linearGradient id="b" data-name="Sfumatura senza nome 34" x1="0" y1="48.427" x2="67.752" y2="48.427" gradientUnits="userSpaceOnUse">
      <stop offset="0" stop-color="#94d0cf" stop-opacity=".5"/>
      <stop offset="1" stop-color="#94d0cf"/>
    </linearGradient>
    <linearGradient id="c" data-name="Sfumatura senza nome 27" x1="22.944" y1="43.94" x2="67.751" y2="43.94" gradientUnits="userSpaceOnUse">
      <stop offset="0" stop-color="#ff818c"/>
      <stop offset="1" stop-color="#ff9da6"/>
    </linearGradient>
  </defs>
  <g>
    <path d="M79.836,31.304c0-15.71-12.736-28.446-28.446-28.446-14.636,0-26.685,11.056-28.265,25.271h38.917c3.757,0,6.266,3.046,5.604,6.803l-3.877,21.99c9.509-4.603,16.068-14.344,16.068-25.618Z" fill="#ff4050"/>
    <path d="M22.944,31.304c0-1.074.065-2.132.181-3.175h-10.257c-3.757,0-7.34,3.046-8.002,6.803L.106,61.923c-.663,3.757,1.846,6.803,5.603,6.803h49.174c3.757,0,7.34-3.046,8.002-6.803l.882-5c-3.742,1.812-7.941,2.828-12.378,2.828-15.71,0-28.446-12.736-28.446-28.446Z" fill="url(#b)"/>
    <path d="M62.042,28.129H23.125c-.116,1.043-.181,2.102-.181,3.175,0,15.71,12.736,28.446,28.446,28.446,4.437,0,8.636-1.017,12.378-2.828l3.877-21.99c.663-3.757-1.846-6.803-5.604-6.803Z" fill="url(#c)"/>
  </g>
  <g>
    <path d="M116.495,51.501c-3.46-1.76-6.131-4.29-8.01-7.59-1.881-3.3-2.82-7.17-2.82-11.61s.939-8.31,2.82-11.609c1.879-3.3,4.55-5.84,8.01-7.62,3.459-1.779,7.47-2.67,12.03-2.67,3.039,0,5.729.29,8.069.87s4.51,1.51,6.511,2.79v10.08c-1.761-1.4-3.75-2.41-5.971-3.03-2.22-.62-4.77-.93-7.649-.93-2.48,0-4.69.49-6.63,1.47-1.941.98-3.471,2.391-4.591,4.229-1.12,1.841-1.68,3.981-1.68,6.42,0,3.801,1.11,6.801,3.33,9,2.22,2.201,5.229,3.301,9.03,3.301,2.119,0,3.899-.36,5.34-1.08v-6.721h-6.42v-7.439h16.5v20.88c-4.281,2.601-9.561,3.9-15.84,3.9-4.561,0-8.571-.881-12.03-2.641Z" fill="#ff4050"/>
    <path d="M155.764,52.192c-2.681-1.3-4.751-3.1-6.21-5.4-1.461-2.3-2.19-4.95-2.19-7.95s.729-5.649,2.19-7.949c1.459-2.3,3.529-4.1,6.21-5.4,2.679-1.3,5.799-1.95,9.359-1.95s6.68.65,9.36,1.95c2.68,1.301,4.749,3.101,6.21,5.4,1.46,2.3,2.189,4.949,2.189,7.949s-.729,5.65-2.189,7.95c-1.461,2.301-3.53,4.101-6.21,5.4-2.681,1.299-5.801,1.95-9.36,1.95s-6.681-.651-9.359-1.95ZM170.194,44.032c1.26-1.26,1.89-2.989,1.89-5.19s-.63-3.93-1.89-5.189-2.95-1.891-5.07-1.891-3.81.631-5.069,1.891c-1.261,1.26-1.891,2.99-1.891,5.189s.63,3.931,1.891,5.19c1.26,1.26,2.949,1.89,5.069,1.89s3.811-.63,5.07-1.89Z" fill="#ff4050"/>
    <path d="M181.984,24.442h10.56l6.54,16.74,6.48-16.74h10.56l-12.06,28.8h-10.021l-12.06-28.8Z" fill="#ff4050"/>
    <path d="M220.324,11.301h18.479c4.88,0,8.78,1.281,11.7,3.841s4.38,6.141,4.38,10.739c0,4.721-1.45,8.37-4.35,10.95-2.9,2.58-6.811,3.87-11.73,3.87h-7.859v12.54h-10.62V11.301ZM237.124,31.761c2.12,0,3.789-.439,5.01-1.319,1.22-.88,1.83-2.4,1.83-4.561s-.6-3.639-1.8-4.439c-1.2-.8-2.88-1.2-5.04-1.2h-6.18v11.52h6.18Z" fill="#ff4050"/>
    <path d="M257.313,51.532c-2.22-1.74-3.33-4.17-3.33-7.29,0-3.24,1.069-5.73,3.21-7.47,2.14-1.74,5.21-2.61,9.21-2.61,1.561,0,3.12.171,4.68.51,1.561.341,2.9.791,4.021,1.351v-.601c0-3.079-2.521-4.62-7.561-4.62-3.52,0-6.74.681-9.659,2.04v-7.26c1.279-.6,2.959-1.089,5.04-1.47,2.079-.38,4.239-.57,6.479-.57,5.359,0,9.41,1.071,12.15,3.21,2.739,2.141,4.109,5.13,4.109,8.971v17.52h-9.899v-2.46c-1.08,1.041-2.44,1.86-4.08,2.46-1.641.6-3.521.9-5.641.9-3.6,0-6.51-.87-8.729-2.61ZM272.643,46.912c1.08-.5,1.899-1.149,2.46-1.95v-2.52c-1.721-1.16-3.681-1.74-5.88-1.74-1.4,0-2.48.3-3.24.9-.761.6-1.14,1.479-1.14,2.64,0,1.08.369,1.92,1.109,2.52.74.601,1.81.9,3.21.9,1.239,0,2.4-.249,3.48-.75Z" fill="#ff4050"/>
    <path d="M292.923,64.852c-1.4-.181-2.439-.431-3.119-.75v-7.86c1.159.48,2.479.72,3.96.72,1.319,0,2.349-.29,3.09-.87.739-.58,1.329-1.49,1.77-2.729l.721-1.92-12.48-27h10.56l7.5,18.72,7.08-18.72h10.561l-11.88,30.12c-1.401,3.6-3.19,6.26-5.37,7.979-2.181,1.72-4.971,2.58-8.37,2.58-1.28,0-2.62-.09-4.021-.27Z" fill="#ff4050"/>
  </g>
</svg>