<?xml version="1.0" encoding="UTF-8"?>
<svg id="Layer_2" data-name="Layer 2" xmlns="http://www.w3.org/2000/svg" viewBox="0 0 161.91 161.91">
  <defs>
    <style>
      .cls-1 {
        fill: none;
      }

      .cls-1, .cls-2 {
        stroke-width: 0px;
      }

      .cls-2 {
        fill: #f5f5f5;
      }
    </style>
  </defs>
  <g id="Layer_1-2" data-name="Layer 1">
    <g>
      <rect class="cls-1" width="161.91" height="161.91"/>
      <g>
        <circle class="cls-2" cx="136.62" cy="98.54" r="8.43" transform="translate(-18.98 34.02) rotate(-13.28)"/>
        <path class="cls-2" d="M52.41,106.37c0,10.74,8.73,19.47,19.47,19.47s19.47-8.73,19.47-19.47l-.04-14.01,4.27-4.29,10.66,18.14,17.39-.03-18.25-28.67,17.04-20.08-18.2.03-11.42,14.26-1.53,2.03-.06-37.68h-15.19l.1,70.3c0,2.34-1.9,4.24-4.24,4.24s-4.24-1.9-4.24-4.24l-.06-30.78c0-3.54-.38-6.53-1.12-8.94-.74-2.42-1.79-4.37-3.14-5.85-1.35-1.48-2.97-2.55-4.85-3.19-1.88-.64-3.94-.96-6.2-.96-2.91,0-5.55.57-7.91,1.7-2.36,1.13-4.36,2.78-6.01,4.94l-.51-5.72-14.24.02.08,48.76,15.19-.03-.05-31.34c0-3.73,3.03-6.76,6.76-6.76s6.76,3.03,6.76,6.76l.06,31.39Z"/>
      </g>
    </g>
  </g>
</svg>