<?xml version="1.0" encoding="UTF-8"?>
<svg id="Layer_2" data-name="Layer 2" xmlns="http://www.w3.org/2000/svg" viewBox="0 0 254.31 90.71">
  <defs>
    <style>
      .cls-1 {
        fill: #ff4050;
        stroke-width: 0px;
      }
    </style>
  </defs>
  <g id="Layer_1-2" data-name="Layer 1">
    <g>
      <polygon class="cls-1" points="15.92 59.11 15.84 5.05 0 5.08 .11 71.32 43.51 71.25 43.49 59.07 15.92 59.11"/>
      <rect class="cls-1" x="50.24" y="22.41" width="15.25" height="48.82" transform="translate(-.08 .1) rotate(-.1)"/>
      <rect class="cls-1" x="203.25" y="22.15" width="15.25" height="48.82" transform="translate(-.08 .35) rotate(-.1)"/>
      <path class="cls-1" d="M254.29,59.62c-.51.09-1.05.16-1.62.21-.57.05-1.29.07-2.17.07-.93,0-1.71-.07-2.35-.22-.63-.15-1.14-.41-1.51-.79-.38-.37-.65-.88-.81-1.51s-.25-1.43-.25-2.39l-.04-22.33h8.03s-.02-10.57-.02-10.57h-8.03s-.02-12.84-.02-12.84l-15.2.03.02,12.85h-6.23s.02,10.57.02,10.57h6.23s.04,24.22.04,24.22c0,2.65.35,4.92,1.03,6.81.68,1.89,1.67,3.44,2.99,4.64,1.31,1.2,2.92,2.08,4.83,2.63,1.91.55,4.08.83,6.52.82,1.62,0,3.13-.12,4.51-.35,1.38-.23,2.74-.55,4.06-.98l-.02-10.87Z"/>
      <circle class="cls-1" cx="57.86" cy="8.44" r="8.44"/>
      <circle class="cls-1" cx="187.66" cy="63.38" r="8.44"/>
      <circle class="cls-1" cx="210.87" cy="8.44" r="8.44"/>
      <path class="cls-1" d="M103.35,71.22c0,10.75,8.75,19.49,19.49,19.49s19.49-8.74,19.49-19.49l-.04-14.03,4.28-4.29,10.68,18.16,17.41-.03-18.27-28.71,17.06-20.11-18.23.03-11.44,14.28-1.53,2.03-.06-37.72h-15.2l.1,70.38c0,2.34-1.91,4.25-4.25,4.25s-4.25-1.91-4.25-4.25l-.06-30.82c0-3.55-.38-6.53-1.12-8.95-.74-2.42-1.79-4.37-3.14-5.86-1.36-1.49-2.98-2.55-4.86-3.19-1.88-.64-3.95-.96-6.2-.96-2.92,0-5.56.57-7.92,1.71-2.36,1.13-4.36,2.78-6.01,4.95l-.51-5.73-14.26.02.08,48.82,15.2-.03-.05-31.38c0-3.74,3.03-6.77,6.77-6.77s6.77,3.03,6.77,6.77l.06,31.43Z"/>
    </g>
  </g>
</svg>