<svg xmlns="http://www.w3.org/2000/svg" width="110.572" height="77" viewBox="0 0 110.572 77"><defs><style>.a{fill:#212121;font-size:14px;font-family:'Titillium Web', sans-serif;font-weight: 400;}.b{fill:#202020;}.c{fill:#64dd17;}</style></defs><g transform="translate(-156.428 -466)"><text class="a" transform="translate(156.428 482)"><tspan x="0" y="0">Powered by</tspan></text><g transform="translate(156.428 494.996)"><g transform="translate(0 0.004)"><path class="b" d="M3.009,65.985v7.574c0,3.824,1.416,6.02,5.2,6.02a6.211,6.211,0,0,0,5.1-2.126V71.825h-4.7V69.059H16.14v9.3a9.065,9.065,0,0,1-7.928,4.079C2.682,82.443,0,79.081,0,73.912V65.644C0,60.462,2.691,57.1,8.213,57.1a7.227,7.227,0,0,1,7.256,4.673l-2.442,1.239C11.965,61.206,10.9,59.97,8.213,59.97,4.424,59.968,3.009,62.163,3.009,65.985Z" transform="translate(0 -41.312)"/><path class="b" d="M75,83.664c0-4.532,2.265-7.364,7.079-7.364,4.919,0,7.079,2.726,7.079,7.364v5.309c0,4.637-2.16,7.361-7.079,7.361C77.265,96.334,75,93.5,75,88.973Zm2.832,5.1c0,3.318,1.131,4.955,4.247,4.955s4.258-1.629,4.258-4.955V83.877c0-3.318-1.134-4.958-4.247-4.958s-4.256,1.629-4.256,4.958Z" transform="translate(-54.261 -55.203)"/><path class="b" d="M142.171,96.8,136.19,77.33h3.116l4.529,16.14h.141l4.532-16.14h3.114L145.641,96.8Z" transform="translate(-98.531 -55.948)"/><path class="c" d="M210.989,58.13c6.017,0,9.628,1.659,9.628,8.423,0,5.981-3.434,8.3-9.31,8.3h-2.3V82.92H203.13V58.13Zm-1.983,11.644h1.878c2.832,0,3.788-.957,3.788-3.318,0-2.489-.957-3.293-3.788-3.293h-1.878Z" transform="translate(-146.96 -42.057)"/><path class="c" d="M288.05,95.495h-4.673l-.39-1.936a6.077,6.077,0,0,1-4.919,2.229c-3.318,0-5.948-2.157-5.948-5.7,0-5.168,4.958-7.046,10.231-7.046v-.86c0-1.062-.567-1.936-2.583-1.936a12.964,12.964,0,0,0-5.53,1.452l-1.479-3.94a14.675,14.675,0,0,1,7.5-2.232c5.273,0,7.787,2.621,7.787,7.115Zm-5.7-5.771V86.859c-2.55,0-4.673.849-4.673,2.691a1.706,1.706,0,0,0,1.911,1.734A3.136,3.136,0,0,0,282.351,89.724Z" transform="translate(-196.873 -54.646)"/><path class="c" d="M345.05,103.391h-5.417L341.9,96.24h-.774L335.74,76.56h5.948l2.442,12.67h.141l3.186-12.67h6.017Z" transform="translate(-242.901 -55.391)"/><path class="c" d="M127.381,11.581l-1.9,1.5a24.112,24.112,0,0,0-27.4-8.9L97.42,1.847a24.278,24.278,0,0,1,29.961,9.734Z" transform="translate(-70.481 -0.004)"/></g></g></g></svg>
