<svg xmlns="http://www.w3.org/2000/svg" width="46.627" height="48" viewBox="0 0 46.627 48"><defs><style>.a,.d{fill:#fff;}.b{fill:#dad0d2;}.c{fill:#bbb4b5;}.c,.d{fill-rule:evenodd;}.e{fill:#aa2e29;}.f{fill:#55633e;}.g{fill:#717f47;}.h{fill:#303d2c;}.i{fill:#5f7360;}.j{fill:#384b24;}.k{fill:#8a6f54;}.l{fill:#9b8876;}.m{fill:#6c442f;}.n{fill:#b1302a;}.o{fill:#90281f;}.p{fill:#841f1b;}.q{fill:#992823;}.r{fill:#754a44;}.s{fill:#091d0a;}.t{fill:#485a31;}.u{fill:#8d8073;}.v{fill:#7c8c5d;}.w{fill:#573b1f;}.x{fill:#3a270f;}.y{fill:#435141;}.z{fill:#5e714f;}.aa{fill:#758a6d;}.ab{fill:#8d8d67;}.ac{fill:#66682f;}.ad{fill:#687460;}.ae{fill:#b6a381;}.af{fill:#8d7b69;}.ag{fill:#9d8d76;}.ah{fill:#a9967a;}.ai{fill:#707e59;}.aj{fill:#526c4c;}.ak{fill:#776554;}</style></defs><g transform="translate(0 0.004)"><g transform="translate(0 -0.004)"><path class="a" d="M.662,137.023v1.1H0V134.85H1.269c.768,0,1.153.361,1.153,1.076a1.033,1.033,0,0,1-.48.961l.467,1.249H1.683l-.381-1.1Zm.967-.712a.59.59,0,0,0,.116-.378.553.553,0,0,0-.123-.371.45.45,0,0,0-.354-.139H.662v1.037h.616a.431.431,0,0,0,.351-.146" transform="translate(0 -90.183)"/><path class="a" d="M9,138.119V134.85h2.113v.576H9.662v.765h1.163v.57H9.662v.782h1.451v.576Z" transform="translate(-6.019 -90.183)"/><path class="a" d="M18.216,137.169h-.553v.951H17V134.85h1.2a1.017,1.017,0,0,1,1.163,1.136,1.222,1.222,0,0,1-.295.878,1.163,1.163,0,0,1-.868.3m-.54-.566H18.2c.331,0,.494-.205.494-.616a.636.636,0,0,0-.119-.434.477.477,0,0,0-.374-.132h-.533Z" transform="translate(-11.369 -90.183)"/><path class="a" d="M26.141,137.029a.581.581,0,1,0,1.159,0V134.85h.662v2.163a1.149,1.149,0,0,1-.311.884,1.7,1.7,0,0,1-1.871,0,1.146,1.146,0,0,1-.308-.884V134.85h.662Z" transform="translate(-17.032 -90.183)"/><path class="a" d="M35.08,134.844h1.3a1.206,1.206,0,0,1,.765.205.8.8,0,0,1,.255.662.994.994,0,0,1-.079.437.768.768,0,0,1-.282.285.662.662,0,0,1,.331.265.967.967,0,0,1,.1.48.871.871,0,0,1-.278.709,1.206,1.206,0,0,1-.785.229H35.08Zm1.249.57h-.586v.778h.593c.248,0,.374-.132.374-.391a.331.331,0,0,0-.381-.388m.02,1.325h-.606v.8h.606a.494.494,0,0,0,.331-.086.4.4,0,0,0,.106-.331c0-.265-.142-.394-.424-.394" transform="translate(-23.46 -90.176)"/><path class="a" d="M43.92,134.844H45.2a1.212,1.212,0,0,1,.765.205.8.8,0,0,1,.255.662.944.944,0,0,1-.083.437.732.732,0,0,1-.278.285.663.663,0,0,1,.331.265.967.967,0,0,1,.1.48.864.864,0,0,1-.282.709,1.2,1.2,0,0,1-.782.229H43.92Zm1.249.57h-.586v.778h.59a.391.391,0,0,0,0-.778m.02,1.325h-.609v.8h.606a.494.494,0,0,0,.331-.086.4.4,0,0,0,.106-.331c0-.265-.142-.394-.424-.394" transform="translate(-29.372 -90.176)"/><path class="a" d="M54.618,138.119H52.76V134.85h.662v2.683h1.2Z" transform="translate(-35.284 -90.183)"/><rect class="a" width="0.662" height="3.269" transform="translate(19.745 44.667)"/><path class="a" d="M65.52,137.908a4.429,4.429,0,0,1-.918.113,1.693,1.693,0,0,1-.662-.1.782.782,0,0,1-.384-.331,1.414,1.414,0,0,1-.2-.52,4.667,4.667,0,0,1-.05-.749,2.378,2.378,0,0,1,.265-1.325,1.146,1.146,0,0,1,.994-.371,4.227,4.227,0,0,1,.957.129l-.02.53a5.251,5.251,0,0,0-.792-.073.9.9,0,0,0-.45.083.52.52,0,0,0-.2.331,3.438,3.438,0,0,0-.063.8,1.626,1.626,0,0,0,.132.785.556.556,0,0,0,.527.219,5.484,5.484,0,0,0,.845-.066Z" transform="translate(-42.334 -90.024)"/><path class="a" d="M70.81,138.119l.725-3.269h1.259l.739,3.269H72.87l-.129-.59H71.6l-.132.59Zm1.252-2.719-.331,1.55h.894l-.331-1.55Z" transform="translate(-47.356 -90.183)"/><rect class="a" width="0.662" height="3.269" transform="translate(27.681 44.667)"/><path class="a" d="M86.83,135.436v-.586h2.4v.586H88.37v2.683h-.662v-2.683Z" transform="translate(-58.069 -90.183)"/><path class="a" d="M94,138.119l.735-3.269h1.252l.735,3.269H96.06l-.129-.59H94.788l-.126.59Zm1.249-2.719-.331,1.55h.894l-.331-1.55Z" transform="translate(-62.864 -90.183)"/><path class="a" d="M105.412,138.119H103.55V134.85h.666v2.683h1.2Z" transform="translate(-69.251 -90.183)"/><rect class="a" width="0.662" height="3.269" transform="translate(36.571 44.667)"/><path class="a" d="M113.73,138.119l.735-3.269h1.259l.735,3.269H115.8l-.129-.59h-1.146l-.129.59Zm1.249-2.719-.331,1.55h.894l-.331-1.55Z" transform="translate(-76.059 -90.183)"/><path class="a" d="M123.29,138.119V134.85h1.12l.788,2.693h.05V134.85h.662v3.269h-1.09L124,135.426h-.05v2.693Z" transform="translate(-82.453 -90.183)"/><path class="a" d="M132.52,138.119l.735-3.269h1.262l.735,3.269h-.662l-.129-.59h-1.143l-.129.59Zm1.252-2.719-.331,1.55h.894L134,135.4Z" transform="translate(-88.625 -90.183)"/><path class="b" d="M58.805,29.351A10.348,10.348,0,1,1,48.461,19,10.348,10.348,0,0,1,58.805,29.351" transform="translate(-25.487 -12.705)"/><path class="c" d="M56.232,23.4a.331.331,0,0,0-.331-.331h-.977a11.785,11.785,0,0,0-.245-1.573l.918-.3a.331.331,0,0,0,.219-.427l-.434-1.325a.331.331,0,0,0-.427-.219l-.918.3a11.653,11.653,0,0,0-.725-1.418l.782-.566a.331.331,0,0,0,.073-.474l-.821-1.136a.331.331,0,0,0-.474-.073l-.795.54a12.461,12.461,0,0,0-1.126-1.126l.566-.778a.331.331,0,0,0-.073-.477l-1.133-.825a.331.331,0,0,0-.474.076l-.566.782a11.944,11.944,0,0,0-1.421-.725l.3-.914a.331.331,0,0,0-.219-.431L46.6,11.551a.331.331,0,0,0-.427.215l-.3.918a11.785,11.785,0,0,0-1.573-.245v-.957a.331.331,0,0,0-.331-.331h-1.4a.331.331,0,0,0-.331.331v.967a11.7,11.7,0,0,0-1.573.245l-.3-.931a.331.331,0,0,0-.427-.215l-1.325.431a.331.331,0,0,0-.219.431l.3.914a11.653,11.653,0,0,0-1.418.725l-.566-.782a.351.351,0,0,0-.477-.076l-1.133.825a.331.331,0,0,0-.076.477l.57.778A12.46,12.46,0,0,0,34.454,16.4l-.782-.566a.331.331,0,0,0-.477.073l-.821,1.156a.331.331,0,0,0,.076.474l.782.566a11.2,11.2,0,0,0-.725,1.418l-.918-.3a.331.331,0,0,0-.427.219l-.431,1.325a.331.331,0,0,0,.215.427l.918.3a12.352,12.352,0,0,0-.248,1.573h-.964a.331.331,0,0,0-.331.331v1.4a.331.331,0,0,0,.331.331h.964a12.352,12.352,0,0,0,.255,1.59l-.918.3a.331.331,0,0,0-.215.427l.431,1.325a.331.331,0,0,0,.427.219l.918-.3a11.471,11.471,0,0,0,.725,1.421l-.782.566a.331.331,0,0,0-.076.474L33.2,32.3a.331.331,0,0,0,.477.076l.782-.57a11.659,11.659,0,0,0,1.126,1.126l-.57.782a.331.331,0,0,0,.076.477l1.133.825a.331.331,0,0,0,.477-.079l.563-.778a11.924,11.924,0,0,0,1.421.722l-.3.918a.331.331,0,0,0,.219.427l1.325.434a.331.331,0,0,0,.427-.219l.3-.918a11.2,11.2,0,0,0,1.573.245v.967a.331.331,0,0,0,.331.331h1.4a.331.331,0,0,0,.331-.331v-.98a11.262,11.262,0,0,0,1.573-.245l.3.918a.331.331,0,0,0,.427.219l1.325-.434a.331.331,0,0,0,.219-.427l-.3-.918a11.674,11.674,0,0,0,1.421-.722l.566.778a.331.331,0,0,0,.474.079l1.133-.825A.331.331,0,0,0,51.5,33.7l-.566-.782a11.66,11.66,0,0,0,1.126-1.126l.782.57a.331.331,0,0,0,.5-.063l.821-1.133a.331.331,0,0,0-.073-.474l-.782-.58a11.944,11.944,0,0,0,.725-1.421l.918.3a.331.331,0,0,0,.427-.222l.434-1.325a.331.331,0,0,0-.219-.427l-.918-.3a11.262,11.262,0,0,0,.245-1.573h.967a.331.331,0,0,0,.331-.331ZM51.36,19.593,45.331,21.13l-.315-5.061-.066-1.086a9.274,9.274,0,0,1,6.409,4.611M41.592,15l-.056.927L41.2,21.13l-6.022-1.537A9.274,9.274,0,0,1,41.592,15M34.01,24.1a9.182,9.182,0,0,1,.093-1.288l5.681,2.223-3.352,5.3a9.228,9.228,0,0,1-2.421-6.244m9.274,9.274a9.251,9.251,0,0,1-3.945-.881l3.945-4.8,3.942,4.8a9.225,9.225,0,0,1-3.942.881m6.827-3.021-3.335-5.31,5.664-2.223a9.218,9.218,0,0,1-2.319,7.532" transform="translate(-20.277 -7.456)"/><path class="d" d="M52.427,35.339l-5.2,3.779L49.21,33l-5.2-3.779h6.429l1.987-6.114,1.987,6.114h6.429L55.643,33l1.984,6.114Z" transform="translate(-29.433 -15.454)"/><path class="e" d="M51.6,22.675l1.832,5.631.06.182h6.121l-4.8,3.491-.152.113.06.182L56.556,37.9l-4.8-3.478-.156-.113-.156.113-4.8,3.485,1.832-5.631.06-.182-.156-.113L43.595,28.5h6.118l.06-.182Zm0-.855-2.083,6.413H42.78l5.452,3.975-2.067,6.4,5.452-3.975L57.069,38.6l-2.093-6.409,5.452-3.975H53.687Z" transform="translate(-28.61 -14.591)"/><path class="f" d="M80.294,2.867a3.067,3.067,0,0,0-.278-.311c-.063-.063-.189-.258-.3-.219s-.033.229-.136.3c-.162.119-.268-.07-.331-.185s-.185-.189-.278-.3-.159-.258-.258-.374a1.812,1.812,0,0,0-.4-.358c-.172-.113-.368-.3-.58-.315s-.1.056-.185.182-.159.046-.229,0c-.162-.109-.2-.3-.4-.331a1.126,1.126,0,0,1-.593-.159C76.048.6,75.292.479,75.034.724c-.126.123,0,.162,0,.282s-.159.126-.275.129c-.255,0-.467.083-.391.364a.563.563,0,0,0,.159.331c.1.093.245.089.354.162.238.159,0,.437.063.662.109.285.308.285.59.308s.464.086.719.089c.113,0,.248.033.255.172s-.149.149-.2.265c-.132.275.252.215.4.169s.169-.1.295,0a2.51,2.51,0,0,0,.371.285.6.6,0,0,0,.54-.073c.159-.1.52-.176.633.03.169.3-.348.3-.275.556.06.2.613.1.782.1a1.017,1.017,0,0,0,.427-.07,4.777,4.777,0,0,0,.749-.315.911.911,0,0,0,.262-.626.729.729,0,0,0-.205-.646" transform="translate(-49.725 -0.392)"/><path class="g" d="M80.244,3.3a2.289,2.289,0,0,1-.924-.046,1.116,1.116,0,0,0-.874,0,2.759,2.759,0,0,1-.994.152c-.235,0-.331-.079-.126-.079.613,0,1.206-.262,1.159-.354a1.626,1.626,0,0,0-.58-.424,4.014,4.014,0,0,0-.6-.172c-.219-.05-.706-.268-.878-.3a3.909,3.909,0,0,1-.732-.361c-.3-.156-.3-.407-.142-.252s.454.219.593.331.391.142.222-.043a2.67,2.67,0,0,1-.331-.613s.484.533.639.689a2.65,2.65,0,0,0,.609.374c.126.066.079-.156.033-.331s-.248-.374-.046-.311.454.662.6.722a4.594,4.594,0,0,1,.662.391c.282.172.172-.176.063-.348s-.225-.378-.291-.5c-.023-.036-.036-.063-.036-.063l.036.063c.05.083.149.2.245.123s.07-.172.063-.3a1.719,1.719,0,0,0-.288-.238c-.179-.113-.371-.3-.583-.315s-.106.056-.185.182-.159.046-.229,0c-.162-.109-.2-.3-.4-.331a1.146,1.146,0,0,1-.6-.159C76.054.6,75.3.477,75.041.722c-.126.123,0,.162,0,.282s-.156.126-.268.126c-.258,0-.47.086-.394.368a.563.563,0,0,0,.159.331c.1.093.245.089.354.162.238.159,0,.437.063.662.113.285.308.285.59.308s.464.086.715.086c.116,0,.255.036.258.176s-.149.149-.205.265c-.129.275.255.215.4.169s.169-.1.291,0a2.726,2.726,0,0,0,.374.285.609.609,0,0,0,.543-.073c.156-.1.517-.176.633.03.166.3-.351.3-.275.556.056.2.609.1.778.1a.97.97,0,0,0,.427-.073,4.352,4.352,0,0,0,.749-.311.911.911,0,0,0,.262-.629.749.749,0,0,0,0-.315,1.391,1.391,0,0,1-.248.109" transform="translate(-49.731 -0.39)"/><path class="h" d="M90.149,7.11a.388.388,0,0,0-.3,0c-.119.06-.093.179-.169.252-.136.142-.623,0-.808,0a.364.364,0,0,0-.414.354,1.583,1.583,0,0,0,.089.48c.04.142.166.255.142.414s-.258.172-.331.331a.527.527,0,0,0,.056.484.725.725,0,0,0,.358.391c.215.066.464-.02.662.043a.388.388,0,0,1,.308.378c0,.3-.361.407-.477.662a.378.378,0,0,0,.056.4c.109.1.331.07.464.083s.49-.053.553.156-.07.331-.063.517.229.295.381.368a1.5,1.5,0,0,0,.686.089c.311,0,.619-.083.934-.1.136,0,.282.03.378-.06a1.191,1.191,0,0,0,.159-1.017,3.548,3.548,0,0,0-.245-.646A14.751,14.751,0,0,0,92.027,9.3c-.076-.142-.2-.255-.285-.388s-.116-.209-.179-.308-.172-.209-.238-.331-.063-.166-.106-.238a2.3,2.3,0,0,0-.245-.318c-.116-.136-.285-.089-.381-.238a.9.9,0,0,0-.444-.371" transform="translate(-59.069 -4.734)"/><path class="i" d="M92.822,12.132a3.548,3.548,0,0,0-.245-.646,14.753,14.753,0,0,0-.543-1.391c-.076-.142-.2-.255-.285-.388S91.633,9.5,91.57,9.4s-.123-.159-.182-.238c-.331.49-.7.768-1.053.374A5,5,0,0,0,88.549,8.29a.391.391,0,0,0-.1.238,1.543,1.543,0,0,0,.1.474c.04.146.166.258.142.417s-.258.172-.331.331a.527.527,0,0,0,.056.484.725.725,0,0,0,.358.391c.212.066.46-.02.662.043a.394.394,0,0,1,.311.378c0,.3-.364.407-.477.662a.368.368,0,0,0,.053.4c.109.1.331.073.464.083s.49-.053.553.159c.046.162-.07.331-.063.513s.229.295.381.368a1.507,1.507,0,0,0,.689.089c.308,0,.616-.083.931-.1.136,0,.282.026.378-.063a1.192,1.192,0,0,0,.159-1.017" transform="translate(-59.069 -5.543)"/><path class="h" d="M88.933,10.28a1.544,1.544,0,0,0,0,.636c.109-.06.146-.119.146-.205,0-.136-.132-.295-.159-.431" transform="translate(-59.454 -6.874)"/><path class="j" d="M91.232,17.98s-.017.156.275.176.45,0,.613.139c.093.089.275.331.05.331a3.289,3.289,0,0,1-.994-.03c-.142-.073-.235-.378.05-.626" transform="translate(-60.885 -12.017)"/><path class="h" d="M93.29,16.56a.5.5,0,0,0,.265.371.494.494,0,0,1,.172.527s.477-.083.46-.331-.152-.414-.9-.56" transform="translate(-62.39 -11.074)"/><path class="f" d="M93.282,8.183a.765.765,0,0,0-.262-.02c-.222.043-.166.235-.2.407a3.678,3.678,0,0,0-.149.5.757.757,0,0,0,.179.454.361.361,0,0,1-.073.467.662.662,0,0,0-.288.45.457.457,0,0,0,.132.424c.272.2.7.169.918.46.119.159,0,.285-.136.368a2.568,2.568,0,0,1-.331.179.706.706,0,0,0-.245.139c-.142.159,0,.361.179.414a1.987,1.987,0,0,1,.275.113,1.345,1.345,0,0,0,.278.06,1.093,1.093,0,0,1,.417.113c.06.05.083.146.129.205.275.348.778.308,1.173.331a.513.513,0,0,1,.308.063c.192.169-.089.295-.152.407-.129.219.3.245.424.272a.755.755,0,0,0,.311.06.775.775,0,0,0,.212-.113c.1-.06.2-.07.295-.116.275-.136.262-.417.3-.682a1.176,1.176,0,0,0,0-.431,1.759,1.759,0,0,0-.089-.444,2.189,2.189,0,0,0-.123-.182,1.143,1.143,0,0,1-.159-.646,2.593,2.593,0,0,0,.036-.576,1.176,1.176,0,0,0-.219-.487.57.57,0,0,1-.142-.255c-.02-.106-.02-.219-.033-.331s-.116-.464-.311-.331a1.278,1.278,0,0,0-.282.427c-.056.109-.185.149-.235,0s0-.361-.063-.533a1.358,1.358,0,0,0-.179-.494,2.9,2.9,0,0,0-.331-.424.719.719,0,0,0-.424-.176c-.179.023-.086.331-.3.252a1.365,1.365,0,0,1-.258-.166,1.189,1.189,0,0,0-.268-.132,1.209,1.209,0,0,0-.291-.023" transform="translate(-61.849 -5.455)"/><path class="j" d="M95.793,21.459a1.987,1.987,0,0,1-.967.083c-.643-.066-.782-.414-.553-.792s1.361.182,1.52.709" transform="translate(-62.978 -13.793)"/><path class="k" d="M25.144,49.818c-.089-.331-.3.354-.467.388s-.119.238-.129.381c-.03.563.566.331.643,1.305.07.825.278-.884-.046-2.073" transform="translate(-16.416 -33.255)"/><path class="k" d="M26.837,38.631a2.521,2.521,0,0,0-.447-.851c-.245-.285-.159.629-.159.742a2.011,2.011,0,0,1,.245,1.381c-.109,1.01.368-1.272.368-1.272" transform="translate(-17.532 -25.228)"/><path class="k" d="M29.532,32.4s-.222-.331-.384-.255-.126.238-.238.129-.179-.129-.179.126,0,.331.129.467a.8.8,0,0,1,.258.45,5.722,5.722,0,0,0,.414-.918" transform="translate(-19.214 -21.49)"/><path class="k" d="M35.727,21.58a2.335,2.335,0,0,1,.046.755,1.368,1.368,0,0,1-.3.45,4.167,4.167,0,0,0,0-.835c-.05-.371.258-.371.258-.371" transform="translate(-23.717 -14.431)"/><path class="k" d="M30.949,33.8a1.259,1.259,0,0,0,.739-.063c.371-.162.209.238-.129.331a2.289,2.289,0,0,1-.788.033Z" transform="translate(-20.578 -22.533)"/><path class="k" d="M28.756,39.945a2.249,2.249,0,0,0-.871.48c-.2.272.176-.994.3-1.106a.187.187,0,0,1,.291.192c-.04.162-.258.192-.192.291s.3.06.563,0-.1.129-.1.129" transform="translate(-18.61 -26.267)"/><path class="k" d="M39.659,15.813s-.331.129-.331.354a2.65,2.65,0,0,0,.066.417l-.331.384a6.718,6.718,0,0,1,.033-.918c.046-.272.53-.56.818-.785s-.255.547-.255.547" transform="translate(-26.122 -10.181)"/><path class="l" d="M32.273,72.1a2.981,2.981,0,0,0-.079.884c.063.229-.225.113-.331.036s-.238,0-.04.222.3.368.457.434a5.051,5.051,0,0,0,.662,1.414c0,.371-.033.692.706,1.447a6.214,6.214,0,0,0,1.868,1.206,1.67,1.67,0,0,0-.788-1.282,2.176,2.176,0,0,1-1.03-.967c-.113-.2.05-.331-.192-.388s.033-.209-.331-.331a4.909,4.909,0,0,1-.454-1.093.5.5,0,0,1,.308-.626c.179,0-.434-.576-.755-.964" transform="translate(-21.213 -48.211)"/><path class="l" d="M73.18,102.945s.706.57,1.037.795.662.421.994.662.692.556.722.706a1.093,1.093,0,0,0,.169.54.494.494,0,0,0,.378.209.411.411,0,0,1,.361.225,1.577,1.577,0,0,0,.242.454,1.11,1.11,0,0,0,.855,0,2.521,2.521,0,0,0,.6-.467c.1-.106.388-.106.57-.212s.374-.252.192-.464-.358-.179-.629-.166a4.3,4.3,0,0,1-1.53-.855,3.047,3.047,0,0,1-.964-1.04l-2.839-.583Z" transform="translate(-48.941 -68.715)"/><path class="m" d="M75.916,105.115a1.067,1.067,0,0,0,.166.54.484.484,0,0,0,.374.209.411.411,0,0,1,.361.225,1.762,1.762,0,0,0,.225.437.662.662,0,0,1,.089-.378,1.9,1.9,0,0,1,.411-.351c.139-.106,0-.179-.07-.129s-.242.222-.361.331-.162-.073-.089-.169.291-.192.219-.2a.812.812,0,0,1-.371-.262,6.553,6.553,0,0,0-.662-.5c-.238-.2-.58-.388-.662-.49s.1-.116.248-.129.8,0,1.149,0a2.941,2.941,0,0,1-.795-.914l-2.789-.573-.1.06-.1.126s.706.57,1.037.795.643.421.994.662.692.556.722.706m.311.2a.238.238,0,1,1,.06.282.209.209,0,0,1-.06-.282" transform="translate(-48.927 -68.722)"/><path class="l" d="M54.981,103.65a4.475,4.475,0,0,1-.6.662,6.572,6.572,0,0,0-.662.437c-.136.152-.315.238-.358.358s0,.272-.076.361-.255.076-.391.076-.166.06-.285.166a1.325,1.325,0,0,1-.315.255c-.093.03-.182.046-.123.106s.255.3.136.4-.225.106-.331.179a.49.49,0,0,1-.354.093c-.123,0-.242.209-.331.331s0,.255-.255.331a1.461,1.461,0,0,1-.994-.166,3.643,3.643,0,0,1-.616-.54c-.089-.106-.252-.073-.374-.106s-.119-.149-.03-.285.2-.268.3-.255a.848.848,0,0,0,.54-.2c.179-.149.48-.378.527-.4s-.033-.331.132-.421a.772.772,0,0,1,.374-.136,2.09,2.09,0,0,0,.484-.046,2.687,2.687,0,0,1,.3-.179.917.917,0,0,0,.371-.248c.1-.113.513-.45.513-.45Z" transform="translate(-32.739 -69.317)"/><path class="m" d="M54.066,103.965a5.761,5.761,0,0,0-.513.45.269.269,0,0,1-.04.046,3.62,3.62,0,0,0,.384-.036c.169-.03.454-.126.619-.036s.169.176.089.374-.262.272-.46.371a1.408,1.408,0,0,0-.47.331c-.06.1-.351.3-.431.45s-.2.272-.149.331.079,0,.169-.109a.331.331,0,0,1,.291-.119h.089a.394.394,0,0,1,.136-.053,1.325,1.325,0,0,0,.315-.255c.119-.1.149-.166.285-.166a.646.646,0,0,0,.391-.076c.089-.076.03-.238.073-.361s.212-.209.361-.358.437-.252.662-.437a4.475,4.475,0,0,0,.6-.662Zm-.706,2.451a.2.2,0,0,1-.288-.06.139.139,0,0,0-.238,0c-.03.076-.06.212-.212.106a1.474,1.474,0,0,0-.838-.209c-.3.03-.739,0-.527.06a7.69,7.69,0,0,1,.931.162.881.881,0,0,1,.6.57c.076-.123.192-.331.308-.331a.49.49,0,0,0,.358-.076c.106-.073.212-.073.331-.179s0-.245-.079-.331c-.119.076-.252.232-.354.285m-1.226-.961a.692.692,0,0,0,.52-.089.947.947,0,0,0,.381-.56.176.176,0,0,0,0-.086l-.116.079a.467.467,0,0,1-.126.262.58.58,0,0,1-.527.238.3.3,0,0,1-.265-.285.288.288,0,0,0-.1.222.331.331,0,0,0,.242.219" transform="translate(-34.242 -69.317)"/><path class="n" d="M26.932,91.24a1.6,1.6,0,0,1-.364-.023c-.248-.083-2.186-1.269-3.13-1.888a12.733,12.733,0,0,0-1.3-.739c-.255-.132-.49-.248-.762-.417a5.162,5.162,0,0,1-.918-1.461A10.649,10.649,0,0,0,21.682,84l2.338-.053.1-.884c.662.258.891.537.815.818L24.9,84a2.488,2.488,0,0,0-.126.994,2.1,2.1,0,0,0,.371,1.285c.2.149,1.934,1.434,2.05,1.477l2.179-.172-.132-.129a11.153,11.153,0,0,0,.676-1.239,5.058,5.058,0,0,0,.371-1.325.835.835,0,0,1,.03-.169.636.636,0,0,1,.537-.295.49.49,0,0,1,.1,0c.162.05,2.65.967,2.789,1.06s.964,1.129,1.06,1.252l.517-.033a5.651,5.651,0,0,1,1.014-.49,4.107,4.107,0,0,1,.563.089l.507-.331.719.7h1.2a6.489,6.489,0,0,1,.772-1.133c.139-.076,2.375-1.053,2.65-1.129a.4.4,0,0,1,.113,0c.272,0,.722.225.739.371s.388,1.911.391,1.931l.47.58-.136.215c.3.027,1.5.136,2.07.136a1.1,1.1,0,0,0,.282-.02,26.114,26.114,0,0,0,2.126-1.7l.136-1.858a.954.954,0,0,0-.179-.232.272.272,0,0,1-.066-.391c.076-.109.57-.573.59-.593l.295.159.169.795,1.855-.05a.464.464,0,0,1,.388.142.411.411,0,0,1,.053.457l1.242,2.3a12.814,12.814,0,0,1-1.05,1.232,1.524,1.524,0,0,1-.457.272,1.557,1.557,0,0,0-.268.132c-.2.142-2.06,1.381-2.461,1.656a20.961,20.961,0,0,1-1.812,1.1,1.245,1.245,0,0,1-.275,0c-.643,0-2.319-.07-3.021-.172-.868-.123-2.338-.4-2.69-.5a3.909,3.909,0,0,0-.662-.089,7.137,7.137,0,0,1-.729-.1,16.585,16.585,0,0,1-1.709-.5,4.8,4.8,0,0,1-1.216.725,6.833,6.833,0,0,1-1.113-.55s-2.531.407-2.829.447a5.426,5.426,0,0,0-.593.156,17.071,17.071,0,0,1-2.146.513,29.257,29.257,0,0,1-3.312.262" transform="translate(-13.683 -55.406)"/><path class="o" d="M49.234,82.786l.242.166.149.765h1.9a.431.431,0,0,1,.354.126.368.368,0,0,1,.046.407l1.242,2.338s-.8.931-1.04,1.166a4.756,4.756,0,0,1-.719.4c-.2.142-2.06,1.381-2.461,1.656s-1.656,1.06-1.8,1.1a1.913,1.913,0,0,1-.265,0c-.662,0-2.319-.073-3.014-.169-.838-.123-2.319-.4-2.68-.5s-.841-.079-1.4-.179a15.729,15.729,0,0,1-1.7-.5,6.737,6.737,0,0,1-1.232.719h0a7.648,7.648,0,0,1-1.083-.537s-2.56.4-2.859.437-1.52.48-2.739.662a29.887,29.887,0,0,1-3.312.229,1.55,1.55,0,0,1-.331-.02c-.242-.079-2.14-1.239-3.123-1.878s-1.418-.762-2.057-1.163a5.273,5.273,0,0,1-.9-1.438,9.937,9.937,0,0,0,1.219-2.683h2.319l.139-.921c.662.331.785.59.725.8a2.683,2.683,0,0,0-.166,1.11,2.12,2.12,0,0,0,.391,1.325c.136.106,1.987,1.487,2.07,1.487s2.3-.182,2.3-.182l-.212-.192a4.637,4.637,0,0,0,.662-1.186,5.754,5.754,0,0,0,.4-1.487.613.613,0,0,1,.494-.265.285.285,0,0,1,.093,0c.209.056,2.666.974,2.772,1.05s1.05,1.242,1.05,1.242h.556a7.105,7.105,0,0,1,1.02-.51,4.762,4.762,0,0,1,.556.089l.54-.331.662.689h1.229a9.461,9.461,0,0,1,.795-1.143c.136-.073,2.368-1.047,2.627-1.123a.451.451,0,0,1,.1,0c.272,0,.682.222.7.331s.391,1.934.391,1.934l.477.6-.179.225s1.484.142,2.15.142a1.113,1.113,0,0,0,.295-.023c.255-.086,2.16-1.679,2.16-1.679l.149-1.891a.884.884,0,0,0-.2-.268.229.229,0,0,1-.056-.331c.073-.106.583-.586.583-.586m0-.089a.093.093,0,0,0-.063.023c-.05.05-.517.49-.6.6a.331.331,0,0,0,.076.447.888.888,0,0,1,.162.222l-.146,1.825a25.312,25.312,0,0,1-2.1,1.656,1.124,1.124,0,0,1-.265,0c-.52,0-1.57-.089-1.987-.126l.076-.093a.106.106,0,0,0,0-.116l-.467-.58c-.109-.52-.374-1.815-.384-1.911-.023-.179-.507-.4-.785-.4a.746.746,0,0,0-.126,0c-.268.083-2.5,1.06-2.65,1.136a6.741,6.741,0,0,0-.8,1.126H38.059l-.636-.662a.083.083,0,0,0-.113,0l-.51.331a3.944,3.944,0,0,0-.537-.083,5.339,5.339,0,0,0-1.047.51H34.73c-.209-.258-.934-1.153-1.04-1.229s-2.65-1.014-2.8-1.063a.443.443,0,0,0-.116,0,.662.662,0,0,0-.58.331q-.013.064-.02.129a4.925,4.925,0,0,1-.368,1.3,4.67,4.67,0,0,1-.662,1.163.086.086,0,0,0,0,.123l.06.056-2.067.166c-.2-.106-1.838-1.325-2.034-1.467a2.107,2.107,0,0,1-.354-1.249,2.474,2.474,0,0,1,.126-.971.484.484,0,0,1,.033-.113c.089-.308-.162-.6-.768-.9h-.03a.106.106,0,0,0-.053,0,.093.093,0,0,0-.05.066l-.126.835-2.223.02a.093.093,0,0,0-.086.07,9.973,9.973,0,0,1-1.206,2.65.08.08,0,0,0,0,.086,4.966,4.966,0,0,0,.937,1.481,7.688,7.688,0,0,0,.762.417,12.917,12.917,0,0,1,1.3.742c.971.633,2.885,1.805,3.14,1.891a1.375,1.375,0,0,0,.378.03,29.48,29.48,0,0,0,3.312-.268,16.779,16.779,0,0,0,2.146-.494c.272-.076.484-.139.583-.152.282-.036,2.521-.388,2.829-.434a6.624,6.624,0,0,0,1.09.537h0a4.975,4.975,0,0,0,1.262-.712,14.536,14.536,0,0,0,1.656.49c.265.046.513.07.735.086a3.464,3.464,0,0,1,.662.093c.351.1,1.832.378,2.69.5.706.1,2.385.172,3.027.172a1.444,1.444,0,0,0,.288,0,20.162,20.162,0,0,0,1.825-1.113c.4-.262,2.269-1.5,2.464-1.656a1.444,1.444,0,0,1,.255-.129,1.59,1.59,0,0,0,.47-.275c.242-.222,1.014-1.153,1.05-1.189a.1.1,0,0,0,0-.1l-1.189-2.3a.45.45,0,0,0-.079-.464.513.513,0,0,0-.421-.156H49.715l-.136-.7a.07.07,0,0,0-.036-.053l-.238-.166a.109.109,0,0,0-.053,0" transform="translate(-13.611 -55.293)"/><path class="p" d="M78.461,90.34c.136-.07,2.915-1.616,3.123-1.742s.295-.225-.079-.185a5.962,5.962,0,0,0-1.325.5c-.457.192-1.133.52-1.279.6a3.037,3.037,0,0,0-.494.662c-.109.166-.036.2.043.159" transform="translate(-52.4 -59.12)"/><path class="p" d="M31.946,84.56c-.053-.166-.434-.4-.593-.49l-.113.742c.444.033.768-.066.706-.252" transform="translate(-20.892 -56.222)"/><path class="p" d="M25.256,87.026c-.176,0-.3.136,0,.262A16.376,16.376,0,0,1,28.1,88.915a2.726,2.726,0,0,1-.229-1.07A2.65,2.65,0,0,1,27.952,87l-2.7.04" transform="translate(-16.769 -58.182)"/><path class="p" d="M108.545,86.671c.295-.139.056-.139-.219-.156s-1.779,0-2.342,0v.03l-.152,1.891-.113.093a8.232,8.232,0,0,1,1.54-1.153c.609-.331.994-.553,1.272-.692" transform="translate(-70.702 -57.853)"/><path class="p" d="M51.459,88.158a20.516,20.516,0,0,0,2.65,1.428,4.836,4.836,0,0,0,1.186.371c-.278-.331-.8-.994-.881-1.033S52.3,88.1,51.763,87.91c-.331,0-.411.136-.295.248" transform="translate(-34.387 -58.79)"/><path class="p" d="M64.8,94.78a2.65,2.65,0,0,0,.235.609.857.857,0,0,1-.026,1.123c-.139.1-.378.262-.527.235a.6.6,0,0,0-.457.083c-.126.1-.6.136-.775.222-.083.036-.57.162-1.08.285l1.56-.238a7.649,7.649,0,0,0,1.083.537,6.376,6.376,0,0,0,1.239-.719l.076.026a1.63,1.63,0,0,1,.166-.182c.2-.152.735-.457.831-.553a.566.566,0,0,0,.179-.474c0-.288.086-.441-.1-.662s-1.451-1.361-1.451-1.361a16.511,16.511,0,0,0,1.2,1.444.6.6,0,0,1,.07.556c-.03.123-.182.149-.331.093a.186.186,0,0,0-.219.03s-.1.209-.156.331-.166.378-.275.391-.166-.073-.3.053a5.3,5.3,0,0,1-.662.54A.467.467,0,0,1,64.595,97c.47-.169.553-.238.639-.331a2.852,2.852,0,0,1,.331-.4c.126-.113.056-.444-.083-.662s-.152-.378-.291-.609-.232-.8-.414-.994-.7-.149-1.222-.129l-.2.109a2.848,2.848,0,0,1,1.136.06,1.451,1.451,0,0,1,.331.762" transform="translate(-41.577 -62.669)"/><path class="p" d="M107.309,84.3l-.136-.682-.023-.02a3.872,3.872,0,0,0-.417.331c-.156.159-.076.417.576.371" transform="translate(-71.334 -55.908)"/><path class="a" d="M23.113,92.392l-.242-.162a.447.447,0,0,1-.232-.364l-.056-.609v-.537c.142,0,.278.063.407.063a.331.331,0,0,0,.3-.152.282.282,0,0,0,.046-.232.371.371,0,0,0-.179-.235c-.06-.036-.123-.066-.189-.1l-.735,1.166c-.1.152-.2.295-.123.4,0,0-.033.063-.05.063l-.5-.331s.017-.073.033-.073h0c.136,0,.222-.132.285-.229l.689-1.027c.1-.156.2-.3.123-.4,0,0,.036-.056.053-.056l.619.411a.755.755,0,0,1,.331.411.484.484,0,0,1-.063.424.593.593,0,0,1-.5.248.742.742,0,0,1-.268-.05l.129.686a2.266,2.266,0,0,0,.179.662.043.043,0,0,1,0,.043.033.033,0,0,1-.023,0h-.02" transform="translate(-14.419 -59.901)"/><path class="o" d="M22.61,89.5l.629.417c.351.232.421.547.262.788a.56.56,0,0,1-.474.229.725.725,0,0,1-.255-.046l.059.719a2.123,2.123,0,0,0,.179.662l-.242-.159a.417.417,0,0,1-.215-.331l-.056-.609v-.53a.921.921,0,0,0,.371.1.374.374,0,0,0,.331-.169.358.358,0,0,0-.142-.517,1.511,1.511,0,0,0-.192-.1l-.788,1.176c-.079.123-.222.3-.123.441h0l-.5-.331h.026c.156,0,.255-.179.331-.288l.662-.994c.083-.123.229-.3.129-.441h0m0-.073a.066.066,0,0,0-.06.033h0a.066.066,0,0,0,0,.083c.056.079,0,.189-.1.315l-.026.043-.662.994-.03.04c-.056.089-.139.215-.222.215h-.04a.07.07,0,0,0-.066.033.076.076,0,0,0,.017.106l.5.331a.083.083,0,0,0,.04,0,.066.066,0,0,0,.06-.033.086.086,0,0,0,0-.093c-.056-.073,0-.189.1-.331l.026-.036.282-.424v.427l.056.619a.49.49,0,0,0,.248.388l.238.162h.03a.076.076,0,0,0,.06,0,.083.083,0,0,0,.02-.086,2.08,2.08,0,0,1-.159-.619l-.05-.626a.742.742,0,0,0,.172.02.636.636,0,0,0,.54-.255.537.537,0,0,0,.056-.464.808.808,0,0,0-.351-.431l-.626-.417a.053.053,0,0,0-.04,0m-.07,1.139.368-.54a.994.994,0,0,1,.132.066.351.351,0,0,1,.162.212.272.272,0,0,1-.043.205.3.3,0,0,1-.272.136.841.841,0,0,1-.331-.086" transform="translate(-14.296 -59.806)"/><path class="a" d="M27.373,95.167l-1.113-.709s0-.076.033-.076h0c.139,0,.222-.136.285-.235l.662-1.04c.1-.156.2-.3.116-.4,0,0,0-.04.023-.043s.02-.02.02-.02l.865.543a.907.907,0,0,0,.229.126v.407a.189.189,0,0,0-.043,0h-.033c0-.113-.291-.278-.421-.358a1.894,1.894,0,0,0-.331-.189l-.268.48.3.152a.285.285,0,0,0,.113.053l-.146.331s-.073,0-.073-.027c0-.076-.089-.136-.166-.185l-.209-.132-.331.623.308.2a.749.749,0,0,0,.457.156.554.554,0,0,0,.106,0s.033.02.036.033a.134.134,0,0,1,0,.036l-.331.272h-.03" transform="translate(-17.562 -61.954)"/><path class="o" d="M27.3,92.61l.855.543a1.292,1.292,0,0,0,.245.136h0l-.053.358h0c-.023-.149-.378-.331-.5-.421a1.583,1.583,0,0,0-.285-.152l-.315.5.331.2a.275.275,0,0,0,.129.056h0l-.179.282h0c0-.106-.106-.172-.189-.225l-.2-.126-.4.633.331.245a.788.788,0,0,0,.48.166h.113l-.331.275-1.143-.719h0a.076.076,0,0,0,.04,0c.142,0,.242-.185.311-.295l.639-.994c.076-.123.215-.308.109-.444h0m0-.066a.063.063,0,0,0-.06.03h0a.076.076,0,0,0,0,.083c.06.079,0,.2-.093.331l-.023.036-.639.994-.02.036c-.06.093-.139.222-.229.222h-.036a.083.083,0,0,0-.066.033.1.1,0,0,0,0,.063.086.086,0,0,0,.03.046l1.113.706h.026a.079.079,0,0,0,.06,0l.331-.272a.079.079,0,0,0,.026-.063.066.066,0,0,0-.036-.053.08.08,0,0,0-.046,0h0a.5.5,0,0,1-.1,0,.715.715,0,0,1-.454-.166l-.268-.209.331-.517.136.086c.076.05.159.1.159.159a.066.066,0,0,0,.033.066.08.08,0,0,0,.043,0h0a.07.07,0,0,0,.05-.03l.179-.282a.07.07,0,0,0-.023-.1.073.073,0,0,0-.036,0,.252.252,0,0,1-.1-.046l-.255-.162.238-.384a1.782,1.782,0,0,1,.219.126l.066.036c.106.066.391.235.4.331a.086.086,0,0,0,.03.053.106.106,0,0,0,.046,0h.03a.07.07,0,0,0,.043-.053l.056-.358a.073.073,0,0,0-.033-.07.1.1,0,0,0-.043,0,1.164,1.164,0,0,1-.2-.116l-.848-.566h-.026" transform="translate(-17.465 -61.894)"/><path class="a" d="M30.23,97.045s0-.073.03-.073h0c.139,0,.222-.139.282-.245l.629-1.06c.093-.146.185-.3.109-.4,0,0,.033-.063.046-.063l.662.394c.388.235.53.6.331.9a.59.59,0,0,1-.51.3.855.855,0,0,1-.424-.119A.583.583,0,0,1,31.2,96.5c.146,0,.258.03.364.03a.4.4,0,0,0,.368-.2.351.351,0,0,0-.166-.54,1.071,1.071,0,0,0-.2-.1l-.686,1.209c-.093.156-.142.245-.063.391,0,0-.033.06-.05.06l-.543-.331" transform="translate(-20.217 -63.666)"/><path class="o" d="M31.227,95.146l.662.394c.351.209.52.543.331.845a.556.556,0,0,1-.5.268.782.782,0,0,1-.4-.116.493.493,0,0,1-.176-.156.686.686,0,0,0,.331.083.447.447,0,0,0,.4-.209.388.388,0,0,0-.185-.566,1.606,1.606,0,0,0-.2-.1l-.729,1.222c-.093.156-.159.262-.063.427h0l-.543-.331h.036c.146,0,.242-.189.308-.3l.609-1.023c.073-.123.205-.311.106-.447h0m0-.07h0a.08.08,0,0,0-.05.033h0a.07.07,0,0,0,0,.079c.063.079-.026.225-.089.331l-.02.036-.613,1.023-.02.036c-.056.1-.136.229-.225.229h-.033a.076.076,0,0,0-.063.033.1.1,0,0,0,0,.06.07.07,0,0,0,.03.05l.543.331a.06.06,0,0,0,.036,0h0a.086.086,0,0,0,.043-.033.093.093,0,0,0,0-.083c-.07-.123-.036-.189.056-.331l.265-.441h0a.53.53,0,0,0,.2.179.888.888,0,0,0,.441.126.633.633,0,0,0,.556-.3.547.547,0,0,0,.036-.523.961.961,0,0,0-.4-.421l-.662-.394h-.023m-.089,1.232.374-.626a.994.994,0,0,1,.132.07c.149.086.3.238.162.467a.371.371,0,0,1-.331.176.662.662,0,0,1-.3-.076.105.105,0,0,0-.03,0" transform="translate(-20.127 -63.579)"/><path class="a" d="M37.038,99.984h-.03l-.043-.063a.643.643,0,0,1-.166-.49l.04-1.457a.732.732,0,0,0-.06-.414s0-.033.02-.036V97.5l.441.172v.04a.262.262,0,0,1,0,.043,1.226,1.226,0,0,0-.027.262l-.043,1.491.755-.921c.2-.215.331-.364.209-.47,0,0,.02-.07.04-.07l.441.176-1.55,1.762h0Z" transform="translate(-24.597 -65.204)"/><path class="o" d="M36.734,97.466l.427.172v.033a1.325,1.325,0,0,0-.03.308l-.043,1.461.818-.9c.162-.176.358-.374.205-.523h0l.441.172L36.973,99.9c-.156-.219-.212-.268-.2-.533l.036-1.378a.994.994,0,0,0-.063-.51h0m0-.07H36.7a.076.076,0,0,0-.04.04h0a.07.07,0,0,0,0,.063.709.709,0,0,1,.053.394v.079l-.036,1.375a.662.662,0,0,0,.172.517l.043.06a.07.07,0,0,0,.056.03h0a.076.076,0,0,0,.053-.023l1.577-1.709a.066.066,0,0,0-.023-.113l-.441-.176h-.053a.05.05,0,0,0-.036.04.08.08,0,0,0,0,.086c.089.089-.02.222-.192.407h-.017l-.672.772.036-1.269V97.96a1.216,1.216,0,0,1,.023-.255v-.026a.076.076,0,0,0,0-.06.066.066,0,0,0-.04-.04l-.4-.179h-.027" transform="translate(-24.515 -65.137)"/><path class="a" d="M42.533,101.646H42.51a.043.043,0,0,1,0-.03h0c.142-.083.136-.258.129-.4l-.04-1.232c0-.182,0-.354-.129-.391v-.05a.063.063,0,0,0,0-.033l.762-.023c.454,0,.7.176.709.47a.474.474,0,0,1-.331.454h.03a.51.51,0,0,1,.537.51.662.662,0,0,1-.381.6,1.507,1.507,0,0,1-.662.126h-.576m.662-1.063L43,100.6l.06.742.248-.02a.494.494,0,0,0,.371-.119.331.331,0,0,0,.089-.252c0-.275-.265-.374-.484-.374v-.036Zm-.036-.838-.209.026.05.583.066-.036c.076,0,.464-.03.454-.3a.285.285,0,0,0-.311-.268v-.04Z" transform="translate(-28.403 -66.535)"/><path class="o" d="M43.114,99.336c.391,0,.619.169.629.437a.441.441,0,0,1-.3.421.586.586,0,0,1,.533.543.643.643,0,0,1-.361.566,1.6,1.6,0,0,1-.706.119h-.52c.159-.066.129-.295.126-.441l-.036-1.192c0-.139,0-.371-.152-.427h0l.752-.027h.043m-.3.848h.106c.205,0,.494-.086.487-.331a.331.331,0,0,0-.331-.3h-.056l-.209.03.02.619m.351.994c.245,0,.474-.129.464-.411s-.262-.407-.52-.407h-.07l-.219.02.023.778h.3m-.046-1.921h-.046l-.749.023a.06.06,0,0,0-.05.023.076.076,0,0,0-.02.053.086.086,0,0,0,.05.073c.089.03.1.159.1.331v.05l.04,1.189v.043c0,.156,0,.291-.083.331a.076.076,0,0,0-.043.07.079.079,0,0,0,.073.079h.573a1.547,1.547,0,0,0,.686-.126.709.709,0,0,0,.4-.629.619.619,0,0,0-.421-.6.45.45,0,0,0,.192-.4c0-.311-.278-.5-.7-.5m-.252.361.146-.02h.046a.255.255,0,0,1,.275.238.2.2,0,0,1-.126.2.643.643,0,0,1-.291.07h-.033Zm.026.831.156-.017h.06c.2,0,.441.086.447.331a.3.3,0,0,1-.076.225.434.434,0,0,1-.331.113h-.252Z" transform="translate(-28.256 -66.374)"/><path class="a" d="M47.355,101.189a.057.057,0,0,1-.023,0,.036.036,0,0,1,0-.027h0c.136-.093.116-.265.1-.4l-.123-1.232c0-.182-.027-.354-.152-.388v-.079l.745-.073h.129c.354,0,.583.159.609.431a.474.474,0,0,1-.291.474h.06a.507.507,0,0,1,.523.477.662.662,0,0,1-.331.623,1.441,1.441,0,0,1-.662.166l-.573.056m.7-1.116h-.113l-.222.033.109.739.238-.033a.48.48,0,0,0,.364-.139.331.331,0,0,0,.079-.265.411.411,0,0,0-.457-.331m-.129-.831h-.076l-.205.04.089.58.063-.043c.076,0,.46-.06.431-.331a.282.282,0,0,0-.3-.248" transform="translate(-31.539 -66.2)"/><path class="o" d="M47.88,98.913c.331,0,.55.149.573.4a.441.441,0,0,1-.275.437.58.58,0,0,1,.566.507.643.643,0,0,1-.331.59,1.656,1.656,0,0,1-.7.166l-.52.05h0c.149-.073.109-.3.1-.444l-.116-1.186c0-.142,0-.374-.179-.417h0l.749-.073h.126m-.331.871h.106c.205-.02.49-.116.464-.374a.331.331,0,0,0-.331-.282H47.7l-.209.04.06.623m.1.994h.278c.258,0,.51-.146.48-.444A.444.444,0,0,0,47.91,100a.7.7,0,0,0-.119,0l-.219.033.073.775m.238-1.924h-.136l-.742.073a.076.076,0,0,0-.066.079.093.093,0,0,0,.056.073c.089.026.109.152.123.308v.046l.113,1.186v.043c0,.156.023.288-.06.331a.066.066,0,0,0-.043.07.083.083,0,0,0,.076.073h0l.52-.05h.053a1.467,1.467,0,0,0,.662-.169.706.706,0,0,0,.358-.662.616.616,0,0,0-.46-.537.457.457,0,0,0,.169-.407c-.03-.291-.272-.467-.646-.467m-.331.384.142-.033h.07a.252.252,0,0,1,.268.215c.023.242-.331.288-.4.3h.013Zm.079.825.152-.026h.109a.378.378,0,0,1,.421.311.291.291,0,0,1-.07.238.447.447,0,0,1-.331.126h-.212Z" transform="translate(-31.392 -66.12)"/><path class="a" d="M52.177,100.219s-.033,0-.033-.03h0c.132-.1.1-.278.076-.407l-.2-1.216c-.027-.182-.053-.354-.182-.378,0-.02-.02-.083,0-.083l.6-.1s.04.07.026.076c-.113.066-.083.232-.06.368l.229,1.408.388-.066a.765.765,0,0,0,.5-.272h.023a.066.066,0,0,1,.026,0s.026,0,.023.023l-.1.447-1.325.235" transform="translate(-34.665 -65.545)"/><path class="o" d="M52.361,97.95h0c-.152.083-.093.311-.07.45l.219,1.361.427-.04a.772.772,0,0,0,.52-.278h0l-.079.464-1.285.205h0c.152-.083.1-.311.073-.45l-.189-1.176c-.023-.142-.043-.374-.209-.407h0l.6-.1m0-.073h0l-.6.1a.073.073,0,0,0-.06.083.083.083,0,0,0,.056.07c.1.02.123.149.146.3v.043l.189,1.176v.043c.026.149.046.288-.04.331a.066.066,0,0,0-.036.073.08.08,0,0,0,.073.07h0l1.282-.205a.076.076,0,0,0,.083-.086l.1-.441a.086.086,0,0,0,0-.066.07.07,0,0,0-.053-.023h0a.1.1,0,0,0-.053.026.686.686,0,0,1-.474.255l-.361.033-.209-1.3v-.043c-.026-.152-.043-.288.04-.331a.066.066,0,0,0,.036-.07.093.093,0,0,0-.03-.053.083.083,0,0,0-.046-.02" transform="translate(-34.58 -65.458)"/><path class="a" d="M56.808,99.309a.04.04,0,0,1-.036-.03h0c.132-.1.1-.278.076-.411l-.209-1.226c-.026-.182-.053-.351-.179-.378v-.079l.593-.1s.04.07.026.076c-.113.066-.079.245-.056.378l.2,1.212c.023.172.053.351.179.378v.079l-.6.1" transform="translate(-37.759 -64.93)"/><path class="o" d="M56.987,97.066h0c-.146.086-.089.331-.07.454L57.11,98.7c.023.139.04.368.205.4h0l-.593.1h0c.149-.079.093-.3.07-.447L56.6,97.576c-.023-.146-.04-.374-.205-.411h0l.593-.093m0-.073h0l-.593.093a.073.073,0,0,0-.06.083.083.083,0,0,0,.056.07c.1,0,.119.149.142.3v.046l.185,1.176v.043c.03.149.043.285-.036.331a.073.073,0,0,0-.036.076.083.083,0,0,0,.073.07h0l.593-.1a.076.076,0,0,0,.046-.03.066.066,0,0,0,0-.053.089.089,0,0,0-.056-.07c-.1-.017-.123-.152-.146-.3V98.7l-.185-1.176v-.043c-.023-.149-.04-.288.04-.331a.07.07,0,0,0,.036-.07.079.079,0,0,0-.03-.053.083.083,0,0,0-.046-.02" transform="translate(-37.677 -64.87)"/><path class="a" d="M60.016,98.3a1.06,1.06,0,0,1-1.12-.951,1.083,1.083,0,0,1,.951-1.292,2.153,2.153,0,0,1,.331-.023h.262l.093.388a4.465,4.465,0,0,0-.49-.053.7.7,0,0,0-.146,0,.662.662,0,0,0-.47.282.755.755,0,0,0-.109.56.8.8,0,0,0,.768.719h.123a1.341,1.341,0,0,0,.616-.3l-.033.424a1.113,1.113,0,0,1-.487.2,1.68,1.68,0,0,1-.285.023" transform="translate(-39.374 -64.221)"/><path class="o" d="M60.1,96.016h.255l.056.358a1.156,1.156,0,0,0-.45-.083.768.768,0,0,0-.152,0,.725.725,0,0,0-.609.884.845.845,0,0,0,.8.772.882.882,0,0,0,.129,0,1.4,1.4,0,0,0,.633-.3h0l-.1.388a1.06,1.06,0,0,1-.457.169,1.629,1.629,0,0,1-.278.023,1.023,1.023,0,0,1-1.093-.941,1.047,1.047,0,0,1,.924-1.249,2.11,2.11,0,0,1,.331-.023m0-.073a2.066,2.066,0,0,0-.331.023,1.219,1.219,0,0,0-.788.45,1.136,1.136,0,0,0-.2.881,1.093,1.093,0,0,0,1.159.984,1.785,1.785,0,0,0,.291-.023,1.123,1.123,0,0,0,.484-.179.06.06,0,0,0,.03-.043l.1-.384a.059.059,0,0,0-.056-.093h0a.186.186,0,0,0-.04,0,1.341,1.341,0,0,1-.6.291h-.119a.765.765,0,0,1-.732-.689.725.725,0,0,1,.1-.533.609.609,0,0,1,.57-.255,1.09,1.09,0,0,1,.424.093.04.04,0,0,0,.027,0h.046a.08.08,0,0,0,.027-.073l-.056-.354a.076.076,0,0,0-.066-.063h-.262" transform="translate(-39.296 -64.16)"/><path class="a" d="M65.018,97.969H65a.06.06,0,0,1,0-.023h0a.719.719,0,0,0,.222-.457l.331-1.431c.02-.083.036-.166,0-.205a.106.106,0,0,0-.07-.033s-.017-.04,0-.046,0-.033,0-.036l.49-.076.944,1.514c.113.185.2.331.358.374v.083l-.639.1s-.04-.063-.026-.073c.106-.07.1-.073,0-.245l-.285-.467-.749.142-.063.437c-.04.192-.036.245.086.268v.083l-.58.093m.643-1.153.573-.142-.407-.609Z" transform="translate(-43.468 -63.973)"/><path class="o" d="M65.847,95.5l.908,1.5c.1.166.185.331.378.394h0l-.639.1h0c.142-.093.113-.126,0-.331l-.242-.414-.785.126-.093.467c-.036.185-.043.278.116.311h0l-.573.093h0a.706.706,0,0,0,.229-.487l.331-1.388c.023-.119.063-.258-.1-.282h0l.49-.083m-.331,1.136.613-.1-.467-.742-.179.835m.331-1.206h0l-.494.076a.079.079,0,0,0-.063.086.086.086,0,0,0,.063.066.086.086,0,0,1,.046.02c.02.03,0,.106,0,.162l-.331,1.4v.05a.586.586,0,0,1-.192.4.07.07,0,0,0-.03.073.086.086,0,0,0,.076.066h0l.573-.093a.07.07,0,0,0,.05-.03.06.06,0,0,0,0-.053.073.073,0,0,0-.056-.066c-.066,0-.073-.036-.073-.05a.457.457,0,0,1,0-.179l.079-.414.729-.109.215.364.02.036a.7.7,0,0,1,.073.146l-.063.053a.073.073,0,0,0-.033.07.093.093,0,0,0,.03.053.08.08,0,0,0,.046,0h0l.636-.1a.079.079,0,0,0,.063-.083.1.1,0,0,0-.05-.07c-.152-.046-.225-.172-.331-.331L66.8,96.93l-.908-1.5a.076.076,0,0,0-.063-.033m-.252,1.116.123-.553.285.49Z" transform="translate(-43.36 -63.8)"/><path class="a" d="M78.06,98.456v-.083c.126-.023.152-.2.169-.331l.192-1.222c.033-.182.066-.351-.05-.414,0,0,0-.076.026-.076l.593.1v.079c-.126.026-.152.205-.172.331l-.192,1.216c-.03.172-.06.331.053.414,0,.02,0,.076-.026.076Z" transform="translate(-52.204 -64.422)"/><path class="o" d="M78.3,96.279l.593.093h0c-.166.036-.185.272-.209.411L78.5,97.956c-.02.142-.076.368.07.45h0l-.593-.093h0c.166-.033.182-.265.205-.407l.185-1.176c.023-.142.083-.368-.066-.45h0m0-.073a.07.07,0,0,0-.07.06h0a.079.079,0,0,0,.036.076c.083.043.066.176.043.331v.043L78.126,97.9v.043c-.023.149-.05.288-.142.3a.063.063,0,0,0-.056.06.076.076,0,0,0,.056.089l.593.093h0a.073.073,0,0,0,.073-.06.093.093,0,0,0-.033-.086c-.083-.046-.066-.182-.04-.331v-.043l.182-1.169v-.043c.023-.149.05-.288.142-.3a.073.073,0,0,0,.056-.063.08.08,0,0,0-.06-.089l-.59-.1h0" transform="translate(-52.114 -64.335)"/><path class="a" d="M81.67,99.168v-.079c.123-.03.142-.205.156-.331l.182-1.431h-.331a.45.45,0,0,0-.275.079h-.043s-.023,0-.02-.03l.156-.381h.03a.527.527,0,0,1,.1,0l1.279.166h.149l-.109.411h-.089c0-.073-.086-.116-.225-.132l-.282-.033-.129,1.381c-.023.179-.036.285.1.388v.043a.11.11,0,0,0,0,.033Z" transform="translate(-54.397 -64.865)"/><path class="o" d="M81.449,96.853h0a.663.663,0,0,0,.116.036l1.249.156h.076a.235.235,0,0,0,.07,0h0l-.149.361h0c-.026-.116-.152-.149-.255-.159l-.282-.036-.182,1.428c-.02.179-.04.3.113.421h0l-.619-.079h0c.166-.04.176-.268.192-.411l.192-1.385-.278-.033H81.6a.484.484,0,0,0-.295.086h0l.146-.384m0-.073a.083.083,0,0,0-.076.043l-.146.361a.083.083,0,0,0,0,.063.076.076,0,0,0,.053.036h0a.07.07,0,0,0,.046,0,.464.464,0,0,1,.255-.07.351.351,0,0,1,.083,0l.205.026L81.7,98.565v.043c0,.149-.04.285-.132.308a.07.07,0,0,0-.053.056.073.073,0,0,0,0,.06.089.089,0,0,0,.043.036l.626.076h0a.06.06,0,0,0,.043,0,.063.063,0,0,0,.026-.05.093.093,0,0,0-.023-.076c-.113-.086-.109-.162-.086-.331l.172-1.368.209.026c.156.02.185.066.2.106a.066.066,0,0,0,.06.053h0a.086.086,0,0,0,.076-.043l.146-.361a.063.063,0,0,0,0-.06.066.066,0,0,0-.053-.04h-.159l-1.245-.156h-.026a.156.156,0,0,1-.063-.02h0" transform="translate(-54.318 -64.722)"/><path class="a" d="M87.077,100.519s-.017-.073,0-.079c.119-.033.116-.04.07-.232l-.126-.5-.755-.073-.185.4c-.046.093-.083.162-.066.212s.033.05.076.073,0,.04,0,.046v.03l-.59-.07v-.083a.623.623,0,0,0,.331-.331l.709-1.282c.043-.076.079-.149.066-.192s-.027-.04-.06-.056,0-.079.02-.079l.5.063.477,1.719c.056.209.1.364.242.46a.474.474,0,0,0,0,.076l-.662-.083m-.662-1.129.59.026-.222-.7Z" transform="translate(-57.18 -65.739)"/><path class="o" d="M86.374,98.163l.494.063.45,1.693a.742.742,0,0,0,.252.48h0l-.639-.079h0c.162-.05.142-.089.086-.331l-.113-.464-.792-.1-.219.421c-.089.169-.123.258.023.331h0l-.576-.07h0c.2-.07.272-.238.361-.407l.689-1.242c.06-.109.132-.232,0-.3h0m.444,1.136-.205-.831-.411.752.616.079m-.46-1.2a.07.07,0,0,0-.07.06h0a.076.076,0,0,0,.04.076.109.109,0,0,1,.043.03.458.458,0,0,1-.056.152l-.7,1.255-.023.043c-.079.149-.149.278-.3.331a.073.073,0,0,0-.046.06.079.079,0,0,0,.06.089l.576.073h0a.073.073,0,0,0,.073-.063.083.083,0,0,0-.036-.079c-.06-.036-.06-.056-.06-.066a.5.5,0,0,1,.066-.172l.2-.378.692.089.1.414v.043a.573.573,0,0,1,.027.156l-.073.033a.076.076,0,0,0,0,.149l.643.083h0a.076.076,0,0,0,.073-.066.079.079,0,0,0-.03-.076.623.623,0,0,1-.209-.4v-.046l-.447-1.693a.079.079,0,0,0-.063-.053l-.494-.06h0m-.043,1.063.272-.494.136.547Z" transform="translate(-57.024 -65.592)"/><path class="a" d="M92.626,101s-.023-.076,0-.079c.123-.04.132-.219.139-.351l.073-1.232c0-.179.023-.351-.1-.4V98.85l.6.033s.02.076,0,.079c-.123.04-.132.219-.136.351l-.083,1.421.484.02a.742.742,0,0,0,.454-.159h.046a.017.017,0,0,1,0,.033l-.185.407-.02.023-1.325-.076" transform="translate(-61.915 -66.107)"/><path class="o" d="M92.695,98.753l.6.033h0c-.166.05-.156.285-.166.427l-.079,1.375.427.053a.437.437,0,0,0,.093,0,.768.768,0,0,0,.474-.166h0l-.189.411-1.3-.076h0c.162-.046.159-.282.166-.424L92.8,99.2c0-.142.043-.374-.116-.441h0m0-.073a.076.076,0,0,0-.073.066h0a.076.076,0,0,0,.043.073c.089.04.089.176.076.331v.04l-.063,1.182v.033c0,.149-.02.288-.116.331a.073.073,0,0,0-.05.066.079.079,0,0,0,.066.086l1.3.076h0a.073.073,0,0,0,.063-.043l.192-.411a.076.076,0,0,0-.063-.1h0a.126.126,0,0,0-.053,0,.709.709,0,0,1-.434.152h-.083l-.361-.046.076-1.325v-.046c0-.159.02-.288.113-.331a.08.08,0,0,0,.053-.066.1.1,0,0,0-.02-.056.066.066,0,0,0-.05-.026l-.6-.036h0" transform="translate(-61.861 -65.96)"/><path class="a" d="M98.059,101.2s-.023-.076,0-.079c.116-.043.116-.225.116-.354V99.534c0-.185,0-.358-.116-.4V99.05h.6s.026.073,0,.079c-.119.046-.116.225-.116.358v1.235c0,.172,0,.354.113.4v.079Z" transform="translate(-65.572 -66.241)"/><path class="o" d="M97.986,99.006h.6c-.159.06-.139.291-.139.434v1.192c0,.142-.02.371.136.434h-.6c.159-.056.139-.291.142-.431V99.443c0-.146.026-.374-.136-.437h0m0-.07A.07.07,0,0,0,97.93,99h0a.07.07,0,0,0,.046.066c.089.036.1.166.093.331v1.285c0,.152,0,.288-.089.331a.076.076,0,0,0-.05.066.083.083,0,0,0,.073.083h.6a.07.07,0,0,0,.073-.07.089.089,0,0,0-.046-.079c-.089-.036-.093-.169-.093-.331V99.41c0-.156,0-.295.1-.331a.073.073,0,0,0,.046-.07.08.08,0,0,0-.073-.079Z" transform="translate(-65.493 -66.16)"/><path class="a" d="M100.8,100.664h-.02a.742.742,0,0,0,0-.507l-.331-1.431c-.03-.126-.05-.2-.116-.2h-.083l.414-.331,1.5.964a.8.8,0,0,0,.431.192h.073l-.513.394s-.063-.043-.056-.056c.063-.109.063-.109-.1-.225l-.427-.291-.616.45.132.424c.04.159.063.212.136.212h.04a.123.123,0,0,1,.056,0l-.487.394h0m.1-1.325.457-.374-.629-.378Z" transform="translate(-67.044 -65.672)"/><path class="o" d="M100.64,98l1.461.964a.838.838,0,0,0,.45.2h.056l-.533.368h0c.086-.146.043-.159-.149-.295l-.394-.268-.662.447.116.464c.04.152.07.238.172.238h.066l-.477.331h0a.689.689,0,0,0,0-.543l-.3-1.4c-.02-.1-.046-.225-.149-.225h-.053l.411-.285m.172,1.176.517-.354-.709-.48.192.835m-.172-1.249a.093.093,0,0,0-.04,0l-.411.285a.073.073,0,0,0-.02.1.086.086,0,0,0,.07.04h.023c.046,0,.063.05.086.152l.331,1.4v.05a.6.6,0,0,1,0,.447.073.073,0,0,0,0,.073.08.08,0,0,0,.07.036.119.119,0,0,0,.036,0l.48-.331a.086.086,0,0,0,.03-.046.06.06,0,0,0,0-.053.086.086,0,0,0-.07-.04h-.05c-.04,0-.06-.02-.1-.189l-.1-.411.573-.4.351.245.036.02c.056.043.123.086.126.1s0,0-.033.073a.07.07,0,0,0,0,.079.083.083,0,0,0,.07.036.11.11,0,0,0,.033,0l.537-.368a.073.073,0,0,0,.027-.046.063.063,0,0,0,0-.053.093.093,0,0,0-.07-.04h-.053a.662.662,0,0,1-.371-.159l-.04-.026-1.494-.954a.069.069,0,0,0-.04,0m.222,1.126-.129-.55.467.331Z" transform="translate(-66.994 -65.487)"/><path class="a" d="M105.165,95.7a.046.046,0,0,1-.026,0h0a.388.388,0,0,0-.1-.424l-.752-.994c-.093-.126-.156-.212-.291-.212h0a.2.2,0,0,1-.073,0l.374-.331.116.033.076.023,1.779.434-.752-.9c-.093-.132-.152-.212-.285-.212h-.066l.441-.4s.066.04.06.05c-.066.156,0,.238.1.384l1.06,1.421a.417.417,0,0,1-.285.1,1.053,1.053,0,0,1-.331-.063l-1.689-.45.755.924c.1.129.156.212.291.212h0a.146.146,0,0,1,.076.017l-.454.391h-.023Z" transform="translate(-69.499 -62.001)"/><path class="o" d="M105.467,92.668h0c-.076.176,0,.275.1.417l1.057,1.421a.758.758,0,0,1-.255.046,1.189,1.189,0,0,1-.331-.06l-1.663-.434.729.994c.1.129.166.232.331.232h.03l-.447.331h0c.076-.179,0-.278-.106-.421l-.752-.994c-.1-.132-.166-.225-.331-.225h-.02l.368-.275h0a.172.172,0,0,0,.086.033l.07.026,1.8.427-.715-.961c-.1-.129-.166-.222-.331-.222h-.053l.444-.331m0-.07a.066.066,0,0,0-.036,0l-.447.331a.08.08,0,0,0-.03.05.073.073,0,0,0,0,.053.1.1,0,0,0,.066.036h.036c.123,0,.172.06.268.189l.6.8-1.6-.427-.07-.027a.089.089,0,0,1-.06-.02h-.043a.08.08,0,0,0-.05,0l-.368.275a.07.07,0,0,0,0,.1A.089.089,0,0,0,103.8,94h.046c.113,0,.166.066.262.2l.752,1.014c.113.149.156.215.1.348a.073.073,0,0,0,0,.073.083.083,0,0,0,.05.033h.04l.447-.331a.073.073,0,0,0,0-.1.089.089,0,0,0-.066-.036h-.043c-.116,0-.162-.056-.262-.192l-.609-.821,1.487.4a1.212,1.212,0,0,0,.331.063.885.885,0,0,0,.278-.05.06.06,0,0,0,.046-.046.07.07,0,0,0,0-.063l-1.007-1.421c-.113-.149-.156-.215-.1-.331a.06.06,0,0,0,0-.073.083.083,0,0,0-.066-.033" transform="translate(-69.363 -61.929)"/><path class="a" d="M111.583,93.231a.036.036,0,0,1-.023-.02h0a.706.706,0,0,0,0-.507l-.315-1.434c-.027-.126-.05-.2-.113-.2h-.083l.417-.331,1.494.971a.775.775,0,0,0,.431.2h.076l-.54.421s-.066-.043-.056-.056c.066-.1.06-.109-.1-.222l-.411-.3-.616.444.129.424c.04.159.063.215.136.215h.076l-.487.384h0m.106-1.325.46-.371-.643-.364Z" transform="translate(-74.267 -60.683)"/><path class="o" d="M111.4,90.657l1.454.97a.838.838,0,0,0,.454.2h.056l-.533.364h0c.089-.142.046-.156-.146-.291l-.391-.272-.662.447.113.46c.04.156.066.242.172.242a.215.215,0,0,0,.063,0h0l-.48.331h0a.732.732,0,0,0,0-.543l-.3-1.388c-.023-.1-.046-.225-.149-.225a.149.149,0,0,0-.053,0h0l.411-.282m.169,1.173.517-.331-.706-.487.189.835m-.169-1.245a.063.063,0,0,0-.04,0l-.411.278a.073.073,0,0,0-.02.1.089.089,0,0,0,.07.036h.033c.036,0,.053.046.076.152l.3,1.4v.05a.586.586,0,0,1,0,.444.07.07,0,0,0,0,.073.083.083,0,0,0,.046.036h.017a.056.056,0,0,0,.04,0L112,92.86a.07.07,0,0,0,.02-.1.089.089,0,0,0-.07-.036h-.046c-.04,0-.06,0-.1-.185l-.1-.417.586-.4.354.242.033.023c.056.04.123.083.126.1s0,.017-.036.073a.083.083,0,0,0,0,.083.093.093,0,0,0,.07.033.066.066,0,0,0,.036,0l.533-.361a.073.073,0,0,0,.02-.1.086.086,0,0,0-.066-.036h-.036a.662.662,0,0,1-.388-.162l-.043-.026-1.447-.99a.083.083,0,0,0-.026,0m.192,1.126-.126-.553.467.331Z" transform="translate(-74.18 -60.587)"/><path class="q" d="M84.889,93.929h-.361A29.872,29.872,0,0,1,81,93.32c.513-.238.166-.142,1.1-.169a21.587,21.587,0,0,0,2.209-.381l.109.56Z" transform="translate(-54.17 -62.041)"/><path class="q" d="M47.3,93.97a7.6,7.6,0,0,0,2.17-.427A9.437,9.437,0,0,1,51.7,93.1c.139,0-.662-.255-1.12-.49a7.439,7.439,0,0,0-2.749-.2,5.879,5.879,0,0,1-.735,1.368c.063.066.2.192.2.192" transform="translate(-31.499 -61.77)"/><path class="l" d="M32.024,14.75a9.814,9.814,0,0,0-2.209,2.319,23.693,23.693,0,0,0-2.806,4.886,11.358,11.358,0,0,0-1.02,4.7,27.83,27.83,0,0,0,.258,3.084c0,.381.225.5.331.745s.487,1.219.576,1.481a10.851,10.851,0,0,0,1.464,2.193,10.049,10.049,0,0,1,1.782,2.62c.242.715.152,1.282.427,1.689a6.791,6.791,0,0,0,.722.878s0,.414.58.331a25.776,25.776,0,0,0,3.213,1.964,10.52,10.52,0,0,1,2.014-.427,8.612,8.612,0,0,1-1.845-1.206c-.388-.331-.368-.553-.8-.583s-.331.4-.331.4-.927-.6-1.279-.884a4.733,4.733,0,0,1-1.464-1.656,2.915,2.915,0,0,1-.457-1.845c.013-.262-.119-.3-.229-.3a.331.331,0,0,0-.258.245c-.258-.308-.626-.947-1.143-1.6a18.8,18.8,0,0,1-1.8-2.5,9.059,9.059,0,0,1-1.11-3.779,9.914,9.914,0,0,1,.662-5.117,15.645,15.645,0,0,1,2.113-3.945c.927-1.173,2.607-3.67,2.607-3.67" transform="translate(-17.377 -9.863)"/><path class="r" d="M30.716,67.5a.7.7,0,0,0,0-.46c-.1-.176-.394-.354-.394-.5s-.033-.129.017-.212a.351.351,0,0,1,.238-.176.06.06,0,0,0,.04-.07l-.295-.364c-.172-.05-.729-.149-.768-.066a.633.633,0,0,1-.162.179A3.312,3.312,0,0,0,29,64.823a1.616,1.616,0,0,0-.5-.583c.132.331.272.679.331.821A11,11,0,0,0,30.3,67.254a10.132,10.132,0,0,1,1.782,2.62,8.092,8.092,0,0,1,.288,1.206,2.468,2.468,0,0,1,.6.457,12.709,12.709,0,0,0-1.11-2.547A9.857,9.857,0,0,0,30.732,67.5" transform="translate(-19.06 -42.961)"/><path class="r" d="M26.292,55.911c0,.381.229.5.331.745l.142.374a1.9,1.9,0,0,0-.222-.742,1.083,1.083,0,0,1-.2-.931,3.869,3.869,0,0,0-.232-1.434c-.02-.046-.033-.046-.046-.02.073.874.222,1.736.222,1.987" transform="translate(-17.435 -36.036)"/><path class="j" d="M108.312,53.284a2.524,2.524,0,0,1-.03-.391c0-.205-.156-.48-.093-.662a.616.616,0,0,1,.4-.3c.083,0,.076.02.136.073a1.325,1.325,0,0,0,.291.235c.156.079.116.073.348-.05a1.047,1.047,0,0,0,.662-.841,3.787,3.787,0,0,1,.053-.57c.033-.123,0-.47.119-.556s.252.119.361.176c.278.139.262-.331.487-.384.146-.026.2.109.331,0s.4-.6.53-.209c.04.123-.033.238-.033.364a.593.593,0,0,0,.1.331.58.58,0,0,1,.1.364c0,.146-.089.185-.152.331-.036.076-.056.073,0,.146s.1.02.176.063a.311.311,0,0,1,.119.331,1.236,1.236,0,0,1-.361.643c-.06.066-.235.172-.119.272s.229-.023.291.162c.089.285-.152.556-.331.725a2.574,2.574,0,0,1-.934.411,3.643,3.643,0,0,1-1.027.053,4.445,4.445,0,0,1-.788-.04.742.742,0,0,1-.6-.636" transform="translate(-72.344 -33.204)"/><path class="s" d="M108.654,54.667a2.007,2.007,0,0,1-.033-.523,1.964,1.964,0,0,1,.162-.431c.106-.2.252-.156.444-.156.275,0,.59-.388.739-.619a9.225,9.225,0,0,0,.441-1.2c.076-.159.1-.331.262-.242.331.179.245.57.235.855,0,.364-.073.735-.089,1.1,0,.229-.056.331.205.258a.517.517,0,0,1,.613.152c.106.139.129.295.351.262.136-.02.331-.1.268.129a.8.8,0,0,1-.285.4,2.073,2.073,0,0,1-1.206.474,4.637,4.637,0,0,1-1.5-.3,3.269,3.269,0,0,1-.556-.129Z" transform="translate(-72.639 -34.424)"/><path class="h" d="M97.142,51.367c-.07.136-.073.192-.229.232s-.258.033-.371.149a.739.739,0,0,0-.129.729c.1.3.427.381.556.633a1.557,1.557,0,0,1,.109.818,2.218,2.218,0,0,1-.046.881c-.116.219-.457-.106-.639.162a.291.291,0,0,0,.03.331.46.46,0,0,1,.066.391c-.04.219-.083.384.106.533a2.438,2.438,0,0,0,.467.248c.2.1.172.255.272.4s.662.248.573.543c-.063.166-.225.06-.361.056s-.2.079-.229.229.043.172.149.268.149.209.242.295a.805.805,0,0,0,.242.113c.1.05.1.109.205.182.272.179.487-.361.639-.507a1.7,1.7,0,0,0,.424-.573c.079-.176.126-.391.219-.553.126-.212.414-.381.477-.619a1.845,1.845,0,0,0,0-.556,1.023,1.023,0,0,1,.04-.48,1.156,1.156,0,0,0,.126-.388.427.427,0,0,0-.119-.331c-.1-.079-.258,0-.364-.056-.2-.1-.235-.563-.537-.4-.1.053-.219.255-.358.156s.03-.278.043-.388c.023-.215-.142-.331-.192-.523a.5.5,0,0,1,.036-.311,3.217,3.217,0,0,0,.053-.331c.04-.258.169-.49.192-.755a.53.53,0,0,0-.169-.358.686.686,0,0,1-.1-.454c0-.1.02-.295-.1-.331s-.139.132-.182.215-.1.258-.229.185a1.269,1.269,0,0,1-.232-.295c-.116-.156-.331-.245-.467-.073s-.1.368-.179.53" transform="translate(-64.439 -33.937)"/><path class="t" d="M101.422,64.06a6.174,6.174,0,0,0-.076-1.129,5.673,5.673,0,0,1-.884-.1c-.063-.033-.02-.106.358-.1a1.325,1.325,0,0,0,.47-.033s-.232-1.12-.331-1.408a1.368,1.368,0,0,1-.089-.467s.056-.331.1-.05a8.092,8.092,0,0,0,.215.795c.043.172.076.268.129.1s.2-.288.149-.129a2.2,2.2,0,0,0-.139.53c0,.149.172.662.172.828.152-.046.235-.033.331-.162s.119,0,.02.109a1.98,1.98,0,0,1-.331.212,7.506,7.506,0,0,0,.033.765c0,.225-.139.235-.139.235" transform="translate(-67.17 -40.572)"/><path class="u" d="M81,48.187l.845-.474s-.116-.662.331-.911.792-.232.994.235a13.11,13.11,0,0,0,1.759-1.222,3.286,3.286,0,0,0,.831-1.351c.2-.507.543-1.166.543-1.166a9.761,9.761,0,0,1-.1-.994.288.288,0,0,1,.331-.252c.172.02.308.079.331.308.331-.384.845-1.163,1.159-1.623S89.6,38.9,89.847,38.475a18.882,18.882,0,0,0,.831-2.206,4.518,4.518,0,0,0,.272-1.934c-.079-.6-.123-1.58-.252-2.4a4.021,4.021,0,0,0-.444-1.235c-.06-.235-.3-.046-.3-.255s.222-.212.146-.5-.444-1.232-.639-1.772-.884-2.143-.961-2.4.4-.825.616-.209.914,2.534,1.1,2.865a7.453,7.453,0,0,1,.689,1.815,2.077,2.077,0,0,0,.331.944c.089.149.242.212.255.454a2.507,2.507,0,0,0,.06.8c.106.331.368.146.434.527a2.739,2.739,0,0,1,.03.662,3.791,3.791,0,0,1,.152,1.7,11.525,11.525,0,0,1-1.987,4.094c-.742,1.067-1.229,1.59-1.3,1.7s-.079.464-.331.706-.361.162-.556.477a7.019,7.019,0,0,0-.884,1.951A7.638,7.638,0,0,0,88.241,42.8c.179-.3.6-.884.692-1.08a5.366,5.366,0,0,1,.331-.825c.166-.255.331-.06.57-.361s.066-.961.066-.961l.354-.629.391,1.1a16.017,16.017,0,0,1-.931,1.679c-.179.166-.3.255-.391.361s0,.388-.136.6-.381.576-.513.785-.414.49-.533.7a6.624,6.624,0,0,1-.629.795c-.288.331-.47.384-.566.686a1.325,1.325,0,0,1-.547.831,4.137,4.137,0,0,1-.961.629,7.032,7.032,0,0,0-.838.57,4.051,4.051,0,0,0-.825.613c-.3.331-.378.331-.378.331a17.392,17.392,0,0,1-2.4-.431" transform="translate(-54.17 -16.907)"/><path class="s" d="M99.624,56s.265.235.394.374a.46.46,0,0,1,.086.517,1.769,1.769,0,0,0-.1.662.765.765,0,0,1-.169.662c-.2.149-.066.3-.272.311a1.527,1.527,0,0,1-.4-.043l.06-1.623Z" transform="translate(-66.315 -37.45)"/><path class="v" d="M96.9,57.077c.282.066.331.166.59,0,.156-.1.03-.361.189-.58s-.063-.265-.126-.407.189-.593.268-.828.03-.752-.331-.878-.265.407-.719.189A.537.537,0,0,1,96.522,54a.778.778,0,0,0-.076.662c.1.3.431.378.556.633a1.527,1.527,0,0,1,.109.818,2.593,2.593,0,0,1-.043.868.159.159,0,0,1-.169.093" transform="translate(-64.473 -36.112)"/><path class="w" d="M88.237,87.223c-.185,0-.083.146-.126.331s-.162.123-.368.123-.185.123-.288.248a.5.5,0,0,1-.391.209c-.126-.02-.185-.063-.185.1s-.02.248-.146.229a.361.361,0,0,0-.331.162c-.083.1-.166.205-.311.205a.868.868,0,0,0-.351.126c-.1.04-.265.02-.331.185s-.1.225-.229.205-.212-.268-.441-.517a.7.7,0,0,1-1.02.295c-.116-.089-.142-.063-.139-.02s.662.719.662.719l-.149.046c.573.093,1.043.142,1.043.142s.076,0,.378-.331a4.051,4.051,0,0,1,.825-.613,7.032,7.032,0,0,1,.838-.57,4.137,4.137,0,0,0,.961-.629,1.325,1.325,0,0,0,.48-.616,1.888,1.888,0,0,0-.358-.046" transform="translate(-55.895 -58.322)"/><path class="w" d="M99.54,77.41c-.05,0-.182.159-.209.2s-.146.1-.268.229-.288.351-.414.494-.205.123-.368.063-.083-.291.04-.513a1.626,1.626,0,0,0,.086-.209l-.142.149a7.019,7.019,0,0,1,.884-1.951.891.891,0,0,1,.388-.351c-.093,0-.123-.079-.205,0s-.043.166-.185.268a3.186,3.186,0,0,0-.662.927c-.126.311-.414.971-.517,1.259s-.166.662-.245.851.106.288.291.331a.126.126,0,0,1,.089.063h0c.1-.3.278-.358.566-.689a6.313,6.313,0,0,0,.629-.795c.023-.043.2-.272.238-.331" transform="translate(-65.341 -50.48)"/><path class="x" d="M107.4,34.864a2.739,2.739,0,0,0-.03-.662c-.066-.381-.331-.209-.434-.527a2.521,2.521,0,0,1-.06-.808c0-.238-.166-.3-.255-.45a2.12,2.12,0,0,1-.331-.944,7.453,7.453,0,0,0-.689-1.815c-.152-.278-.662-1.656-.957-2.478a.994.994,0,0,0-.238-.05.722.722,0,0,0-.368.265c.235.583.662,1.6.812,2.007.2.54.56,1.481.639,1.772s-.142.288-.142.5.238.02.3.255a4.869,4.869,0,0,1,.391.971,2.408,2.408,0,0,1,.51-.02c.166.02.209.123.209.351a1.742,1.742,0,0,0,.123.513,3.312,3.312,0,0,1,.083.662c0,.185.248.494.268.662a1.656,1.656,0,0,1-.083.7,4.347,4.347,0,0,0-.142.7,2.934,2.934,0,0,0-.023.739,1.6,1.6,0,0,1-.142.556,6.525,6.525,0,0,1-.229.679c-.083.166-.434.706-.782.5a.265.265,0,0,0-.265,0,5.568,5.568,0,0,1-.331.752c-.136.225-.553.722-.961,1.212h.026c.431-.023.391.513.371.739s-.291.494-.391.6a1.184,1.184,0,0,0-.166.454,2.136,2.136,0,0,1-.106.285,2.213,2.213,0,0,0,.278-.633c.066-.089.457-.51,1.047-1.325v.2a5.444,5.444,0,0,1,.447-.633l-.053-.156a11,11,0,0,0,1.825-3.869,3.657,3.657,0,0,0-.149-1.7" transform="translate(-69.552 -18.143)"/><path class="w" d="M105.472,72.1a2.232,2.232,0,0,0-.222.517c.06-.083.109-.162.139-.212a4.566,4.566,0,0,1,.288-.454.3.3,0,0,0-.205.149" transform="translate(-70.388 -48.117)"/><path class="w" d="M103.317,77.118c-.1-.06-.123-.212-.159-.368-.113.162-.222.331-.3.45,0,.182.126.083.311.123s.248-.142.146-.205" transform="translate(-68.79 -51.327)"/><path class="v" d="M96.422,13.365l-.238-.454-.55-.947-.5-.848-.706-.828-.619-.795-.616-.712-.311-.331c-.056.086-.036.209-.06.331a3.677,3.677,0,0,0-.149.5.757.757,0,0,0,.179.454.358.358,0,0,1-.073.467.662.662,0,0,0-.288.45.457.457,0,0,0,.132.424c.272.2.7.169.918.46.123.159,0,.285-.136.368a2.567,2.567,0,0,1-.331.179.705.705,0,0,0-.245.139c-.142.159,0,.361.179.414a2.179,2.179,0,0,1,.275.113,1.345,1.345,0,0,0,.278.06,1.03,1.03,0,0,1,.417.1c.06.05.083.146.129.205.275.351.778.308,1.173.331a.513.513,0,0,1,.308.063c.192.169-.089.3-.152.407-.129.219.3.245.424.272a.755.755,0,0,0,.311.06.775.775,0,0,0,.212-.113c.1-.06.2-.07.295-.116h0Z" transform="translate(-61.849 -5.65)"/><path class="y" d="M94.06,8.81,94.9,9.9a2.209,2.209,0,0,0-.662.056,1.067,1.067,0,0,1,.828.268,8.612,8.612,0,0,1,.662.782,4.725,4.725,0,0,1,.331.394,4.124,4.124,0,0,0-1.126,0,2.55,2.55,0,0,1,1.239.248c.238.182.262.4.427.629a3.915,3.915,0,0,1,.331.576s-.662-.033-.861-.033.159.079.331.1.391.046.5.06.205,0,.268.159.235.56.235.56.358.205,0-.484-.735-1.156-.785-1.325.142-.159.235-.331a1.116,1.116,0,0,0,.05-.563,1.355,1.355,0,0,1,.03-.315,2.021,2.021,0,0,0-.126.533c0,.252-.093.331-.2.331s-.189-.053-.378-.308-.295-.3-.331-.427a6.247,6.247,0,0,1,0-.785s-.066.722-.172.662-.205-.331-.407-.5-.146-.331-.166-.59,0-.166-.066.086-.129.05-.331-.215a6.071,6.071,0,0,0-.689-.662" transform="translate(-62.905 -5.884)"/><path class="z" d="M104.076,21.487c.1.308.421.431.613.7s.431.431.623.662c.129.162.474.45.331.692-.063.126-.255.139-.331.258a1.169,1.169,0,0,0-.089.464c0,.381.371.437.59.662.1.1.113.159.272.209s.268.043.354.132c.225.235-.331.374-.086.662.149.189.573.212.662.454.046.139-.106.205-.136.315a.375.375,0,0,0,.126.331.662.662,0,0,1,.189.686c-.04.146-.414.427-.265.626a.358.358,0,0,0,.331.04c.113-.063.106-.222.126-.331a2.319,2.319,0,0,1,.2-.586c.079-.162.182-.331.252-.48a2.59,2.59,0,0,0,.076-.394,3.245,3.245,0,0,1,.4-.692,1.325,1.325,0,0,0,.172-.762c-.1-.378-.52.033-.57-.209-.036-.169.176-.368.258-.494a1.1,1.1,0,0,0,.192-.56,1.722,1.722,0,0,0-.073-.742c-.053-.119-.079-.235-.229-.232s-.162.129-.212.252-.2.52-.45.47-.066-.331,0-.437a1.686,1.686,0,0,0,.242-.662,1.492,1.492,0,0,1,.03-.364c.036-.364-.229-.629-.255-.971,0-.123-.07-.835-.331-.547-.063.076-.026.268-.162.308s-.176-.142-.166-.252a3.2,3.2,0,0,0,.076-.755.974.974,0,0,0-.156-.331c-.093-.142-.222-.265-.308-.424s-.1-.262-.268-.172c-.106.056-.189.176-.348.086s-.106-.242-.106-.361c0-.348-.116-.4-.4-.527-.116-.053-.437-.417-.59-.331s.06.523,0,.7c-.046.109-.149.129-.232.185a.749.749,0,0,0-.212.275,1.917,1.917,0,0,0-.467,1.093,5.588,5.588,0,0,0,.331,1.325" transform="translate(-69.38 -11.95)"/><path class="j" d="M111.231,25s.089.51-.252.706c-.411.238-.03.639.159.971a5.233,5.233,0,0,1,.331.722.994.994,0,0,0,.407-.815c-.033-.662-.454-.639-.643-1.583" transform="translate(-74.097 -16.718)"/><path class="j" d="M115.14,39.934s.517-.586.639-.6.205,0,.017.291a4.985,4.985,0,0,0-.394.921,1.325,1.325,0,0,1-.262.424,4.818,4.818,0,0,0,0-1.033" transform="translate(-77.002 -26.299)"/><path class="j" d="M114.28,36.283A6.787,6.787,0,0,0,115,35.25c0,.454-.046.517-.55,1.285a.378.378,0,0,0-.172-.252" transform="translate(-76.427 -23.573)"/><path class="j" d="M106.348,18.21a2.961,2.961,0,0,0,.364,1.12,2.22,2.22,0,0,1,.467,1.365c-.517-.411-.768-.785-.967-.845s.149-.192-.033-.533c-.126-.235-.033-.255.093-.285.2-.05,0-.414.076-.821" transform="translate(-70.969 -12.177)"/><path class="j" d="M106.781,27.112a3.5,3.5,0,0,1-.947-.414l-.05-.361a2.769,2.769,0,0,0,.861.391,12.532,12.532,0,0,1-.765-1.61c-.252-.484-.662-.487-.891-.662a3.173,3.173,0,0,1-.619-.755c.149.9-.523.113-.523.113l-.076.424a6.684,6.684,0,0,0,.331,1.146c.1.308.421.431.613.7s.431.431.623.662c.129.162.474.45.331.692-.063.123-.252.139-.331.255l.666.411a2.415,2.415,0,0,1,.778.709c.113.219.123.242-.265.076-.662-.288-.086-.1-.2.219a.361.361,0,0,1,.166.086c.225.235-.331.374-.086.662.149.189.573.212.662.454.046.139-.106.205-.136.315a.375.375,0,0,0,.126.331.662.662,0,0,1,.215.494h.027a8.4,8.4,0,0,0-.5-4.306" transform="translate(-69.398 -15.849)"/><path class="h" d="M19.732,52.435c-.222.076-.083.719-.083,1.02a6.32,6.32,0,0,0,.2,2.557,8.847,8.847,0,0,0,1.159,2.5A29.017,29.017,0,0,0,23,61.056c.262.235.537.537.788.749s.51.45.662.553a1.325,1.325,0,0,0,.51.149c.089,0,.179-.3-.106-.374s-.421-.136-.662-.553-.5-1.02-.722-1.441a3.793,3.793,0,0,1-.388-1.514,11.924,11.924,0,0,0-1.037-2.733,10.384,10.384,0,0,0-1.02-1.858c-.2-.331-.646-1.02-.795-1.275s-.252-.411-.494-.331" transform="translate(-13.108 -35.047)"/><path class="aa" d="M24.395,18.348c-.258-.106-.749.6-1.153,1.186a13.673,13.673,0,0,0-1.59,3.66,13.247,13.247,0,0,0-.182,4.187,3.591,3.591,0,0,0,.782,2.249c.464.51.662-.225.391-.2s-.361-.027-.374-.4a10.553,10.553,0,0,1,.57-2.478c.331-1.093.735-2.623,1.156-4.442s.821-3.584.388-3.763" transform="translate(-14.302 -12.263)"/><path class="ab" d="M32.274,7.011c-.232-.123-.735.331-1.636,1.348a17.533,17.533,0,0,0-2.143,3.766c-.407.871-.812,2.13-1.033,2.67s-.662,2.011-.437,1.742.646-1.067.947-1.577,1.272-1.739,1.782-2.458a27.707,27.707,0,0,0,1.785-2.981c.434-.884,1.05-2.342.735-2.5" transform="translate(-18.031 -4.674)"/><path class="f" d="M47.46.041c-.1-.123-.58.04-.8.123s-.52.3-.9.437a6.538,6.538,0,0,0-1.941,1.053,17.384,17.384,0,0,0-2.044,1.941A19.105,19.105,0,0,0,40,5.582c-.083.142-.066.371.358.1s3.279-2.239,4.14-2.759a8.314,8.314,0,0,0,2.461-1.719c.52-.725.662-.961.5-1.163" transform="translate(-26.725 0.004)"/><path class="ac" d="M32.653,9.82a33.453,33.453,0,0,0-2.193,3.249,32.268,32.268,0,0,0-1.934,3.7l-.046.3s1.12-2.319,1.891-3.571S32.653,9.82,32.653,9.82" transform="translate(-19.047 -6.566)"/><path class="ad" d="M24.81,62.133c-.285-.073-.421-.136-.662-.553s-.5-1.02-.722-1.441a3.793,3.793,0,0,1-.388-1.514A12.013,12.013,0,0,0,22,55.9a10.205,10.205,0,0,0-1.02-1.862c-.192-.331-.646-1.02-.795-1.275s-.255-.411-.494-.331-.083.719-.083,1.017a6.333,6.333,0,0,0,.2,2.56,9.033,9.033,0,0,0,1.159,2.5c.083.139.331.487.636.881h0a4.482,4.482,0,0,0,.951.871.735.735,0,0,0-.139-.225,5.963,5.963,0,0,1-.331-.513l-.2-.212h.136s-.927-1.987-1.3-3.1a32.871,32.871,0,0,1-.994-3.67A42.656,42.656,0,0,0,21.547,57.9,18.377,18.377,0,0,0,23.68,61.51c.5.59.878.755.97.947a2.069,2.069,0,0,0,.262.05c.093,0,.182-.3-.1-.374" transform="translate(-13.081 -35.047)"/><path class="h" d="M46.6,2.115a12.057,12.057,0,0,0-3.561,1.7c-1.709,1.209-2.011,1.4-2.011,1.4a15.528,15.528,0,0,0,1.149-1.073,7.009,7.009,0,0,1,1.239-1.09l1.467-.921s-1.265.649-1.5.815a6.254,6.254,0,0,0-.994.772.927.927,0,0,1-.156.126A9.611,9.611,0,0,1,45.489,1.26a3.435,3.435,0,0,0,.994-.51,5.6,5.6,0,0,1-.719.354,6.5,6.5,0,0,0-1.944,1.053A17.069,17.069,0,0,0,41.779,4.1,19.7,19.7,0,0,0,40,6.07c-.083.146-.066.378.358.106s3.282-2.239,4.14-2.759a13.271,13.271,0,0,0,2.083-1.325" transform="translate(-26.725 -0.5)"/><path class="ab" d="M49.252,4.5c0-.2-1.358-.123-3.8,1.235a10.146,10.146,0,0,0-3.488,3.2c-.2.182,1.325-.58,2.58-1.06a17.555,17.555,0,0,0,3.123-1.722c.838-.517,1.583-1.3,1.583-1.656" transform="translate(-28.053 -2.957)"/><path class="ac" d="M49.929,6.33A35.713,35.713,0,0,1,45.12,9.377c1.524-.53,4.429-2.279,4.809-3.047" transform="translate(-30.175 -4.232)"/><path class="ad" d="M37.672,12.68c-.295-.076-1.159.742-1.742,1.6s-1.381,1.938-1.62,2.319a3.668,3.668,0,0,0-.719,1.481c0,.46-.619.8-.421,2.08s2.438-2.723,3.359-3.783a5.575,5.575,0,0,0,1.3-2.68c.1-.56.139-.937-.159-1.02" transform="translate(-22.157 -8.476)"/><path class="f" d="M23.608,29.53c-.285.026-.361-.03-.374-.4a10.768,10.768,0,0,1,.57-2.478c.331-1.093.735-2.623,1.156-4.442.4-1.726.782-3.412.447-3.726-.58.884-2.5,4.253-2.6,10.142v.47a2.613,2.613,0,0,0,.394.633c.464.507.662-.225.391-.2" transform="translate(-15.255 -12.358)"/><path class="h" d="M22.529,25.89a14.491,14.491,0,0,0-.874,2.355,13.347,13.347,0,0,0-.182,4.187,3.591,3.591,0,0,0,.782,2.249.662.662,0,0,0,.132.116c.036-.238-.205-.364-.262-.474s-.232-.162-.152-.421-.05-.358-.05-.689a30.433,30.433,0,0,1,.5-4.554,21.4,21.4,0,0,0-.606,4.084c0,.361-.043.59-.073.5a3.991,3.991,0,0,1-.109-.921c0-.4-.079-.911-.079-1.11a8.877,8.877,0,0,1,.215-2.981,17.005,17.005,0,0,1,.759-2.319" transform="translate(-14.305 -17.313)"/><path class="h" d="M34.482,18.47c-.07.1-.132.192-.172.255a3.8,3.8,0,0,0-.719,1.481c0,.46-.619.8-.421,2.08a.507.507,0,0,0,.282-.215c.315-.424,2.186-3.276,2.246-3.339s.3-.484.03-.331-.162,0-.03-.255a15.435,15.435,0,0,0,1.226-2.3,19.325,19.325,0,0,1-1.3,1.987c-.967,1.351-1.12,1.5-1.4,1.9s-.258-.3-.023-.6a2.011,2.011,0,0,0,.285-.686" transform="translate(-22.157 -10.599)"/><path class="aa" d="M27.664,32.469c-.126.3-.123.454-.225.58s-.1.248.02.308.166-.06.272-.351a4.273,4.273,0,0,1,.7-1.136c.268-.288,1.136-1.57,1.736-2.4a11.384,11.384,0,0,0,1.51-2.875c.331-.994.662-2.259.358-2.537s-1.739,1.818-2.319,2.719a12,12,0,0,0-1.375,2.762c-.3.937-.384,2.246-.662,2.928" transform="translate(-18.301 -16.072)"/><path class="f" d="M31.461,28.278c-.162-.123.348-1.378.348-1.378s-.795,1.4-1.067,1.275c-.212-.1.523-1.129.523-1.129s-.921,1.282-1.04,1.245.119-.407.331-.732c-.3.421-.576.845-.765,1.136a12,12,0,0,0-1.375,2.762c-.3.937-.384,2.246-.662,2.928-.126.3-.123.454-.225.58s-.1.245.02.308.166-.063.268-.351a4.376,4.376,0,0,1,.7-1.136c.268-.288,1.136-1.57,1.736-2.395a11.464,11.464,0,0,0,1.51-2.878c.1-.3.2-.626.288-.941-.2.358-.467.778-.563.706" transform="translate(-18.361 -17.989)"/><path class="h" d="M35.368,28.22a9.857,9.857,0,0,0-.792,1.987,5.631,5.631,0,0,1-1.325,2.133,5.879,5.879,0,0,0,.331-.954,3.584,3.584,0,0,1-.55,1.06,6.439,6.439,0,0,0-.662,1.444c.358-.507.8-1.146,1.156-1.636a11.328,11.328,0,0,0,1.51-2.875,9.756,9.756,0,0,0,.331-1.169" transform="translate(-21.648 -18.865)"/><path class="h" d="M34.479,51.776c-.258.017-1.232.662-2.431,2.835a8.321,8.321,0,0,0-1.2,4.323,1.212,1.212,0,0,0,.371.715c.136.093.242,0,.152-.192a.878.878,0,0,1,0-.752c.136-.242.57-1.076.765-1.378S33.26,55.5,33.681,54.79a6.761,6.761,0,0,0,.818-1.62c.185-.606.235-1.414-.02-1.4" transform="translate(-20.621 -34.621)"/><path class="ad" d="M32.153,65.1l.126-.2a2.11,2.11,0,0,1-.222-.795,6.767,6.767,0,0,0-.941,2.355c.331-1.825.7-2.444.918-2.65V63.39a2.792,2.792,0,0,0-.725.732,6.568,6.568,0,0,0-.427,2.587,1.192,1.192,0,0,0,.368.712c.136.093.242,0,.152-.192a.864.864,0,0,1,0-.752c.136-.238.57-1.076.765-1.378" transform="translate(-20.649 -42.392)"/><path class="h" d="M39.832,55.95c-.132-.149-.643.378-1.3,1.62a12.323,12.323,0,0,0-.8,4.548c.073.348.828-1.441,1.245-2.13a6.747,6.747,0,0,0,.768-2.4,3.517,3.517,0,0,0,.086-1.636" transform="translate(-25.225 -37.4)"/><path class="f" d="M39.024,57.7a4.581,4.581,0,0,1,.868-1.593.3.3,0,0,0-.06-.162c-.132-.152-.643.374-1.305,1.62a12.231,12.231,0,0,0-.795,4.544c.073.348.662-1.043,1.083-1.838a20.13,20.13,0,0,1,.209-2.574" transform="translate(-25.225 -37.398)"/><path class="h" d="M36.7,49.78c-.192.033-.556,1.06-.689,1.862a33.653,33.653,0,0,0-.242,4.081c.046.52.212,2.428.3,2.772a8.612,8.612,0,0,1,.331,1.216c0,.255.03.48-.106.523s0,.2.136.166.209-.132.225-.374.076-.523.119-.884a10.8,10.8,0,0,1,.3-1.656,9.5,9.5,0,0,0,.331-1.606,15.26,15.26,0,0,0,.132-3.511c-.132-1.934-.566-2.65-.821-2.594" transform="translate(-23.922 -33.284)"/><path class="ad" d="M37.525,52.387c-.136-1.934-.57-2.65-.825-2.594-.192.033-.556,1.06-.689,1.862a33.653,33.653,0,0,0-.242,4.081c.033.394.136,1.573.225,2.279.139.2.384.609.354.331a23.755,23.755,0,0,1,.06-2.375c.06-.755.2-3.206.2-3.206,0,.894,0,2.391-.06,4.22a6.2,6.2,0,0,0,.212,2.163h0a10.8,10.8,0,0,1,.3-1.656,9.44,9.44,0,0,0,.331-1.606,15.382,15.382,0,0,0,.136-3.511" transform="translate(-23.922 -33.297)"/><path class="ae" d="M57.446,107.091c.268-.225.6-.368.755-.308s.036.252-.192.308a1.388,1.388,0,0,0-.662.388,1.557,1.557,0,0,1-.331.331c-.106.066-.222-.026-.079-.169s.331-.378.53-.547" transform="translate(-38.033 -71.403)"/><path class="r" d="M55.448,110.641c-.1.076-.222.182-.146.232s.136,0,.192-.066.119-.123.083-.166-.129,0-.129,0" transform="translate(-36.969 -73.98)"/><path class="ae" d="M83.855,107.307c-.073-.043-.2.043-.1.142a10.8,10.8,0,0,0,1.05.821c.282.169.354.232.484.212s.354-.04.265-.139a2.73,2.73,0,0,0-.6-.331c-.331-.172-.927-.619-1.09-.722" transform="translate(-55.989 -71.751)"/><path class="h" d="M103.115,76.18c.192.04.331-.05.179-.229a.553.553,0,0,1-.162-.53c.023-.291-.023-.331-.142-.331-.182,0-.123.182-.109.275.03.2.06.142.027.351s-.1.384.209.45" transform="translate(-68.79 -50.217)"/><path class="ae" d="M95.655,84.067c-.142.209-.308.242-.45.484a.527.527,0,0,0-.017.626c.129.179.3.066.331-.209s.162-.354.238-.517.146-.255.1-.384-.132-.113-.209,0" transform="translate(-63.595 -56.159)"/><path class="af" d="M48.387,89.564a5.744,5.744,0,0,1-.871-.45c0-.066.374-.258.374-.258l-.467-.258s0,.2-.242.2a.752.752,0,0,1-.613-.291c-.255-.176-1.043-.821-1.285-.994S44.541,87,44.541,87s-.126.192-.205.192-.146.017,0,.142.914.613,1.043.725.033.212-.129.129-.785-.46-.785-.46.609.563.851.725,1.722,1.027,1.911,1.139a4.8,4.8,0,0,0,.533.242,6.147,6.147,0,0,1,.626-.272" transform="translate(-29.593 -58.182)"/><path class="ae" d="M99.516,74.887a7.281,7.281,0,0,0-1.043,1.885c-.05.484.129.255.176,0a3.789,3.789,0,0,1,.45-.994c.129-.2.4-.643.484-.788s.053-.285-.066-.116" transform="translate(-65.85 -50.02)"/><path class="ae" d="M104.308,70.482c-.05.159-.03.331.079.162s.162-.354.242-.48,0-.212-.1-.1a2.057,2.057,0,0,0-.225.417" transform="translate(-69.741 -46.821)"/><path class="ae" d="M51.228,112.412c-.036.139-.162.2-.55.176a1.785,1.785,0,0,1-1.017-.54c-.172-.2-.166-.252-.454-.285s-.215-.132-.149-.189a.507.507,0,0,1,.48-.063,1.656,1.656,0,0,0,.57.142c.282.026,1.272.229,1.126.759" transform="translate(-32.769 -74.552)"/><path class="ae" d="M87.188,110.536c.106.109.07.285-.156.4s-.45.076-.623.245a1.855,1.855,0,0,1-.606.457.9.9,0,0,1-.715,0,.358.358,0,0,1,.142-.421,3.342,3.342,0,0,1,.5-.331c.189-.066.391-.079.633-.166s.268-.245.417-.272a.4.4,0,0,1,.407.1" transform="translate(-56.89 -73.851)"/><path class="ae" d="M111.122,55.378a9.715,9.715,0,0,1-.351,1.3c-.116.258.089.3.192.056a8.867,8.867,0,0,0,.3-1.265c.03-.232-.1-.331-.146-.089" transform="translate(-74.057 -36.94)"/><path class="w" d="M110.926,50.312c-.033.017-.066,0-.066.04,0,.086.04.411.066.566s-.043.331.129.331.265-.073.295-.172-.07-.176-.169-.351a1.964,1.964,0,0,1-.182-.457c0-.023-.04.033-.073.046" transform="translate(-74.14 -33.613)"/><path class="w" d="M52.272,90.63a.6.6,0,0,1-.7.043c0,.1-.02.417.285.457s.513-.1.417-.5" transform="translate(-34.488 -60.61)"/><path class="ag" d="M87.563,90.846a.252.252,0,0,1-.132-.04,1.09,1.09,0,0,1-.3-.4.089.089,0,0,1,.066-.106.086.086,0,0,1,.109.063.957.957,0,0,0,.225.291c.04.023.053.026.139-.07a.662.662,0,0,1,.132-.123.381.381,0,0,1,.162-.046.261.261,0,0,0,.076,0l.017-.026a.252.252,0,0,1,.086-.079.374.374,0,0,1,.2-.023.265.265,0,0,0,.119,0,.8.8,0,0,0,.166-.159.759.759,0,0,1,.331-.258.173.173,0,0,0,0-.036.086.086,0,0,1,.089-.089.093.093,0,0,1,.089.089.578.578,0,0,1,0,.079.2.2,0,0,0,0,.046.086.086,0,0,1-.033.066.083.083,0,0,1-.073.02c-.07,0-.179.116-.262.205a1.043,1.043,0,0,1-.219.2.354.354,0,0,1-.215.026.209.209,0,0,0-.106,0l-.02.026a.262.262,0,0,1-.089.079.454.454,0,0,1-.132.033.176.176,0,0,0-.086.02.54.54,0,0,0-.089.086.331.331,0,0,1-.238.146" transform="translate(-58.266 -60.014)"/><path class="ag" d="M93.672,87.643a.245.245,0,0,1-.2-.089.2.2,0,0,1,0-.212.09.09,0,0,1,.162.079.046.046,0,0,0,0,.023.086.086,0,0,0,.076.017.063.063,0,0,0,.056-.046c0-.056-.017-.089-.119-.162a.4.4,0,0,1-.172-.189.089.089,0,0,1,.113-.113.745.745,0,0,1,.209.113.537.537,0,0,0,.166.1.306.306,0,0,0,.156-.033.583.583,0,0,1,.169-.056c.169,0,.185-.027.212-.152a.285.285,0,0,0,0-.06c.036-.179.076-.255.331-.248a.093.093,0,0,1,.086.093.089.089,0,0,1-.093.086c-.126,0-.126,0-.146.1a.472.472,0,0,0,0,.066c-.053.245-.179.275-.371.295a.388.388,0,0,0-.132.043.394.394,0,0,1-.245.05.258.258,0,0,1-.2.3h-.06" transform="translate(-62.494 -57.92)"/><path class="w" d="M96.79,77s.066.268.467.113a3.064,3.064,0,0,0-.331.686c-.036.142-.086-.391-.132-.8" transform="translate(-64.73 -51.494)"/><path class="w" d="M98.69,75.315l.53-.735s-.205.871-.53.735" transform="translate(-66.001 -49.876)"/><path class="m" d="M35.778,83.083a3.518,3.518,0,0,0,.994,1.136,4.9,4.9,0,0,0,1.444.808.354.354,0,0,0,.427-.222.388.388,0,0,0-.073-.4,1.451,1.451,0,0,0-.454-.212,1.988,1.988,0,0,1,.364.258.275.275,0,0,1,.046.3.252.252,0,0,1-.272.109,5.061,5.061,0,0,1-1.341-.719,3.587,3.587,0,0,1-.947-.934,1.079,1.079,0,0,1-.129-.182c0-.033-.109,0-.073.06" transform="translate(-23.914 -55.514)"/><path class="m" d="M42.793,89.08s.017.388.576.3a25.094,25.094,0,0,0,3.213,1.964l.2-.066a19.039,19.039,0,0,1-2.027-1.133c-.878-.586-1.325-.9-1.325-.9s-.51.142-.636-.169" transform="translate(-28.617 -59.573)"/><path class="ah" d="M27.911,31.61c-.132,0-.291.537-.331.662a3.624,3.624,0,0,1-.358.682,5.161,5.161,0,0,0-.311.815,3.673,3.673,0,0,0-.238.712c-.126-.03-.2-.232-.331-.291-.046.179.136.331.166.48a1.232,1.232,0,0,1-.073.527c-.073.3-.119.609-.179.918-.036.2,0,.414-.043.619-.06.368-.036.762-.123,1.129a1.875,1.875,0,0,0-.129.55,1.242,1.242,0,0,0,.142.384.371.371,0,0,0,.331.215.331.331,0,0,0,0-.437.6.6,0,0,1-.166-.47,11.575,11.575,0,0,1,.119-1.348c.053-.434.093-.871.172-1.3a2.835,2.835,0,0,1,.146-.533c.046-.106.142-.179.166-.331a1.145,1.145,0,0,0,0-.285,4.306,4.306,0,0,1,.3-.994,2.981,2.981,0,0,0,.152-.262c.033-.1,0-.212.053-.3s.136-.123.215-.189c.149-.132.132-.176.159-.354s.02-.5.132-.629" transform="translate(-17.361 -21.119)"/><path class="m" d="M33.172,72.48a3.534,3.534,0,0,0,.706,2.868c-.053-.371-.381-.725-.547-1.325a3.918,3.918,0,0,1-.089-1.491Z" transform="translate(-22.142 -48.471)"/><path class="m" d="M32.176,24.71a22.491,22.491,0,0,0-1.656,2.829,4.508,4.508,0,0,0,.752-1.176c.053-.106.434-.775.513-.874s.212-.424.282-.487.093-.291.093-.291" transform="translate(-20.411 -16.524)"/><path class="m" d="M28.422,35s-.407.944-.662,1.64c.093-.083.232-.149.242-.291s.192-.378.2-.543a2.133,2.133,0,0,1,.225-.553.891.891,0,0,0,0-.252" transform="translate(-18.565 -23.406)"/><path class="m" d="M26.331,42.4A9.49,9.49,0,0,0,26,44.858a1.252,1.252,0,0,0,.189-.845,2.981,2.981,0,0,1,.04-.8,1.173,1.173,0,0,1,.119-.464.633.633,0,0,0,0-.351" transform="translate(-17.388 -28.355)"/><path class="s" d="M103.763,23.74a.662.662,0,0,0,.623.464,2.531,2.531,0,0,1,.5.894c.023.152-.437.205-.331.371a2.2,2.2,0,0,0,.331.331c.076.089.51.219.662.4a.715.715,0,0,1,.2.573,3.411,3.411,0,0,0,.026.55c0,.129-.089.079-.229-.023s-.089.04-.331-.282-.851-.609-1.014-.911.033-.547.03-.825-.182-.368-.331-.5-.1-.285-.139-.424a1.129,1.129,0,0,1,0-.619" transform="translate(-69.364 -15.875)"/><path class="z" d="M96.581,23.506a.421.421,0,0,1,0,.238,1.1,1.1,0,0,0-.076.272c-.027.176-.142.295-.149.467s.142.315.1.46c-.027.089-.123.093-.189.126a.364.364,0,0,0-.2.209.417.417,0,0,0,.027.3c.033.073.046.169.079.248a.6.6,0,0,0,.142.219c.063.06.185.1.232.179a.2.2,0,0,1-.079.262c-.079.053-.176.017-.258.066-.2.123-.1.4-.05.573a1.192,1.192,0,0,0,.331.424.9.9,0,0,0,.358.185,3.766,3.766,0,0,0,.378.156l.46.116a.609.609,0,0,1,.248.152c.182.152.331.364.507.517a4.886,4.886,0,0,1,.444.381.5.5,0,0,1,.129.232,2.925,2.925,0,0,0,.229.706c.023.036.043.076.063.109a1.3,1.3,0,0,0,.182.222.729.729,0,0,1,.146.262,2.61,2.61,0,0,0,.427.768,1.517,1.517,0,0,0,.361.331,1.437,1.437,0,0,1,.344.417c.046.073.086.176.192.159.229-.043.252-.464.295-.633.089-.331.05-.971-.454-.775-.156.063-.331.262-.5.079s.03-.523.083-.689a1.186,1.186,0,0,1,.142-.331.557.557,0,0,0,.126-.268c0-.182-.043-.331-.248-.331s-.311.3-.484.238-.119-.3-.119-.437a3.554,3.554,0,0,1,.149-.719c.036-.185.132-.421-.023-.56a.513.513,0,0,0-.176-.132c-.076-.03-.172-.023-.232-.063-.172-.109,0-.331.132-.378a.994.994,0,0,0,.454-.368.3.3,0,0,0,.076-.252,2.067,2.067,0,0,1,0-.553c.043-.166.2-.295.142-.494s-.282-.166-.454-.166c-.411,0-.593.4-.855.662a.354.354,0,0,1-.477,0c-.129-.156.02-.331.123-.454a.865.865,0,0,1,.258-.209c.308-.192.242-.662.073-.911-.033-.046-.043-.04-.06-.1a.632.632,0,0,1-.02-.109,1.385,1.385,0,0,0-.079-.262c-.079-.136-.288-.3-.371-.073a1.765,1.765,0,0,1-.159.517c-.073.113-.291.354-.371.109-.06-.185.07-.381.046-.57s-.136-.262-.308-.3a.6.6,0,0,1-.222-.106c-.176-.146-.285-.331-.527-.378s-.354.056-.331.275" transform="translate(-64.236 -15.539)"/><path class="j" d="M99.324,27.1c.05-.331-.262-.295-.331-.129s-.116.162-.242.1-.182-.311-.268-.7-.179-.662-.47-.785a1.55,1.55,0,0,1-.735-.831c0-.215.1-.851-.129-.994a1.726,1.726,0,0,1-.444-.566.229.229,0,0,0-.156.268.421.421,0,0,1,0,.238.993.993,0,0,0-.076.272c-.026.176-.142.295-.152.467s.146.315.1.46c-.027.089-.119.093-.189.123a.378.378,0,0,0-.2.212.4.4,0,0,0,.027.3c.03.073.046.169.079.248a.6.6,0,0,0,.142.219c.063.06.185.1.232.179a.2.2,0,0,1-.079.262c-.079.053-.176.017-.258.07-.2.119-.1.4-.05.57a1.232,1.232,0,0,0,.331.424.994.994,0,0,0,.354.185c.126.053.252.116.381.156l.46.116a.547.547,0,0,1,.245.152c.185.156.331.364.51.517a5.382,5.382,0,0,1,.444.381.5.5,0,0,1,.129.232,1.492,1.492,0,0,1,.046.162l.023-.036c.116-.411-.066-.378-.083-.54a6.319,6.319,0,0,0-.523-.964.391.391,0,0,0-.212-.182l-.331-.129a.719.719,0,0,1,.331,0c-.179-.311-.441-.964-.507-1.063s-.212-.083-.374-.179-.278-.311-.179-.245a3.156,3.156,0,0,0,.523.179,1.69,1.69,0,0,1-.1-.331c-.033-.179-.149-.662-.149-.662a1.6,1.6,0,0,1,.248.477,2.193,2.193,0,0,0,.159.424s.083-.331.232-.407.212.066.1.162a1.027,1.027,0,0,0-.245.52,9.474,9.474,0,0,0,.8,1.636s.1-.295.179-.662.132-.083.132.1a4.8,4.8,0,0,1-.2.782s.282.606.245.374a2.15,2.15,0,0,1,.149-.749c.05-.182.05-.457.1-.785" transform="translate(-64.214 -15.508)"/><path class="x" d="M105.952,70.929a.841.841,0,0,0-.212-.835c.205-.331.282-.368.417-.447s.331-.172.331-.662.331-.576.477-.116a1.359,1.359,0,0,1-.162,1.073,3.644,3.644,0,0,1-.855.994" transform="translate(-70.716 -45.854)"/><path class="ai" d="M105.605,58.588a1.07,1.07,0,0,0-.742.109c-.278.2-.089.431.056.643a.391.391,0,0,1,.066.351,1.275,1.275,0,0,1-.1.358,1.063,1.063,0,0,1-.189.331.792.792,0,0,0-.126.331.7.7,0,0,0,0,.388c.053.159.205.238.308.351s.407.431.116.58c-.119.06-.205,0-.3.126a.47.47,0,0,0-.046.368c.02.123.073.282-.027.394s-.245.086-.331.245.02.255.1.407-.03.308-.106.45a1.7,1.7,0,0,0-.146.467,1.481,1.481,0,0,1-.295.606c-.06.083-.093.2-.232.176-.079,0-.139-.129-.212-.159-.2-.089-.4.152-.371.351a.778.778,0,0,0,.729.033c.1-.06.176-.179.288-.212s.265.036.391.03.245-.123.381-.205a1.789,1.789,0,0,1,.563-.185c.169-.046.388-.076.454-.235a.5.5,0,0,0,0-.368c-.06-.106-.205-.179-.185-.331s.169-.2.268-.275.242-.225.381-.331c.205-.139.351-.176.48-.4a2.394,2.394,0,0,1,.262-.394.725.725,0,0,0,.169-.523c-.139-.066-.265,0-.4,0-.04-.142.086-.205.172-.288a4.707,4.707,0,0,0,.5-.689,1.689,1.689,0,0,0,.225-.467c.076-.212.212-.4.311-.613.129-.288.225-1.02-.265-.994-.116,0,.023-1.305-.527-1.351-.205-.017-.368.149-.52.275a3.783,3.783,0,0,0-.394.5.858.858,0,0,1-.7.152" transform="translate(-68.899 -38.558)"/><path class="aj" d="M110.4,62.82a2.813,2.813,0,0,0-.494-2.3c-.825-.954-.623-.8-.394-.888s.265-.295.841.083.49.51.49.576.1-.229.245-.265.215-.242.05-.494-.182-.275,0-.162.116.331.166.116a4.009,4.009,0,0,0,.132-.543c0-.116.079.132.033.394s0,.361.129.166.1-.576.116-.2,0,.51.212.49.331.02.444.331-.212.994-.361,1.325a4.216,4.216,0,0,1-.527.874c-.179.229-.2.407-.424.54s-.706.56-.643-.033" transform="translate(-73.105 -39.397)"/><path class="aj" d="M109.53,67.33s.861.374.517,2.087.086.662.189.043.2-1.8-.706-2.13" transform="translate(-73.25 -45.027)"/><path class="h" d="M108.455,66.953c-.04-.142.086-.205.172-.288a1.06,1.06,0,0,0,.142-.156c-.046-.073-.036-.262.192-.795,0,0-.421.547-.609.374a5.887,5.887,0,0,1,.252-1.11c.046-.142-.159.248-.282.5s0,.315-.156.689-.265.311-.282.5-.033.606-.219.749-.331.407-.441.47-.172.47-.248.662a4.5,4.5,0,0,1-.331.662c-.093.139-.172.484-.331.513a.8.8,0,0,0-.454.268c-.142.159-.189.06-.351.311a.662.662,0,0,1,.209-.152c.126-.036.265.036.391.033s.245-.126.381-.209a1.789,1.789,0,0,1,.563-.185c.169-.05.388-.076.454-.235a.5.5,0,0,0,0-.368c-.06-.106-.205-.179-.185-.331s.169-.2.268-.275.242-.225.381-.331c.205-.139.351-.179.48-.4a2.4,2.4,0,0,1,.262-.394.682.682,0,0,0,.166-.523c-.136-.066-.262,0-.4,0" transform="translate(-70.562 -43.434)"/><path class="ak" d="M103.363,77.135c.066,0,.083-.083.1-.123a.364.364,0,0,0,0-.288,1.06,1.06,0,0,1-.06-.172c0-.06.027-.129.083-.083s.027.109.05.146.04.04.06.066a1.083,1.083,0,0,0,.212.166c.076.063-.106.331-.132.331s-.172.282-.295.444c-.027.03-.027-.027-.07-.023s-.255.2-.3.156-.023-.126-.023-.192a.412.412,0,0,1,.106-.295c.086-.063.06-.076.129-.1Z" transform="translate(-68.869 -51.129)"/><path class="ak" d="M100.661,79.963a1.48,1.48,0,0,0-.1.215c0,.076,0,.132.036.142s-.1.142-.1.142a2.183,2.183,0,0,1-.331.331c-.215.185-.189.248-.295.361s-.2.238-.278.219a.427.427,0,0,1-.182-.066c-.02-.03-.106-.093.083-.209a2.511,2.511,0,0,0,.434-.361c.136-.142.331-.288.371-.351a.715.715,0,0,0,.162-.2,1.093,1.093,0,0,1,.083-.331c.07-.106.149-.046.106.086" transform="translate(-66.462 -53.371)"/><path class="m" d="M44.07,86.59a1.265,1.265,0,0,1,.576.285c.268.242-.374-.1-.576-.285" transform="translate(-29.473 -57.908)"/><path class="af" d="M39,77.871a1.815,1.815,0,0,0,.159.295c.109.189.212.374.3.566.046.106.113.235.149.331s.113.229.149.351a4.967,4.967,0,0,0,.2.487c.06.156.033.331.225.378.089.02.258.119.331.079s0-.242-.04-.331-.123-.182-.166-.282c-.066-.152-.176-.291-.252-.441s-.172-.311-.245-.477a3.107,3.107,0,0,0-.205-.45,3.482,3.482,0,0,1-.229-.464c-.046-.109-.119-.205-.166-.311s-.04-.209-.116-.225-.073.119-.079.176a.732.732,0,0,0,0,.331" transform="translate(-26.082 -51.745)"/><path class="x" d="M37.2,18.284a13.55,13.55,0,0,1,1.487-1.792c.291-.229.262-.2.182-.089s-.55.785-.662.937,0-.205-.2.1-.2.116-.331.308-.146.47-.494.533" transform="translate(-24.872 -10.913)"/></g></g></svg>