<svg xmlns="http://www.w3.org/2000/svg" width="47.16" height="40" viewBox="0 0 47.16 40"><defs><style>.a{fill:#034ea2;}.b{fill:#fff200;}</style></defs><rect class="a" width="47.16" height="31.319"/><path d="M28.4,135.449a.49.49,0,1,0,.977,0V133.62h.557v1.818a.963.963,0,0,1-.262.741,1.425,1.425,0,0,1-1.573,0,.96.96,0,0,1-.259-.741V133.62H28.4Z" transform="translate(-20.088 -96.421)"/><path d="M37.44,136.365V133.62h.941l.663,2.261h.039V133.62h.557v2.745h-.916l-.688-2.263H38v2.263Z" transform="translate(-27.017 -96.421)"/><rect width="0.557" height="2.748" transform="translate(13.221 37.199)"/><path d="M53.218,135.928a1.308,1.308,0,0,1-1.765,0,1.793,1.793,0,0,1-.256-1.069,1.857,1.857,0,0,1,.256-1.08,1.278,1.278,0,0,1,1.765,0,1.835,1.835,0,0,1,.259,1.08,1.771,1.771,0,0,1-.259,1.069m-1.328-.354a.468.468,0,0,0,.445.212.473.473,0,0,0,.448-.212,1.579,1.579,0,0,0,.12-.713,1.626,1.626,0,0,0-.123-.724.459.459,0,0,0-.445-.225.465.465,0,0,0-.445.225,1.67,1.67,0,0,0-.12.727,1.539,1.539,0,0,0,.12.713" transform="translate(-36.94 -96.276)"/><path d="M61.11,136.365V133.62h.941l.663,2.261h.039V133.62h.56v2.745h-.919l-.685-2.263h-.042v2.263Z" transform="translate(-44.097 -96.421)"/><path d="M71.16,136.365V133.62h1.779v.482H71.72v.643H72.7v.479H71.72v.657h1.219v.484Z" transform="translate(-51.349 -96.421)"/><path d="M82.4,136.365V133.62h1.776v.482H82.957v.643h.977v.479h-.977v.657h1.219v.484Z" transform="translate(-59.46 -96.421)"/><path d="M90.9,135.449a.49.49,0,0,0,.977,0V133.62h.557v1.818a.96.96,0,0,1-.259.741,1.425,1.425,0,0,1-1.573,0,.963.963,0,0,1-.262-.741V133.62H90.9Z" transform="translate(-65.189 -96.421)"/><path d="M100.487,135.443v.921H99.93V133.62H101c.646,0,.972.3.972.9a.869.869,0,0,1-.406.791l.393,1.05h-.612l-.32-.921Zm.813-.6a.5.5,0,0,0,.1-.32.456.456,0,0,0-.1-.315.379.379,0,0,0-.3-.12h-.509v.874H101a.356.356,0,0,0,.3-.12" transform="translate(-72.11 -96.421)"/><path d="M110.5,135.942a1.308,1.308,0,0,1-1.765,0,1.77,1.77,0,0,1-.259-1.069,1.835,1.835,0,0,1,.259-1.08,1.278,1.278,0,0,1,1.765,0,1.857,1.857,0,0,1,.256,1.08,1.793,1.793,0,0,1-.256,1.069m-1.325-.354a.576.576,0,0,0,.894,0,1.54,1.54,0,0,0,.12-.713,1.626,1.626,0,0,0-.123-.727.557.557,0,0,0-.888,0,1.626,1.626,0,0,0-.122.727,1.579,1.579,0,0,0,.12.713" transform="translate(-78.273 -96.291)"/><path d="M119.381,135.566h-.454v.8h-.557V133.62h1.011a.853.853,0,0,1,.977.952,1.016,1.016,0,0,1-.248.738.974.974,0,0,1-.729.256m-.454-.476h.454c.278,0,.415-.173.415-.518a.534.534,0,0,0-.1-.365.4.4,0,0,0-.315-.114h-.451Z" transform="translate(-85.416 -96.421)"/><path d="M126.94,136.365V133.62h1.776v.482H127.5v.643h.98v.479h-.98v.657h1.219v.484Z" transform="translate(-91.601 -96.421)"/><path d="M134.15,136.358l.618-2.748h1.061l.618,2.748h-.557l-.111-.5h-.96l-.111.5Zm1.052-2.286-.278,1.3h.749l-.278-1.3Z" transform="translate(-96.803 -96.414)"/><path class="b" d="M79.683,10.915h1.665l-1.342,1.047.523,1.659L79.193,12.6l-1.336,1.022.526-1.659L77.03,10.915h1.656L79.193,9.3Z" transform="translate(-55.585 -6.711)"/><path class="b" d="M79.889,87.756h1.665l-1.342,1.008.521,1.592-1.334-.98-1.339.98.529-1.592L77.23,87.756h1.665l.5-1.556Z" transform="translate(-55.73 -62.202)"/><path class="b" d="M98.859,82.679h1.665l-1.342,1.005.521,1.6-1.336-.986-1.336.986.529-1.6L96.2,82.679h1.662l.5-1.559Z" transform="translate(-69.418 -58.537)"/><path class="b" d="M98.859,16.193h1.665L99.182,17.2l.521,1.6-1.336-.983L97.03,18.8l.529-1.6L96.2,16.193h1.662l.5-1.553Z" transform="translate(-69.418 -10.564)"/><path class="b" d="M112.939,30.269H114.6l-1.342,1,.521,1.6-1.334-.983-1.334.983.526-1.6-1.359-1h1.662l.5-1.559Z" transform="translate(-79.579 -20.717)"/><path class="b" d="M112.939,68.786H114.6l-1.342,1.008.521,1.6-1.334-.986-1.334.986.526-1.6-1.359-1.008h1.662l.5-1.556Z" transform="translate(-79.579 -48.514)"/><path class="b" d="M118.216,49.241h1.668l-1.342,1.008.521,1.6-1.336-.986-1.336.986.526-1.6-1.356-1.008h1.662l.5-1.551Z" transform="translate(-83.389 -34.413)"/><path class="b" d="M60.343,16.236h1.668l-1.345,1.008.523,1.6-1.336-.986-1.339.986.529-1.6L57.69,16.236h1.659l.5-1.556Z" transform="translate(-41.629 -10.593)"/><path class="b" d="M46.646,30.316h1.668l-1.342,1.008.518,1.6-1.334-.983-1.336.983.526-1.6L43.99,30.316h1.662l.5-1.556Z" transform="translate(-31.743 -20.753)"/><path class="b" d="M41.576,49.283h1.662L41.9,50.291l.521,1.6-1.334-.98-1.339.98.529-1.6L38.92,49.283h1.659l.5-1.553Z" transform="translate(-28.085 -34.442)"/><path class="b" d="M46.646,68.836h1.668l-1.342,1.008.518,1.6-1.334-.983-1.336.983.526-1.6L43.99,68.836h1.662l.5-1.556Z" transform="translate(-31.743 -48.55)"/><path class="b" d="M60.536,82.726H62.2l-1.342,1,.518,1.6-1.334-.986-1.336.986.526-1.6-1.353-1h1.659l.5-1.556Z" transform="translate(-41.767 -58.573)"/></svg>