<svg xmlns="http://www.w3.org/2000/svg" width="56.969" height="48" viewBox="0 0 56.969 48"><defs><style>.a{fill:#fff;}.b{fill:#034ea2;}.c{fill:#fff200;}</style></defs><g transform="translate(0 -0.05)"><g transform="translate(0 0.05)"><path class="a" d="M29.648,137.03a.583.583,0,1,0,1.163,0v-2.18h.663v2.164a1.146,1.146,0,0,1-.308.885,1.7,1.7,0,0,1-1.872,0,1.15,1.15,0,0,1-.311-.885V134.85h.663Z" transform="translate(-19.377 -90.187)"/><path class="a" d="M38.61,138.12v-3.27h1.12l.789,2.694h.05V134.85h.663v3.27h-1.09l-.818-2.694h-.05v2.694Z" transform="translate(-25.817 -90.187)"/><rect class="a" width="0.663" height="3.27" transform="translate(16.126 44.663)"/><path class="a" d="M54.782,137.645a1.557,1.557,0,0,1-2.1,0,2.117,2.117,0,0,1-.3-1.272,2.177,2.177,0,0,1,.3-1.286,1.5,1.5,0,0,1,2.1.017,2.177,2.177,0,0,1,.3,1.286,2.117,2.117,0,0,1-.3,1.272m-1.584-.424a.557.557,0,0,0,.533.252.55.55,0,0,0,.53-.252,1.816,1.816,0,0,0,.142-.845,1.932,1.932,0,0,0-.142-.865.663.663,0,0,0-1.06,0,1.932,1.932,0,0,0-.142.865,1.869,1.869,0,0,0,.139.845" transform="translate(-35.018 -90.059)"/><path class="a" d="M62.29,138.12v-3.27h1.12l.789,2.694h.046V134.85h.666v3.27H63.817L63,135.427h-.05v2.694Z" transform="translate(-41.651 -90.187)"/><path class="a" d="M72.34,138.12v-3.27h2.117v.577H73.006v.765h1.163v.57H73.006v.782h1.451v.577Z" transform="translate(-48.372 -90.187)"/><path class="a" d="M83.58,138.12v-3.27h2.114v.577H84.243v.765h1.163v.57H84.243v.782h1.451v.577Z" transform="translate(-55.887 -90.187)"/><path class="a" d="M92.181,137.03a.58.58,0,1,0,1.16,0v-2.18H94v2.164a1.136,1.136,0,0,1-.311.885,1.69,1.69,0,0,1-1.869,0,1.136,1.136,0,0,1-.311-.885V134.85h.663Z" transform="translate(-61.188 -90.187)"/><path class="a" d="M101.773,137.024v1.1h-.663v-3.27h1.269c.769,0,1.153.361,1.153,1.077a1.04,1.04,0,0,1-.47.961l.464,1.249H102.8l-.4-1.113Zm.967-.712a.59.59,0,0,0,.116-.378.547.547,0,0,0-.126-.371.447.447,0,0,0-.355-.139h-.606v1.037h.63a.421.421,0,0,0,.351-.146" transform="translate(-67.609 -90.187)"/><path class="a" d="M112.063,137.659a1.554,1.554,0,0,1-2.1,0,2.114,2.114,0,0,1-.308-1.272,2.174,2.174,0,0,1,.308-1.286,1.517,1.517,0,0,1,2.1,0,2.173,2.173,0,0,1,.308,1.286,2.114,2.114,0,0,1-.308,1.272m-1.58-.424a.686.686,0,0,0,1.064,0,1.862,1.862,0,0,0,.142-.845,1.925,1.925,0,0,0-.146-.865.663.663,0,0,0-1.057,0,1.925,1.925,0,0,0-.146.865,1.862,1.862,0,0,0,.142.845" transform="translate(-73.32 -90.073)"/><path class="a" d="M120.773,137.169h-.54v.951h-.663v-3.27h1.2a1.017,1.017,0,0,1,1.163,1.136,1.209,1.209,0,0,1-.295.878,1.16,1.16,0,0,1-.868.3m-.54-.57h.537c.331,0,.494-.2.494-.613a.663.663,0,0,0-.119-.437.487.487,0,0,0-.374-.129h-.537Z" transform="translate(-79.953 -90.187)"/><path class="a" d="M128.12,138.12v-3.27h2.114v.577h-1.451v.765h1.163v.57h-1.163v.782h1.451v.577Z" transform="translate(-85.67 -90.187)"/><path class="a" d="M135.33,138.12l.736-3.27h1.262l.732,3.27H137.4l-.129-.59h-1.143l-.133.59Zm1.252-2.72-.331,1.551h.891l-.331-1.551Z" transform="translate(-90.491 -90.187)"/><rect class="b" width="56.641" height="37.788" transform="translate(0.156 0.139)"/><path class="a" d="M56.657,37.822H.311V.345H56.657ZM56.969.05H0V38.136H56.952Z" transform="translate(0 -0.05)"/><path class="c" d="M81.431,12.462h1.981l-1.6,1.246.62,1.978-1.59-1.219-1.59,1.219.626-1.978-1.61-1.246h1.975l.6-1.922Z" transform="translate(-52.337 -7.064)"/><path class="c" d="M81.641,89.292h1.985l-1.6,1.2.62,1.9-1.59-1.166-1.594,1.166.63-1.9-1.614-1.2h1.978l.6-1.852Z" transform="translate(-52.477 -58.485)"/><path class="c" d="M100.611,84.212h1.981L101,85.412l.62,1.9-1.59-1.173L98.434,87.31l.63-1.9-1.614-1.2h1.978l.6-1.852Z" transform="translate(-65.162 -55.088)"/><path class="c" d="M100.611,17.729h1.981L101,18.928l.62,1.9-1.59-1.17-1.594,1.17.63-1.9-1.614-1.2h1.978l.6-1.849Z" transform="translate(-65.162 -10.635)"/><path class="c" d="M114.691,31.812h1.981L115.075,33l.62,1.9-1.59-1.17-1.587,1.17.626-1.9-1.614-1.193h1.978l.6-1.852Z" transform="translate(-74.577 -20.05)"/><path class="c" d="M114.691,70.322h1.981l-1.6,1.2.62,1.9L114.1,72.25l-1.587,1.173.626-1.9-1.614-1.2h1.978l.6-1.852Z" transform="translate(-74.577 -45.8)"/><path class="c" d="M119.971,50.776h1.981l-1.594,1.2.616,1.9L119.388,52.7l-1.594,1.173.626-1.9-1.61-1.2h1.978l.6-1.846Z" transform="translate(-78.107 -32.735)"/><path class="c" d="M62.091,17.772h1.981l-1.6,1.2.62,1.9L61.5,19.7l-1.59,1.173.626-1.9-1.61-1.2H60.9l.6-1.852Z" transform="translate(-39.405 -10.662)"/><path class="c" d="M48.4,31.852h1.985l-1.6,1.2.62,1.9-1.587-1.17-1.59,1.17.623-1.9-1.61-1.2h1.978l.6-1.852Z" transform="translate(-30.251 -20.077)"/><path class="c" d="M43.321,50.819H45.3l-1.6,1.2.62,1.9-1.59-1.166-1.59,1.166.626-1.9-1.61-1.2h1.978l.6-1.849Z" transform="translate(-26.854 -32.761)"/><path class="c" d="M48.4,70.379h1.985l-1.6,1.2.62,1.9-1.587-1.17-1.59,1.17.623-1.9-1.61-1.2h1.978l.6-1.849Z" transform="translate(-30.251 -45.841)"/><path class="c" d="M62.291,84.262h1.981l-1.6,1.2.616,1.9L61.7,86.187l-1.59,1.173.626-1.9-1.61-1.2H61.1l.6-1.852Z" transform="translate(-39.538 -55.122)"/></g></g></svg>