<svg id="Layer_1" data-name="Layer 1" xmlns="http://www.w3.org/2000/svg" xmlns:xlink="http://www.w3.org/1999/xlink" viewBox="0 0 95.34 115.26"><defs><style>.cls-1{fill:none;}.cls-2{fill:#281801;}.cls-3,.cls-8{fill:#fff;}.cls-4{clip-path:url(#clip-path);}.cls-5{fill:#fbe02f;}.cls-6{fill:#f0493b;}.cls-7,.cls-8{fill-rule:evenodd;}</style><clipPath id="clip-path"><path class="cls-1" d="M1.5,1.5V96a13,13,0,0,0,3.77,9.19A12.83,12.83,0,0,0,14.4,109H42.93a6.22,6.22,0,0,1,4.2,1.7,7.21,7.21,0,0,1,.58.66c.18-.23.38-.45.58-.66a6.2,6.2,0,0,1,4.2-1.72H81a12.82,12.82,0,0,0,9.09-3.81A13,13,0,0,0,93.85,96V1.5Z"/></clipPath></defs><path class="cls-2" d="M95.2,96h0V.14H.13V96h0a14.32,14.32,0,0,0,14.26,14.37H42.82A4.67,4.67,0,0,1,47.56,115v0s.11.11.14.11.14-.11.14-.11a4.67,4.67,0,0,1,4.67-4.67H80.94A14.31,14.31,0,0,0,95.2,96"/><path class="cls-3" d="M47.7,115.26s-.1,0-.24-.15h0V115A4.52,4.52,0,0,0,43,110.47H14.4A14.48,14.48,0,0,1,0,96V0H95.34V96a14.47,14.47,0,0,1-14.4,14.51H52.63A4.53,4.53,0,0,0,48,114.92v.14h0c-.14.15-.2.15-.24.15m-4.84-5.06a4.78,4.78,0,0,1,4.84,4.63,4.81,4.81,0,0,1,4.89-4.63H80.94A14.2,14.2,0,0,0,95.06,96V.28H.29V96h0A14.19,14.19,0,0,0,14.4,110.23H42.86Z"/><g class="cls-4"><polygon class="cls-5" points="105.16 125.96 -9.82 125.96 -9.82 -12.02 105.16 125.96"/><polygon class="cls-6" points="-9.82 -12.02 105.16 -12.02 105.16 125.97 -9.82 -12.02"/></g><path class="cls-7" d="M83.21,37.35v.06a.73.73,0,0,1-.14.31,3.43,3.43,0,0,1-.49.52c-.23.19-.48.37-.73.54L81,39.3a8.18,8.18,0,0,0-.69.45,2.23,2.23,0,0,0-.67.59c-.16.2-.32.38-.51.58-.59.61-1.18,1.24-1.77,1.87a17.93,17.93,0,0,0-1.46,1.68c-.11.15-.22.32-.32.48a.84.84,0,0,0-.13.46,9.11,9.11,0,0,0,.14,1.88,19.35,19.35,0,0,0,.68,2.59c.37,1.17.77,2.32,1.14,3.48.47,1.42.84,2.86,1.18,4.31s.62,2.77.9,4.16c.22,1.05.43,2.09.65,3.14.07.37.19.72.28,1.08a3.36,3.36,0,0,0,.26.54c.22.37.43.74.63,1.13A11.43,11.43,0,0,1,81.92,69c.1.28.18.57.26.87a3.14,3.14,0,0,1,0,1.61,5,5,0,0,1-.48,1.11,4.5,4.5,0,0,1-2.11,1.91,2.74,2.74,0,0,1-.89.16,5,5,0,0,1-1.28-.16c-.61-.14-1.21-.32-1.81-.51-.31-.1-.62-.2-.94-.28a7.22,7.22,0,0,0-.87-.15l-1.44-.21-1.28-.19L69.84,73,68,72.68a55.1,55.1,0,0,1-5.67-1.38,18.67,18.67,0,0,1-3.72-1.63q-2.17-1.29-4.22-2.79l-2.18-1.63-.18-.14a.17.17,0,0,0-.21,0l-.58.38a.14.14,0,0,0-.05.18l.06.16a3.24,3.24,0,0,1,.22,1.06,1.13,1.13,0,0,1-.08.48l-.09.3a1,1,0,0,0,0,.48,2.55,2.55,0,0,0,.39,1,3.32,3.32,0,0,0,.63.77l.5.47.08.12h-.11l-.45-.05h-.25s-.07,0-.06.08h0v.11a6.49,6.49,0,0,0,.36.55,1.75,1.75,0,0,0,1,.63c.34.08.67.18,1,.29a19.43,19.43,0,0,1,2.41,1l.34.19v.1a.72.72,0,0,1-.2.09,3.33,3.33,0,0,1-.83.12h-1.1a4.9,4.9,0,0,0-.77.06,1.56,1.56,0,0,0-.52.15l-.09.07a.07.07,0,0,0,0,.1h0a.1.1,0,0,0,.06.09,4.26,4.26,0,0,0,2,1.25,8.38,8.38,0,0,0,1.21.25,16.64,16.64,0,0,0,2,.09,4.33,4.33,0,0,1,.72,0l.82.13a7.36,7.36,0,0,1,2.19.79c.27.14.54.31.79.47.43.3.83.61,1.24.94a.23.23,0,0,1,.07.07H63.66a.11.11,0,0,0,0,.08v.07l.18.13c.2.11.4.24.6.34l1.41.7a6.42,6.42,0,0,1,.86.46,2,2,0,0,1,.29.22v.1l-.13.06-.45.17a.63.63,0,0,0-.28.2.28.28,0,0,0,0,.28.49.49,0,0,0,.25.26l.35.14.72.27c.21.08.38.16.58.25H66.61a.21.21,0,0,0-.11,0h0l.14.08a13.13,13.13,0,0,0,1.47.57c.37.12.75.22,1.12.35a.67.67,0,0,1,.23.1v0h-.11a6.84,6.84,0,0,1-1.43,0,7.22,7.22,0,0,1-.8-.08h-.25l.07.11c.2.23.4.45.61.67l.16.16a.08.08,0,0,1,0,.12c-.07.06,0,0-.12,0h-.25a10.6,10.6,0,0,1-2.09-.8A2.1,2.1,0,0,0,65,83h-.08s-.07,0-.07.06a1,1,0,0,0,.15.34c.2.28.38.56.56.84a.59.59,0,0,1,.1.17s0,.07-.05.07h-.13A10.45,10.45,0,0,1,64.14,84c-.37-.14-.74-.31-1.1-.48a6.1,6.1,0,0,1-.7-.41l-.21.3H62v.11a1.17,1.17,0,0,0,.09.45c.09.15.18.31.28.46a1,1,0,0,1,.07.15v.06h-.09l-.33-.16a12.68,12.68,0,0,1-1.28-.76l-.6-.39L60,83.23s-.09-.06-.12,0a.11.11,0,0,0,0,.11.81.81,0,0,0,0,.22l.06.53a1.71,1.71,0,0,1,0,.32.09.09,0,0,1,0,.1h-.09a5.41,5.41,0,0,0-.89-.77c-.36-.27-.74-.53-1.11-.8l-.71-.52c-.29-.22-.56-.46-.83-.7a4.55,4.55,0,0,1-.65-.8,2.88,2.88,0,0,1-.37-.93v-.1a.41.41,0,0,0-.17-.26L55,79.52c-.09-.07-.18-.16-.27-.24a2.27,2.27,0,0,1-.64-1A1,1,0,0,0,54,78a2,2,0,0,0-.76-.9.1.1,0,0,0-.08,0A.07.07,0,0,0,53,77a0,0,0,0,0,0,0h0v.1a16.77,16.77,0,0,1-.23,2,3.6,3.6,0,0,1-.13.73,1,1,0,0,1-.05.16h0a1.8,1.8,0,0,1-.08-.21,1.81,1.81,0,0,0-.16-.48A11.45,11.45,0,0,0,51,76.47a14.57,14.57,0,0,0-1-1.34c-.18-.21-.33-.45-.49-.68a3.57,3.57,0,0,0-.3-.38,1,1,0,0,0-.2-.15.28.28,0,0,0-.25,0L48.6,74c-.09.11-.19.21-.28.33l-.21.26a.8.8,0,0,1-.17.15.16.16,0,0,1-.22,0,.14.14,0,0,1,0-.1.33.33,0,0,1,0-.14,2.38,2.38,0,0,1,.11-.53c0-.17.08-.32.11-.48a.89.89,0,0,0,0-.23.34.34,0,0,0-.33-.35h0a2.62,2.62,0,0,0-.56,0h-.75a.66.66,0,0,1-.28-.05.21.21,0,0,1-.17-.17l-.06-.16c-.07-.33-.13-.66-.17-1a13.22,13.22,0,0,1,0-1.78,5.21,5.21,0,0,1,0-.79.8.8,0,0,0-.14-.58c-.07-.11-.16-.23-.23-.36a1.17,1.17,0,0,1-.15-.27,1.28,1.28,0,0,1-.13-.92c.08-.29.14-.59.21-.88a1.83,1.83,0,0,0,.08-.57v-.11A.27.27,0,0,0,45,65l-.25-.14c-.32-.17-.62-.33-.93-.51a10.5,10.5,0,0,1-1.4-1c-.13-.12-.16-.13-.32,0a1.44,1.44,0,0,0-.25.18c-.89.64-1.81,1.25-2.74,1.84a32.43,32.43,0,0,1-4.26,2.21c-1.25.52-2.52,1-3.8,1.43l-1.52.51-.19.07v.07h.08a5.06,5.06,0,0,1,.95.06,6.57,6.57,0,0,1,2.29.67c.34.17.68.35,1,.55l3.77,2.3c.89.54,1.78,1.07,2.7,1.55.6.31,1.21.61,1.84.86a7,7,0,0,0,1.26.38,3.29,3.29,0,0,0,.83.07h1.16a17.61,17.61,0,0,1,1.78,0,3.44,3.44,0,0,1,1.14.26,1.92,1.92,0,0,1,.82.55,1.7,1.7,0,0,1,.43,1.1,2.62,2.62,0,0,1-.16,1c-.06.2-.13.4-.2.6l-.35.93a4.84,4.84,0,0,0-.23,1,1.33,1.33,0,0,0,.08.74l.32.83c.16.37.31.75.44,1.15a6.58,6.58,0,0,1,.31,1.45,4.77,4.77,0,0,1-.49,2.73,3.92,3.92,0,0,1-.44.7l-.46.54c-.08.09-.15.18-.23.26a1,1,0,0,0-.25.5,5.76,5.76,0,0,1-.3,1,3,3,0,0,1-.32.55,1.08,1.08,0,0,1-.53.46l-.13.07v.06h-.28a.13.13,0,0,0-.1-.1l-.22-.08a1.12,1.12,0,0,1-.61-.5,1.72,1.72,0,0,1-.23-.58,3.53,3.53,0,0,1,0-.65,8.42,8.42,0,0,1,.08-1c0-.36.09-.72.12-1.08a1.52,1.52,0,0,0-.11-.76c-.13-.29-.25-.59-.38-.89-.29-.67-.56-1.36-.84-2A16,16,0,0,0,43,83.24a2.91,2.91,0,0,0-.7-.86,3.42,3.42,0,0,0-.52-.4,5.31,5.31,0,0,0-1-.53,11.49,11.49,0,0,0-1.73-.52c-.7-.16-1.43-.28-2.14-.39l-2.37-.41c-.92-.15-1.84-.36-2.77-.6s-2.08-.59-3.12-.93c-1.5-.47-3-1-4.48-1.48-.6-.2-1.19-.39-1.79-.56a5.39,5.39,0,0,0-1.19-.2A21.47,21.47,0,0,1,19,76.12a8.18,8.18,0,0,1-1.55-.39,3.21,3.21,0,0,1-1.3-.81A4.8,4.8,0,0,1,15,73.14a4,4,0,0,1-.22-.91,3.7,3.7,0,0,1,0-.94,2.32,2.32,0,0,1,.36-1.11l.27-.36a6.77,6.77,0,0,1,.8-.89c.5-.48,1-.93,1.49-1.4.15-.17.29-.35.42-.53a65.25,65.25,0,0,1,6.08-6.14A40.86,40.86,0,0,1,27.77,58a16.78,16.78,0,0,1,2.36-1.36L31.56,56a.4.4,0,0,0,.26-.29l.08-.21c.11-.35.23-.69.34-1a11.74,11.74,0,0,1,1.27-2.62l.2-.32a.47.47,0,0,0,0-.1s0-.08-.06-.07h-.17l-.47.15a9.83,9.83,0,0,0-1.41.61l-1.12.57-.75.36c-.13.07-.28.12-.42.18h-.09v-.14a3.26,3.26,0,0,1,.26-.53l.57-.87c.12-.18.25-.36.36-.55a2.49,2.49,0,0,0,.31-.58.6.6,0,0,0,.06-.19c0-.1,0-.16-.13-.15h-.09c-.24.06-.51.1-.74.18a10.67,10.67,0,0,0-1.87.81.82.82,0,0,0-.48.47,37.58,37.58,0,0,0-1.89,3.75c0,.06,0,.14-.09.17h0l-.06-.07c-.06-.07,0-.26,0-.37a4,4,0,0,1,0-.49.89.89,0,0,1,0-.23.1.1,0,0,0-.15-.08l-.12.08-.42.4-.8.82a8,8,0,0,1-1,.93,7.26,7.26,0,0,1-.86.38l-.16,0h-.06s-.05,0,0,0a2.53,2.53,0,0,1,.19-.48c.1-.21.2-.42.29-.63a1.4,1.4,0,0,0,.13-.34.33.33,0,0,0,0-.14.07.07,0,0,0-.09,0l-.23.12c-.78.49-1.58,1-2.35,1.46l-.1.06a.07.07,0,0,1-.09,0h0a.11.11,0,0,1,0-.08.78.78,0,0,1,.05-.34,2.07,2.07,0,0,1,.12-.38,1,1,0,0,0,0-.25.17.17,0,0,0-.15-.17h-.05l-.21.07-1.31.57-.94.41-.42.2a0,0,0,0,1-.07,0h0a.09.09,0,0,1,0-.07.21.21,0,0,1,0-.11,1.76,1.76,0,0,1,.27-.4c.14-.17.27-.32.4-.49a2.12,2.12,0,0,0,.11-.21c0-.07-.06-.16-.13-.14l-.21.07-1,.39-.64.24a2.6,2.6,0,0,1-.67.15h-.11a0,0,0,0,1,0-.07l.06-.1L15,56a.86.86,0,0,0,.1-.16.15.15,0,0,0-.06-.2l0,0H12.42a.17.17,0,0,0-.17,0v-.06c.51-.25,1-.46,1.55-.68s.82-.35,1.22-.54a7.23,7.23,0,0,0,1.15-.65,1.5,1.5,0,0,0,.25-.19.8.8,0,0,0,.15-.21.13.13,0,0,0,0-.18h0l-.29,0a3.65,3.65,0,0,0-.64-.2,4.27,4.27,0,0,0-.48-.13,1,1,0,0,1-.3-.14v-.12l.18-.09a20.22,20.22,0,0,1,2.53-.83.36.36,0,0,0,.26-.19A.85.85,0,0,0,18,51a.12.12,0,0,0,0-.1h-.07a2.56,2.56,0,0,0-.54-.1,7.88,7.88,0,0,0-1.19,0H15.7a.25.25,0,0,1,.12-.08c.29-.12.58-.24.88-.34a18.06,18.06,0,0,1,3.15-.92H20a0,0,0,0,0,0-.07h0a.38.38,0,0,0-.11-.08,2.1,2.1,0,0,0-.65-.23,6.63,6.63,0,0,0-1.15-.35.25.25,0,0,1-.17,0h0a.76.76,0,0,1,.33-.11c.24,0,.49-.06.74-.07h1c.42,0,.83,0,1.25,0l1.35-.08h.14a.31.31,0,0,0-.13-.06L21.7,48l-.47-.14h-.1a4.33,4.33,0,0,1,.88,0,6,6,0,0,1,1.46.28l1.11.37c.43.14.85.28,1.29.4a6.35,6.35,0,0,0,1.89.22H28V49a1.37,1.37,0,0,0-.2-.13A3.87,3.87,0,0,1,26.9,48a3.26,3.26,0,0,1-.58-.92.84.84,0,0,1-.05-.17v-.09h0l.25.07a12,12,0,0,0,2.86.42H33.3a9.15,9.15,0,0,1,1.48.13l2.34.41,1.16.19h.22a.17.17,0,0,0,.2-.11v0a1.06,1.06,0,0,1,.12-.34A4.08,4.08,0,0,1,41.25,45a4.61,4.61,0,0,1,1.22-.28l.6-.06a.15.15,0,0,0,.14-.15v-.12c0-.55-.11-1.1-.14-1.65,0-.79-.07-1.58-.07-2.38A11.09,11.09,0,0,1,43.06,39V38.8c.06-.4.14-.8.22-1.18.3-1.39.64-2.75,1-4.12.12-.52.26-1,.4-1.55v-.12h0a.12.12,0,0,0-.09.08c-.16.25-.32.52-.47.78a14,14,0,0,1-1.32,1.77,6.31,6.31,0,0,1-1.67,1c-.42.22-.82.46-1.24.66L36.43,37.8c-1,.46-1.88.94-2.79,1.48a14.16,14.16,0,0,0-1.4.93l-.62.5A3.84,3.84,0,0,0,30.69,42c-.19.38-.39.75-.58,1.12a7.3,7.3,0,0,1-.44.77,6.41,6.41,0,0,1-.45.58,3.09,3.09,0,0,1-.7.6,2.09,2.09,0,0,1-.79.32,4.58,4.58,0,0,1-1.73,0,4.65,4.65,0,0,1-1.67-.74,6.82,6.82,0,0,1-.92-.77,11.28,11.28,0,0,1-1.05-1.24c-.2-.27-.13-.21-.46-.31-.61-.17-1.21-.35-1.8-.56a19.65,19.65,0,0,1-2.36-1,5.07,5.07,0,0,1-.64-.37,3.22,3.22,0,0,1-1.34-2.21c0-.31-.08-.31-.29-.46a4.32,4.32,0,0,1-.93-.83,2.53,2.53,0,0,1-.37-.55,1.68,1.68,0,0,1-.2-.88,1.12,1.12,0,0,1,.22-.58,1.39,1.39,0,0,1,.44-.36,1.22,1.22,0,0,1,.77-.13,2,2,0,0,1,.76.27,7.48,7.48,0,0,1,.84.54c.43.31.88.59,1.33.89a5.06,5.06,0,0,0,1.28.57,15.05,15.05,0,0,0,1.65.33l1.14.14c.41,0,.81.07,1.23.08h1.5A7.67,7.67,0,0,0,26.19,37a2.38,2.38,0,0,0,1-.37,14.73,14.73,0,0,0,1.48-1.12,19.18,19.18,0,0,0,1.46-1.39q1.22-1.29,2.43-2.55c.81-.85,1.63-1.7,2.48-2.51l4.37-4.16c.82-.77,1.63-1.53,2.4-2.34a7.58,7.58,0,0,0,.86-1.1l.65-1A8.35,8.35,0,0,1,44.51,19a3.63,3.63,0,0,1,1.13-.72,4.07,4.07,0,0,1,.83-.22l.31,0s0-.05.07-.06h.79l.06.06h.19l.4.07a4.52,4.52,0,0,1,1.32.51,3,3,0,0,1,1,1c.12.2.23.4.34.6.35.68.67,1.37,1,2.08L52.59,24a44.45,44.45,0,0,1,2,6.07c.26,1.11.48,2.23.64,3.37.08.55.16,1.11.2,1.67s.09,1,.1,1.54v3.1c0,.34-.06.7-.08,1a12.82,12.82,0,0,1-.13,1.51c-.06.51-.1.81-.14,1.22v.46a.21.21,0,0,0,.08.16l.29.17a4.43,4.43,0,0,1,1.83,2.09,2,2,0,0,0,.1.21v.07a0,0,0,0,0,.07,0,.11.11,0,0,0,.1-.08A3.07,3.07,0,0,0,58,46c.11-.21.21-.43.31-.64a4.57,4.57,0,0,1,1-1.45.52.52,0,0,0,.18-.4.38.38,0,0,1,0-.15v-.44a4.67,4.67,0,0,1,.17-.74l.24-.75a3.86,3.86,0,0,0,.09-.49.65.65,0,0,0-.17-.58l-.09-.15-.29-.42a1.52,1.52,0,0,1-.24-.78.56.56,0,0,0-.09-.31l-.06-.24A9.74,9.74,0,0,1,58.44,37a5.73,5.73,0,0,1-.31-1.64,4.86,4.86,0,0,0,0-.54,5.57,5.57,0,0,1,0-1,9.23,9.23,0,0,1,.15-1.39,3.16,3.16,0,0,1,.11-.6h0s.06,0,.06.05a.27.27,0,0,0,.08.22,2.07,2.07,0,0,0,.15.34l.1.14a.1.1,0,0,0,.12,0,.08.08,0,0,0,0,0,.53.53,0,0,0,0-.25c0-.55.05-1.1.06-1.65v-.43a1.59,1.59,0,0,1,.07-.48h0a.08.08,0,0,0,.06.07,1.14,1.14,0,0,0,.15.23.81.81,0,0,0,.26.26.21.21,0,0,0,.28-.07.29.29,0,0,0,0-.13,3,3,0,0,1,.07-.43A9.36,9.36,0,0,1,60,28.41v-1h0a.33.33,0,0,1,0,.14l.12.82a8.56,8.56,0,0,0,.24,1c0,.1.08.2.11.3l.07.09a.06.06,0,0,0,.06,0h0a.21.21,0,0,0,0-.11,4.81,4.81,0,0,1,.58-1.36,2,2,0,0,1,.25-.63.16.16,0,0,1,.07-.09h0a.22.22,0,0,1,.07.09l.2.5a1.51,1.51,0,0,0,.13.29l.08.08a.09.09,0,0,0,.1,0,.47.47,0,0,0,.07-.12,3,3,0,0,0,.11-.32,17.43,17.43,0,0,0,.54-2.46v-.28a.11.11,0,0,1,.1.06,3.58,3.58,0,0,1,.11.35,7.16,7.16,0,0,1,.23,1.53,9.91,9.91,0,0,1,0,1.09.42.42,0,0,0,.11.32v.07a4.79,4.79,0,0,1,.57,1.36,1,1,0,0,0,.07.25v.05h.19a.18.18,0,0,0,.07-.05,4,4,0,0,0,.54-1.19.57.57,0,0,1,.08-.25l.06.05a6.86,6.86,0,0,1,.12.91,13.85,13.85,0,0,1-.08,2.32v1a.1.1,0,0,0,.13.08h0l.09-.07a2.24,2.24,0,0,0,.27-.34,2.91,2.91,0,0,0,.33-.66c0-.08.07-.15.1-.24h.07a.93.93,0,0,0,.06.4v1.49a6.68,6.68,0,0,1-.22,1.41c-.06.21-.13.41-.19.63a.21.21,0,0,0,0,.11h.1c.13,0,.25-.1.38-.15l.18-.09h0V36a6.3,6.3,0,0,1-.65,1.39,4.08,4.08,0,0,1-1.47,1.42l-.21.11a.26.26,0,0,0-.12.15,2.76,2.76,0,0,0-.08.27,1.59,1.59,0,0,1-.71.88l-.26.18-.34.25c-.23.21-.23.24-.22.5a12.58,12.58,0,0,1-.09,1.5,9.1,9.1,0,0,1-.35,1.63v.13h0a.42.42,0,0,0,.14-.09c.47-.43.94-.84,1.41-1.28a27.31,27.31,0,0,0,3-3.27.34.34,0,0,1,.08-.09h0v.11q0,.34-.09.69a10.28,10.28,0,0,1-.39,1.34c-.26.68-.55,1.35-.87,2a8.07,8.07,0,0,1-.9,1.46l-.64.8a4.1,4.1,0,0,1-.49.53,17.17,17.17,0,0,1-1.76,1.54,8.76,8.76,0,0,1-1.48.93l-.11.07a.08.08,0,0,0,0,.11l.14.08a5.67,5.67,0,0,1,1.23.89,8.28,8.28,0,0,1,1,1,11.36,11.36,0,0,1,1.65,3.09,29.49,29.49,0,0,1,1,3.32c.12.49.22,1,.32,1.49.06.33,0,.3.34.44a10.42,10.42,0,0,1,1.49.85c.76.52,1.5,1,2.23,1.61s1.28,1,1.92,1.54c0,0,.09.1.17.1h0v-.09L70.92,63a10.24,10.24,0,0,1-.73-1.7,6.07,6.07,0,0,1-.32-1.45V57.42c0-1,.06-2,.09-3V51a6.26,6.26,0,0,0-.08-1.23,10.14,10.14,0,0,0-.25-1.56A4,4,0,0,0,69,46.74l-.59-.88c-.2-.34-.42-.68-.63-1a7.25,7.25,0,0,1-.45-1.08,2.5,2.5,0,0,1-.1-.9A1.73,1.73,0,0,1,68,41.53a2.85,2.85,0,0,1,.68-.33,4.55,4.55,0,0,1,.73-.17c.44-.09.89-.16,1.32-.23a4.12,4.12,0,0,0,.78-.23,1.94,1.94,0,0,0,.79-.5c.37-.39.78-.78,1.17-1.17a14.38,14.38,0,0,1,1.36-1.23,7.13,7.13,0,0,1,1.08-.74,5.73,5.73,0,0,1,1.43-.58,3.23,3.23,0,0,1,1.92.08l.18.06c.34.08.28.13.62-.09a3.64,3.64,0,0,1,.76-.39,3.16,3.16,0,0,1,1-.23,1.54,1.54,0,0,1,1,.24.84.84,0,0,1,.43.59v.74Zm-5.08-.28h-.24a3.16,3.16,0,0,0-.75.18,5.2,5.2,0,0,0-1.49.79,10.64,10.64,0,0,0-1.22,1l-.55.55c-.37.38-.76.76-1.15,1.13a2.4,2.4,0,0,1-.85.55,6.42,6.42,0,0,1-1.49.39l-1,.18a2.94,2.94,0,0,0-.58.16,1.36,1.36,0,0,0-.37.21,1,1,0,0,0-.33.56,1.52,1.52,0,0,0,0,.67,4.52,4.52,0,0,0,.56,1.25c.15.24.31.48.47.72l.69,1.08a4.14,4.14,0,0,1,.45.95,6,6,0,0,1,.19.73,8.64,8.64,0,0,1,.19,1.24c0,.52.1,1,.11,1.57v2.49c0,.88,0,1.77-.08,2.66l-.06,1.77v2a6.17,6.17,0,0,0,.1.62,7,7,0,0,0,.46,1.33,13.37,13.37,0,0,0,1.1,2,21.26,21.26,0,0,0,1.84,2.38l.18.23a.4.4,0,0,1-.14.55.39.39,0,0,1-.39,0,.89.89,0,0,1-.29-.22C72,65.52,70.55,64.27,69,63.07c-.78-.63-1.59-1.24-2.43-1.8-.3-.2-.6-.4-.93-.58l-.3-.15c-.1,0-.14,0-.17.07v.16a.37.37,0,0,1-.29.22,1.55,1.55,0,0,1-.43,0,8.75,8.75,0,0,1-1.34-.44c-.83-.31-1.66-.66-2.49-1l-2.18-.92c-.33-.13-.66-.24-1-.34a.6.6,0,0,0-.49,0,2.1,2.1,0,0,0-.26.13.31.31,0,0,0-.13.17v.12a.86.86,0,0,1-.06.39,7.17,7.17,0,0,1-.67,1.9,7.86,7.86,0,0,1-1.52,2.14,10.53,10.53,0,0,1-1.21,1l-.31.25a.09.09,0,0,0,0,.13h0l.22.18c.85.65,1.7,1.29,2.57,1.91,1.12.79,2.28,1.56,3.45,2.24a17.51,17.51,0,0,0,3.54,1.57,44.76,44.76,0,0,0,4.54,1.23l2,.35c.48.09,1,.15,1.45.23l1.27.2,2.28.37a6.7,6.7,0,0,1,1.16.26c.64.2,1.27.4,1.93.57a9.77,9.77,0,0,0,1.2.23,1.79,1.79,0,0,0,.94-.17,2.24,2.24,0,0,0,.4-.22,3.87,3.87,0,0,0,1.58-2.18,2.41,2.41,0,0,0,0-1.1c0-.2-.1-.39-.16-.58a7.81,7.81,0,0,0-.63-1.38c-.19-.39-.4-.76-.62-1.13a5,5,0,0,1-.46-1.1c-.1-.34-.19-.68-.26-1l-.57-2.71c-.21-1-.41-2.08-.62-3.12-.26-1.21-.58-2.41-.9-3.61s-.71-2.33-1.08-3.5c-.29-.87-.59-1.75-.87-2.63a13,13,0,0,1-.63-3.28,5.57,5.57,0,0,1,0-1,1,1,0,0,1,.13-.44A2.14,2.14,0,0,1,75,44.3a6.75,6.75,0,0,1,.76-1A17.81,17.81,0,0,1,77,41.88l1.34-1.41c.23-.25.47-.5.68-.77a2.18,2.18,0,0,1,.54-.51c.38-.25.75-.5,1.13-.73s.66-.41,1-.64a3.35,3.35,0,0,0,.49-.43,1.15,1.15,0,0,0,.2-.29.3.3,0,0,0,0-.29.45.45,0,0,0-.25-.18,1.29,1.29,0,0,0-.48,0,3,3,0,0,0-.6.18,4.1,4.1,0,0,0-.74.41.89.89,0,0,1-.77.16l-.44-.12-.36-.11a2.49,2.49,0,0,0-.61-.08M54.68,38.36a1.31,1.31,0,0,1,0-.28c0-.7,0-1.4-.06-2.11a3.25,3.25,0,0,0-.08-.88c-.08-.29,0-.48-.08-.72-.06-.47-.12-.94-.2-1.41-.11-.69-.25-1.37-.39-2.06a41.83,41.83,0,0,0-1.39-4.8c-.45-1.25-.93-2.49-1.42-3.71a19.4,19.4,0,0,0-1.12-2.29,2.3,2.3,0,0,0-.76-.76,3.68,3.68,0,0,0-.57-.26,4,4,0,0,0-2.23-.17,2.62,2.62,0,0,0-1.3.69,7.41,7.41,0,0,0-.54.58,12.3,12.3,0,0,0-.74,1l-.47.82a7.14,7.14,0,0,1-.71.93l-.28.3c-.59.62-1.21,1.21-1.83,1.8-1.14,1.09-2.29,2.17-3.43,3.24q-2.25,2.11-4.36,4.35c-.67.72-1.36,1.43-2,2.13A20,20,0,0,1,29,36.35a16.13,16.13,0,0,1-1.5,1.11,3,3,0,0,1-.88.34,4.43,4.43,0,0,1-.73.11c-.45,0-.9.07-1.34.07a15.05,15.05,0,0,1-1.78-.07,1.88,1.88,0,0,1-.62-.07c-.49-.06-1-.13-1.48-.21a8.19,8.19,0,0,1-1.39-.3,4.42,4.42,0,0,1-1.15-.47c-.41-.24-.82-.49-1.21-.77l-.79-.55c-.19-.13-.4-.23-.6-.34a.9.9,0,0,0-.28-.08.44.44,0,0,0-.36.11.32.32,0,0,0-.12.33.77.77,0,0,0,.12.33,1.44,1.44,0,0,0,.23.32,3.21,3.21,0,0,0,1,.87l.12.07a.47.47,0,0,1,.26.42,2.54,2.54,0,0,0,0,.39,2.37,2.37,0,0,0,.64,1.34,2.45,2.45,0,0,0,.47.38,6,6,0,0,0,.65.37,18.92,18.92,0,0,0,3,1.19l1,.28a.75.75,0,0,1,.47.33c.14.2.29.39.43.58l.4.48A5.93,5.93,0,0,0,24.91,44a3.63,3.63,0,0,0,1.88.62,3.53,3.53,0,0,0,.65,0,1.8,1.8,0,0,0,.91-.41,3.88,3.88,0,0,0,.39-.42,4.1,4.1,0,0,0,.53-.84c.26-.49.51-1,.76-1.48a3.93,3.93,0,0,1,.77-1,9.38,9.38,0,0,1,1.26-1c.48-.34,1-.65,1.48-.94.92-.53,1.87-1,2.84-1.48L39,35.79c.66-.33,1.32-.65,2-1A4.69,4.69,0,0,0,42,34a7.06,7.06,0,0,0,.63-.72c.17-.23.35-.46.52-.71a21.85,21.85,0,0,0,1.37-2.28c.48-.86.89-1.75,1.29-2.66l.12-.27a.41.41,0,0,1,.77.16.81.81,0,0,1,0,.22,1.22,1.22,0,0,1-.06.26c-.54,2.11-1.08,4.22-1.61,6.35-.3,1.19-.6,2.41-.85,3.61,0,.28-.11.55-.14.82s0,.68-.07,1,0,.92,0,1.38c0,.77.06,1.54.13,2.31v.14s.06,0,.09,0l.24-.19a4.87,4.87,0,0,1,1-.55,2.85,2.85,0,0,1,.81-.21,2.81,2.81,0,0,1,1.63.35,3.38,3.38,0,0,1,.41.24c.3.18.23.19.52,0a4.3,4.3,0,0,1,.59-.34,1.79,1.79,0,0,1,1.47,0,1.87,1.87,0,0,1,.4.2l.49.31.49.29a.77.77,0,0,0,.39.11,6.78,6.78,0,0,1,1.42.15h.13s.09,0,.09-.06a2.29,2.29,0,0,0,.07-.28c.06-.52.11-1,.18-1.56v-.52a10.81,10.81,0,0,1,.09-1.11c.06-.64,0-1.27.08-1.87m-8.83,52a2.71,2.71,0,0,0,0,.57.73.73,0,0,0,.07.24.47.47,0,0,0,.29.26.17.17,0,0,0,.14,0l.08-.08a.82.82,0,0,0,.12-.2,4.18,4.18,0,0,0,.38-1.13,1.62,1.62,0,0,1,.32-.69l.21-.25.4-.45a3.74,3.74,0,0,0,.71-1.2,4.37,4.37,0,0,0,.17-2,5.28,5.28,0,0,0-.31-1.23c-.09-.22-.18-.46-.28-.68s-.27-.73-.41-1.1a1.81,1.81,0,0,1-.14-.69,3.74,3.74,0,0,1,.11-1,5.86,5.86,0,0,1,.33-1c.11-.33.23-.65.36-1a3.13,3.13,0,0,0,.16-.75,1,1,0,0,0-.41-.87,2.31,2.31,0,0,0-.35-.18A3.12,3.12,0,0,0,47,77a12.06,12.06,0,0,0-1.9,0,7.78,7.78,0,0,0-1.18.06A4.2,4.2,0,0,1,43,77c-.31-.08-.63-.18-.93-.28a16.16,16.16,0,0,1-1.89-.87,27.31,27.31,0,0,1-2.84-1.61L33.58,72c-.39-.24-.8-.48-1.22-.7a6.21,6.21,0,0,0-.93-.37,6.15,6.15,0,0,0-1.4-.25,9.69,9.69,0,0,0-1.32,0,19.43,19.43,0,0,0-2.16.15,17.38,17.38,0,0,0-2.06.36,1.93,1.93,0,0,1-.34,0,.37.37,0,0,1-.18-.08.41.41,0,0,1-.09-.57.49.49,0,0,1,.18-.14l.25-.07c2-.55,4-1.15,6-1.82,1.4-.48,2.79-1,4.15-1.56a28,28,0,0,0,3.39-1.67c1.24-.73,2.44-1.53,3.6-2.37l.11-.09h0v-.11l-.12-.17a6.63,6.63,0,0,1-1.29-2.7c-.06-.27-.12-.54-.16-.82a.36.36,0,0,0-.15-.27,3,3,0,0,0-.46-.34l-.25-.13a.66.66,0,0,0-.48,0,1.23,1.23,0,0,0-.43.15L36.66,59l-1.7.77c-.64.28-1.29.57-1.94.83-.41.17-.84.32-1.27.45a4.88,4.88,0,0,1-.55.12.58.58,0,0,1-.32,0,.29.29,0,0,1-.23-.26.61.61,0,0,1,0-.19,3.75,3.75,0,0,1,.09-.82c.14-.73.33-1.44.52-2.15a3.17,3.17,0,0,0,.12-.44v-.14s0-.05,0-.06h-.16l-.78.36a15.63,15.63,0,0,0-2.46,1.46c-1.09.79-2.14,1.62-3.16,2.51a64.48,64.48,0,0,0-5.92,6c-.26.31-.55.58-.84.87s-.59.53-.88.82-.42.38-.62.59a5.9,5.9,0,0,0-.71.86,1.56,1.56,0,0,0-.29.91,3.55,3.55,0,0,0,.17,1.21,3.88,3.88,0,0,0,1,1.6,2.64,2.64,0,0,0,1,.64,6.75,6.75,0,0,0,1.25.32l.9.13c.34,0,.67.08,1,.1l.88.07h.14a8.07,8.07,0,0,1,1.2.29c.76.23,1.51.48,2.26.74,1.7.58,3.39,1.14,5.11,1.66a39.43,39.43,0,0,0,4.3,1c.93.17,1.85.32,2.78.47.63.11,1.25.22,1.88.36a11.71,11.71,0,0,1,1.83.56,6.44,6.44,0,0,1,1.46.84,4.3,4.3,0,0,1,1.11,1.29,13.72,13.72,0,0,1,.68,1.32c.2.44.39.88.58,1.31l.87,2.15a1.81,1.81,0,0,1,.16.83v.2c0,.3,0,.6-.09.89a10.19,10.19,0,0,1-.12,1.08m8.45-34.74a3.85,3.85,0,0,0,0-.71,5.19,5.19,0,0,0-.13-.88.72.72,0,0,0-.2-.36c-.49-.5-1-1-1.46-1.5a.5.5,0,0,0-.52-.23,5.93,5.93,0,0,1-2-.35,3,3,0,0,1-.94-.54l-.59-.5-.18-.14h-.13l-.26.13c-.43.22-.85.43-1.29.61a5.65,5.65,0,0,1-.8.24l-.59.09-.86.13a2.56,2.56,0,0,0-.58.11.89.89,0,0,0-.58.34l-.11.14c-.19.25-.38.51-.59.77a1.71,1.71,0,0,0-.32.63,5.86,5.86,0,0,0-.23,1.38,13.52,13.52,0,0,0,0,1.8,10.58,10.58,0,0,0,.22,1.23,9.48,9.48,0,0,0,1.33,3.14,9.3,9.3,0,0,0,2.25,2.39,6,6,0,0,0,1.18.68,3.11,3.11,0,0,0,.65.22,1.7,1.7,0,0,0,1,0,4.79,4.79,0,0,0,.57-.21,6.52,6.52,0,0,0,1.29-.78A9.85,9.85,0,0,0,52,62.17a9.71,9.71,0,0,0,2.32-6.35m10.43,4.36a1.93,1.93,0,0,0-.09-.68c-.13-.75-.29-1.49-.48-2.24s-.49-1.8-.8-2.68a11,11,0,0,0-1.67-3.08,7.93,7.93,0,0,0-.83-.91,5.4,5.4,0,0,0-.94-.71,3.34,3.34,0,0,0-.73-.31H59a.15.15,0,0,0-.13,0l-.14.14a1.81,1.81,0,0,0-.39.91,5.57,5.57,0,0,0,0,1,8.34,8.34,0,0,1,0,1,2.26,2.26,0,0,1,0,.52,2.23,2.23,0,0,1-.29.65l-.12.2a.11.11,0,0,0,0,.11l.06.08a5.82,5.82,0,0,1,.75,1.36,12,12,0,0,1,.58,1.85q.1.45.18.9a.26.26,0,0,0,.17.24l.71.3h.06s.09,0,.09-.07v-.17a6.35,6.35,0,0,0-.13-.76,11.94,11.94,0,0,0-1.85-4.34l-.1-.16-.05-.11a.21.21,0,0,1,.1-.25.23.23,0,0,1,.27,0l.1.11.18.25a12.25,12.25,0,0,1,1.76,4A9.38,9.38,0,0,1,61,59a.17.17,0,0,0,0,.1.21.21,0,0,0,.1.14l.1,0,.82.34h.11s.11,0,.11-.07a1.61,1.61,0,0,0,0-.31,6.16,6.16,0,0,0-.14-1,12,12,0,0,0-1.52-4l-.12-.2a.21.21,0,0,1,0-.11.21.21,0,0,1,.17-.21.24.24,0,0,1,.23.06.36.36,0,0,1,.07.1l.14.22a13,13,0,0,1,1.6,4.56c0,.3.09.6.11.9v.29a.17.17,0,0,0,.09.11H63l.94.33.58.16h.09a.11.11,0,0,0,.11-.11Zm-31.22-.79v.34a.11.11,0,0,0,.09.06h.11l.89-.39h0a.23.23,0,0,0,.12-.18v-.14a2,2,0,0,1,.08-.68,9.15,9.15,0,0,1,.37-1.71A12.46,12.46,0,0,1,36.28,54a1.42,1.42,0,0,0,.08-.18v0h0l-.25.12a6.43,6.43,0,0,1-1.53.58,5.55,5.55,0,0,1-1.35.17h-.35a.14.14,0,0,0-.13.09,1.34,1.34,0,0,0-.07.18c-.46,1.36-.87,2.73-1.22,4.12-.09.38-.17.76-.23,1.15v.31a.11.11,0,0,0,.12.1h.25c.4-.12.8-.25,1.19-.41s.26-.13.27-.4,0-.45,0-.69a8.07,8.07,0,0,1,.26-1.28,11.22,11.22,0,0,1,1.28-3c0-.07.09-.13.13-.19l.12-.09H35a.25.25,0,0,1,.21.29V55c0,.09-.11.17-.15.25a11,11,0,0,0-1,2.32,7.7,7.7,0,0,0-.37,1.9M58.69,77.6a5.57,5.57,0,0,0,1,0h.11a.09.09,0,0,0,0-.07v-.11a2.64,2.64,0,0,0-.44-.74,3.83,3.83,0,0,0-.28-.29,1,1,0,0,0-.5-.25,2.48,2.48,0,0,0-.77-.06l-.8.08a2.15,2.15,0,0,1-1.22-.22c-.4-.22-.81-.42-1.2-.64l-2.15-1.15L52,73.93l-.22-.07a.1.1,0,0,0-.12.07v0a.77.77,0,0,0,.07.16c.1.16.21.31.32.47l.51.62c.37.46.75.91,1.12,1.38A12.77,12.77,0,0,1,55.19,79v.08h0a.11.11,0,0,0,.08,0l.09-.07a2.77,2.77,0,0,0,.54-.73,3.49,3.49,0,0,0,.35-.82l.06-.16h.08l.25.08q.3.09.6.15a6.87,6.87,0,0,0,1.36.1m.62-28.83a1.55,1.55,0,0,0,.56-.11,2.22,2.22,0,0,0,.43-.23l.46-.34c.32-.26.62-.54.92-.82a24.52,24.52,0,0,0,2.28-2.6,9.49,9.49,0,0,0,1.52-2.84,1.18,1.18,0,0,1,.08-.31h-.06a1,1,0,0,0-.18.17l-.8.9c-1.3,1.39-2.68,2.7-4.1,4-.63.55-1.28,1.1-1.93,1.62l-.17.15a.1.1,0,0,0,0,.14l0,0a1.63,1.63,0,0,0,1,.32m-22.08-.3c0-.15,0-.23-.23-.33a7,7,0,0,0-1-.35,3,3,0,0,0-.73-.14H31.47A8.28,8.28,0,0,1,30,47.63l-1.19-.14a14.39,14.39,0,0,1-1.46-.26H27.3a.11.11,0,0,0-.08.08v.08a1.12,1.12,0,0,0,.44.68,2.42,2.42,0,0,0,1.06.47,7,7,0,0,0,1.11.11h3.23a6.23,6.23,0,0,1,1.43.11l1.37.29.84.17a.66.66,0,0,0,.28,0,.18.18,0,0,0,.16-.18v0a.33.33,0,0,0,.07-.13.91.91,0,0,0,.06-.4m10.81-4.29a.29.29,0,0,1,0-.13,1,1,0,0,0-.46-.61,1.69,1.69,0,0,0-1.83-.1,2.46,2.46,0,0,0-.54.37,6,6,0,0,0-.61.62c-.17.21-.34.43-.5.65a4.44,4.44,0,0,1-.5.56,12.16,12.16,0,0,1-2.08,1.7l-.19.12-.12.12a.48.48,0,0,0-.11.52.77.77,0,0,0,.65.5.45.45,0,0,0,.37-.1,5.3,5.3,0,0,0,.45-.34c.3-.26.59-.53.88-.77a8,8,0,0,0,1.4-1.51l.5-.69a2.52,2.52,0,0,1,.47-.51,1.07,1.07,0,0,1,.28-.19.65.65,0,0,1,.47-.09,2,2,0,0,1,.47.15l.25.11.3.11a.32.32,0,0,0,.35-.15.45.45,0,0,0,.1-.3M37.45,51.83a.33.33,0,0,0,0-.14v-.32a5,5,0,0,0-.27-.93,1.15,1.15,0,0,0-.21-.33.3.3,0,0,0-.34-.11.77.77,0,0,0-.29.1,3.14,3.14,0,0,0-.39.24,6.25,6.25,0,0,0-1.11,1.07,5.94,5.94,0,0,0-1.07,1.94,1.38,1.38,0,0,0-.08.27.45.45,0,0,0,0,.23.26.26,0,0,0,.16.19,1.35,1.35,0,0,0,.49,0,2.31,2.31,0,0,0,.56-.11,4.6,4.6,0,0,0,2.35-1.64l.11-.17a.74.74,0,0,0,.09-.36m23-12.71h-.32a.07.07,0,0,0-.07.07.71.71,0,0,0,0,.29,2.1,2.1,0,0,0,.15.3l.34.56a.65.65,0,0,1,.08.47,4.73,4.73,0,0,1-.22.82c-.1.27-.19.53-.28.79a1.64,1.64,0,0,0-.09.73v.4c.09.51.2,1,.31,1.54v.17h.08a.61.61,0,0,0,.07-.1,9.12,9.12,0,0,0,.67-1.23,3.93,3.93,0,0,0,.29-1.12V41.08a.7.7,0,0,1,.12-.34l.17-.16c.11-.09.23-.17.35-.25a4.29,4.29,0,0,0,.49-.43,1.26,1.26,0,0,0,.33-.57.49.49,0,0,0,0-.17.12.12,0,0,0,.17,0,.1.1,0,0,0,0-.07h-.46a15.72,15.72,0,0,1-2.17,0h-.06M35.27,58.81v.07a.1.1,0,0,0,.13.1l.81-.37a.18.18,0,0,0,.13-.17v-.29c.09-.56.2-1.11.33-1.68a16,16,0,0,1,.57-1.94,5.92,5.92,0,0,1,.53-1.21l.16-.26a.23.23,0,0,1,.29-.07.24.24,0,0,1,.13.28.77.77,0,0,1-.07.16l-.27.5A10.41,10.41,0,0,0,37.64,55a24.15,24.15,0,0,0-.75,3.13h0a.11.11,0,0,0,.08.09h.12l.24-.1c.21-.09.22-.11.25-.32v-.12A12.93,12.93,0,0,1,38,55.84a6.44,6.44,0,0,1,.9-2,.12.12,0,0,0,0-.16l-.09-.15a4.43,4.43,0,0,1-.6-1.35v-.09a.07.07,0,0,0-.1,0h0a.69.69,0,0,0-.11.13,6.53,6.53,0,0,1-.88.94l-.12.12v.1a.36.36,0,0,1,0,.46h0a12.21,12.21,0,0,0-1.46,3.68c-.09.41-.15.82-.2,1.24m7.47-9.66a.42.42,0,0,0-.27,0,3.31,3.31,0,0,1-.77,0,1.31,1.31,0,0,1-.64-.21,1.15,1.15,0,0,1-.53-.69,1.29,1.29,0,0,1,.09-1,2.21,2.21,0,0,1,.28-.4,4.35,4.35,0,0,1,.55-.5l.41-.27c.32-.23.65-.44,1-.68.13-.08.26-.19.39-.29L43.4,45h0a.13.13,0,0,0,0-.18l0,0a1,1,0,0,0-.35,0l-.6.09a3.09,3.09,0,0,0-1,.4,4.76,4.76,0,0,0-1.09.91,2.66,2.66,0,0,0-.8,1.82v.54a1.63,1.63,0,0,0,.63,1.24,2.37,2.37,0,0,0,1.09.53,3.7,3.7,0,0,0,.57.07,4.85,4.85,0,0,0,.93-.06,3.75,3.75,0,0,0,.75-.19l.12-.06a.06.06,0,0,0,0-.06.22.22,0,0,0-.09-.07l-.43-.28a.68.68,0,0,1-.26-.27l-.13-.24M52.5,78.61v-1a6.74,6.74,0,0,0-.13-1.1,2.87,2.87,0,0,0-.46-1.13l-.52-.75a6.85,6.85,0,0,0-1-1.21,5.31,5.31,0,0,1-1-1.31l-.21-.43-.88-1.64a.39.39,0,0,0-.12-.19h0a.08.08,0,0,0-.08.08,1.77,1.77,0,0,0-.15.31.89.89,0,0,0,0,.56c.07.23.14.44.22.65a10.23,10.23,0,0,0,1.17,2.06,3.07,3.07,0,0,0,.41.47,5.9,5.9,0,0,1,.66.75,12.82,12.82,0,0,1,1.3,2.09c.25.48.49,1,.73,1.45l.14.25h.08M25.57,49h-.1s-.07,0-.06.08h0c0,.07.08.15.11.21a8.26,8.26,0,0,1,1,2.62v.2h.09a1,1,0,0,0,.17-.2,11.88,11.88,0,0,1,1-1.13,7.68,7.68,0,0,1,.63-.5,3.05,3.05,0,0,1,.91-.39,4.81,4.81,0,0,1,.85-.1H31a1.36,1.36,0,0,0,.68-.18,5.82,5.82,0,0,0,.66-.44l.08-.08V49h-.24c-1.08,0-2.16,0-3.24.1a2.06,2.06,0,0,0-1,.28l-.23.12a.83.83,0,0,1-.82-.06c-.08,0-.16-.1-.24-.15l-.22-.13a2.43,2.43,0,0,0-.84-.18m24.94-4.18h0a.12.12,0,0,0-.11.14v.14c.06.15.14.31.2.47l.21.47a.81.81,0,0,1,0,.22.11.11,0,0,1-.11.12.34.34,0,0,1-.2,0,1,1,0,0,1-.17-.1L49.82,46l-.14-.09H49.6a3.16,3.16,0,0,0-.36.71.33.33,0,0,0,0,.14.26.26,0,0,0,.1.25,1.62,1.62,0,0,0,.41.27,4.73,4.73,0,0,0,.66.25,2.82,2.82,0,0,0,.57.09h.48a2.38,2.38,0,0,1,.65.1,1,1,0,0,1,.7.69,1.68,1.68,0,0,1,.07.5v.23s.06.06.09,0H53a5.56,5.56,0,0,0,.81-.64c0-.05.09-.11.14-.17a.39.39,0,0,0,.06-.21,1,1,0,0,0,0-.25,1.48,1.48,0,0,0-.29-.52.64.64,0,0,0-.33-.23L53.13,47a3.6,3.6,0,0,1-.69-.32,1.38,1.38,0,0,1-.4-.32,2.8,2.8,0,0,1-.25-.35c-.15-.21-.27-.44-.4-.66a.82.82,0,0,1-.12-.2.5.5,0,0,0-.14-.15,1.16,1.16,0,0,0-.62-.22m.4-.38a.73.73,0,0,0,.36,0,.4.4,0,0,0,.23-.46.5.5,0,0,0-.18-.31l-.23-.17a2,2,0,0,0-.87-.14,1.34,1.34,0,0,0-.58.2,3.48,3.48,0,0,0-.48.38,8.2,8.2,0,0,0-.71.85c-.22.3-.42.62-.61.94l-.32.51a5.07,5.07,0,0,1-1.14,1.26l-.11.09-.06.07h0a8.18,8.18,0,0,0,1.4,0,.42.42,0,0,0,.26-.12,6.51,6.51,0,0,0,.51-.54,2.68,2.68,0,0,0,.41-.69c.08-.23.18-.46.27-.68s.11-.27.17-.4a2,2,0,0,1,.6-.76.69.69,0,0,1,.5-.15h.51M54.3,73.1h1.26L55.4,73c-.88-.38-1.74-.78-2.6-1.2a2.76,2.76,0,0,1-.89-.66,7,7,0,0,1-.48-.6,1.37,1.37,0,0,0-.13-.2.19.19,0,0,0-.17-.08h-.62a.2.2,0,0,0-.17.18v.11a4,4,0,0,0,0,.69,1.58,1.58,0,0,0,.36.76,4,4,0,0,0,.72.7,2.13,2.13,0,0,0,.8.35,8.23,8.23,0,0,0,1.31.16h.82m3.43-20.69v-.31a1.15,1.15,0,0,0-.28-.68,5.57,5.57,0,0,0-.57-.52l-.12-.08h-.13l-.12.31a1.16,1.16,0,0,0,0,.82c.07.15.12.31.18.48a.62.62,0,0,1,0,.27,1.64,1.64,0,0,1-.22.71.27.27,0,0,1-.15.13,1,1,0,0,1-.58.09H55.7a.13.13,0,0,1-.08-.13.91.91,0,0,1,.11-.3,4,4,0,0,0,.21-.47.59.59,0,0,0,0-.6,1.54,1.54,0,0,0-.57-.59l-.21-.09a.49.49,0,0,0-.17,0,.23.23,0,0,0-.21.17.66.66,0,0,0,0,.28l.09.31c.06.2.13.41.2.62a.53.53,0,0,1,0,.46,1.51,1.51,0,0,0-.18.26l-.12.2a.15.15,0,0,0,0,.16.52.52,0,0,0,.11.1,2.64,2.64,0,0,0,1,.51,1,1,0,0,0,.67,0,3.27,3.27,0,0,0,.89-.63,1.26,1.26,0,0,0,.3-.51,3.5,3.5,0,0,0,.12-.91m-22.3-3V49.5a.21.21,0,0,0-.1-.06l-.35-.11a5.77,5.77,0,0,0-.58-.08,1.92,1.92,0,0,0-1.13.16,6.29,6.29,0,0,0-2,1.46,11.24,11.24,0,0,0-1,1.13h0v.07h0l.34-.16a19.78,19.78,0,0,1,3.57-1.37,1,1,0,0,0,.38-.19,4.19,4.19,0,0,0,.68-.65.61.61,0,0,0,.12-.16v-.08m5.88,3.29V53a.33.33,0,0,0,0,.14.15.15,0,0,0,.2,0h.07c.08-.09.17-.16.24-.25s.23-.28.33-.43a7.56,7.56,0,0,1,.54-.67,1.25,1.25,0,0,1,.63-.38l.45-.1,1.48-.22a3.22,3.22,0,0,0,.92-.25,11.72,11.72,0,0,0,1.14-.52.32.32,0,0,0,.13-.1h0a.21.21,0,0,0-.06-.1,2.74,2.74,0,0,0-.48-.36.64.64,0,0,0-.63,0,1.36,1.36,0,0,0-.37.21c-.16.11-.31.22-.48.32a2.08,2.08,0,0,1-.68.26,1.27,1.27,0,0,0-.47.06L43,50.77a4.44,4.44,0,0,0-.71.21,1.37,1.37,0,0,0-.76.66,2.38,2.38,0,0,0-.28.68,2,2,0,0,0-.06.49m5-4.49a11.09,11.09,0,0,0-1.52.2,4.76,4.76,0,0,0-.9.3,1.75,1.75,0,0,0-.47.29.11.11,0,0,0,0,.15.81.81,0,0,0,.66.23,2.34,2.34,0,0,0,.58-.14c.21-.07.43-.14.63-.23a3.62,3.62,0,0,1,.56-.17,1.43,1.43,0,0,1,.89.09l.24.11a4.27,4.27,0,0,1,.73.46c.5.38,1,.78,1.51,1.21a2.56,2.56,0,0,0,.86.5,5.82,5.82,0,0,0,1,.24h.16V51.5a.89.89,0,0,0-.28-.23c-.71-.51-1.41-1.05-2.08-1.62-.32-.27-.66-.52-1-.78-.17-.12-.35-.23-.53-.34a1.12,1.12,0,0,0-.56-.18h-.49m-7.14,9.17c0,.13,0,.2.09.24l.5.28h0a.09.09,0,0,0,.12,0h0a1.54,1.54,0,0,0,.34-.28l.12-.42a7.56,7.56,0,0,1,.8-1.76,1.63,1.63,0,0,0,.11-.23.09.09,0,0,0,0-.1L41,55.1c-.19-.09-.4-.17-.59-.27a3.41,3.41,0,0,1-.83-.52.27.27,0,0,1-.08-.07.13.13,0,0,0-.12,0,1,1,0,0,0-.11.17,5.58,5.58,0,0,0-.35.69,11.24,11.24,0,0,0-.77,2.47.21.21,0,0,0,0,.11.11.11,0,0,0,.09.09,1.71,1.71,0,0,1,.3-.09.25.25,0,0,0,.25-.27.89.89,0,0,1,0-.23,8.11,8.11,0,0,1,.41-1.46c.09-.21.19-.41.3-.61a1.88,1.88,0,0,1,.16-.23l.1-.07a.24.24,0,0,1,.24.06.23.23,0,0,1,.06.26,1.09,1.09,0,0,1-.08.15,3.5,3.5,0,0,0-.4.88,8.77,8.77,0,0,0-.32,1.22v.09m13.3-12.38a3.22,3.22,0,0,1,.76,0,.86.86,0,0,1,.63.45,1.33,1.33,0,0,1,.17.64v.34a1.53,1.53,0,0,0,.29.8l.11.12a.16.16,0,0,0,.22,0l0,0a.44.44,0,0,0,.08-.11,1.77,1.77,0,0,1,.08-.31,4.18,4.18,0,0,0,0-1h0a3.57,3.57,0,0,0-.26-.9,1.71,1.71,0,0,0-.57-.68,2,2,0,0,0-.95-.44,1.76,1.76,0,0,0-1.21.35.75.75,0,0,0-.22.25.46.46,0,0,0-.06.23.23.23,0,0,0,.11.18.51.51,0,0,0,.17.07h.62m4.87,12.66h.13a.08.08,0,0,0,.07-.08v-.11A13.66,13.66,0,0,0,57,55.93a2.66,2.66,0,0,0-.34-.59.71.71,0,0,1-.17-.36s0-.06-.09-.06l-.29.08a2.32,2.32,0,0,1-.83,0l-.39-.07c-.1,0-.17,0-.17.14v.11a4.56,4.56,0,0,0,.14.64,4.79,4.79,0,0,0,1.28,2.08l.12.07a.14.14,0,0,0,.21-.12,1.31,1.31,0,0,0,0-.28,1.8,1.8,0,0,0-.1-.4,4.28,4.28,0,0,0-.67-1.53v-.07a.27.27,0,0,1,.08-.32.23.23,0,0,1,.29,0,.32.32,0,0,1,.11.12,4.93,4.93,0,0,1,.34.54A6.56,6.56,0,0,1,57,57.35c.06.36,0,.33.43.37m-6.31,9.13v-.08a5.12,5.12,0,0,0-.1-.54A3.83,3.83,0,0,0,50.27,65a.75.75,0,0,0-.15-.16.17.17,0,0,0-.14,0H49.9a4.15,4.15,0,0,1-.91.41l-.13.06a.08.08,0,0,0,0,.11.75.75,0,0,1,.07.12,10.79,10.79,0,0,0,.66,1l.55.63a1.62,1.62,0,0,0,.33.31l.21.1a.21.21,0,0,0,.24,0,.63.63,0,0,0,.16-.23,2.74,2.74,0,0,0,.09-.39M51.67,49h.54l.13-.1a.19.19,0,0,0,0-.27h0a1.4,1.4,0,0,0-.26-.16A5.85,5.85,0,0,0,50.89,48a2.3,2.3,0,0,0-.74-.06,4,4,0,0,0-.84.14,1.24,1.24,0,0,0-.37.17.75.75,0,0,0-.16.15.29.29,0,0,0,0,.37l.08.07c.18.14.34.28.5.42a.65.65,0,0,0,.48.17.2.2,0,0,0,.15-.06l.29-.31a.7.7,0,0,1,.5-.2h.82m-13-.9a.44.44,0,0,0-.29.11.75.75,0,0,0-.22.25,1.78,1.78,0,0,0-.25,1.1A12.19,12.19,0,0,0,38.13,51a.21.21,0,0,0,.09.21c.09,0,.06,0,.15-.2l.06-.15a3,3,0,0,1,.73-1l.1-.1a.11.11,0,0,0,0-.13,3.47,3.47,0,0,1-.28-1,2.49,2.49,0,0,0-.09-.37.42.42,0,0,0-.1-.17.26.26,0,0,0-.21-.12m17.77-.55a5.68,5.68,0,0,0-.22-1.36,1.54,1.54,0,0,0-.21-.47.32.32,0,0,0-.13-.15.23.23,0,0,0-.2,0c-.07,0-.1.07-.14.13a1.29,1.29,0,0,0,0,.48v.48a2.12,2.12,0,0,1-.06.79,1,1,0,0,0-.06.23.33.33,0,0,0,0,.24,1.09,1.09,0,0,1,.14.31,1.51,1.51,0,0,1,0,.6v.19a.49.49,0,0,0,0,.17.45.45,0,0,0,.2.27.16.16,0,0,0,.23,0h0a1.74,1.74,0,0,0,.17-.45,7.34,7.34,0,0,0,.17-1.4m3.5-1.92a3.64,3.64,0,0,0-.07-.74.44.44,0,0,0-.06-.16h-.1a.91.91,0,0,0-.11.16,14.08,14.08,0,0,1-.95,1.34l-.54.61-.09.18a.31.31,0,0,0,0,.19,3,3,0,0,0,.09.51c0,.17.08.1.15.06l.1-.07c.39-.3.77-.59,1.14-.91l.34-.34a.66.66,0,0,0,.23-.51v-.34m-2.44,3.58a2,2,0,0,0,0-.49,2.54,2.54,0,0,0-.38-1.1v0h0v.22a9.54,9.54,0,0,1-.2,1.17c-.06.23-.1.45-.17.68a.57.57,0,0,0,.13.53l.13.15a2.42,2.42,0,0,0,.87.49h.28a.17.17,0,0,0,.16-.13.61.61,0,0,0,0-.42.25.25,0,0,0-.12-.19L58,49.91l-.18-.13a.33.33,0,0,1-.18-.29v-.36m1.46,9v-.19c-.06-.24-.11-.48-.17-.71a9.56,9.56,0,0,0-.67-1.88,4.48,4.48,0,0,0-.42-.7l-.1-.11a.09.09,0,0,0-.1,0,2.74,2.74,0,0,0-.46.29v.11l.15.19a4.43,4.43,0,0,1,.48.85,11.22,11.22,0,0,1,.33,1.61,2.86,2.86,0,0,0,.07.28.26.26,0,0,0,.12.15l.4.16h.11s0,0,0-.11M62,30.25h0v.49a.28.28,0,0,0,.13.2c.2.11.38.22.58.32l.13.06a.12.12,0,0,0,.15-.05c.11-.2.22-.41.34-.6a.32.32,0,0,0,0-.3l-.24-.67a1.4,1.4,0,0,0-.16-.43.92.92,0,0,0-.24-.35l-.19-.13h-.15l-.07.12c-.08.23-.16.44-.25.67a.79.79,0,0,0-.06.34ZM17.13,53.7H17a.6.6,0,0,0-.43.11c-.27.21-.54.4-.81.59a.81.81,0,0,0-.28.42c-.05.18,0,.22.15.27l.8.18h.06a.25.25,0,0,0,.17,0l1-.73a.18.18,0,0,0,.08-.15v-.48a.14.14,0,0,0-.1-.13h-.51m32,14.53a.92.92,0,0,0,.21.62,2.74,2.74,0,0,0,1.28.83.65.65,0,0,0,.34,0,.22.22,0,0,0,.18-.2.66.66,0,0,0,0-.28,2.16,2.16,0,0,0-.22-.36,6.83,6.83,0,0,0-1.4-1.23h-.06a.08.08,0,0,0-.11,0v.07c0,.13-.09.25-.13.38v.16M52.73,51a3.26,3.26,0,0,0-.7.07s-.06.06,0,.09l.11.12c.43.41.82.83,1.22,1.26.22.21.44.45.66.67a1.53,1.53,0,0,0,.18.18.09.09,0,0,0,.12,0,1.06,1.06,0,0,0-.08-.8l-.11-.31a7,7,0,0,0-.72-1l-.17-.19A.25.25,0,0,0,53,51Zm-33.68.59a.38.38,0,0,1,.15,0,.5.5,0,0,0,.37-.12l.38-.25a4.3,4.3,0,0,0,.58-.55.44.44,0,0,0,.08-.11v-.08a.71.71,0,0,0-.14-.1,2.11,2.11,0,0,1-.4-.26L19.91,50a.19.19,0,0,0-.18,0,4.2,4.2,0,0,0-.8.45c-.05,0-.09.09-.15.13a1,1,0,0,0-.23.42.81.81,0,0,0,0,.22.3.3,0,0,0,.23.35h.3m36.57,8.61h-.38a6,6,0,0,1-.94.07h-.4a.12.12,0,0,0-.1.05c-.08.12-.15.24-.22.37a.09.09,0,0,0,0,.1l.16.13a3.5,3.5,0,0,0,.82.41.76.76,0,0,0,.3,0,.46.46,0,0,0,.32-.1,2.39,2.39,0,0,0,.23-.22,3.3,3.3,0,0,0,.43-.78h0s0-.08-.07-.08h-.21m4.32-24.8h0v-.48a.24.24,0,0,0-.07-.18l-.52-.46h0a.11.11,0,0,0-.11,0h0l-.28.43a.89.89,0,0,0,0,.23v.95c0,.17.16.28.23.42a1,1,0,0,1,.11.17.15.15,0,0,0,.13,0A6.09,6.09,0,0,0,60,36a.43.43,0,0,0,0-.16ZM49,67v-.1a1.11,1.11,0,0,0-.16-.39,3.4,3.4,0,0,0-1-1,.14.14,0,0,0-.19,0l-.49.37h0a.08.08,0,0,0,0,.11v.06a3.31,3.31,0,0,1,.44.39c.14.14.27.29.4.41l.4.4a1.35,1.35,0,0,0,.26.15.27.27,0,0,0,.28-.09A.65.65,0,0,0,49,67M22.57,48.84h-.16l-1,.16a.26.26,0,0,0-.2.1l-.46.54v.06h0v.08a2,2,0,0,0,.35.09.9.9,0,0,0,.46,0l.75-.17.53-.13a.29.29,0,0,0,.19-.11l.3-.38V49a.06.06,0,0,0,0-.08h-.1a4.46,4.46,0,0,0-.51-.07h-.15M60.13,38.54a2.25,2.25,0,0,0,.58-.07h.1v-.08l-.06-.21L60.37,37a1.05,1.05,0,0,0-.11-.31v-.06a.11.11,0,0,0-.08,0h0l-.6.61a.24.24,0,0,0-.08.24v.24a1.91,1.91,0,0,0,.12.47,1.08,1.08,0,0,0,.11.18.3.3,0,0,0,.21.13h.27M44.68,47.89h.23a1.46,1.46,0,0,0,.67-.36,3.27,3.27,0,0,0,.69-.79v-.08s0-.08-.05-.08h-.1a5.56,5.56,0,0,0-1,.1,2.7,2.7,0,0,0-.4.14,1.11,1.11,0,0,0-.49.42l-.07.13a.4.4,0,0,0,.21.52.81.81,0,0,0,.31,0m1.1-1.66a2.14,2.14,0,0,0,1.22-.4,1,1,0,0,0,.26-.27.53.53,0,0,0,0-.25.26.26,0,0,0-.09-.17.18.18,0,0,0-.09-.06.55.55,0,0,0-.31-.08,2,2,0,0,0-1.37.48l-.1.1c0,.05-.07.09-.1.15a.32.32,0,0,0,.15.43h0a1,1,0,0,0,.38.07m17.78-8.47h0v.63s.07.07.11,0h0a3.66,3.66,0,0,0,.82-.8.92.92,0,0,0,.21-.52v-.68a1.22,1.22,0,0,0,0-.27.14.14,0,0,0,0-.09H64.6a.15.15,0,0,0-.12.07l-.87.81h0a.36.36,0,0,0-.12.28Zm-4.29-4.9h0v.48a.21.21,0,0,0,.09.15l.51.34a.12.12,0,0,0,.14,0c.11-.15.23-.3.34-.46s0-.08,0-.13a.21.21,0,0,0,0-.11l-.18-1a.37.37,0,0,0,0-.18,1.75,1.75,0,0,0-.39-.28.09.09,0,0,0-.1,0v.05c-.1.16-.19.33-.28.5a.33.33,0,0,0-.07.27v.27M24.92,53.34h.21a.18.18,0,0,0,.15-.08l.56-.61a.31.31,0,0,0,.08-.26c-.06-.26-.11-.53-.17-.78v-.08a.09.09,0,0,0-.1,0l-.14.09c-.26.2-.54.39-.8.6h-.07a.36.36,0,0,0-.12.28v.7c0,.07,0,.1.1.1h.31m17.26,7.79h.44a0,0,0,0,0,0-.07h0c-.12-.24-.23-.47-.34-.71a.24.24,0,0,0-.14-.12H42l-1.25-.41h-.06a.09.09,0,0,0-.11.07V60a2.61,2.61,0,0,0,.22.61,3,3,0,0,0,.2.29.74.74,0,0,0,.4.23,3.35,3.35,0,0,0,.71.07M57.62,80.34a1.6,1.6,0,0,0-.09-.63.29.29,0,0,0-.08-.14l-.09-.07c-.27-.21-.54-.42-.82-.62a.13.13,0,0,0-.07-.06.11.11,0,0,0-.15,0l-.16.21a2.71,2.71,0,0,0-.24.35.11.11,0,0,0,0,.15h0l.66.75a.42.42,0,0,0,.28.14l.59,0h.06a.27.27,0,0,0,.08-.07v-.09M46.91,67.19a.91.91,0,0,0-.16-.58.54.54,0,0,0-.33-.26.45.45,0,0,0-.28,0,.54.54,0,0,0-.33.26,1.06,1.06,0,0,0-.14.85,1,1,0,0,0,.23.42.5.5,0,0,0,.71,0l0,0a.68.68,0,0,0,.18-.26.87.87,0,0,0,.09-.45M22.8,54.67h0v.15c0,.26,0,.28.28.27h.4a.36.36,0,0,0,.27-.12c.29-.3.58-.6.88-.89v-.17h0l-.76-.23a.19.19,0,0,0-.18,0l-.14.09-.54.42-.11.08a.27.27,0,0,0-.09.21.81.81,0,0,0,0,.22M61,81.15h-.24a.1.1,0,0,0-.08.07v.37a.35.35,0,0,0,.1.26c.19.23.4.48.62.71h0a.31.31,0,0,0,.2.11h.51a.1.1,0,0,0,.11-.09h0V82l0,0-.35-.37c-.1-.11-.21-.21-.32-.32a.32.32,0,0,0-.28-.13h-.26m4.46,1.73h.27s.08-.06.07-.08a.49.49,0,0,0,0-.17.62.62,0,0,0-.25-.43c-.31-.23-.6-.47-.88-.72l-.07-.06a.5.5,0,0,0-.23-.09h-.35a.14.14,0,0,0-.14.14h0v.34a.3.3,0,0,0,.15.28l.87.64a.55.55,0,0,0,.35.12h.24m-1.7-48.81v.15a.72.72,0,0,0,0,.29l.18,1v.08h.15l.58-.42a.19.19,0,0,0,.08-.22c-.07-.47-.15-1-.22-1.41v-.16h-.07l-.09.06-.55.46V34a.14.14,0,0,0,0,.09M59,82.31v-.15a.25.25,0,0,0-.09-.23.74.74,0,0,1-.12-.13l-.55-.57a.8.8,0,0,0-.17-.15.29.29,0,0,0-.13,0,2.72,2.72,0,0,0-.57,0,.14.14,0,0,0-.1.13v.25a.33.33,0,0,0,.14.3l.08.07c.26.22.5.43.77.64l.14.11a.38.38,0,0,0,.21.07h.28a.12.12,0,0,0,.1-.09v-.19M47.13,69.64v-.21a1.86,1.86,0,0,0-.25-.64,1.18,1.18,0,0,0-.13-.18.32.32,0,0,0-.21-.08.42.42,0,0,0-.34.18A.87.87,0,0,0,46,69a1.19,1.19,0,0,0,0,.53,1.5,1.5,0,0,0,.37.69.8.8,0,0,0,.19.13A.29.29,0,0,0,47,70.3a.62.62,0,0,0,.12-.26,1.92,1.92,0,0,1,.09-.4m7.36-9.79a3.3,3.3,0,0,0,.77-.07l.22-.05a.57.57,0,0,0,.38-.36,1.34,1.34,0,0,0,0-.63h0s-.06-.06-.09-.05l-.22.05a6.88,6.88,0,0,1-.9.2h-.21a.23.23,0,0,0-.1.07v.06c-.09.21-.18.42-.28.63v.09h.08ZM23.86,52H24a.39.39,0,0,0,.31-.1h0l1.21-1,.11-.1v-.12l-.35-.1h-.19l-1.43.57-.13.06a.15.15,0,0,0-.08.11,1.29,1.29,0,0,0,0,.48.12.12,0,0,0,.11.12h.29m-1.74,1.51h0v.31a.11.11,0,0,0,.1.1h.34a.21.21,0,0,0,.13-.05.42.42,0,0,0,.14-.09l.72-.56.13-.11a.34.34,0,0,0,.11-.23v-.22a.12.12,0,0,0-.11-.13H23a.23.23,0,0,0-.16.06l-.62.5a.26.26,0,0,0-.1.2v.23m19.29.76h0a.12.12,0,0,0-.11-.14L40.9,54a2.39,2.39,0,0,1-.85-.33,1.67,1.67,0,0,1-.8-1.22,3.05,3.05,0,0,1-.06-.6v-.39a.33.33,0,0,0,0-.14h-.13v.07a1.41,1.41,0,0,0-.09.76,2.41,2.41,0,0,0,.24.82,4,4,0,0,0,.6.87,1.34,1.34,0,0,0,.36.31,4.47,4.47,0,0,0,1.2.54.08.08,0,0,0,.11,0,.78.78,0,0,0,.06-.37m.56,7.42h-.33a.09.09,0,0,0-.09.09v0h0a3.36,3.36,0,0,0,.39.54,1.43,1.43,0,0,0,.32.28.79.79,0,0,0,.69.17h.15a1.82,1.82,0,0,0,.44-.17s.06-.09,0-.12c-.13-.2-.27-.39-.41-.58a.21.21,0,0,0-.19-.11l-1-.12M17.46,53.15h.26a.32.32,0,0,0,.23-.08l.48-.4.19-.19v-.22a.13.13,0,0,0-.12-.14h-.25a.1.1,0,0,1-.08-.07.67.67,0,0,0,0-.2.15.15,0,0,0-.09-.1h0a.44.44,0,0,0-.33.11l-.55.55a.24.24,0,0,0-.08.09.19.19,0,0,1-.05.13h0V53a.14.14,0,0,0,.14.12Zm34.36-2.72a3.88,3.88,0,0,0,1-.09,5,5,0,0,0,.75-.16A1.07,1.07,0,0,0,54,49.9a5.29,5.29,0,0,0,.85-1.14,1.6,1.6,0,0,0,.1-.23.24.24,0,0,0,0-.12h0v-.07h0a1.21,1.21,0,0,0-.16.16l-.49.6a3.37,3.37,0,0,1-.63.62,2.3,2.3,0,0,1-.8.35,3.09,3.09,0,0,1-.6.08,10.9,10.9,0,0,1-1.4,0h-.05v.05a.79.79,0,0,0,.5.22h.6M40.41,57.69v.06a2,2,0,0,0,0,.77.83.83,0,0,0,.37.49l.18.09a4.4,4.4,0,0,0,.85.33h0s.08,0,.07-.07a.33.33,0,0,0,0-.14,2.14,2.14,0,0,0-.15-.55c0-.18,0-.13-.07-.19a.24.24,0,0,0-.11-.13h-.09a3.11,3.11,0,0,1-.84-.5l-.17-.12h-.06m13.46,4.85a.8.8,0,0,0,.4-.11,1.4,1.4,0,0,0,.56-.49.07.07,0,0,0,0-.1h0l-.22-.07a8.45,8.45,0,0,1-1.21-.37h-.17l-.28.4a.15.15,0,0,0,0,.18,1.75,1.75,0,0,0,.6.48,1,1,0,0,0,.34.08m-1.13,1.08h.14a2.75,2.75,0,0,0,1-.56h0V63l-.28-.08c-.29-.09-.56-.17-.83-.28s-.27-.15-.52.1l-.32.37a.12.12,0,0,0,0,.17l0,0a1.4,1.4,0,0,0,.51.36.76.76,0,0,0,.3,0M20.67,55.44a1,1,0,0,0,.6-.14c.24-.12.46-.23.7-.33a.3.3,0,0,0,.19-.32v-.11a.18.18,0,0,0-.14-.19l-.31-.06a.64.64,0,0,0-.36.05l-.76.34-.1.06a.15.15,0,0,0-.09.1,1,1,0,0,1-.07.45.13.13,0,0,0,.12.14h.23M57.42,78.07H57v.08a.64.64,0,0,1,.1.13c.18.17.36.33.52.5l.29.28a.52.52,0,0,0,.38.17h.48c.21,0,.25,0,.23-.24h0a.39.39,0,0,0-.11-.22l-.62-.54a.55.55,0,0,0-.36-.15h-.42m2.2,2.77h0v-.2a.25.25,0,0,0,0-.17c-.18-.19-.35-.39-.53-.59a.19.19,0,0,0-.12-.07,1.57,1.57,0,0,0-.53,0,.13.13,0,0,0-.1.1v.54a.23.23,0,0,0,.1.19l.61.52h.12a1.55,1.55,0,0,0,.43,0,.08.08,0,0,0,.08-.08,1.31,1.31,0,0,0,0-.28M47.19,68.14a.41.41,0,0,0,.07.15,5.87,5.87,0,0,1,.37.9h0a.15.15,0,0,0,.15.07.61.61,0,0,0,.39-.25.91.91,0,0,0,.1-.9,1.72,1.72,0,0,0-.47-.6l-.1-.06a.15.15,0,0,0-.18,0,3.21,3.21,0,0,0-.36.59m14.4-35.23h0v-.59a1.25,1.25,0,0,0-.1-.51c-.06-.14-.11-.3-.18-.45a.75.75,0,0,0-.07-.12h-.09v.08c-.08.16-.15.34-.24.51a.66.66,0,0,0-.05.34c.05.26.08.52.14.78v.23a.35.35,0,0,0,.19.28l.27.2h.17v-.09Zm.46.5a6.36,6.36,0,0,0,.66.5h.06V32.57a.34.34,0,0,0,0-.2c-.11-.24-.25-.5-.39-.75a.09.09,0,0,0-.13,0h0l-.16.26a.46.46,0,0,0-.09.3v1.14m-10.7,31.4a1.14,1.14,0,0,0,.41-.07,2.75,2.75,0,0,0,.82-.46l.06-.07V64L52.46,64l-1-.35a.21.21,0,0,0-.26,0c-.21.19-.43.37-.64.57l-.06.06a.11.11,0,0,0,0,.11.42.42,0,0,0,.19.16,1.06,1.06,0,0,0,.52.13m-31.72-10v-.18a.14.14,0,0,0-.09-.13,1.38,1.38,0,0,0-.45,0,.44.44,0,0,0-.27.09c-.19.16-.39.32-.6.47a.31.31,0,0,0-.14.29v.21c0,.2.06.23.24.23h.36l.83-.45a.27.27,0,0,0,.11-.22v-.22m3.86-4.53v.24a.08.08,0,0,0,.09.06h.08l.24-.08,1-.38.16-.07a.14.14,0,0,0,0-.15,2.22,2.22,0,0,0-.25-.42,1.54,1.54,0,0,0-.19-.17.33.33,0,0,0-.27-.06.87.87,0,0,0-.27.14,4.07,4.07,0,0,0-.58.52.41.41,0,0,0-.11.28.17.17,0,0,1,0,.1m16.16.23a.81.81,0,0,0,.08.34,2.88,2.88,0,0,0,.8,1l.14.08a.11.11,0,0,0,.13,0h.05a1.65,1.65,0,0,0,.26-.71.17.17,0,0,0,0-.14h0a8.13,8.13,0,0,0-.78-.52,1.74,1.74,0,0,0-.38-.14c-.12,0-.21,0-.21.18m22.78,30h-.4c-.12,0-.16,0-.16.15a2,2,0,0,0,0,.35.87.87,0,0,0,.14.27c.12.13.23.26.35.38a.46.46,0,0,0,.39.2H63a.13.13,0,0,0,.12-.11v-.33a.17.17,0,0,0,0-.1l-.07-.09-.66-.6-.16-.12m-14.78-8h.11s.06-.07,0-.09l-.09-.2a3.51,3.51,0,0,1-.38-.92h0a.16.16,0,0,0-.14-.12,5.51,5.51,0,0,0-.57.06c-.07,0-.11.06-.13.14a1.19,1.19,0,0,0,0,.53.75.75,0,0,0,.45.5,1.93,1.93,0,0,0,.71.16M63.87,83.44h.26s.1,0,.1-.09v-.29a.37.37,0,0,0-.16-.27c-.19-.14-.36-.29-.55-.44a.53.53,0,0,0-.5-.16h-.19a.15.15,0,0,0-.14.15v.34a.23.23,0,0,0,.08.18l.69.49a.61.61,0,0,0,.3.08ZM22.74,51.68v-.24a.11.11,0,0,0-.09-.09.58.58,0,0,0-.51.08c-.21.16-.44.31-.64.47s-.21.15-.21.42v.09c0,.22,0,.28.28.3a.44.44,0,0,0,.31-.09l.72-.57a.37.37,0,0,0,.14-.32ZM61.19,77.57h.49a.11.11,0,0,0,.1-.08s0,0,0,0a1.67,1.67,0,0,0-.7-.81.9.9,0,0,0-.21-.08,2.26,2.26,0,0,0-.73-.06h-.06a.09.09,0,0,0,0,.07.69.69,0,0,0,0,.13l.44.64c.15.22.1.2.39.2h.3m.17-42.34h0c-.15-.41-.31-.8-.46-1.2a.16.16,0,0,0-.06-.08h-.07a.09.09,0,0,0,0,.07c-.11.22-.2.46-.29.68a.53.53,0,0,0,0,.25.54.54,0,0,0,0,.18c.07.28.15.56.22.85V36h.13l.49-.68a.11.11,0,0,0,0-.08M22.94,50.42a.43.43,0,0,0,0-.16h-.63a.47.47,0,0,0-.34.12l-1,.81-.08.08v.09a.9.9,0,0,0,.22.06.45.45,0,0,0,.28,0h.11l1.26-.6.12-.08a.15.15,0,0,0,.06-.09.29.29,0,0,0,0-.13m41.29,30h0v.26a.13.13,0,0,0,.08.12l.6.36a.31.31,0,0,0,.13.06l.47.09a.13.13,0,0,0,.12-.11V81a.29.29,0,0,0-.07-.18l-.66-.6a.31.31,0,0,0-.13-.06,1.09,1.09,0,0,0-.44,0,.08.08,0,0,0-.08.08v.28m-3.39,0H61c.31,0,.31,0,.3-.31v-.08a.28.28,0,0,0-.08-.15l-.61-.46a.23.23,0,0,0-.16-.06h-.57a.13.13,0,0,0-.12.11v.17a.26.26,0,0,0,.1.2l.55.49a.32.32,0,0,0,.21.08h.26M55,50.07a.74.74,0,0,0,0,.21,1.4,1.4,0,0,0,.32.63l.22.22a.42.42,0,0,0,.26.12.23.23,0,0,0,.27-.14.54.54,0,0,0,.05-.28,1.63,1.63,0,0,0-.56-1,.76.76,0,0,0-.23-.13h-.1a.25.25,0,0,0-.24.17.54.54,0,0,0,0,.18m5.53,28.78h.7a0,0,0,0,0,0-.07h0c-.22-.2-.44-.37-.67-.56a.33.33,0,0,0-.16-.07H59.16a0,0,0,0,0,0,.07l0,0h0l.55.51a.32.32,0,0,0,.23.09Zm1.89.61h-.58v.07h0c.34.22.67.43,1,.66l.15.08a.21.21,0,0,0,.11,0h.49s.08,0,.09-.09a.58.58,0,0,0,0-.32s0-.07-.06-.08L63,79.34a.41.41,0,0,0-.22,0h-.42m-.22-1.41h-.38V78l.71.7a.4.4,0,0,0,.21.09,7.37,7.37,0,0,0,.94,0h.06v-.08L62.84,78h0a.32.32,0,0,0-.19-.07Zm1.14-45a4.51,4.51,0,0,0,0,.52v.11s.07.06.09,0l.32-.24a.39.39,0,0,0,.14-.25v-.89a.67.67,0,0,0,0-.2c-.06-.17-.11-.33-.18-.48s-.07,0-.08,0a.47.47,0,0,0-.09.12l-.28.53a.43.43,0,0,0-.06.27v.48M20.2,54v.2a.11.11,0,0,0,.09.08,1,1,0,0,0,.68-.16c.13-.08.26-.16.4-.23l.14-.11a.14.14,0,0,0,0-.09,1.28,1.28,0,0,0-.07-.34.15.15,0,0,0-.1-.09,5,5,0,0,0-.54-.06.23.23,0,0,0-.16.06l-.3.26c-.22.21-.19.17-.2.48M49.79,71a2.19,2.19,0,0,0-.72-1.64H49a.08.08,0,0,0-.11,0,.39.39,0,0,0-.18.18.22.22,0,0,0,0,.22c.21.42.42.85.67,1.25l.19.28.06.07h.12v-.28m-6-7.11a.92.92,0,0,0,.4-.07,2.9,2.9,0,0,1,.29-.19.14.14,0,0,0,0-.2l0,0c-.14-.14-.27-.26-.4-.41a.19.19,0,0,0-.18,0l-.74.12h-.07a.11.11,0,0,0,0,.08h0a1.51,1.51,0,0,0,.6.46l.19,0m-23.63-12H19.8l-.42.3h0a.17.17,0,0,0,0,.1.11.11,0,0,0,0,.08.18.18,0,0,0,.16.15h1.13a.11.11,0,0,0,.11-.11h0V51.8c0-.19-.06-.11-.13-.12h-.37m-1.53,2h.14a.74.74,0,0,0,.36-.09l.46-.23a.23.23,0,0,0,.12-.15A.32.32,0,0,1,19.9,53a.12.12,0,0,0-.07-.12l-.47-.08a.43.43,0,0,0-.23.23l-.45.25c-.25.13-.26.16-.24.43v.08a.17.17,0,0,0,.12.11h.17m43.67-16v.58a.15.15,0,0,0,.13.13.37.37,0,0,0,.43-.25.43.43,0,0,0,.06-.22,5.57,5.57,0,0,0,0-1V37a.1.1,0,0,0-.11-.08h0c-.14.11-.29.2-.44.31a.2.2,0,0,0-.07.18Zm-1.89,45h.21a.11.11,0,0,0,.1-.08s0,0,0,0l-.06-.12-.54-1-.08,0a.07.07,0,0,0-.1,0h0l-.07.19a.17.17,0,0,1-.15.12h-.2a.07.07,0,0,0-.07.09h0v.07c.07.1.13.2.2.29l.24.35a.28.28,0,0,0,.23.11h.22m-5.2-25.41a.9.9,0,0,0-.53.17.32.32,0,0,0-.09.17,2,2,0,0,1-.08.33c0,.11,0,.21.18.25h.08a1.06,1.06,0,0,0,.55-.12.51.51,0,0,0,.29-.21.5.5,0,0,0,0-.34.26.26,0,0,0-.22-.18h-.16m7.09-21.21a2.22,2.22,0,0,0-.07-.68,5.48,5.48,0,0,1-.1-.88l0-.36h0a.18.18,0,0,0-.05.07,3.41,3.41,0,0,0-.19.62v.3a.77.77,0,0,0,0,.37,1.93,1.93,0,0,0,.41.65h.06v-.11m-.63,1.21h0v-.79a.09.09,0,0,0-.11-.09h0a.75.75,0,0,0-.32.21.37.37,0,0,0-.11.34v.19a6.53,6.53,0,0,0,.39.85l.06.07h0v-.14ZM45.24,64.72h.11a.55.55,0,0,0,.4-.18.1.1,0,0,0,0-.14h0l-.07-.06-.37-.27h-.09a.14.14,0,0,0-.17,0l-.5.2h-.07a.08.08,0,0,0,0,.11l.06.09a1,1,0,0,0,.72.29M63.52,36v-.13c-.1-.38-.19-.77-.3-1.16h-.07s-.16.26-.24.41a.15.15,0,0,0,0,.16l.33,1v.08h0a.53.53,0,0,0,.24-.23v-.07M46.19,65.7a.51.51,0,0,0,.27-.06,1.31,1.31,0,0,0,.42-.39.1.1,0,0,0,0-.14h0l-.48-.3a.11.11,0,0,0-.13,0,1.35,1.35,0,0,0-.33.38.52.52,0,0,0-.07.21.27.27,0,0,0,.11.22.4.4,0,0,0,.24.07m-4.73-8.3h0l-.06-.51a.16.16,0,0,0-.11-.13.94.94,0,0,0-.47,0,.31.31,0,0,0-.21.37v0a.57.57,0,0,0,.26.29,1.28,1.28,0,0,0,.47.18.09.09,0,0,0,.1-.08h0Zm13.34-6.44a.56.56,0,0,0-.36-.53.28.28,0,0,0-.32.07.35.35,0,0,0-.08.24.63.63,0,0,0,.27.45.41.41,0,0,0,.22,0A.26.26,0,0,0,54.8,51v-.11M43,48.52a.9.9,0,0,0,.7-.47.17.17,0,0,0-.1-.22h-.13a.88.88,0,0,0-.62.4v.11a.21.21,0,0,0,.08.16h.12m-2.29,4.3v-.06a1.28,1.28,0,0,0-.57-.74h-.1a.13.13,0,0,0-.13.1.33.33,0,0,0,0,.14,1.24,1.24,0,0,0,.54.67.24.24,0,0,0,.12,0s.12-.06.12-.11"/><path class="cls-8" d="M78.13,37.07a2.49,2.49,0,0,1,.61.08l.36.11.41.11a.89.89,0,0,0,.77-.16,3.53,3.53,0,0,1,.74-.4,2.47,2.47,0,0,1,.6-.19,1.29,1.29,0,0,1,.48,0,.45.45,0,0,1,.25.18.26.26,0,0,1,0,.29.81.81,0,0,1-.19.29,3.35,3.35,0,0,1-.49.43c-.33.23-.65.44-1,.64s-.75.48-1.13.73a2.33,2.33,0,0,0-.53.51c-.22.27-.46.52-.69.77-.44.47-.9.94-1.35,1.41s-.87.93-1.29,1.41a8.31,8.31,0,0,0-.77,1,3.38,3.38,0,0,0-.24.41,1,1,0,0,0-.13.44,5.57,5.57,0,0,0,0,1,12.63,12.63,0,0,0,.64,3.28c.27.88.56,1.76.86,2.63.37,1.16.75,2.32,1.08,3.5s.64,2.4.89,3.61c.22,1,.41,2.07.63,3.12.19.89.38,1.8.57,2.71a9.1,9.1,0,0,0,.26,1,4.8,4.8,0,0,0,.46,1.07c.22.37.43.75.62,1.13a7.81,7.81,0,0,1,.63,1.38c.06.19.12.38.16.57a2.45,2.45,0,0,1,0,1.11,3.87,3.87,0,0,1-1.58,2.18,1.94,1.94,0,0,1-.4.22,1.79,1.79,0,0,1-.94.17,9.93,9.93,0,0,1-1.21-.23c-.65-.17-1.28-.37-1.91-.57a8.53,8.53,0,0,0-1.12-.22c-.75-.11-1.5-.21-2.24-.33l-1.27-.18L69.13,72l-2-.39c-1.55-.31-3.09-.7-4.6-1.16A16.36,16.36,0,0,1,59,68.89c-1.17-.68-2.33-1.45-3.44-2.24C54.68,66,53.83,65.4,53,64.74a1.24,1.24,0,0,1-.22-.18.09.09,0,0,1,0-.13h0l.32-.25a8.93,8.93,0,0,0,1.21-1A7.83,7.83,0,0,0,55.85,61a7.61,7.61,0,0,0,.61-1.93.91.91,0,0,1,.06-.39v-.11a.28.28,0,0,1,.14-.18l.25-.13a.72.72,0,0,1,.5,0,9.78,9.78,0,0,1,1,.34l2.18.92c.83.36,1.66.71,2.49,1a7.69,7.69,0,0,0,1.34.41,1.55,1.55,0,0,0,.43,0,.35.35,0,0,0,.29-.22v-.16a.12.12,0,0,1,.18-.07l.3.15c.33.18.63.38.93.58.84.56,1.65,1.18,2.43,1.8,1.53,1.2,3,2.45,4.46,3.73a1.29,1.29,0,0,0,.3.22.42.42,0,0,0,.43,0,.38.38,0,0,0,.09-.51,1.24,1.24,0,0,0-.17-.23,19.92,19.92,0,0,1-1.8-2.39,15.63,15.63,0,0,1-1.11-2,6.32,6.32,0,0,1-.45-1.33,6.17,6.17,0,0,1-.09-.62c0-.65,0-1.29,0-1.94V56.16c0-.89.06-1.78.08-2.66v-2a4,4,0,0,1,0-.49c0-.53-.06-1-.11-1.57a8.77,8.77,0,0,0-.19-1.25,6.38,6.38,0,0,0-.19-.72,4.14,4.14,0,0,0-.45-.95c-.23-.36-.47-.72-.69-1.08s-.32-.48-.47-.72a5,5,0,0,1-.49-1.25,1.89,1.89,0,0,1,0-.67.92.92,0,0,1,.34-.56,1.31,1.31,0,0,1,.36-.21,2.94,2.94,0,0,1,.58-.16l1-.18a6.42,6.42,0,0,0,1.49-.39,2.44,2.44,0,0,0,.86-.55c.39-.37.77-.75,1.15-1.13l.56-.55a10.53,10.53,0,0,1,1.21-1,5.44,5.44,0,0,1,1.45-.81,3.16,3.16,0,0,1,.75-.18h.25"/><path class="cls-8" d="M54.68,38.36a13.22,13.22,0,0,1-.09,1.87,6,6,0,0,1-.07,1.12v.51c-.07.52-.12,1-.18,1.57a2.68,2.68,0,0,1-.07.27s-.06.06-.08.06a.33.33,0,0,1-.14,0,6.79,6.79,0,0,0-1.42-.16.76.76,0,0,1-.39-.1l-.49-.29-.48-.31a2.22,2.22,0,0,0-.41-.2,1.9,1.9,0,0,0-1.48,0c-.2.1-.39.23-.58.35s-.22.21-.52,0l-.42-.25a2.74,2.74,0,0,0-2.43-.13,3.75,3.75,0,0,0-1,.55l-.25.19a.09.09,0,0,1-.1,0v-.14C44,42.5,44,41.73,44,41V39.58a4.18,4.18,0,0,1,.07-1c.07-.31.08-.54.14-.81.25-1.21.55-2.43.85-3.62.52-2.12,1.08-4.24,1.61-6.35a.38.38,0,0,1,.07-.26.81.81,0,0,0,0-.22.38.38,0,0,0-.37-.38.39.39,0,0,0-.4.22l-.12.27c-.4.91-.81,1.8-1.29,2.66a21.59,21.59,0,0,1-1.39,2.25,7.27,7.27,0,0,1-.53.71,5.35,5.35,0,0,1-.62.72,4.69,4.69,0,0,1-1,.83,17.92,17.92,0,0,1-2,1l-2.59,1.26c-1,.47-1.92,1-2.85,1.48-.5.29-1,.6-1.48.94a10,10,0,0,0-1.25,1,3.93,3.93,0,0,0-.77,1c-.26.5-.5,1-.75,1.48a6.67,6.67,0,0,1-.54.84,2.65,2.65,0,0,1-.4.42,1.77,1.77,0,0,1-.9.41,3.53,3.53,0,0,1-.65,0A3.65,3.65,0,0,1,24.91,44a5.78,5.78,0,0,1-1.21-1l-.4-.48c-.15-.19-.29-.38-.42-.58a.74.74,0,0,0-.48-.33c-.34-.08-.69-.17-1-.27a20.4,20.4,0,0,1-3-1.2c-.22-.12-.44-.23-.65-.37a2.45,2.45,0,0,1-.47-.38A2.38,2.38,0,0,1,16.59,38a2.54,2.54,0,0,1,0-.39.47.47,0,0,0-.26-.42l-.2-.11a3.21,3.21,0,0,1-1-.87,2.35,2.35,0,0,1-.23-.32,1,1,0,0,1-.12-.32.33.33,0,0,1,.11-.34.54.54,0,0,1,.37-.11.9.9,0,0,1,.28.08,5,5,0,0,1,.59.34c.27.19.54.36.8.55s.8.53,1.21.77a4.84,4.84,0,0,0,1.07.47,11.26,11.26,0,0,0,1.4.3l1.48.2c.21,0,.41.06.62.07.59,0,1.19.06,1.78.07a6.86,6.86,0,0,0,1.34-.07,4.55,4.55,0,0,0,.74-.11,3,3,0,0,0,.86-.34,14.9,14.9,0,0,0,1.5-1.11,17.33,17.33,0,0,0,1.72-1.6l2-2.13q2.12-2.23,4.36-4.35c1.14-1.07,2.29-2.15,3.42-3.24.62-.59,1.25-1.18,1.84-1.8.09-.1.19-.2.27-.3a5,5,0,0,0,.71-.93c.16-.27.32-.52.49-.79a12.3,12.3,0,0,1,.74-1,5.25,5.25,0,0,1,.65-.6,2.62,2.62,0,0,1,1.3-.69,4,4,0,0,1,2.23.17,3.68,3.68,0,0,1,.57.26,2.1,2.1,0,0,1,.75.76,16.17,16.17,0,0,1,1.12,2.29c.49,1.22,1,2.46,1.43,3.71a42,42,0,0,1,1.39,4.81c.14.68.28,1.35.39,2.05.08.47.14.94.2,1.41,0,.24.06.48.08.72s.06.58.07.88c0,.71.07,1.41.06,2.11v.28"/><path class="cls-8" d="M45.83,90.55c0-.36.09-.73.12-1.08s.07-.59.09-.89a.67.67,0,0,0,0-.2,2.15,2.15,0,0,0-.16-.83c-.31-.72-.59-1.43-.88-2.15-.19-.44-.38-.87-.58-1.31a13.72,13.72,0,0,0-.68-1.32,4.46,4.46,0,0,0-1.11-1.3,6.36,6.36,0,0,0-1.46-.82,11.43,11.43,0,0,0-1.83-.57c-.63-.14-1.26-.25-1.89-.36l-2.77-.47a41.9,41.9,0,0,1-4.3-1c-1.71-.51-3.42-1.09-5.12-1.66-.74-.26-1.49-.51-2.25-.74a8.25,8.25,0,0,0-1.19-.29h-.14l-.89-.07a6.78,6.78,0,0,1-1-.1l-.9-.13a6.75,6.75,0,0,1-1.25-.32,2.53,2.53,0,0,1-1-.64,3.78,3.78,0,0,1-1-1.6,4.12,4.12,0,0,1-.18-1.21,1.77,1.77,0,0,1,.3-.92,7.2,7.2,0,0,1,.71-.86l.62-.59c.29-.28.59-.54.88-.81a10,10,0,0,0,.84-.88,65.86,65.86,0,0,1,5.93-6c1-.89,2.06-1.72,3.15-2.51a15.63,15.63,0,0,1,2.46-1.46l.78-.36h.14s.07,0,.07.06v.14l-.12.44c-.2.71-.38,1.42-.51,2.14a3.85,3.85,0,0,0-.1.83.61.61,0,0,0,0,.19.3.3,0,0,0,.23.26.58.58,0,0,0,.32,0,2.57,2.57,0,0,0,.55-.12c.43-.13.86-.28,1.27-.45.65-.26,1.3-.55,1.94-.84l1.7-.76,1.62-.67c.14-.06.28-.1.42-.15a.57.57,0,0,1,.48,0l.25.13a3.1,3.1,0,0,1,.46.35.34.34,0,0,1,.15.26c0,.28.1.55.16.81a6.77,6.77,0,0,0,1.29,2.72.57.57,0,0,1,.11.16.08.08,0,0,1,0,.11h0l-.11.09c-1.16.84-2.35,1.64-3.6,2.37a28,28,0,0,1-3.39,1.67c-1.36.57-2.75,1.08-4.15,1.55-2,.68-4,1.28-6,1.83l-.26.07a.41.41,0,0,0-.23.53A.42.42,0,0,0,24,71a.29.29,0,0,0,.18.07,1,1,0,0,0,.34,0c.68-.16,1.37-.26,2-.35a20.65,20.65,0,0,1,2.17-.16q.66,0,1.32,0a6.72,6.72,0,0,1,1.41.25,6.1,6.1,0,0,1,.92.37c.42.23.83.46,1.22.7l3.66,2.24a26.27,26.27,0,0,0,3,1.68,16.61,16.61,0,0,0,1.93.85,5.29,5.29,0,0,0,.94.27A3.74,3.74,0,0,0,44,77a10.66,10.66,0,0,0,1.13,0A11.8,11.8,0,0,1,47,77a3.3,3.3,0,0,1,.76.15,2,2,0,0,1,.36.18,1,1,0,0,1,.44.88,2.73,2.73,0,0,1-.17.75c-.12.32-.24.64-.35,1a8.36,8.36,0,0,0-.33,1,3.74,3.74,0,0,0-.11,1,1.81,1.81,0,0,0,.14.69c.14.37.29.73.42,1.1.09.22.18.46.26.69a5.12,5.12,0,0,1,.33,1.22,4.51,4.51,0,0,1-.18,2,3.89,3.89,0,0,1-.71,1.21c-.14.14-.27.29-.4.44l-.2.25a1.35,1.35,0,0,0-.33.69,4.18,4.18,0,0,1-.38,1.13.82.82,0,0,1-.12.2.3.3,0,0,1-.08.08.17.17,0,0,1-.14,0,.44.44,0,0,1-.29-.26,1.09,1.09,0,0,1-.07-.24,5.42,5.42,0,0,1,0-.57"/><path class="cls-8" d="M54.28,55.81A9.71,9.71,0,0,1,52,62.16a11.34,11.34,0,0,1-1.55,1.47,6.59,6.59,0,0,1-1.3.78,5.37,5.37,0,0,1-.56.21,1.7,1.7,0,0,1-1,0,3.83,3.83,0,0,1-.65-.22,6.66,6.66,0,0,1-1.19-.68,9.63,9.63,0,0,1-3.58-5.52A9.9,9.9,0,0,1,42,57a13.67,13.67,0,0,1,0-1.81,5.14,5.14,0,0,1,.17-1.41,1.62,1.62,0,0,1,.31-.63c.21-.26.4-.52.59-.78l.12-.13a.89.89,0,0,1,.57-.35l.58-.1.86-.13.59-.1a3.83,3.83,0,0,0,.8-.23,12.72,12.72,0,0,0,1.29-.62l.26-.12a.11.11,0,0,1,.13,0l.18.14.59.5a2.75,2.75,0,0,0,.94.53,5.7,5.7,0,0,0,2,.36c.3,0,.32,0,.52.22.49.5,1,1,1.46,1.5a.89.89,0,0,1,.2.37,5.31,5.31,0,0,1,.13.89,3,3,0,0,0,0,.7m-5.3.36h0a2.54,2.54,0,0,0,0-.39.67.67,0,0,1,.18-.45l.07-.09a2.15,2.15,0,0,1,1-.55,3,3,0,0,1,1.26,0,2.46,2.46,0,0,1,1,.42l.21.1a.23.23,0,0,0,.3-.15v0a.33.33,0,0,0-.07-.27,1.06,1.06,0,0,0-.31-.21A3.47,3.47,0,0,0,51,54.1a3.09,3.09,0,0,0-1.37.28,2.4,2.4,0,0,0-.88.7,1.15,1.15,0,0,0-.24.58V58.2a.83.83,0,0,0,.13.41l.14.22c.11.16.21.33.33.5a1.23,1.23,0,0,1,.12.26.13.13,0,0,1-.09.16h-.18a1.29,1.29,0,0,0-.47.19l-.22.14a.37.37,0,0,1-.38,0l-.07,0a1.87,1.87,0,0,0-.65-.23h-.19a.11.11,0,0,1-.08,0,.08.08,0,0,1-.06-.11h0a.73.73,0,0,1,.16-.23,2,2,0,0,0,.13-.16A.24.24,0,0,0,47,59a.28.28,0,0,0-.12,0,.23.23,0,0,0-.2,0,1.35,1.35,0,0,0-.4.49.62.62,0,0,0,.27.84.66.66,0,0,0,.2.06h.37a1.23,1.23,0,0,1,.42.14l.23.13a.75.75,0,0,0,.71,0l.2-.11a1.11,1.11,0,0,1,.55-.22.67.67,0,0,0,.24-.07.56.56,0,0,0,.33-.45.84.84,0,0,0-.08-.44,3,3,0,0,0-.29-.49c-.07-.12-.15-.23-.22-.34a.72.72,0,0,1-.13-.28,1.7,1.7,0,0,1,0-.71s.06-.06.09,0a.47.47,0,0,1,.12.07l.58.33a3.46,3.46,0,0,0,.88.33,2,2,0,0,0,.77,0,3,3,0,0,0,1.34-.73l.07-.1a.26.26,0,0,0-.1-.35.24.24,0,0,0-.26,0l-.22.18a2.93,2.93,0,0,1-.69.39,1.3,1.3,0,0,1-1,0l-.22-.07a3.68,3.68,0,0,1-.69-.34L49.37,57a1,1,0,0,0-.28-.14.13.13,0,0,1-.11-.15Zm-3.87-.67a1.93,1.93,0,0,0-.34,0,5,5,0,0,0-.93.27l-.18.08a.26.26,0,0,0,0,.37l0,0,.12.09c.21.13.41.27.62.39a2.14,2.14,0,0,0,.65.25,1,1,0,0,0,.41,0,3.47,3.47,0,0,0,1.12-.43l.12-.09a.27.27,0,0,0,0-.36h-.06a4.71,4.71,0,0,0-1-.51,1.27,1.27,0,0,0-.47-.09m6,1.61h.26a3,3,0,0,0,1.11-.51.47.47,0,0,0,.1-.1.27.27,0,0,0,0-.37l-.17-.1a3.16,3.16,0,0,0-.89-.32,1.78,1.78,0,0,0-.65,0,3.31,3.31,0,0,0-1.17.43l-.09.06a.24.24,0,0,0-.07.35.16.16,0,0,0,.07.07h.06a4,4,0,0,0,1,.41,1.82,1.82,0,0,0,.52.08m-6.15-3h-.48a2.78,2.78,0,0,0-1.25.53A2,2,0,0,0,43,55a.82.82,0,0,0,0,1.08.24.24,0,0,0,.31.07.23.23,0,0,0,.14-.27v-.12a.61.61,0,0,1,0-.12.34.34,0,0,1,0-.2.62.62,0,0,1,.15-.21,2.37,2.37,0,0,1,1.28-.59,2.42,2.42,0,0,1,.76,0,2.57,2.57,0,0,1,.67.19,2.14,2.14,0,0,1,.41.25.61.61,0,0,0,.16.12.27.27,0,0,0,.3,0,.22.22,0,0,0,.08-.25.5.5,0,0,0-.08-.12,1.42,1.42,0,0,0-.51-.37,3.33,3.33,0,0,0-1.46-.34m-.11,4.08a2.32,2.32,0,0,0,.79-.11,6.13,6.13,0,0,0,1-.48l.15-.12a.21.21,0,0,0,.07-.13.26.26,0,0,0-.23-.29.3.3,0,0,0-.13,0l-.2.11a8.34,8.34,0,0,1-.8.38,1.51,1.51,0,0,1-.7.09,2.11,2.11,0,0,1-.48-.12.92.92,0,0,0-.23-.09.17.17,0,0,0-.14,0,.27.27,0,0,0-.14.34.31.31,0,0,0,.09.11.41.41,0,0,0,0,.11,1.79,1.79,0,0,0,.72.15m3.12,4a1.21,1.21,0,0,0,.38,0,1.78,1.78,0,0,1,.45-.08h.79a1.76,1.76,0,0,0,1.07-.44.13.13,0,0,0,.05-.18.12.12,0,0,0-.05-.05.11.11,0,0,0-.11,0l-.15.17a.78.78,0,0,1-.6.28,2.08,2.08,0,0,1-.61,0l-.53-.11a.5.5,0,0,0-.34,0,1.06,1.06,0,0,1-.56,0,.45.45,0,0,0-.28,0l-.19.06a2.93,2.93,0,0,1-.59.11.91.91,0,0,1-.9-.38l-.08-.09a.08.08,0,0,0-.11,0,.24.24,0,0,0-.09.06.1.1,0,0,0,0,.12l0,0a1.72,1.72,0,0,0,1,.47H47a2.86,2.86,0,0,1,.82.12H48m.07,1.22h.33a5.62,5.62,0,0,0,.82-.27l.12-.08a.26.26,0,0,0,.08-.3.24.24,0,0,0-.27-.14,1.71,1.71,0,0,0-.3.09l-.57.18a.75.75,0,0,1-.42,0c-.2-.06-.41-.11-.61-.18l-.34-.1a.24.24,0,0,0-.28.19.24.24,0,0,0,.11.25.61.61,0,0,0,.18.09,3.85,3.85,0,0,0,.81.27h.34"/><path class="cls-8" d="M64.71,60.17v.2a.13.13,0,0,1-.11.11h-.09l-.58-.16L63,60h-.11a.24.24,0,0,1-.09-.11V59.6a5.53,5.53,0,0,0-.11-.9,13,13,0,0,0-1.6-4.55l-.14-.22-.07-.09a.25.25,0,0,0-.23-.07.22.22,0,0,0-.17.2.21.21,0,0,0,0,.11l.12.23a11.89,11.89,0,0,1,1.54,4c.06.32.1.64.15,1v.31c0,.1-.06.08-.11.07h-.11l-.82-.35-.1-.05a.21.21,0,0,1-.1-.14.17.17,0,0,1,0-.1,10.19,10.19,0,0,0-.24-1.55,12.25,12.25,0,0,0-1.76-4l-.18-.25-.1-.1a.22.22,0,0,0-.27,0,.19.19,0,0,0-.1.23l0,.12.11.16A12.09,12.09,0,0,1,60.39,58a6.35,6.35,0,0,1,.13.76v.18s-.06.06-.09.06h-.06l-.71-.3a.26.26,0,0,1-.17-.24,4,4,0,0,0-.18-.9,12,12,0,0,0-.58-1.85A5.82,5.82,0,0,0,58,54.32l-.06-.08a.13.13,0,0,1,0-.12l.12-.19a2.23,2.23,0,0,0,.29-.65,4.34,4.34,0,0,0,0-.51,9.37,9.37,0,0,0,0-1.06,5.57,5.57,0,0,1,0-1,1.73,1.73,0,0,1,.39-.91l.14-.14a.15.15,0,0,1,.13,0h.17a3.9,3.9,0,0,1,.73.31,5,5,0,0,1,.94.71,7.17,7.17,0,0,1,.83.91,11,11,0,0,1,1.67,3.09c.31.87.56,1.77.8,2.67s.35,1.49.48,2.24a3.84,3.84,0,0,1,.09.68"/><path class="cls-8" d="M33.49,59.38a7.7,7.7,0,0,1,.37-1.9,11.09,11.09,0,0,1,1-2.33c.05-.08.1-.16.14-.24v-.1a.24.24,0,0,0-.17-.31h-.14a.27.27,0,0,0-.12.09,1.27,1.27,0,0,0-.13.19,11.22,11.22,0,0,0-1.28,3A8,8,0,0,0,33,59.06v.69c0,.23,0,.28-.27.4a9.68,9.68,0,0,1-1.18.41h-.26a.11.11,0,0,1-.12-.1h0v-.31c.06-.39.14-.77.22-1.15q.53-2.09,1.23-4.11a1.46,1.46,0,0,1,.07-.19.17.17,0,0,1,.13-.1h.36a5.68,5.68,0,0,0,1.36-.16A6.36,6.36,0,0,0,36,53.86c.08,0,.17-.08.25-.12h0v.06a1.42,1.42,0,0,1-.08.18,13.28,13.28,0,0,0-1.08,2.58,11.08,11.08,0,0,0-.37,1.71,2.25,2.25,0,0,1-.07.68v.14a.23.23,0,0,1-.13.18h0l-.89.38-.11.05a.11.11,0,0,1-.09-.06V59.3"/><path class="cls-8" d="M58.7,77.6a7,7,0,0,1-1.37-.1l-.6-.15a1,1,0,0,0-.25-.08H56.4l-.06.16a3.49,3.49,0,0,1-.35.82,2.72,2.72,0,0,1-.54.72l-.09.08a.11.11,0,0,1-.08,0h0V79a12.6,12.6,0,0,0-1.53-2.41c-.36-.47-.74-.92-1.1-1.38-.18-.2-.36-.41-.52-.62l-.32-.46a.87.87,0,0,1-.07-.17.1.1,0,0,1,.07-.12h0l.21.07a4,4,0,0,1,.47.22l2.15,1.15,1.2.64a2.15,2.15,0,0,0,1.22.22l.72-.12a3.25,3.25,0,0,1,.76.06,1,1,0,0,1,.5.25l.29.28a3.11,3.11,0,0,1,.43.75v.11a.09.09,0,0,1,0,.07h-.12a5.57,5.57,0,0,1-1,0"/><path class="cls-8" d="M59.31,48.77a1.7,1.7,0,0,1-1-.32.1.1,0,0,1,0-.12.08.08,0,0,1,0,0l.17-.16c.65-.52,1.3-1.07,1.93-1.62a55.28,55.28,0,0,0,4.1-4c.27-.29.53-.59.81-.88a.58.58,0,0,1,.17-.18.06.06,0,0,1,.06,0h0s0,.21-.08.3A9.67,9.67,0,0,1,64,44.6a24.42,24.42,0,0,1-2.28,2.59,12.09,12.09,0,0,1-.92.83l-.46.34a1.75,1.75,0,0,1-.43.22,1.38,1.38,0,0,1-.56.12"/><path class="cls-8" d="M37.23,48.47a1,1,0,0,1-.06.41.56.56,0,0,1,0,.12.2.2,0,0,1-.12.08.66.66,0,0,1-.28,0l-.84-.17-1.37-.29a6.23,6.23,0,0,0-1.43-.11c-1.07,0-2.15.07-3.23,0a7,7,0,0,1-1.11-.11,2.42,2.42,0,0,1-1.06-.47,1.12,1.12,0,0,1-.44-.68v-.08a.11.11,0,0,1,.08-.08h.09a14.39,14.39,0,0,0,1.46.26c.39,0,.79.11,1.19.14s1,.08,1.43.08h3.77a3,3,0,0,1,.73.14,7,7,0,0,1,1,.35c.24.1.23.18.23.33"/><path class="cls-8" d="M48,44.18a.51.51,0,0,1-.11.31.29.29,0,0,1-.34.13,1.06,1.06,0,0,1-.3-.1A1.15,1.15,0,0,1,47,44.4a2.54,2.54,0,0,0-.47-.14.65.65,0,0,0-.47.09,1,1,0,0,0-.27.19,2.28,2.28,0,0,0-.48.5l-.5.69a7.21,7.21,0,0,1-1.4,1.52l-.88.76a3,3,0,0,1-.45.35.45.45,0,0,1-.37.1.78.78,0,0,1-.62-.46.45.45,0,0,1,.1-.48l.12-.11.19-.13a11,11,0,0,0,2.08-1.7,4,4,0,0,0,.51-.58c.16-.22.33-.43.51-.65a4.4,4.4,0,0,1,.6-.62,2.4,2.4,0,0,1,.53-.37,1.7,1.7,0,0,1,1.84.1,1,1,0,0,1,.45.61v.13"/><path class="cls-8" d="M37.45,51.82a.78.78,0,0,1-.09.37l-.11.17A4.45,4.45,0,0,1,34.9,54l-.56.12a1.35,1.35,0,0,1-.49,0,.26.26,0,0,1-.16-.19.41.41,0,0,1,0-.22,1,1,0,0,1,.08-.29,6.34,6.34,0,0,1,1.08-1.93A6.25,6.25,0,0,1,36,50.42a3.14,3.14,0,0,1,.39-.24,1,1,0,0,1,.29-.1.34.34,0,0,1,.29.08,1.15,1.15,0,0,1,.21.33,3.86,3.86,0,0,1,.26.94,1.71,1.71,0,0,1,0,.32.24.24,0,0,1,0,.12"/><path class="cls-8" d="M60.41,39.11h.06a15.72,15.72,0,0,0,2.17,0h.46a.11.11,0,0,1,.11.11.54.54,0,0,1,0,.18,1.23,1.23,0,0,1-.33.56c-.15.15-.32.29-.49.43s-.24.16-.35.25l-.17.16a.7.7,0,0,0-.12.34V42.8a4,4,0,0,1-.41,1.2,11.24,11.24,0,0,1-.67,1.23l-.07.09h-.08v-.17c-.11-.51-.22-1-.31-1.54v-.4a1.77,1.77,0,0,1,.09-.72c.09-.27.18-.53.28-.8a4.73,4.73,0,0,0,.22-.82.58.58,0,0,0-.08-.46l-.34-.57a2.1,2.1,0,0,1-.15-.3.71.71,0,0,1,0-.29s0-.08.07-.08Z"/><path class="cls-8" d="M35.28,58.81c0-.42.1-.83.19-1.24a12.21,12.21,0,0,1,1.46-3.68h0a.39.39,0,0,0,0-.46v-.1l.12-.12a6.53,6.53,0,0,0,.88-.94.64.64,0,0,1,.1-.13.08.08,0,0,1,.11,0h0v.09a4.43,4.43,0,0,0,.6,1.35,1.09,1.09,0,0,1,.08.15.1.1,0,0,1,0,.14h0a6.42,6.42,0,0,0-.89,2,12.93,12.93,0,0,0-.43,1.84v.12c0,.21,0,.23-.26.32l-.25.1h-.1s-.09,0-.09-.07v-.06A21.26,21.26,0,0,1,37.65,55a8.14,8.14,0,0,1,.41-1.07l.27-.51a1.09,1.09,0,0,0,.08-.15.24.24,0,0,0-.43-.21,1.4,1.4,0,0,0-.16.26,7.7,7.7,0,0,0-.54,1.21,18.68,18.68,0,0,0-.56,1.94c-.13.57-.24,1.12-.33,1.68v.29a.18.18,0,0,1-.13.17l-.81.37a.08.08,0,0,1-.11,0,.08.08,0,0,1,0,0v-.08Z"/><path class="cls-8" d="M42.75,49.15l.12.23a.75.75,0,0,0,.25.28l.45.24.09.07V50a.33.33,0,0,1-.13.07,3.83,3.83,0,0,1-.74.19,5,5,0,0,1-.94.06,2.8,2.8,0,0,1-1.66-.59,1.68,1.68,0,0,1-.63-1.25V48a2.74,2.74,0,0,1,.69-1.75,4.76,4.76,0,0,1,1.09-.91,3.09,3.09,0,0,1,1-.4l.61-.09a.91.91,0,0,1,.33,0,.12.12,0,0,1,.09.14.09.09,0,0,1,0,.06h0l-.07.08c-.14.1-.25.21-.39.29l-1,.68-.4.27a4.35,4.35,0,0,0-.55.5,2.21,2.21,0,0,0-.28.4,1.29,1.29,0,0,0-.09,1,1.15,1.15,0,0,0,.53.69,1.13,1.13,0,0,0,.64.2,2.49,2.49,0,0,0,.77,0,.45.45,0,0,1,.28,0"/><path class="cls-8" d="M52.5,78.61h-.08a2.15,2.15,0,0,1-.14-.26l-.73-1.45a14.57,14.57,0,0,0-1.3-2.09,5.9,5.9,0,0,0-.66-.75,3.07,3.07,0,0,1-.41-.47A9.48,9.48,0,0,1,48,71.53a5,5,0,0,1-.23-.65.93.93,0,0,1,0-.57,2.1,2.1,0,0,1,.15-.3s0-.06.08-.08h0a.45.45,0,0,1,.11.19l1,1.61.22.43a5.59,5.59,0,0,0,1.06,1.31,7.75,7.75,0,0,1,1,1.21c.18.25.35.5.52.76a2.83,2.83,0,0,1,.46,1.12,6,6,0,0,1,.13,1.11v.8a.33.33,0,0,1,0,.14"/><path class="cls-8" d="M25.57,49a2.43,2.43,0,0,1,.84.18l.22.13.24.15a.83.83,0,0,0,.82.06l.23-.12a2.07,2.07,0,0,1,1-.29A31.5,31.5,0,0,1,32.13,49h.29v0l-.07.09a6,6,0,0,1-.67.44,1.6,1.6,0,0,1-.68.18h-.78a4,4,0,0,0-.85.09,3.05,3.05,0,0,0-.91.39c-.22.16-.43.33-.63.5a11.88,11.88,0,0,0-1,1.13,1.54,1.54,0,0,1-.17.19.06.06,0,0,1-.08,0l0,0v-.2a8,8,0,0,0-1-2.62L25.41,49s0-.07.06-.08h.1"/><path class="cls-8" d="M50.51,44.77a1.27,1.27,0,0,1,.62.23.29.29,0,0,1,.14.13.82.82,0,0,0,.12.2c.13.22.25.45.4.66a2.8,2.8,0,0,0,.25.35,1.38,1.38,0,0,0,.4.32,3.68,3.68,0,0,0,.69.34l.27.1a.64.64,0,0,1,.33.23,1.48,1.48,0,0,1,.29.52,1,1,0,0,1,0,.25.39.39,0,0,1-.06.21c-.05.06-.09.12-.14.17a5.65,5.65,0,0,1-.82.64h-.09v-.23a2.09,2.09,0,0,0-.08-.5,1,1,0,0,0-.7-.69,2.84,2.84,0,0,0-.65-.1H51a2.82,2.82,0,0,1-.57-.09,4.73,4.73,0,0,1-.66-.25,1.62,1.62,0,0,1-.41-.27.26.26,0,0,1-.1-.25.33.33,0,0,1,0-.14,3.16,3.16,0,0,1,.36-.71h.08l.14.09.43.33.17.1a.34.34,0,0,0,.2,0,.11.11,0,0,0,.11-.11h0a.81.81,0,0,0,0-.22l-.21-.47c-.06-.16-.14-.32-.2-.47V45a.12.12,0,0,1,.11-.14h.08"/><path class="cls-8" d="M50.91,44.39H50.4a.69.69,0,0,0-.5.15,2,2,0,0,0-.6.76c-.06.13-.11.26-.16.4s-.2.46-.28.68a2.47,2.47,0,0,1-.41.68,5.35,5.35,0,0,1-.51.55.42.42,0,0,1-.25.12,8.3,8.3,0,0,1-1.41,0h0l.06-.07.11-.08a5.3,5.3,0,0,0,1.14-1.27l.32-.52c.19-.31.39-.63.61-.93a8.2,8.2,0,0,1,.71-.85,3.48,3.48,0,0,1,.48-.38,1.34,1.34,0,0,1,.58-.2,1.84,1.84,0,0,1,.87.14l.23.17a.5.5,0,0,1,.18.31.4.4,0,0,1-.23.46.73.73,0,0,1-.36,0"/><path class="cls-8" d="M54.37,73.21h-.82A7.3,7.3,0,0,1,52.24,73a2,2,0,0,1-.8-.36,3.92,3.92,0,0,1-.72-.69,1.58,1.58,0,0,1-.36-.76,4,4,0,0,1,0-.69v-.11a.2.2,0,0,1,.17-.18h.6a.21.21,0,0,1,.17.08,1.27,1.27,0,0,1,.13.19,4,4,0,0,0,.48.61,3.07,3.07,0,0,0,.89.67c.85.41,1.72.81,2.6,1.19l.25.13H54.39"/><path class="cls-8" d="M57.8,52.52a4,4,0,0,1-.12.91,1.26,1.26,0,0,1-.3.51,3.27,3.27,0,0,1-.89.63,1.06,1.06,0,0,1-.66,0,2.79,2.79,0,0,1-1-.51l-.1-.1a.14.14,0,0,1,0-.17l.12-.19.18-.26a.53.53,0,0,0,0-.46c-.07-.21-.13-.42-.2-.63s-.06-.19-.09-.3a1.31,1.31,0,0,1,0-.28A.23.23,0,0,1,55,51.5h.17l.21.09a1.61,1.61,0,0,1,.57.59.72.72,0,0,1,0,.61c-.06.16-.13.31-.2.46a1.88,1.88,0,0,0-.12.3.16.16,0,0,0,.08.14h.09a1.15,1.15,0,0,0,.58-.09.27.27,0,0,0,.15-.13,1.56,1.56,0,0,0,.22-.7.66.66,0,0,0,0-.28c-.06-.17-.11-.33-.18-.48a1.16,1.16,0,0,1,0-.82,1,1,0,0,1,.12-.31c0-.1.1-.07.13,0l.12.08a3.52,3.52,0,0,1,.56.53,1,1,0,0,1,.29.67v.31"/><path class="cls-8" d="M35.5,49.49a.14.14,0,0,1,0,.09.91.91,0,0,1-.11.16,3.88,3.88,0,0,1-.69.65,1,1,0,0,1-.38.19A19.53,19.53,0,0,0,30.72,52l-.34.16h0v-.08h0a11.76,11.76,0,0,1,.93-1.18,6.35,6.35,0,0,1,2-1.48,2,2,0,0,1,1.12-.15,2.9,2.9,0,0,1,.59.09,2.42,2.42,0,0,1,.36.1.15.15,0,0,1,.09.06.09.09,0,0,1,0,.07"/><path class="cls-8" d="M41.38,52.79a2,2,0,0,1,.06-.49,2.38,2.38,0,0,1,.28-.68,1.55,1.55,0,0,1,.76-.67,5.75,5.75,0,0,1,.71-.2l1.24-.18.46-.07a1.86,1.86,0,0,0,.69-.26l.48-.32a1.36,1.36,0,0,1,.37-.21.64.64,0,0,1,.63,0,2.36,2.36,0,0,1,.48.35.21.21,0,0,1,.06.1h0a.19.19,0,0,1-.13.1,9.81,9.81,0,0,1-1.14.53,4.09,4.09,0,0,1-.91.25l-1.49.22a3.69,3.69,0,0,0-.45.11,1.17,1.17,0,0,0-.63.37c-.19.22-.37.44-.54.67a4.46,4.46,0,0,1-.33.43,1.88,1.88,0,0,1-.24.25l-.07,0a.17.17,0,0,1-.2,0,.33.33,0,0,1,0-.14v-.22"/><path class="cls-8" d="M46.42,48.3h.49a1,1,0,0,1,.56.18c.18.11.36.22.53.34l1,.78c.67.57,1.37,1.1,2.09,1.62a.78.78,0,0,1,.26.22v.06h-.14a5.61,5.61,0,0,1-1-.24,2.7,2.7,0,0,1-.87-.5c-.48-.43-1-.83-1.51-1.21a3.83,3.83,0,0,0-.72-.46L46.86,49a1.39,1.39,0,0,0-.9-.08,2.75,2.75,0,0,0-.56.16l-.63.23a2.34,2.34,0,0,1-.58.14.85.85,0,0,1-.66-.23.11.11,0,0,1,0-.15,1.75,1.75,0,0,1,.47-.29,4.66,4.66,0,0,1,.89-.3,11.24,11.24,0,0,1,1.53-.2"/><path class="cls-8" d="M39.28,57.47v-.09a10.38,10.38,0,0,1,.31-1.22,4.14,4.14,0,0,1,.41-.88,1.09,1.09,0,0,0,.08-.15.25.25,0,0,0-.06-.27.21.21,0,0,0-.24,0l-.1.07a1.88,1.88,0,0,0-.16.23c-.11.2-.21.4-.3.61a8.11,8.11,0,0,0-.41,1.46.89.89,0,0,0,0,.23.26.26,0,0,1-.25.26l-.3.09a.09.09,0,0,1-.09-.09v-.1a12.2,12.2,0,0,1,.68-2.45,5.58,5.58,0,0,1,.35-.69c0-.06.08-.12.11-.17a.11.11,0,0,1,.11,0l.09.06a3.74,3.74,0,0,0,.83.52c.19.1.4.18.59.27l.18.09a.09.09,0,0,1,0,.1,1.63,1.63,0,0,1-.11.23,7.56,7.56,0,0,0-.8,1.76,1.31,1.31,0,0,1-.12.41A2.5,2.5,0,0,1,40,58a.09.09,0,0,1-.12,0h0l-.5-.28c-.08,0-.1-.11-.09-.24"/><path class="cls-8" d="M52.54,45.08h-.62a.46.46,0,0,1-.16-.07.2.2,0,0,1-.12-.18.46.46,0,0,1,.06-.23.75.75,0,0,1,.22-.25A1.76,1.76,0,0,1,53.13,44a1.92,1.92,0,0,1,1,.38,1.59,1.59,0,0,1,.57.66A4.11,4.11,0,0,1,55,46,.06.06,0,0,1,55,46a4.18,4.18,0,0,1,0,1c0,.1-.05.21-.08.31l-.08.12a.17.17,0,0,1-.24,0h0l-.11-.13a1.49,1.49,0,0,1-.29-.79v-.34a1.27,1.27,0,0,0-.17-.63.83.83,0,0,0-.63-.46,3.89,3.89,0,0,0-.76-.05"/><path class="cls-8" d="M57.41,57.75c-.39,0-.37,0-.44-.37a6.53,6.53,0,0,0-.46-1.44,4,4,0,0,0-.38-.54.69.69,0,0,0-.11-.13.26.26,0,0,0-.29,0,.27.27,0,0,0-.08.32v.07a4.28,4.28,0,0,1,.67,1.53,1.86,1.86,0,0,0,.1.39,1.41,1.41,0,0,1,0,.29.15.15,0,0,1-.21.12l-.12-.08a4.61,4.61,0,0,1-1.28-2.07,4.67,4.67,0,0,1-.13-.65v-.1s.07-.16.17-.14l.39.07a2.22,2.22,0,0,0,.89,0l.29-.06s.07,0,.08.06h0a.76.76,0,0,0,.17.35,3.12,3.12,0,0,1,.34.59,11.44,11.44,0,0,1,.58,1.61v.12s0,.07-.08.08Z"/><path class="cls-8" d="M51.13,66.85a1.38,1.38,0,0,1-.09.39.66.66,0,0,1-.17.23.2.2,0,0,1-.23,0l-.21-.1a2.35,2.35,0,0,1-.33-.3l-.54-.64a9.68,9.68,0,0,1-.67-1,.75.75,0,0,0-.07-.12.08.08,0,0,1,0-.11l.13-.06a4.15,4.15,0,0,0,.91-.41h.08a.15.15,0,0,1,.13,0,.75.75,0,0,1,.16.15A3.73,3.73,0,0,1,51,66.16a3.45,3.45,0,0,1,.11.54v.08"/><path class="cls-8" d="M51.62,48.9H50.8a.7.7,0,0,0-.5.2l-.29.31a.17.17,0,0,1-.15.06.65.65,0,0,1-.48-.17c-.16-.14-.32-.28-.5-.42l-.08-.07a.29.29,0,0,1,0-.37.8.8,0,0,1,.17-.15,1.14,1.14,0,0,1,.35-.17,3.51,3.51,0,0,1,.85-.14,2.3,2.3,0,0,1,.74.06,5.53,5.53,0,0,1,1.12.33,1.4,1.4,0,0,1,.26.16.2.2,0,0,1,0,.27.45.45,0,0,1-.14.1h-.53Z"/><path class="cls-8" d="M38.58,48a.28.28,0,0,1,.21.13.31.31,0,0,1,.09.18,2,2,0,0,1,.1.35,3.46,3.46,0,0,0,.28,1,.11.11,0,0,1,0,.13.47.47,0,0,1-.1.1,3.4,3.4,0,0,0-.72,1,1,1,0,0,0-.07.15c-.08.18-.11.21-.15.19a.43.43,0,0,1-.09-.23,9.88,9.88,0,0,1-.27-1.52,1.74,1.74,0,0,1,.24-1.09.92.92,0,0,1,.23-.25.5.5,0,0,1,.29-.12"/><path class="cls-8" d="M56.35,47.46a7.24,7.24,0,0,1-.17,1.39,2.51,2.51,0,0,1-.16.46.16.16,0,0,1-.22,0l0,0a.45.45,0,0,1-.2-.27.49.49,0,0,1,0-.17v-.19a1.22,1.22,0,0,0,0-.6,1.09,1.09,0,0,0-.14-.31.33.33,0,0,1,0-.24.37.37,0,0,1,0-.23,1.92,1.92,0,0,0,.07-.79L55.49,46a1.29,1.29,0,0,1,0-.48.27.27,0,0,1,.15-.13.23.23,0,0,1,.2,0,.44.44,0,0,1,.12.15,1.63,1.63,0,0,1,.2.47,5.58,5.58,0,0,1,.2,1.35"/><path class="cls-8" d="M59.85,45.54v.35a.66.66,0,0,1-.23.5c-.11.12-.23.23-.35.34-.36.32-.74.62-1.13.91l-.1.07c-.07,0-.13,0-.14-.07s-.07-.33-.1-.5a.22.22,0,0,1,.06-.19c.06-.07.11-.14.18-.21l.53-.61a10.85,10.85,0,0,0,1-1.34,1,1,0,0,1,.11-.17h.11a.75.75,0,0,1,.05.16,3.64,3.64,0,0,1,.07.74"/><path class="cls-8" d="M57.41,49.12v.36a.34.34,0,0,0,.17.29l.19.13.15.12a.36.36,0,0,1,.13.19.61.61,0,0,1,0,.42.17.17,0,0,1-.16.13,1.31,1.31,0,0,1-.28,0,2.42,2.42,0,0,1-.87-.49l-.13-.15a.59.59,0,0,1-.13-.54c.07-.22.11-.44.17-.67a9.54,9.54,0,0,0,.2-1.17v-.2h0v.05a2.4,2.4,0,0,1,.37,1.1,1.35,1.35,0,0,1,0,.49"/><path class="cls-8" d="M58.88,58.09c0,.07,0,.11-.06.11h-.11l-.4-.16a.27.27,0,0,1-.13-.15.51.51,0,0,0-.06-.29,12.17,12.17,0,0,0-.57-1.67,3.92,3.92,0,0,0-.47-.85l-.15-.2a.11.11,0,0,1,0-.11l.46-.28h.11l.09.11a3.87,3.87,0,0,1,.43.7,11.08,11.08,0,0,1,.68,1.88c0,.24.1.47.16.7s0,.17,0,.2"/><path class="cls-8" d="M62.07,30.27v-.34a1,1,0,0,1,.06-.34l.26-.66a.31.31,0,0,1,.06-.13h.15l.19.14a.81.81,0,0,1,.24.34l.16.43.24.67a.32.32,0,0,1,0,.3c-.12.2-.23.41-.34.6a.12.12,0,0,1-.15,0l-.13-.07c-.2-.09-.38-.2-.58-.3a.28.28,0,0,1-.13-.21v-.49Z"/><path class="cls-8" d="M17.13,53.7h.51a.14.14,0,0,1,.1.13v.49a.16.16,0,0,1-.08.14l-1,.73a.25.25,0,0,1-.17,0h-.06l-.8-.18c-.16,0-.2-.08-.15-.27a.72.72,0,0,1,.28-.42c.27-.18.54-.38.81-.59a.61.61,0,0,1,.43-.11h.13"/><path class="cls-8" d="M49.18,68.23v-.15a3.68,3.68,0,0,1,.12-.39.35.35,0,0,0,.05-.08.11.11,0,0,1,.11,0h.06a6.88,6.88,0,0,1,1.4,1.24,1.31,1.31,0,0,1,.21.36.66.66,0,0,1,0,.28.26.26,0,0,1-.18.2.65.65,0,0,1-.34,0,2.64,2.64,0,0,1-1.28-.84.86.86,0,0,1-.21-.61"/><path class="cls-8" d="M52.73,51H53a.25.25,0,0,1,.2.09,1.54,1.54,0,0,1,.17.19,7,7,0,0,1,.71,1l.13.23a1.06,1.06,0,0,1,.08.8.09.09,0,0,1-.12,0,.77.77,0,0,1-.18-.18c-.22-.22-.44-.46-.66-.67-.4-.43-.8-.85-1.22-1.26L52,51.08V51a3.05,3.05,0,0,1,.74,0"/><path class="cls-8" d="M19.05,51.56H18.8a.31.31,0,0,1-.29-.31s0,0,0,0a.7.7,0,0,1,.23-.64l.16-.13a3.56,3.56,0,0,1,.82-.43.19.19,0,0,1,.18,0l.14.11a3.51,3.51,0,0,0,.4.27.42.42,0,0,1,.14.09.11.11,0,0,1,0,.08.44.44,0,0,1-.08.11,4.22,4.22,0,0,1-.58.54l-.38.27a.56.56,0,0,1-.37.11H19"/><path class="cls-8" d="M55.62,60.17h.21a.07.07,0,0,1,.07.08h0a3.3,3.3,0,0,1-.43.78,1.2,1.2,0,0,1-.23.22.53.53,0,0,1-.32.1.76.76,0,0,1-.3,0,2.87,2.87,0,0,1-.82-.41l-.16-.13v-.1c.07-.12.14-.25.22-.36a.11.11,0,0,1,.1-.06h.36a5.61,5.61,0,0,0,1-.07h.38"/><path class="cls-8" d="M59.94,35.37v.49a.23.23,0,0,1-.06.16,4.69,4.69,0,0,1-.54.46.11.11,0,0,1-.13,0,1,1,0,0,0-.11-.17l-.23-.42v-1a.41.41,0,0,1,0-.22l.28-.44h0a.11.11,0,0,1,.11,0h0l.51.46a.21.21,0,0,1,.07.18Z"/><path class="cls-8" d="M49,67a.58.58,0,0,1-.1.36.23.23,0,0,1-.28.08.77.77,0,0,1-.25-.14c-.14-.12-.27-.26-.41-.39a5.33,5.33,0,0,1-.4-.42,4.09,4.09,0,0,0-.44-.39L47,66a.09.09,0,0,1,0-.1h.05c.16-.11.32-.24.49-.37a.14.14,0,0,1,.19,0,4,4,0,0,1,1,1,1.09,1.09,0,0,1,.15.39.17.17,0,0,1,0,.1"/><path class="cls-8" d="M22.57,48.84h.15a4,4,0,0,1,.5.09h.11a.06.06,0,0,1,0,.08v.07c-.1.13-.21.25-.3.38a.39.39,0,0,1-.19.12l-.53.12-.75.17a.9.9,0,0,1-.46,0,2.25,2.25,0,0,1-.35-.09V49.7h0c.15-.19.3-.37.46-.55a.26.26,0,0,1,.2-.1l1-.17h.17"/><path class="cls-8" d="M60.13,38.54h-.27a.32.32,0,0,1-.22-.13l-.1-.18a1.91,1.91,0,0,1-.12-.47v-.25a.28.28,0,0,1,.07-.23c.2-.2.39-.41.6-.61h.08v.06a.89.89,0,0,0,.11.31l.42,1.14a1.87,1.87,0,0,1,.07.22.11.11,0,0,1,0,.08h-.1a2.25,2.25,0,0,1-.58.07"/><path class="cls-8" d="M44.68,47.89a.55.55,0,0,1-.31,0,.4.4,0,0,1-.21-.52l.08-.13a1,1,0,0,1,.48-.42,1.9,1.9,0,0,1,.4-.14,5.56,5.56,0,0,1,1-.1h.1s.07.05.05.08v.08a3.27,3.27,0,0,1-.69.79,1.46,1.46,0,0,1-.67.36h-.23"/><path class="cls-8" d="M45.78,46.23a.67.67,0,0,1-.37-.08.29.29,0,0,1-.16-.39v0a.46.46,0,0,1,.09-.15.52.52,0,0,1,.1-.11A2.06,2.06,0,0,1,46.82,45a.55.55,0,0,1,.31.08l.09.06a.26.26,0,0,1,.09.17.36.36,0,0,1-.06.25.81.81,0,0,1-.25.27,2,2,0,0,1-1.22.4"/><path class="cls-8" d="M63.56,37.76v-.54a.36.36,0,0,1,.12-.27h0l.88-.82s.08-.07.12-.07a0,0,0,0,1,0,0,.09.09,0,0,1,0,.07v1a1,1,0,0,1-.21.53,3.84,3.84,0,0,1-.82.79h-.12v-.63Z"/><path class="cls-8" d="M59.26,32.86v-.27a.46.46,0,0,1,.08-.28c.09-.16.19-.32.28-.49h0s.09-.05.11,0a2.87,2.87,0,0,1,.4.18.31.31,0,0,1,.09.18l.18,1v.11a.15.15,0,0,1,0,.13,5.07,5.07,0,0,1-.35.46.09.09,0,0,1-.13,0h0l-.51-.35a.19.19,0,0,1-.09-.14v-.52Z"/><path class="cls-8" d="M24.93,53.35h-.32a.3.3,0,0,1-.1-.1s0,0,0-.07v-.63a.37.37,0,0,1,.13-.28h.07l.8-.6.15-.09a.07.07,0,0,1,.09,0,.11.11,0,0,1,0,.08c.06.26.1.52.16.78a.28.28,0,0,1-.08.26c-.18.2-.36.41-.55.61a.18.18,0,0,1-.15.08h-.2Z"/><path class="cls-8" d="M42.18,61.14a3.36,3.36,0,0,1-.71-.08.68.68,0,0,1-.4-.23,3,3,0,0,1-.2-.29,2.61,2.61,0,0,1-.22-.61v-.15a.09.09,0,0,1,.1-.1h.07c.41.13.83.28,1.25.4h.11a.25.25,0,0,1,.14.13l.34.7a.08.08,0,0,1,0,.11h-.44"/><path class="cls-8" d="M57.62,80.34a.14.14,0,0,1,0,.09s0,.06-.08.07h0l-.59,0a.42.42,0,0,1-.28-.14c-.22-.26-.45-.5-.67-.75h0s-.06-.1,0-.15a3,3,0,0,1,.18-.41l.16-.2a.12.12,0,0,1,.16,0l.06.06c.28.2.55.41.81.62a.23.23,0,0,1,.1.07.29.29,0,0,1,.08.14,4,4,0,0,0,.09.63"/><path class="cls-8" d="M46.91,67.19a.9.9,0,0,1-.09.46.64.64,0,0,1-.18.25.49.49,0,0,1-.69,0s0,0,0,0a.89.89,0,0,1-.24-.42,1,1,0,0,1,.14-.85.54.54,0,0,1,.33-.26.45.45,0,0,1,.28,0,.54.54,0,0,1,.33.26,1,1,0,0,1,.16.58"/><path class="cls-8" d="M22.8,54.67a.81.81,0,0,1,0-.22.27.27,0,0,1,.09-.21l.11-.08.54-.42.15-.1a.22.22,0,0,1,.16,0l.76.23h0V54a.22.22,0,0,1-.05.08l-.87.9a.39.39,0,0,1-.27.11H23c-.25,0-.27,0-.28-.27v-.15Z"/><path class="cls-8" d="M61,81.14h.25a.41.41,0,0,1,.28.13l.32.33c.11.13.23.25.35.37a.17.17,0,0,1,.07.13v.54a.11.11,0,0,1-.12.1h-.5a.28.28,0,0,1-.21-.1h0c-.22-.23-.42-.48-.62-.71a.35.35,0,0,1-.1-.26v-.36a.08.08,0,0,1,.08-.08,1,1,0,0,1,.25,0Z"/><path class="cls-8" d="M65.42,82.88h-.24a.55.55,0,0,1-.35-.12L64,82.13a.33.33,0,0,1-.15-.29v-.35a.14.14,0,0,1,.15-.13h.35a.43.43,0,0,1,.22.09l.07.06c.3.25.58.49.89.72a.62.62,0,0,1,.25.43.49.49,0,0,1,0,.17.08.08,0,0,1-.06.08H65.4Z"/><path class="cls-8" d="M63.72,34.07V34l.06-.06.55-.47.09-.06h.07v.15c.07.48.15,1,.22,1.42a.19.19,0,0,1-.08.22l-.58.42H63.9v-.08l-.18-1a.54.54,0,0,0,0-.28c-.05-.09,0-.09,0-.15"/><path class="cls-8" d="M59,82.31v.19a.08.08,0,0,1-.09.09H58.6a.38.38,0,0,1-.21-.07l-.14-.11c-.27-.2-.51-.42-.77-.64l-.08-.07a.34.34,0,0,1-.14-.29v-.27a.12.12,0,0,1,.1-.12,2.71,2.71,0,0,1,.57,0h.13a1.29,1.29,0,0,1,.17.16l.55.57.12.13a.25.25,0,0,1,.09.23Z"/><path class="cls-8" d="M47.13,69.64a1.8,1.8,0,0,1-.09.41.58.58,0,0,1-.12.25.29.29,0,0,1-.36.09.8.8,0,0,1-.19-.13,1.5,1.5,0,0,1-.37-.69A1.23,1.23,0,0,1,46,69a.76.76,0,0,1,.17-.32.42.42,0,0,1,.34-.18.32.32,0,0,1,.21.08,1.18,1.18,0,0,1,.13.18,1.86,1.86,0,0,1,.25.64v.21"/><path class="cls-8" d="M54.52,59.85H54.1a.17.17,0,0,1,0-.1l.28-.64v-.06l.09-.07h.22a5.34,5.34,0,0,0,.9-.2l.22-.05s.08,0,.09.05h0a1.12,1.12,0,0,1,0,.63.57.57,0,0,1-.38.36l-.23,0a2.76,2.76,0,0,1-.76.07"/><path class="cls-8" d="M23.85,52h-.28s-.1-.06-.11-.12a1.29,1.29,0,0,1,0-.48.14.14,0,0,1,.09-.11l.12-.06,1.46-.64h.09a.21.21,0,0,1,.11,0l.35.1s.06.1,0,.12l-.1.1-1.22,1h-.05A.36.36,0,0,1,24,52Z"/><path class="cls-8" d="M22.13,53.43V53.2a.22.22,0,0,1,.1-.2l.62-.5a.23.23,0,0,1,.16-.06h.65a.12.12,0,0,1,.13.11h0v.23a.34.34,0,0,1-.11.23l-.13.11c-.25.18-.48.37-.72.56l-.14.1h-.48a.11.11,0,0,1-.09-.1v-.26Z"/><path class="cls-8" d="M41.41,54.19a.78.78,0,0,1-.06.37.08.08,0,0,1-.11,0A4.7,4.7,0,0,1,40.05,54a2,2,0,0,1-.38-.32,4.6,4.6,0,0,1-.59-.87,2.92,2.92,0,0,1-.25-.81,1.51,1.51,0,0,1,.09-.76.11.11,0,0,1,0-.08h.13a.33.33,0,0,1,0,.14v.39a3.05,3.05,0,0,0,.06.6,1.65,1.65,0,0,0,.81,1.23,2.37,2.37,0,0,0,.85.32,2.17,2.17,0,0,1,.41.09.12.12,0,0,1,.11.14Z"/><path class="cls-8" d="M42,61.61l1,.12a.21.21,0,0,1,.19.11c.13.18.28.38.41.58v.12a1.74,1.74,0,0,1-.45.17H43a.8.8,0,0,1-.7-.17,1.64,1.64,0,0,1-.31-.28,5.17,5.17,0,0,1-.39-.53h0a.09.09,0,0,1,.07-.11H42"/><path class="cls-8" d="M17.46,53.15h-.33A.13.13,0,0,1,17,53h0v-.38h0A.88.88,0,0,1,17,52.5a.18.18,0,0,1,.08-.07l.55-.56a.44.44,0,0,1,.33-.11h.13s.08.06.09.1v.2a.1.1,0,0,0,.08.07h.23a.13.13,0,0,1,.14.12v.14a.31.31,0,0,1-.05.1,1.07,1.07,0,0,1-.19.18l-.46.41a.41.41,0,0,1-.24.08h-.27Z"/><path class="cls-8" d="M51.83,50.43h-.6a.89.89,0,0,1-.51-.23v-.05h.05c.46,0,.93,0,1.39,0a3.09,3.09,0,0,0,.61-.08,2.15,2.15,0,0,0,.79-.35,3.76,3.76,0,0,0,.64-.62l.49-.6.16-.16h.06v.07h0v.12l-.11.23A5.29,5.29,0,0,1,54,49.9a1.07,1.07,0,0,1-.44.28,5,5,0,0,1-.75.16c-.32,0-.65.07-1,.09"/><path class="cls-8" d="M40.4,57.68h.07l.17.12a3.69,3.69,0,0,0,.85.51h.08a.24.24,0,0,1,.11.13.23.23,0,0,0,.07.19,2.09,2.09,0,0,1,.15.55.33.33,0,0,1,0,.14.07.07,0,0,1-.07.07h-.06a6.23,6.23,0,0,1-.85-.33L40.77,59a.78.78,0,0,1-.37-.5,1.4,1.4,0,0,1,0-.76v-.07"/><path class="cls-8" d="M53.87,62.54a.76.76,0,0,1-.33-.08,1.72,1.72,0,0,1-.6-.47.14.14,0,0,1,0-.19c.08-.14.18-.27.26-.4a.15.15,0,0,1,.18,0,7.38,7.38,0,0,0,1.21.38l.22.07h0a1.76,1.76,0,0,1-.56.49.8.8,0,0,1-.4.11"/><path class="cls-8" d="M52.74,63.62a.76.76,0,0,1-.3,0,1.4,1.4,0,0,1-.51-.36.12.12,0,0,1,0-.17l0,0,.32-.37c.25-.24.19-.23.52-.09a7.21,7.21,0,0,0,.83.27l.28.08a.07.07,0,0,1,0,.09h0a2.56,2.56,0,0,1-1,.57h-.14"/><path class="cls-8" d="M20.67,55.44h-.23a.13.13,0,0,1-.12-.14h0a1,1,0,0,1,.07-.45.15.15,0,0,1,.09-.1l.1-.06.76-.34a.64.64,0,0,1,.36-.05l.31.06a.18.18,0,0,1,.14.19v.11A.3.3,0,0,1,22,55c-.24.1-.46.21-.7.33a1,1,0,0,1-.6.14"/><path class="cls-8" d="M57.42,78.07h.42a.5.5,0,0,1,.35.14l.63.55a.39.39,0,0,1,.11.22V79c0,.21,0,.26-.23.24h-.48a.48.48,0,0,1-.37-.17l-.3-.28L57,78.34a.76.76,0,0,0-.11-.14.11.11,0,0,1,0-.08h.44"/><path class="cls-8" d="M59.62,80.84a1.31,1.31,0,0,1,0,.28.16.16,0,0,1-.08.08h-.42a.31.31,0,0,1-.13-.06l-.61-.52a.23.23,0,0,1-.1-.19v-.54a.13.13,0,0,1,.1-.1,1.57,1.57,0,0,1,.53,0,.24.24,0,0,1,.12.07l.53.6a.22.22,0,0,1,0,.16v.2Z"/><path class="cls-8" d="M47.18,68.14a4.49,4.49,0,0,1,.37-.59.15.15,0,0,1,.18,0l.1.06a1.72,1.72,0,0,1,.47.6.91.91,0,0,1-.1.9.57.57,0,0,1-.39.25.15.15,0,0,1-.15-.07h0v-.06a5.81,5.81,0,0,0-.38-.89,1,1,0,0,1-.07-.15"/><path class="cls-8" d="M61.56,32.81v.72a.09.09,0,0,1-.1,0h-.08l-.25-.18a.37.37,0,0,1-.17-.28v-.23c-.05-.26-.08-.53-.13-.78a.48.48,0,0,1,.06-.33c.08-.18.15-.36.23-.52v-.08h.09a.75.75,0,0,1,.07.12c.07.15.12.31.18.46a1,1,0,0,1,.09.49v.6Z"/><path class="cls-8" d="M62,33.31V32.17a.53.53,0,0,1,.09-.3l.16-.26a.08.08,0,0,1,.11,0l0,0c.13.25.28.51.39.75a.34.34,0,0,1,0,.2V33.8h-.06a6.45,6.45,0,0,1-.66-.51"/><path class="cls-8" d="M51.26,64.72a1.06,1.06,0,0,1-.52-.13.55.55,0,0,1-.2-.17.17.17,0,0,1,0-.1.17.17,0,0,1,.06-.06l.64-.57a.21.21,0,0,1,.26,0l.94.35.1.06a.09.09,0,0,1,0,.07l-.06.07a2.52,2.52,0,0,1-.82.45.84.84,0,0,1-.41.08"/><path class="cls-8" d="M19.55,54.69v.22a.3.3,0,0,1-.12.22l-.83.45a.49.49,0,0,1-.17,0h-.2c-.18,0-.23,0-.24-.24v-.21a.31.31,0,0,1,.14-.29c.21-.15.41-.31.61-.47a.44.44,0,0,1,.27-.09,1.3,1.3,0,0,1,.44,0s.1.08.1.13Z"/><path class="cls-8" d="M23.4,50.16a.17.17,0,0,0,0-.1.41.41,0,0,1,.11-.28,3.59,3.59,0,0,1,.58-.52.84.84,0,0,1,.27-.13.32.32,0,0,1,.27,0,1.54,1.54,0,0,1,.19.17,2.22,2.22,0,0,1,.25.42.11.11,0,0,1,0,.15l-.16.07-1,.38-.24.09h-.08s-.09,0-.09-.07V50.1"/><path class="cls-8" d="M39.55,50.38a.18.18,0,0,1,.16-.18h.06a1.74,1.74,0,0,1,.38.14,5.77,5.77,0,0,1,.77.52h0A.17.17,0,0,1,41,51a1.52,1.52,0,0,1-.25.71h0a.11.11,0,0,1-.13,0l-.15-.08a3.18,3.18,0,0,1-.79-1,.73.73,0,0,1-.09-.35"/><path class="cls-8" d="M62.34,80.35l.16.12.66.6.07.09a.17.17,0,0,1,0,.1v.33a.13.13,0,0,1-.12.11h-.45c-.23,0-.23,0-.39-.2s-.23-.25-.34-.38a.59.59,0,0,1-.14-.27,2,2,0,0,1,0-.35c0-.11,0-.15.15-.15h.4"/><path class="cls-8" d="M47.56,72.3a1.8,1.8,0,0,1-.72-.16.74.74,0,0,1-.44-.5,1.19,1.19,0,0,1,0-.53c0-.08,0-.13.13-.14a5.51,5.51,0,0,1,.57-.06.16.16,0,0,1,.15.11v.06a3.88,3.88,0,0,0,.38.92.72.72,0,0,1,.09.2v.09h-.1"/><path class="cls-8" d="M63.87,83.44h-.11a.61.61,0,0,1-.3-.08l-.7-.49a.24.24,0,0,1-.07-.18v-.34a.15.15,0,0,1,.14-.15H63a.56.56,0,0,1,.51.15l.55.44a.42.42,0,0,1,.16.27v.28c0,.09,0,.09-.09.09h-.22Z"/><path class="cls-8" d="M22.74,51.67h0a.38.38,0,0,1-.14.33l-.72.57a.39.39,0,0,1-.31.09c-.25,0-.28-.08-.28-.3v-.08c0-.28,0-.26.21-.43s.43-.31.64-.47a.62.62,0,0,1,.51-.08.11.11,0,0,1,.09.1Z"/><path class="cls-8" d="M61.19,77.57h-.31c-.28,0-.23,0-.39-.21s-.28-.43-.43-.64a.69.69,0,0,1-.05-.13v-.07h0a2.49,2.49,0,0,1,.77.07.7.7,0,0,1,.2.08,1.67,1.67,0,0,1,.7.81.08.08,0,0,1,0,.11H61.1Z"/><path class="cls-8" d="M61.36,35.23a.11.11,0,0,1,0,.08l-.53.69h-.14v-.08c-.07-.29-.15-.57-.22-.85a.54.54,0,0,1,0-.18.53.53,0,0,1,0-.25c.1-.22.19-.46.3-.68a.18.18,0,0,1,0-.07h.07V34c.15.4.31.79.46,1.2Z"/><path class="cls-8" d="M22.94,50.43v.12a.15.15,0,0,1-.06.09l-.12.08-1.26.6h-.11a.45.45,0,0,1-.28,0l-.22-.06a.07.07,0,0,1,0-.09l.08-.08,1-.81a.47.47,0,0,1,.34-.12h.63a.49.49,0,0,1,0,.17"/><path class="cls-8" d="M64.23,80.49a1.31,1.31,0,0,1,0-.28.1.1,0,0,1,.07-.08,1.14,1.14,0,0,1,.45,0,.31.31,0,0,1,.13.06l.66.6a.28.28,0,0,1,.07.17v.32a.11.11,0,0,1-.11.11A.9.9,0,0,1,65,81.3a.31.31,0,0,1-.13-.06l-.6-.36a.13.13,0,0,1-.08-.12,1.13,1.13,0,0,1,0-.26Z"/><path class="cls-8" d="M60.84,80.44h-.26a.32.32,0,0,1-.21-.08l-.55-.49a.22.22,0,0,1-.1-.2V79.5a.13.13,0,0,1,.12-.11h.57a.23.23,0,0,1,.16.06l.61.46a.28.28,0,0,1,.08.15v.08c0,.27,0,.33-.3.31Z"/><path class="cls-8" d="M55,50.07a.54.54,0,0,1,0-.18.25.25,0,0,1,.24-.17h.1a.51.51,0,0,1,.23.12,1.57,1.57,0,0,1,.55,1,.45.45,0,0,1,0,.28.23.23,0,0,1-.27.14.42.42,0,0,1-.26-.12l-.22-.22a1.4,1.4,0,0,1-.32-.63.74.74,0,0,1,0-.21"/><path class="cls-8" d="M60.54,78.85h-.6a.32.32,0,0,1-.23-.09l-.55-.5v-.05a0,0,0,0,1,0-.07,0,0,0,0,1,0,0,.21.21,0,0,1,.11,0h1.11a.46.46,0,0,1,.16.07c.23.19.45.36.67.56h0a.06.06,0,0,1,0,.08h-.1Z"/><path class="cls-8" d="M62.43,79.46h.42a.41.41,0,0,1,.22,0l.62.42.06.08a.58.58,0,0,1,0,.32s0,.09-.09.09H63l-.15-.08-1-.66h0v-.07h.58"/><path class="cls-8" d="M62.21,78.05h.37a.32.32,0,0,1,.19.07h0l.84.74v.08h-.06a7.37,7.37,0,0,1-.94,0,.33.33,0,0,1-.21-.09c-.23-.24-.48-.47-.71-.7v-.08h.45Z"/><path class="cls-8" d="M63.28,32.9v-.48a.43.43,0,0,1,.06-.27l.28-.53a.47.47,0,0,1,.09-.12m.08,0A4.09,4.09,0,0,1,64,32a.67.67,0,0,1,0,.2,1.5,1.5,0,0,0,0,.3,1.12,1.12,0,0,1-.06.45c-.06.14,0,.1,0,.15a.33.33,0,0,1-.14.24l-.32.24h-.09v-.11a4.51,4.51,0,0,1,0-.52"/><path class="cls-8" d="M20.2,54c0-.31,0-.27.2-.47l.3-.28a.25.25,0,0,1,.16-.06,1.6,1.6,0,0,1,.53.06.16.16,0,0,1,.11.1,1,1,0,0,1,.06.34.14.14,0,0,1,0,.09.45.45,0,0,1-.14.1,3.14,3.14,0,0,0-.39.24,1.13,1.13,0,0,1-.69.17.09.09,0,0,1-.09-.09,1.29,1.29,0,0,1,0-.2"/><path class="cls-8" d="M49.79,71v.28a.09.09,0,0,1-.07,0h0a.23.23,0,0,1-.07-.07L49.39,71c-.25-.4-.46-.83-.68-1.25a.22.22,0,0,1,0-.22.52.52,0,0,1,.18-.18.11.11,0,0,1,.11,0h.06A2.17,2.17,0,0,1,49.79,71"/><path class="cls-8" d="M43.81,63.87a.61.61,0,0,1-.19,0,1.51,1.51,0,0,1-.6-.46h0a.11.11,0,0,1,0-.08h.07l.84-.26a.22.22,0,0,1,.2-.07l.4.42a.13.13,0,0,1,0,.18l0,0-.29.18a.68.68,0,0,1-.4.07"/><path class="cls-8" d="M20.22,51.82h.37a.13.13,0,0,1,.13.12v.54a.11.11,0,0,1-.1.12H19.47a.23.23,0,0,1-.15-.15v-.07a.17.17,0,0,1,0-.1h0l.42-.3h.42"/><path class="cls-8" d="M18.69,53.83h-.17a.16.16,0,0,1-.13-.11v-.08c0-.27,0-.29.24-.43l.45-.25a.42.42,0,0,1,.22-.05l.49.08a.36.36,0,0,1,.06.11,1.14,1.14,0,0,1-.06.25.24.24,0,0,1-.13.15l-.46.23a.74.74,0,0,1-.36.09h-.15Z"/><path class="cls-8" d="M62.35,37.84v-.42a.23.23,0,0,1,.08-.18c.15-.11.3-.2.44-.31A.11.11,0,0,1,63,37s0,0,0,0v.09a5.57,5.57,0,0,1,0,1,.9.9,0,0,1-.06.22.37.37,0,0,1-.43.25.15.15,0,0,1-.13-.13v-.58"/><path class="cls-8" d="M60.47,82.84h-.22a.27.27,0,0,1-.23-.12l-.24-.34-.2-.29V82a.07.07,0,0,1,0-.09h.23a.17.17,0,0,0,.15-.12.62.62,0,0,1,.07-.19.07.07,0,0,1,.1,0h0l.05.06c.19.32.36.64.54,1l.06.13s0,.11-.1.11Z"/><path class="cls-8" d="M55.27,57.43h.15a.32.32,0,0,1,.23.19.5.5,0,0,1,0,.34.55.55,0,0,1-.25.27,1.06,1.06,0,0,1-.55.12h-.08c-.16-.05-.2-.12-.18-.25a.8.8,0,0,1,.07-.34.34.34,0,0,1,.1-.16.9.9,0,0,1,.53-.17"/><path class="cls-8" d="M62.36,36.23v.1H62.3a1.7,1.7,0,0,1-.42-.64.73.73,0,0,1,0-.36,3.82,3.82,0,0,1,.24-.94v-.06h0l.06.31a6.78,6.78,0,0,0,.1.88,4.46,4.46,0,0,0,.07.69"/><path class="cls-8" d="M61.73,37.43v.77h-.1v-.06a4.4,4.4,0,0,1-.4-.85V37.1a.36.36,0,0,1,.1-.34.74.74,0,0,1,.33-.22.1.1,0,0,1,.13.05.06.06,0,0,1,0,0,.89.89,0,0,1,0,.23v.56Z"/><path class="cls-8" d="M45.24,64.72a1,1,0,0,1-.72-.3l-.06-.09v-.1h.06L45,64a.15.15,0,0,1,.16,0l.09.07.37.26a.08.08,0,0,1,.07.06.09.09,0,0,1,0,.13h0a.63.63,0,0,1-.41.19Z"/><path class="cls-8" d="M63.52,36v.07a.59.59,0,0,1-.24.23h0v-.07c-.12-.32-.22-.64-.33-1a.15.15,0,0,1,0-.16,3.38,3.38,0,0,1,.24-.41h.07c.1.39.19.78.29,1.16V36"/><path class="cls-8" d="M46.19,65.7a.4.4,0,0,1-.24-.07.23.23,0,0,1-.1-.22.83.83,0,0,1,.06-.21,1.35,1.35,0,0,1,.33-.38.09.09,0,0,1,.13,0h0l.49.29a.1.1,0,0,1,0,.14h0a1.31,1.31,0,0,1-.42.39.63.63,0,0,1-.27.06"/><path class="cls-8" d="M41.46,57.41v.11a.09.09,0,0,1-.1.08h0a1.11,1.11,0,0,1-.47-.17.61.61,0,0,1-.26-.31.31.31,0,0,1,.19-.38h0a.79.79,0,0,1,.48,0,.15.15,0,0,1,.1.12l.06.52Z"/><path class="cls-8" d="M54.82,50.94v.11a.28.28,0,0,1-.24.18.43.43,0,0,1-.22-.06.57.57,0,0,1-.27-.45.3.3,0,0,1,.08-.24.28.28,0,0,1,.32-.07.54.54,0,0,1,.35.53"/><path class="cls-8" d="M43,48.52h-.11a.17.17,0,0,1-.09-.16v-.11a.88.88,0,0,1,.62-.4h.09a.17.17,0,0,1,.15.19.06.06,0,0,1,0,0,.9.9,0,0,1-.7.47"/><path class="cls-8" d="M40.75,52.82s-.07.12-.12.11h-.12a1.24,1.24,0,0,1-.54-.67.33.33,0,0,1,0-.14.12.12,0,0,1,.14-.12h.11a1.28,1.28,0,0,1,.57.74v.06"/><path class="cls-7" d="M49,56.18v.48a.16.16,0,0,0,.12.15,1.47,1.47,0,0,1,.28.14c.12.09.24.15.36.23a4.42,4.42,0,0,0,.69.34l.22.07a1.3,1.3,0,0,0,1,0,2.68,2.68,0,0,0,.69-.41l.23-.16a.21.21,0,0,1,.31,0,.23.23,0,0,1,0,.31l-.06.09a2.93,2.93,0,0,1-1.35.73,1.63,1.63,0,0,1-.76,0,2.75,2.75,0,0,1-.88-.33c-.19-.09-.39-.22-.58-.32a.15.15,0,0,1-.12-.07c0-.07-.09,0-.09,0a2.12,2.12,0,0,0,0,.71.72.72,0,0,0,.13.28l.22.33a5.09,5.09,0,0,1,.3.5,1.14,1.14,0,0,1,.06.45.52.52,0,0,1-.31.44.72.72,0,0,1-.25.07,1.21,1.21,0,0,0-.55.22l-.2.12a.75.75,0,0,1-.71,0l-.23-.12a1.08,1.08,0,0,0-.42-.16h-.37a.62.62,0,0,1-.54-.68.58.58,0,0,1,.07-.21,1.46,1.46,0,0,1,.4-.49.31.31,0,0,1,.19,0,.25.25,0,0,1,.23.25.28.28,0,0,1,0,.12.61.61,0,0,1-.12.16.73.73,0,0,0-.16.23.09.09,0,0,0,0,.12H47a1.87,1.87,0,0,1,.73.25h.07a.32.32,0,0,0,.37,0l.23-.12a1.16,1.16,0,0,1,.47-.2h.17a.13.13,0,0,0,.1-.17h0a2,2,0,0,0-.13-.25c-.1-.17-.21-.33-.32-.5l-.14-.22a.84.84,0,0,1-.14-.41V55.59a1.08,1.08,0,0,1,.24-.57,2.49,2.49,0,0,1,.88-.7A3.09,3.09,0,0,1,50.91,54a3.47,3.47,0,0,1,1.69.45,2.11,2.11,0,0,1,.31.21A.33.33,0,0,1,53,55a.24.24,0,0,1-.29.18h0l-.2-.1a2.6,2.6,0,0,0-1-.42,2.93,2.93,0,0,0-1.25,0,2.17,2.17,0,0,0-1,.56.3.3,0,0,1-.08.08.66.66,0,0,0-.17.44v.48Z"/><path class="cls-7" d="M45.13,55.49a1.27,1.27,0,0,1,.47.09,4.75,4.75,0,0,1,1,.52h.06a.27.27,0,0,1,0,.36l-.12.09a3.7,3.7,0,0,1-1.11.45A1,1,0,0,1,45,57a2.41,2.41,0,0,1-.65-.24l-.62-.4a.4.4,0,0,1-.12-.1.25.25,0,0,1,0-.35l0,0,.18-.08a6.33,6.33,0,0,1,.94-.28h.33"/><path class="cls-7" d="M51.13,57.1a1.82,1.82,0,0,1-.52-.08,4,4,0,0,1-1-.41h-.07a.26.26,0,0,1-.06-.36l.06-.06.1-.06a3.31,3.31,0,0,1,1.17-.43,1.78,1.78,0,0,1,.65,0,3.16,3.16,0,0,1,.89.32l.17.1a.27.27,0,0,1,0,.37l-.1.1a3,3,0,0,1-1.11.51h-.26"/><path class="cls-7" d="M45,54.08a3.33,3.33,0,0,1,1.46.34,1.42,1.42,0,0,1,.51.37.47.47,0,0,1,.07.12.23.23,0,0,1-.07.25.27.27,0,0,1-.3,0,.61.61,0,0,1-.16-.12,2.5,2.5,0,0,0-.41-.25,2.57,2.57,0,0,0-.67-.19,2.42,2.42,0,0,0-.76,0,2.37,2.37,0,0,0-1.28.59.62.62,0,0,0-.15.21.34.34,0,0,0,0,.2v.24a.25.25,0,0,1-.45.19.83.83,0,0,1,0-1.07,2,2,0,0,1,.37-.35,2.78,2.78,0,0,1,1.25-.53h.48"/><path class="cls-7" d="M44.87,58.16a2.39,2.39,0,0,1-.74-.16,2,2,0,0,1-.25-.14.26.26,0,0,1-.06-.36.31.31,0,0,1,.11-.09.17.17,0,0,1,.14,0l.24.09a1.91,1.91,0,0,0,.47.12,1.65,1.65,0,0,0,.7-.09,7.18,7.18,0,0,0,.79-.38l.21-.11a.25.25,0,0,1,.33.12.26.26,0,0,1,0,.15.16.16,0,0,1-.06.13.61.61,0,0,1-.16.12,4.84,4.84,0,0,1-1,.48,2.08,2.08,0,0,1-.78.11"/><path class="cls-7" d="M48,62.19a.61.61,0,0,1-.19,0,2.86,2.86,0,0,0-.82-.12h-.43a1.72,1.72,0,0,1-1-.47.1.1,0,0,1,0-.12l0,0a.21.21,0,0,1,.1-.06.08.08,0,0,1,.11,0l.07.09a.91.91,0,0,0,.9.38,2.83,2.83,0,0,0,.58-.11l.2-.06a.45.45,0,0,1,.28,0,1.06,1.06,0,0,0,.56,0,.5.5,0,0,1,.34,0l.53.11a3,3,0,0,0,.6,0,.78.78,0,0,0,.6-.28l.16-.17a.09.09,0,0,1,.1,0,.13.13,0,0,1,0,.18l0,0a1.85,1.85,0,0,1-1.07.44l-.43,0h-.36a1.77,1.77,0,0,0-.46.08.73.73,0,0,1-.36,0"/><path class="cls-7" d="M48.05,63.41a1.93,1.93,0,0,1-.34,0,3.85,3.85,0,0,1-.81-.27.61.61,0,0,1-.18-.09.24.24,0,0,1,.17-.44l.34.1c.2.07.41.12.61.18a.75.75,0,0,0,.42,0l.57-.18.3-.09a.24.24,0,0,1,.27.14.26.26,0,0,1-.08.3l-.12.08a5.62,5.62,0,0,1-.82.27h-.33"/></svg>