<svg xmlns="http://www.w3.org/2000/svg" width="48" height="48" viewBox="0 0 48 48"><defs><style>.a{fill:#fff100;}.b{fill:#ec1b23;}.c{fill:#fff;}</style></defs><path class="a" d="M48,48H0V0Z"/><path class="b" d="M0,0H48V48Z"/><path class="c" d="M183.789,98.775c.237.567-1.293,1.115-1.624,1.527-.391.523-2.11,2.09-2.141,2.571-.1,1.54.762,3,1.409,5.61.582,2.349.805,4.154,1.063,4.689.185.386.914,1.446.828,2.132a1.955,1.955,0,0,1-1.436,1.637,9.824,9.824,0,0,1-2.15-.491,33.317,33.317,0,0,1-6.555-1.429A28.927,28.927,0,0,1,168,111.478l1.932-3.3a37.79,37.79,0,0,1,5.509,1.911,32.34,32.34,0,0,1,4.086,3.162,8.006,8.006,0,0,1-1.753-3.066c-.2-1.076.327-4.863-.276-6.312-.235-.566-1.251-1.595-.993-2.31s1.38-.412,2.126-.866c.4-.246,1.254-1.474,2.325-1.852.855-.3,1.09.091,1.436.037.552-.4,1.215-.55,1.4-.111Z" transform="translate(-142.8 -83.728)"/><path d="M180.747,116.151a5.848,5.848,0,0,1-1.485-.335c-.247-.076-.461-.142-.587-.165l-.35-.051a30.464,30.464,0,0,1-6.243-1.391,28.521,28.521,0,0,1-5.234-3.567.18.18,0,0,1-.039-.228l1.934-3.3a.177.177,0,0,1,.2-.083,38.111,38.111,0,0,1,5.542,1.923,19.426,19.426,0,0,1,2.861,2.1,5.424,5.424,0,0,1-.785-1.8,13.052,13.052,0,0,1-.018-2.125,12.847,12.847,0,0,0-.246-4.151,4.385,4.385,0,0,0-.362-.6c-.376-.562-.846-1.261-.636-1.842.186-.521.72-.6,1.234-.683a2.642,2.642,0,0,0,.968-.278,3.481,3.481,0,0,0,.495-.463,5.308,5.308,0,0,1,1.863-1.4,1.611,1.611,0,0,1,1.2-.022.781.781,0,0,0,.228.054h0a1.589,1.589,0,0,1,1.233-.355.6.6,0,0,1,.4.351h0c.212.51-.45.912-1.031,1.269a2.991,2.991,0,0,0-.621.44c-.134.18-.414.472-.74.813a7.25,7.25,0,0,0-1.36,1.65,8.158,8.158,0,0,0,.639,3.01c.243.728.518,1.553.764,2.55.274,1.1.468,2.087.624,2.875a10.928,10.928,0,0,0,.427,1.779c.036.075.1.184.17.312a3.711,3.711,0,0,1,.675,1.92,2.14,2.14,0,0,1-1.595,1.793,1.149,1.149,0,0,1-.128,0ZM167.2,110.464a28.1,28.1,0,0,0,5.023,3.414,30.4,30.4,0,0,0,6.15,1.367c.178.024.3.042.361.052a6.087,6.087,0,0,1,.632.175,4.865,4.865,0,0,0,1.467.314,1.778,1.778,0,0,0,1.278-1.48,3.609,3.609,0,0,0-.63-1.7c-.076-.132-.141-.246-.183-.333a9.678,9.678,0,0,1-.45-1.866c-.15-.785-.35-1.763-.621-2.858-.242-.978-.514-1.8-.75-2.517a8.414,8.414,0,0,1-.657-3.15c.022-.36.592-.98,1.46-1.884.3-.318.591-.618.717-.785a2.931,2.931,0,0,1,.717-.527c.39-.238.98-.6.885-.822h0a.234.234,0,0,0-.162-.15,1.339,1.339,0,0,0-.964.33.2.2,0,0,1-.078.031.9.9,0,0,1-.438-.064,1.268,1.268,0,0,0-.966.019,5.042,5.042,0,0,0-1.725,1.317,3.46,3.46,0,0,1-.567.519,2.943,2.943,0,0,1-1.1.325c-.519.081-.843.15-.951.45-.15.41.264,1.024.6,1.52a4.393,4.393,0,0,1,.395.66,12.92,12.92,0,0,1,.274,4.3,12.871,12.871,0,0,0,.012,2.048,7.833,7.833,0,0,0,1.71,2.978.18.18,0,0,1-.252.257,31.815,31.815,0,0,0-4.05-3.135,36.592,36.592,0,0,0-5.345-1.865Z" transform="translate(-141.768 -82.753)"/><path class="c" d="M70.379,170.66c-.816-.113-.166-1.557-.358-2.049a14.6,14.6,0,0,0-1.292-2.7c-1.068-1.117-3.085-.9-5.679-1.65-2.334-.672-4.014-1.382-4.608-1.426a5.508,5.508,0,0,1-2.338-.5,1.947,1.947,0,0,1-.705-2.057c.222-.513,1.229-1.284,1.5-1.608a27.465,27.465,0,0,1,4.916-4.512c1.764-1.158,7.015-2.576,7.015-2.576l1.1,3.715a26.033,26.033,0,0,1-4.031,2.825,37.26,37.26,0,0,1-6.177,2.223,8.173,8.173,0,0,1,3.68-.075c1.035.367,4.066,2.714,5.627,2.917.61.081,2.013-.282,2.507.3s-.332,1.4-.311,2.266c.012.473.75,1.391.543,2.5-.165.889-.725,1.138-.849,1.464-.081.414-.255.986-.534.948Z" transform="translate(-47.018 -128.843)"/><path d="M69.412,169.865a.344.344,0,0,1-.056,0h0c-.7-.1-.6-.885-.523-1.461a1.914,1.914,0,0,0,.021-.7c-.05-.1-.131-.3-.233-.557a9.3,9.3,0,0,0-1.021-2.08,5.205,5.205,0,0,0-2.961-1.05A21.782,21.782,0,0,1,62,163.464c-1.1-.316-2.048-.639-2.811-.9a11.219,11.219,0,0,0-1.763-.522l-.15-.009a5.085,5.085,0,0,1-2.288-.528,2.14,2.14,0,0,1-.762-2.272A4.876,4.876,0,0,1,55.321,158c.191-.176.354-.326.437-.423a28.025,28.025,0,0,1,4.95-4.547c1.769-1.161,6.852-2.542,7.068-2.6a.18.18,0,0,1,.219.123l1.1,3.715a.182.182,0,0,1-.055.188,26.649,26.649,0,0,1-4.063,2.85,27.033,27.033,0,0,1-4.074,1.594,4.583,4.583,0,0,1,1.553.21,13.406,13.406,0,0,1,1.857,1.05,12.893,12.893,0,0,0,3.732,1.861,4.179,4.179,0,0,0,.7-.012c.676-.043,1.518-.1,1.919.372.358.421.163.923-.024,1.407a2.635,2.635,0,0,0-.243.972,2.116,2.116,0,0,0,.189.572,3.415,3.415,0,0,1,.351,1.968,2.289,2.289,0,0,1-.648,1.219,1.223,1.223,0,0,0-.205.266C69.937,169.5,69.712,169.865,69.412,169.865Zm0-.36c.042,0,.21-.174.333-.8a.114.114,0,0,1,.009-.03,1.309,1.309,0,0,1,.279-.39,1.964,1.964,0,0,0,.561-1.042,3.076,3.076,0,0,0-.33-1.766,2.2,2.2,0,0,1-.216-.7,2.952,2.952,0,0,1,.267-1.11c.189-.488.3-.8.086-1.05-.282-.333-1.025-.283-1.62-.244a4.482,4.482,0,0,1-.771.009,13,13,0,0,1-3.876-1.913,13.051,13.051,0,0,0-1.788-1.014,8.06,8.06,0,0,0-3.576.079.18.18,0,0,1-.089-.348,37.321,37.321,0,0,0,6.138-2.193,25.585,25.585,0,0,0,3.91-2.727l-1.012-3.435c-.913.255-5.25,1.5-6.793,2.508a27.812,27.812,0,0,0-4.892,4.479,6.15,6.15,0,0,1-.47.457,4.831,4.831,0,0,0-1,1.107,1.77,1.77,0,0,0,.648,1.842,4.909,4.909,0,0,0,2.1.45l.15.011a10.514,10.514,0,0,1,1.849.54c.761.258,1.707.581,2.795.9a21.6,21.6,0,0,0,2.6.543c1.368.225,2.448.4,3.165,1.152a9.1,9.1,0,0,1,1.1,2.194c.094.239.178.45.228.546a1.889,1.889,0,0,1,0,.891c-.091.7-.082,1.017.215,1.05Z" transform="translate(-46.012 -127.865)"/><path class="c" d="M53.1,49.211c.45-.462.957.257,1.95.788a7.741,7.741,0,0,0,4.086.276c1.329-.793,2.2-2.077,4.143-3.94a48.11,48.11,0,0,0,3.438-3.376c.241-.351.759-1.361,1.4-1.631a1.985,1.985,0,0,1,2.146.431,10.964,10.964,0,0,1,.948,2.027,20.311,20.311,0,0,1,1.392,5.35,25.219,25.219,0,0,1-.7,7.383l-4.428-.3a27.63,27.63,0,0,1-.348-5.451c.15-.949,1.285-5.27,1.285-5.27a11.6,11.6,0,0,1-2.148,3.471c-.837.708-4.392,1.931-5.349,3.174-.375.488-.669,1.791-1.581,1.9a2.606,2.606,0,0,1-2.43-1.458,9.922,9.922,0,0,1-2.264-.854,1.393,1.393,0,0,1-.774-1.292c-.45-.2-1.1-.882-.764-1.229Z" transform="translate(-45.062 -35.008)"/><path d="M70.826,55.684h-.012l-4.428-.3a.178.178,0,0,1-.166-.15,27.4,27.4,0,0,1-.348-5.507c.093-.557.506-2.223.84-3.539A7.243,7.243,0,0,1,65.3,48.1,11.244,11.244,0,0,1,63.4,49.139a11.441,11.441,0,0,0-3.417,2.1,3.474,3.474,0,0,0-.3.54c-.292.6-.655,1.34-1.4,1.431a2.788,2.788,0,0,1-2.561-1.478,10.145,10.145,0,0,1-2.241-.853,1.568,1.568,0,0,1-.867-1.34,1.787,1.787,0,0,1-.846-.989.515.515,0,0,1,.132-.476h0c.411-.426.856-.114,1.371.248a7.8,7.8,0,0,0,.794.507,7.662,7.662,0,0,0,3.91.279,11.113,11.113,0,0,0,2.319-2.086c.5-.535,1.072-1.143,1.791-1.83.48-.459.93-.882,1.336-1.266a22.579,22.579,0,0,0,2.076-2.077c.043-.063.1-.15.15-.246a3.651,3.651,0,0,1,1.321-1.447,2.148,2.148,0,0,1,2.354.479,11.8,11.8,0,0,1,.972,2.071c.015.042.039.1.071.18A20.159,20.159,0,0,1,71.7,48.1a25.622,25.622,0,0,1-.7,7.446A.179.179,0,0,1,70.826,55.684Zm-4.272-.646,4.134.278a24.7,24.7,0,0,0,.657-7.175,19.809,19.809,0,0,0-1.311-5.121c-.032-.081-.057-.15-.072-.187a10.874,10.874,0,0,0-.923-1.981,1.762,1.762,0,0,0-1.927-.361,3.375,3.375,0,0,0-1.153,1.305c-.064.1-.12.195-.167.261a21.925,21.925,0,0,1-2.125,2.136c-.4.382-.855.806-1.333,1.263-.711.681-1.278,1.284-1.778,1.817a11.469,11.469,0,0,1-2.4,2.149,7.667,7.667,0,0,1-4.268-.271,7.662,7.662,0,0,1-.831-.53c-.565-.4-.732-.472-.9-.3h0a.162.162,0,0,0-.036.15,1.47,1.47,0,0,0,.75.781.182.182,0,0,1,.106.17,1.223,1.223,0,0,0,.68,1.129,9.663,9.663,0,0,0,2.212.849.178.178,0,0,1,.106.074c.728,1.05,1.425,1.482,2.261,1.38.554-.066.855-.684,1.122-1.23a3.76,3.76,0,0,1,.336-.6,11.2,11.2,0,0,1,3.548-2.209,11.522,11.522,0,0,0,1.83-.992,11.624,11.624,0,0,0,2.1-3.4.18.18,0,0,1,.341.114c-.012.042-1.127,4.323-1.283,5.25A26.029,26.029,0,0,0,66.554,55.037ZM52.026,48.2Z" transform="translate(-43.988 -33.998)"/><path class="c" d="M178.215,142.221a4.49,4.49,0,0,0,1.031,2.769s.542-.615.912-.615c.432,0,3.2,1.431,3.7,1.34.192-.036-.276-2.075-.672-3.137a4.187,4.187,0,0,0-1.851-2.319,3.234,3.234,0,0,0-2.319.037,2.684,2.684,0,0,0-.8,1.924Z" transform="translate(-151.482 -119.052)"/><path d="M182.96,145.023a8.707,8.707,0,0,1-2.184-.779,9.293,9.293,0,0,0-1.468-.564c-.221,0-.6.346-.8.564a.15.15,0,0,1-.113.051h0a.15.15,0,0,1-.113-.051,4.6,4.6,0,0,1-1.068-2.871,2.786,2.786,0,0,1,.868-2.048,3.373,3.373,0,0,1,2.463-.048,4.283,4.283,0,0,1,1.929,2.4,9.714,9.714,0,0,1,.687,3.243.187.187,0,0,1-.128.093A.39.39,0,0,1,182.96,145.023Zm-3.652-1.65a7.146,7.146,0,0,1,1.587.588,11.987,11.987,0,0,0,2.01.75,13.1,13.1,0,0,0-.71-2.936,4.031,4.031,0,0,0-1.771-2.236,3.139,3.139,0,0,0-2.175.025,2.5,2.5,0,0,0-.734,1.8h0a4.268,4.268,0,0,0,.891,2.536,1.674,1.674,0,0,1,.9-.521Zm-1.943-2Z" transform="translate(-150.632 -118.208)"/><path class="c" d="M112.187,141.859a6.329,6.329,0,0,1-.988,2.841s-.582-.687-.954-.687c-.432,0-3.343,1.559-3.841,1.465-.192-.035.417-2.2.814-3.262a4.178,4.178,0,0,1,1.85-2.319,3.241,3.241,0,0,1,2.319.036A2.641,2.641,0,0,1,112.187,141.859Z" transform="translate(-90.412 -118.744)"/><path d="M105.6,144.83a.5.5,0,0,1-.071,0,.183.183,0,0,1-.124-.092c-.036-.064-.113-.2.216-1.432.179-.666.417-1.428.609-1.94a4.246,4.246,0,0,1,1.929-2.4,3.34,3.34,0,0,1,2.465.049,2.722,2.722,0,0,1,.867,2.049h0a6.4,6.4,0,0,1-1.012,2.925.15.15,0,0,1-.24.015c-.224-.264-.632-.634-.84-.634a10,10,0,0,0-1.532.618A9.119,9.119,0,0,1,105.6,144.83Zm3.846-5.784a3.283,3.283,0,0,0-1.164.185,4,4,0,0,0-1.771,2.235,17.449,17.449,0,0,0-.841,3.062,13.611,13.611,0,0,0,2.075-.822,7.333,7.333,0,0,1,1.65-.645c.323,0,.717.363.932.588a5.793,5.793,0,0,0,.861-2.592h0a2.476,2.476,0,0,0-.733-1.8A1.936,1.936,0,0,0,109.447,139.046Z" transform="translate(-89.566 -117.941)"/><path d="M56.472,75.6a9.917,9.917,0,0,0-2.495,1c.128-.507.7-1.014.828-1.521a3.973,3.973,0,0,0-1.546.569,18.161,18.161,0,0,0-1.05,2.109c-.15-.348.07-.876-.194-.633a5.923,5.923,0,0,1-1.611,1.34c.073-.285.5-.945.285-.871-.128.094-1.219.728-1.326.843-.129-.238.258-.627-.018-.669-.127.086-1.318.546-1.435.651-.17-.126.528-.615.358-.743a6.131,6.131,0,0,1-1.35.43c-.1-.016.45-.415.138-.421a6.514,6.514,0,0,1-1.306,0c.37-.212,1.93-.735,2.11-1.115.117-.17-.766-.242-.84-.389a8.018,8.018,0,0,1,1.435-.477.705.705,0,0,0,.137-.279,4.72,4.72,0,0,0-1.224-.083,9.289,9.289,0,0,1,2.283-.715,2.9,2.9,0,0,0-1.2-.3,2.935,2.935,0,0,1,1.25-.093A11.094,11.094,0,0,0,51.02,74.2a9.272,9.272,0,0,0-1.032-.357c1.375-.232,2.071.716,3.561.563a1.95,1.95,0,0,1-.991-1.12,11.687,11.687,0,0,0,3.625.247c.615.01,1.8.326,2.421.357a2.063,2.063,0,0,1,2.218-1.641,1.7,1.7,0,0,1,2.494-.513c1-.88,1.542.15,1.95.15a2.3,2.3,0,0,1,2.352,1.563,4.8,4.8,0,0,0,.57-.972,2.207,2.207,0,0,1,.461-.533,2.089,2.089,0,0,1,.1-.779,1.938,1.938,0,0,0,.15-.75c-.15-.247-.414-.5-.378-.843a3.727,3.727,0,0,1-.552-1.523,6.823,6.823,0,0,1,.111-1.971c.082.367.216.565.258.513.09-.114.018-1.288.118-1.5.1.248.318.5.4.321a14.221,14.221,0,0,0,.111-1.541c.032,0,.1,1.184.358,1.394a2.105,2.105,0,0,1,.249-1.173c.082.15.15.486.276.56a6.594,6.594,0,0,0,.377-1.681,4.123,4.123,0,0,1,.231,1.65,2.113,2.113,0,0,1,.4.981,1.8,1.8,0,0,0,.358-.934c.276,1.128-.109,2.181.082,2.31a1.4,1.4,0,0,0,.45-.816,3.955,3.955,0,0,1-.212,2.118.759.759,0,0,0,.422-.2,2.208,2.208,0,0,1-1.224,1.559c-.15.669-.474.555-.792.936a4.51,4.51,0,0,1-.276,1.815,17.994,17.994,0,0,0,2.376-2.466,5.878,5.878,0,0,1-.8,2.337,6.12,6.12,0,0,1-.968,1.21,4.979,4.979,0,0,1-1.827,1.224c-.814.522-.007,1.6-.648,2.282a1.35,1.35,0,0,1-1.456.373,2.193,2.193,0,0,0,.883,1.623c-.165,2.159-1.813,3-2.61,3.548a1.44,1.44,0,0,1,.15.8c-.086.274-.1.185-.08.47a2.289,2.289,0,0,0,.849,1.152L65,84.87a1.087,1.087,0,0,0,.69.675,8.941,8.941,0,0,1,1.878.737c-.487.264-1.35-.032-1.8.276a2.152,2.152,0,0,0,1.05.688,5.276,5.276,0,0,0,1.569.15,5.25,5.25,0,0,1,1.063.182,5.4,5.4,0,0,1,1.767,1.05c-.15-.01-.561-.032-.71-.042.222.3,1.526.738,1.76,1.023-.378.091-.671.237-.4.459.232.115.75.267.975.393-.2-.052-.813.036-1.015,0a9.416,9.416,0,0,0,1.66.621,3.329,3.329,0,0,1-1.446-.046,6.5,6.5,0,0,0,.581.624,4.65,4.65,0,0,1-1.482-.56,2.517,2.517,0,0,0,.45.77,4.9,4.9,0,0,1-1.713-.723c-.159.063.174.541.258.669a6.957,6.957,0,0,1-1.35-.807,3.026,3.026,0,0,1,.055.743c-.45-.678-2.107-1.191-2.25-2.374A1.254,1.254,0,0,1,66,88.591a.976.976,0,0,0-.479-.582A7.047,7.047,0,0,1,65.3,89.65a6.287,6.287,0,0,0-1.233-2.392c-.2-.183-.424-.731-.625-.678-.15.032-.363.5-.479.439-.209-.016.166-.66.036-.861-.108-.17-.736.091-.995-.091a5.532,5.532,0,0,1-.1-1.9c.053-.243-.267-.4-.322-.75s.237-.771.12-1.11a3.784,3.784,0,0,1-2.49-3.331,3.71,3.71,0,0,1,.6-1.472,2.052,2.052,0,0,1-1.451-1.581,2.981,2.981,0,0,1-2.733,1.307,3.9,3.9,0,0,1,.87-1.632Z" transform="translate(-38.888 -53.524)"/><path d="M71.255,91.6a5.171,5.171,0,0,1-1.689-.688,1.379,1.379,0,0,0,.275.526l.013.02a.054.054,0,0,1,0,.064.055.055,0,0,1-.06.021,6.315,6.315,0,0,1-1.268-.743l.018.137a1.333,1.333,0,0,1,.02.507.052.052,0,0,1-.046.036.057.057,0,0,1-.053-.024,3.312,3.312,0,0,0-.839-.709c-.616-.425-1.315-.9-1.424-1.664a1.263,1.263,0,0,1-.589-.805.93.93,0,0,0-.372-.5,4.928,4.928,0,0,1-.274,1.6.057.057,0,0,1-.054-.041,6.237,6.237,0,0,0-1.224-2.374,1.7,1.7,0,0,1-.232-.308c-.109-.167-.249-.374-.334-.351-.051.012-.138.128-.2.212-.109.15-.205.273-.3.229a.118.118,0,0,1-.078-.048c-.056-.078-.015-.222.035-.4.043-.159.1-.359.049-.435-.035-.052-.217-.033-.366-.017a.952.952,0,0,1-.613-.06.054.054,0,0,1-.022-.031,5.4,5.4,0,0,1-.1-1.916c.022-.111-.042-.2-.123-.315a.979.979,0,0,1-.2-.414,1.167,1.167,0,0,1,.069-.546,1.027,1.027,0,0,0,.06-.533,3.835,3.835,0,0,1-2.5-3.368,3.68,3.68,0,0,1,.561-1.446A2.111,2.111,0,0,1,58,75.743a3.066,3.066,0,0,1-2.71,1.224.058.058,0,0,1-.04-.022.057.057,0,0,1-.01-.047,4.239,4.239,0,0,1,.781-1.549,4.837,4.837,0,0,0-1.47.579,7.184,7.184,0,0,1-.861.4.055.055,0,0,1-.074-.066,2.6,2.6,0,0,1,.421-.778,2.865,2.865,0,0,0,.386-.674,4.371,4.371,0,0,0-1.43.554,17.809,17.809,0,0,0-1.038,2.088.057.057,0,0,1-.051.036.056.056,0,0,1-.054-.033,1.167,1.167,0,0,1-.062-.516,1.282,1.282,0,0,0,0-.132.4.4,0,0,0-.042.035c-.081.069-.181.175-.3.3a4.143,4.143,0,0,1-1.327,1.05.057.057,0,0,1-.076-.068,3.032,3.032,0,0,1,.183-.429,3.164,3.164,0,0,0,.15-.355c-.07.045-.222.136-.407.249a10.381,10.381,0,0,0-.875.561.057.057,0,0,1-.048.018.06.06,0,0,1-.044-.03.537.537,0,0,1,.032-.422c.027-.078.058-.166.04-.2a.051.051,0,0,0-.03-.018c-.076.042-.27.124-.562.247a7.862,7.862,0,0,0-.846.385.057.057,0,0,1-.072,0,.119.119,0,0,1-.048-.084c-.012-.1.1-.225.219-.369a1.032,1.032,0,0,0,.191-.267c-.11.036-.253.095-.406.15a2.282,2.282,0,0,1-.924.264.072.072,0,0,1-.057-.045c-.018-.051.024-.1.106-.189a.738.738,0,0,0,.138-.183h-.042c-.208,0-.438.009-.64.021-.4.022-.615.031-.7-.033a.057.057,0,0,1-.022-.048.056.056,0,0,1,.028-.045c.114-.066.334-.158.591-.266.549-.229,1.38-.577,1.5-.825-.016-.047-.246-.106-.384-.143-.255-.067-.414-.112-.45-.2a.056.056,0,0,1,.024-.075,8.273,8.273,0,0,1,1.429-.48v-.01a.44.44,0,0,0,.081-.15.043.043,0,0,1,.01-.033,3.216,3.216,0,0,0-.879-.058,2.711,2.711,0,0,1-.281,0A.055.055,0,0,1,47,75.026a.057.057,0,0,1,.028-.06,9.75,9.75,0,0,1,2.136-.7,3,3,0,0,0-.9-.191l-.13-.013a.057.057,0,0,1-.017-.108,2.8,2.8,0,0,1,1.2-.1h.072a4.639,4.639,0,0,0,.791,0l.254-.018c-.28-.106-.539-.19-.783-.257a.057.057,0,0,1,0-.111,3.294,3.294,0,0,1,1.788.262,4.047,4.047,0,0,0,1.587.313,1.983,1.983,0,0,1-.85-1.063.055.055,0,0,1,.07-.069,7.456,7.456,0,0,0,2.691.255c.327-.012.636-.024.921-.01a9.336,9.336,0,0,1,1.3.186,10.684,10.684,0,0,0,1.08.17,2.1,2.1,0,0,1,2.234-1.638c.813-.972,1.683-1.155,2.52-.531a1.12,1.12,0,0,1,1.576-.02.828.828,0,0,0,.381.188,2.384,2.384,0,0,1,2.375,1.509,2.376,2.376,0,0,0,.343-.588,2.25,2.25,0,0,1,.611-.833c0-.051,0-.1,0-.158a1.472,1.472,0,0,1,.1-.615l.029-.09a1.575,1.575,0,0,0,.117-.622c-.033-.054-.072-.109-.113-.165a1.068,1.068,0,0,1-.268-.683,3.765,3.765,0,0,1-.55-1.531,6.728,6.728,0,0,1,.1-1.935l.007-.049a.054.054,0,0,1,.052-.047h0a.054.054,0,0,1,.054.044,1.338,1.338,0,0,0,.173.45,5.409,5.409,0,0,0,.03-.618,3.048,3.048,0,0,1,.069-.836.057.057,0,0,1,.1,0c.078.19.21.343.269.345,0,0,.012,0,.024-.025a4.91,4.91,0,0,0,.076-.962,4.264,4.264,0,0,1,.03-.565.056.056,0,0,1,.056-.046c.057,0,.06.015.093.268a4.878,4.878,0,0,0,.2.971,2.1,2.1,0,0,1,.273-1,.053.053,0,0,1,.048-.018.056.056,0,0,1,.043.029,1.555,1.555,0,0,1,.089.216,1.413,1.413,0,0,0,.121.277,7.353,7.353,0,0,0,.338-1.587.056.056,0,0,1,.105-.028,4.1,4.1,0,0,1,.238,1.65,2.148,2.148,0,0,1,.37.846,1.588,1.588,0,0,0,.271-.783.056.056,0,0,1,.111-.014,5.1,5.1,0,0,1,.055,1.737,1.95,1.95,0,0,0-.016.506,1.531,1.531,0,0,0,.385-.75.052.052,0,0,1,.059-.042.054.054,0,0,1,.051.049,4.174,4.174,0,0,1-.177,2.054.847.847,0,0,0,.3-.162.056.056,0,0,1,.093.054,2.312,2.312,0,0,1-1.229,1.584.9.9,0,0,1-.476.666,1.267,1.267,0,0,0-.308.249,4.974,4.974,0,0,1-.2,1.589l.071-.063a14.85,14.85,0,0,0,2.121-2.229.057.057,0,0,1,.064-.021.058.058,0,0,1,.037.056,5.813,5.813,0,0,1-.807,2.361,6.178,6.178,0,0,1-.979,1.227,5.032,5.032,0,0,1-1.84,1.233c-.395.258-.375.664-.354,1.1a1.446,1.446,0,0,1-.277,1.174,1.394,1.394,0,0,1-1.443.411,2.133,2.133,0,0,0,.856,1.5.055.055,0,0,1,.021.048,4.319,4.319,0,0,1-2.358,3.407l-.234.15a1.482,1.482,0,0,1,.133.792c-.024.081-.043.131-.057.167-.033.087-.035.093-.021.286a2.282,2.282,0,0,0,.83,1.113.054.054,0,0,1,.015.064.057.057,0,0,1-.058.033l-.424-.051a.949.949,0,0,0,.6.552,9,9,0,0,1,1.9.75.054.054,0,0,1,.028.049.056.056,0,0,1-.03.048,1.9,1.9,0,0,1-.9.129,1.9,1.9,0,0,0-.842.112,2.1,2.1,0,0,0,.978.618,5.109,5.109,0,0,0,1.552.15,5.275,5.275,0,0,1,1.086.184,4.819,4.819,0,0,1,1.586.911c.063.049.128.1.2.15a.057.057,0,0,1,.018.064.059.059,0,0,1-.057.037l-.352-.022-.2-.011a5.893,5.893,0,0,0,.771.411,3.384,3.384,0,0,1,.878.51.059.059,0,0,1,.009.054.055.055,0,0,1-.039.036c-.393.1-.45.192-.464.23s.037.1.081.132c.092.043.252.1.422.164a4.105,4.105,0,0,1,.546.225.057.057,0,0,1,.024.071.056.056,0,0,1-.066.033,2.391,2.391,0,0,0-.519,0c-.086,0-.171.009-.248.011a8.46,8.46,0,0,0,1.02.365c.15.048.3.093.423.135a.057.057,0,0,1,.037.056.056.056,0,0,1-.041.052,3.5,3.5,0,0,1-1.3,0,5.279,5.279,0,0,0,.45.479.055.055,0,0,1,.014.066.06.06,0,0,1-.06.031,4.776,4.776,0,0,1-1.382-.495,2.971,2.971,0,0,0,.27.423c.047.066.093.132.136.2a.058.058,0,0,1,0,.057.057.057,0,0,1-.048.03Zm-1.705-.837a.059.059,0,0,1,.045.021,5.36,5.36,0,0,0,1.551.69l-.064-.093a1.574,1.574,0,0,1-.327-.6.059.059,0,0,1,.087-.051,4.734,4.734,0,0,0,1.274.514c-.15-.15-.27-.291-.426-.472l-.018-.021a.057.057,0,0,1,0-.07.059.059,0,0,1,.069-.018,3.41,3.41,0,0,0,1.2.082l-.213-.067a5.56,5.56,0,0,1-1.251-.492.056.056,0,0,1,.042-.1,2.473,2.473,0,0,0,.465,0l.238-.01-.255-.094a4.743,4.743,0,0,1-.45-.177c-.108-.089-.15-.171-.129-.252.027-.116.17-.207.45-.285a5.03,5.03,0,0,0-.771-.417,3.154,3.154,0,0,1-.921-.545.054.054,0,0,1,0-.06.057.057,0,0,1,.054-.03l.354.022.171.009-.051-.039a4.746,4.746,0,0,0-1.554-.9,5.133,5.133,0,0,0-1.05-.178,5.25,5.25,0,0,1-1.581-.15,2.226,2.226,0,0,1-1.078-.708.057.057,0,0,1-.011-.043.05.05,0,0,1,.024-.037,1.734,1.734,0,0,1,.959-.164,2.292,2.292,0,0,0,.75-.071,9.038,9.038,0,0,0-1.764-.678,1.131,1.131,0,0,1-.726-.705.053.053,0,0,1,0-.057.054.054,0,0,1,.053-.024l.351.042a2.121,2.121,0,0,1-.732-1.062.58.58,0,0,1,.027-.341c.014-.036.032-.082.054-.157a1.4,1.4,0,0,0-.15-.75.056.056,0,0,1,.018-.072c.084-.059.177-.12.277-.186a4.233,4.233,0,0,0,2.305-3.289,2.223,2.223,0,0,1-.881-1.65.056.056,0,0,1,.021-.048.064.064,0,0,1,.052-.009,1.287,1.287,0,0,0,1.4-.355,1.376,1.376,0,0,0,.247-1.092c-.021-.45-.045-.9.412-1.2h.015a4.887,4.887,0,0,0,1.8-1.212,6.04,6.04,0,0,0,.957-1.2,6.307,6.307,0,0,0,.778-2.119,15.507,15.507,0,0,1-2.022,2.091c-.122.11-.219.195-.239.221a.055.055,0,0,1-.073.013.057.057,0,0,1-.022-.072,4.46,4.46,0,0,0,.271-1.788.047.047,0,0,1,.014-.039,1.364,1.364,0,0,1,.348-.29.8.8,0,0,0,.432-.623.05.05,0,0,1,.033-.039A2.1,2.1,0,0,0,71.538,67.9a.609.609,0,0,1-.34.1.051.051,0,0,1-.033-.03.048.048,0,0,1,0-.045,3.553,3.553,0,0,0,.229-1.8,1.246,1.246,0,0,1-.389.574.057.057,0,0,1-.06,0c-.109-.072-.089-.288-.054-.645a5.529,5.529,0,0,0,.009-1.383,2.346,2.346,0,0,1-.32.638.058.058,0,0,1-.06.024.056.056,0,0,1-.042-.048,2.078,2.078,0,0,0-.385-.955.048.048,0,0,1-.011-.035,5.058,5.058,0,0,0-.138-1.4,6.625,6.625,0,0,1-.368,1.467.057.057,0,0,1-.075.017A.739.739,0,0,1,69.287,64c-.014-.039-.027-.078-.041-.113a2.259,2.259,0,0,0-.185,1.05.055.055,0,0,1-.027.058.054.054,0,0,1-.064,0,1.731,1.731,0,0,1-.3-.889v.013a4.316,4.316,0,0,1-.086,1,.136.136,0,0,1-.127.093h0c-.108,0-.221-.133-.3-.269-.02.165-.024.424-.029.645a1.76,1.76,0,0,1-.067.726.075.075,0,0,1-.078.027c-.073-.017-.15-.15-.207-.313a6.131,6.131,0,0,0-.071,1.7,3.645,3.645,0,0,0,.543,1.5.051.051,0,0,1,.009.036.933.933,0,0,0,.247.626c.044.062.086.121.122.183a.036.036,0,0,1,.007.021,1.575,1.575,0,0,1-.12.682l-.03.093a1.418,1.418,0,0,0-.093.577c0,.066,0,.128,0,.19a.061.061,0,0,1-.019.037,2.151,2.151,0,0,0-.6.809,2.284,2.284,0,0,1-.427.69.055.055,0,0,1-.094-.022,2.264,2.264,0,0,0-2.3-1.522.88.88,0,0,1-.45-.207,1.018,1.018,0,0,0-1.475.042.057.057,0,0,1-.072,0c-1.006-.78-1.869-.15-2.416.506A.063.063,0,0,1,60.5,72a2.006,2.006,0,0,0-2.165,1.6.053.053,0,0,1-.058.042,9.947,9.947,0,0,1-1.14-.173,9.192,9.192,0,0,0-1.278-.184c-.284-.014-.59,0-.915.01a7.757,7.757,0,0,1-2.62-.227,1.921,1.921,0,0,0,.925.982.054.054,0,0,1,.031.06.055.055,0,0,1-.049.046,3.948,3.948,0,0,1-1.826-.3,3.508,3.508,0,0,0-1.459-.288c.244.076.5.17.78.282a.059.059,0,0,1,.035.063.057.057,0,0,1-.054.045c-.213,0-.368.017-.519.027a4.508,4.508,0,0,1-.806.007h-.07a3.989,3.989,0,0,0-.9.015,2.154,2.154,0,0,1,.964.244.056.056,0,0,1,.023.06.059.059,0,0,1-.048.042,9.782,9.782,0,0,0-2.042.6h.022a2.838,2.838,0,0,1,.975.086.054.054,0,0,1,.031.07l-.028.084a.523.523,0,0,1-.095.18l-.021.033a.055.055,0,0,1-.039.024,8.2,8.2,0,0,0-1.338.434,2.571,2.571,0,0,0,.328.1c.267.071.432.118.466.212a.1.1,0,0,1-.014.1c-.13.279-.918.609-1.551.873-.171.072-.326.137-.45.19.126,0,.318,0,.495-.015.2-.012.437-.025.65-.021a.157.157,0,0,1,.15.069c.037.087-.059.193-.159.3l-.044.049a3.652,3.652,0,0,0,.792-.258,4.852,4.852,0,0,1,.465-.173.059.059,0,0,1,.049.009.125.125,0,0,1,.048.084c.011.1-.1.225-.219.369a1.334,1.334,0,0,0-.183.243c.136-.075.417-.195.8-.355.254-.106.516-.217.566-.25a.064.064,0,0,1,.04-.009.168.168,0,0,1,.128.075c.046.076.011.175-.03.293a.709.709,0,0,0-.059.259c.141-.1.45-.293.828-.521.209-.128.39-.237.435-.27l.015-.007a.091.091,0,0,1,.11.018c.059.064,0,.192-.15.51-.048.1-.1.205-.133.292a4.6,4.6,0,0,0,1.173-.972c.12-.126.223-.234.3-.3.056-.049.116-.095.171-.067s.063.118.058.253a1.5,1.5,0,0,0,.009.315,19.313,19.313,0,0,1,.993-1.963.065.065,0,0,1,.016-.018,3.954,3.954,0,0,1,1.584-.577.057.057,0,0,1,.041.024.055.055,0,0,1,0,.047,2.613,2.613,0,0,1-.422.778,3.065,3.065,0,0,0-.372.634c.231-.093.48-.222.741-.357a4.229,4.229,0,0,1,1.662-.6.06.06,0,0,1,.056.036.061.061,0,0,1-.017.064,3.982,3.982,0,0,0-.835,1.536,2.933,2.933,0,0,0,2.616-1.286.056.056,0,0,1,.1.021,2,2,0,0,0,1.411,1.537.054.054,0,0,1,.036.036.057.057,0,0,1,0,.051,3.7,3.7,0,0,0-.583,1.446,3.763,3.763,0,0,0,2.46,3.274.056.056,0,0,1,.027.032,1.063,1.063,0,0,1-.051.621,1.064,1.064,0,0,0-.066.5.865.865,0,0,0,.18.37.5.5,0,0,1,.15.4,5.316,5.316,0,0,0,.094,1.85.978.978,0,0,0,.521.028c.216-.022.4-.042.472.069s.02.326-.036.525c-.027.1-.076.282-.049.309a.105.105,0,0,1,.029.009c.03,0,.12-.123.173-.193.091-.12.177-.234.267-.254.163-.043.3.173.45.4a1.779,1.779,0,0,0,.222.3,6.367,6.367,0,0,1,1.2,2.232,8.832,8.832,0,0,0,.166-1.438.055.055,0,0,1,.026-.046.054.054,0,0,1,.052,0,1.024,1.024,0,0,1,.513.624,1.192,1.192,0,0,0,.566.75.066.066,0,0,1,.024.04c.09.722.774,1.2,1.377,1.611a4.22,4.22,0,0,1,.78.622,2.739,2.739,0,0,0-.036-.324c-.012-.089-.026-.18-.033-.266a.059.059,0,0,1,.027-.056.06.06,0,0,1,.062,0,9.062,9.062,0,0,0,1.176.737c-.132-.209-.24-.414-.206-.528a.12.12,0,0,1,.071-.076Z" transform="translate(-38.573 -53.198)"/><path d="M132.065,160.354h0a.075.075,0,0,1-.068-.082,3.442,3.442,0,0,1,.45-1.391.075.075,0,0,1,.1-.021.076.076,0,0,1,.021.1,3.469,3.469,0,0,0-.421,1.321.074.074,0,0,1-.085.068Z" transform="translate(-112.198 -135.021)"/><path d="M128.271,157.741h-.01a.075.075,0,0,1-.064-.084,5.429,5.429,0,0,1,.639-1.958.075.075,0,1,1,.123.086,5.293,5.293,0,0,0-.613,1.891A.075.075,0,0,1,128.271,157.741Z" transform="translate(-108.966 -132.314)"/><path d="M124.29,155.683h-.01a.075.075,0,0,1-.063-.084,8.47,8.47,0,0,1,.783-2.634.075.075,0,0,1,.1-.022.072.072,0,0,1,.024.1,8.443,8.443,0,0,0-.762,2.574A.077.077,0,0,1,124.29,155.683Z" transform="translate(-105.583 -129.991)"/><path d="M119.255,157.136a.076.076,0,0,1-.075-.073,5.563,5.563,0,0,1,.886-2.819.073.073,0,0,1,.1-.025.075.075,0,0,1,.025.1,5.517,5.517,0,0,0-.864,2.736.075.075,0,0,1-.072.078Z" transform="translate(-101.303 -131.076)"/><path d="M113.466,160.63a.075.075,0,0,1-.075-.067,4.607,4.607,0,0,1,.813-2.65.076.076,0,0,1,.1-.024.075.075,0,0,1,.022.1,4.509,4.509,0,0,0-.789,2.55.076.076,0,0,1-.067.082Z" transform="translate(-96.379 -134.196)"/><path d="M186.951,161.577a.077.077,0,0,1-.075-.069,2.546,2.546,0,0,0-.424-1.188.073.073,0,0,1,.01-.1.075.075,0,0,1,.105.01,2.737,2.737,0,0,1,.459,1.27.077.077,0,0,1-.068.081Z" transform="translate(-158.469 -136.169)"/><path d="M189.911,160.57a.075.075,0,0,1-.074-.059,4.172,4.172,0,0,0-.562-1.416.073.073,0,0,1,.008-.1.072.072,0,0,1,.1.007,4.346,4.346,0,0,1,.6,1.482.073.073,0,0,1-.057.088Z" transform="translate(-160.868 -135.126)"/><path d="M192.964,158.664a.075.075,0,0,1-.074-.066,5.029,5.029,0,0,0-.729-2.005.075.075,0,1,1,.115-.1,5.143,5.143,0,0,1,.762,2.082.075.075,0,0,1-.064.084Z" transform="translate(-163.323 -132.999)"/><path d="M196.127,156.015a.075.075,0,0,1-.075-.072A5.683,5.683,0,0,0,195,153.1a.075.075,0,0,1,.017-.1.076.076,0,0,1,.1.016,5.71,5.71,0,0,1,1.072,2.921.073.073,0,0,1-.072.076Z" transform="translate(-165.74 -130.039)"/><path d="M202.754,158.345h0a.075.075,0,0,1-.075-.075,6.047,6.047,0,0,0-.891-2.925.077.077,0,0,1,.024-.1.073.073,0,0,1,.1.024,6.219,6.219,0,0,1,.913,3,.074.074,0,0,1-.075.08Z" transform="translate(-171.511 -131.945)"/><path class="c" d="M144.11,142.72a2.872,2.872,0,0,1,3.12,2.568c.2,2.97-2.25,4.729-3.111,4.729-.985,0-3.3-1.723-3.093-4.812A2.79,2.79,0,0,1,144.11,142.72Z" transform="translate(-119.861 -121.312)"/><path d="M143.237,149.317a3.088,3.088,0,0,1-1.913-1.08,5.1,5.1,0,0,1-1.33-3.892c.128-1.937,1.821-2.625,3.234-2.625a3.96,3.96,0,0,1,2,.538,2.652,2.652,0,0,1,1.269,2.169,4.974,4.974,0,0,1-1.338,3.75A3.256,3.256,0,0,1,143.237,149.317Zm-.009-7.3c-.465,0-2.788.114-2.934,2.344a4.8,4.8,0,0,0,1.25,3.668,2.779,2.779,0,0,0,1.693.985,2.945,2.945,0,0,0,1.7-1.05,4.65,4.65,0,0,0,1.258-3.525C146.037,142.089,143.514,142.02,143.228,142.02Z" transform="translate(-118.979 -120.462)"/><path d="M168.348,162.352a1.453,1.453,0,0,0-.645-.192,1.435,1.435,0,0,0-.643.221,1.719,1.719,0,0,0,.676.229A1.236,1.236,0,0,0,168.348,162.352Z" transform="translate(-142.001 -137.836)"/><path d="M167.322,162.26a1.791,1.791,0,0,1-.715-.24.077.077,0,0,1,0-.128,1.515,1.515,0,0,1,.684-.233h.012a1.533,1.533,0,0,1,.669.2.08.08,0,0,1,.038.06.075.075,0,0,1-.029.064A1.293,1.293,0,0,1,167.322,162.26Zm-.521-.3a1.362,1.362,0,0,0,.521.15.986.986,0,0,0,.467-.173,1.234,1.234,0,0,0-.488-.128h-.011a1.211,1.211,0,0,0-.489.143Z" transform="translate(-141.586 -137.411)"/><path d="M149.318,161.927a2.25,2.25,0,0,0-.583-.276,2.17,2.17,0,0,0-.705.165,1.676,1.676,0,0,0,.641.321A1.468,1.468,0,0,0,149.318,161.927Z" transform="translate(-125.826 -137.4)"/><path d="M148.292,161.81h-.051a1.84,1.84,0,0,1-.676-.336.075.075,0,0,1,.018-.129,2.09,2.09,0,0,1,.75-.17,2.25,2.25,0,0,1,.613.287.069.069,0,0,1,.035.063.072.072,0,0,1-.036.063A1.536,1.536,0,0,1,148.292,161.81Zm-.522-.376a1.361,1.361,0,0,0,.488.225,1.066,1.066,0,0,0,.49-.139,1.65,1.65,0,0,0-.45-.2A1.542,1.542,0,0,0,147.77,161.434Z" transform="translate(-125.405 -136.996)"/><path d="M156.58,159.51a.43.43,0,0,1-.266-.089.513.513,0,0,0-.138-.069.917.917,0,0,0-.15-.022c-.125-.012-.3-.029-.359-.2-.079-.217.158-.43.206-.473a.12.12,0,0,1,.15.184c-.081.069-.15.171-.135.206s.049.036.158.046a1,1,0,0,1,.189.032.732.732,0,0,1,.2.1.212.212,0,0,0,.135.049.567.567,0,0,0,.15-.079,1.319,1.319,0,0,1,.113-.071.482.482,0,0,1,.2-.053c.09-.01.092-.013.1-.046.015-.061-.132-.275-.193-.366a1.023,1.023,0,0,1-.15-.271,6.864,6.864,0,0,1,0-1.458,1.23,1.23,0,0,1,1.084-.6,1.574,1.574,0,0,1,1.041.318.121.121,0,0,1-.159.182h0a1.35,1.35,0,0,0-.874-.259.993.993,0,0,0-.876.468,8.851,8.851,0,0,0,.018,1.293,1.187,1.187,0,0,0,.12.2c.133.193.271.393.23.561a.3.3,0,0,1-.3.227.322.322,0,0,0-.107.022l-.1.063A.54.54,0,0,1,156.58,159.51Z" transform="translate(-132.304 -132.875)"/><path d="M144.531,157.326a.118.118,0,0,1-.1-.051.465.465,0,0,1-.068-.37,1.2,1.2,0,0,1,1.122-.579,1.286,1.286,0,0,1,.935.348.12.12,0,0,1-.182.158,1.06,1.06,0,0,0-.759-.266,1.009,1.009,0,0,0-.887.411.223.223,0,0,0,.036.162.121.121,0,0,1-.1.188Z" transform="translate(-122.701 -132.876)"/><path d="M165.3,165.792a2.2,2.2,0,0,1-1.02-.437.122.122,0,1,1,.15-.192,1.969,1.969,0,0,0,.876.388,1.19,1.19,0,0,0,.681-.322.119.119,0,0,1,.17,0,.12.12,0,0,1,0,.169A1.446,1.446,0,0,1,165.3,165.792Z" transform="translate(-139.602 -140.367)"/><path d="M148.539,166.332A1.071,1.071,0,0,1,148,166.2a.12.12,0,0,1-.039-.165.121.121,0,0,1,.165-.039.853.853,0,0,0,.415.1,1.7,1.7,0,0,0,.689-.283.12.12,0,0,1,.132.2A1.936,1.936,0,0,1,148.539,166.332Z" transform="translate(-125.75 -140.92)"/><path d="M154.481,179.976a.855.855,0,0,1-.25-.067,5.317,5.317,0,0,1-.585-.038,1,1,0,0,1-.415-.234c-.018-.024.039-.072.064-.09s.072-.018.076.012c.018.109.2.214.3.229a1.786,1.786,0,0,0,.611-.094l.2.047.2-.053a3.071,3.071,0,0,0,.689.092.407.407,0,0,0,.3-.224c.009-.029.054-.027.078-.007s.063.074.044.1a1.105,1.105,0,0,1-.4.217c-.158.038-.522.035-.663.053a.724.724,0,0,1-.246.06Z" transform="translate(-130.243 -152.604)"/><path d="M157.783,184.077a1.966,1.966,0,0,1-.621-.168.113.113,0,0,1-.059-.15.114.114,0,0,1,.15-.059,1.78,1.78,0,0,0,.531.15,1.877,1.877,0,0,0,.493-.15.111.111,0,0,1,.15.059.113.113,0,0,1-.059.15A2.07,2.07,0,0,1,157.783,184.077Z" transform="translate(-133.529 -156.136)"/><path class="c" d="M174.369,125.464c-.092,0-.249-.281-.249-.5a.738.738,0,0,0-.174-.569.714.714,0,0,0-.516-.13c-.174,0-.505.057-.51-.124s.32-.4.652-.4a.948.948,0,0,1,.741.366,1.509,1.509,0,0,1,.217.666C174.54,124.983,174.52,125.457,174.369,125.464Z" transform="translate(-146.982 -105.187)"/><path class="c" d="M174.045,125.172a.15.15,0,0,1-.1-.049.792.792,0,0,1-.2-.5.672.672,0,0,0-.159-.53.649.649,0,0,0-.473-.114h-.078a.658.658,0,0,1-.438-.062.167.167,0,0,1-.054-.122.314.314,0,0,1,.1-.216.9.9,0,0,1,.607-.239,1.007,1.007,0,0,1,.788.392,1.542,1.542,0,0,1,.227.694c0,.075.025.729-.215.741Zm0-.112Zm-.873-1.2a.686.686,0,0,1,.491.15.791.791,0,0,1,.192.609.625.625,0,0,0,.19.438c.06,0,.122-.3.107-.624a1.444,1.444,0,0,0-.206-.634.9.9,0,0,0-.7-.344.789.789,0,0,0-.526.2.211.211,0,0,0-.071.135.054.054,0,0,0,.018.04c.057.052.236.04.354.033h.081Z" transform="translate(-146.659 -104.839)"/><path class="c" d="M135.966,126.432c.029.094-.661.514-.87.66-.324.228-.617.516-.552.9a.611.611,0,0,0,.469.5,1.485,1.485,0,0,0,.632-.029.423.423,0,0,0,.15.254,2.677,2.677,0,0,0,.367.169,2.471,2.471,0,0,1-.994.171,1.031,1.031,0,0,1-1.05-.818,1.487,1.487,0,0,1,.276-1.12,2.2,2.2,0,0,1,.8-.612C135.415,126.417,135.939,126.339,135.966,126.432Z" transform="translate(-113.992 -107.432)"/><path class="c" d="M134.89,128.82h-.105a1.1,1.1,0,0,1-1.11-.87,1.5,1.5,0,0,1,.288-1.16,2.236,2.236,0,0,1,.824-.63,1.624,1.624,0,0,1,.8-.1.09.09,0,0,1,.053.059h0c.027.09-.109.207-.7.6l-.193.129c-.41.286-.578.555-.53.846a.552.552,0,0,0,.428.45,1.434,1.434,0,0,0,.6-.027.059.059,0,0,1,.071.045.361.361,0,0,0,.121.214,2.434,2.434,0,0,0,.357.163.058.058,0,0,1,.037.053.057.057,0,0,1-.035.052A2.536,2.536,0,0,1,134.89,128.82Zm.555-2.673a2.051,2.051,0,0,0-.617.116,2.132,2.132,0,0,0-.777.6,1.428,1.428,0,0,0-.264,1.08.985.985,0,0,0,1,.768,2.444,2.444,0,0,0,.834-.118,1.906,1.906,0,0,1-.242-.12.423.423,0,0,1-.158-.233,1.439,1.439,0,0,1-.6.015.663.663,0,0,1-.512-.545c-.074-.45.3-.759.576-.955.046-.033.115-.078.2-.131a4.784,4.784,0,0,0,.638-.465A.451.451,0,0,0,135.445,126.147Zm.1.015Z" transform="translate(-113.614 -107.133)"/><ellipse class="c" cx="0.255" cy="0.12" rx="0.255" ry="0.12" transform="translate(21.631 20.619) rotate(-32.9)"/><path class="c" d="M144.351,136.126a.15.15,0,0,1-.128-.059.131.131,0,0,1-.015-.1.388.388,0,0,1,.18-.219c.15-.1.3-.107.357-.021a.123.123,0,0,1,.017.1.4.4,0,0,1-.18.217h0A.439.439,0,0,1,144.351,136.126Zm.258-.34a.313.313,0,0,0-.159.059.3.3,0,0,0-.132.15c.009.027.094.029.2-.04h0a.3.3,0,0,0,.132-.15C144.648,135.793,144.633,135.785,144.609,135.785Zm-.059.213Z" transform="translate(-122.574 -115.319)"/><path class="c" d="M149.817,131.9a2.039,2.039,0,0,0-.883.165c-.192.15-.234.274-.193.37s.188.186.477.069A1.631,1.631,0,0,0,149.817,131.9Z" transform="translate(-126.417 -112.115)"/><path class="c" d="M148.672,132.335a.285.285,0,0,1-.281-.15c-.034-.079-.051-.24.212-.438a2.079,2.079,0,0,1,.918-.177.058.058,0,0,1,.048.029.06.06,0,0,1,0,.055,1.655,1.655,0,0,1-.628.63A.724.724,0,0,1,148.672,132.335Zm.75-.659a1.752,1.752,0,0,0-.75.15c-.15.108-.212.22-.175.3s.16.138.4.039a1.38,1.38,0,0,0,.517-.489Z" transform="translate(-126.117 -111.835)"/><ellipse class="c" cx="0.531" cy="0.255" rx="0.531" ry="0.255" transform="matrix(0.945, -0.328, 0.328, 0.945, 22.762, 19.279)"/><path class="c" d="M152.225,127.3c-.167,0-.291-.055-.329-.16a.217.217,0,0,1,.015-.163.77.77,0,0,1,.443-.324c.316-.11.6-.068.657.1a.205.205,0,0,1-.015.163.765.765,0,0,1-.436.323h0A1.035,1.035,0,0,1,152.225,127.3Zm.45-.6a.9.9,0,0,0-.292.054.663.663,0,0,0-.372.266.1.1,0,0,0-.01.076c.032.089.258.121.515.032h0a.668.668,0,0,0,.373-.266.115.115,0,0,0,.01-.078c-.016-.045-.094-.078-.22-.078Zm-.143.481Z" transform="translate(-129.104 -107.606)"/><path class="c" d="M142.214,121.621c.193-.214-.072-.681-.693-.681-.579,0-1.124.891-1.264,1.05a6.017,6.017,0,0,1-1.214,1c-.309.215.009.579.3.531a7.286,7.286,0,0,0,1.069-.9,8.021,8.021,0,0,0,.573-.75c.124-.18.35-.393.511-.393.351,0,.567.318.725.15Z" transform="translate(-118.079 -102.799)"/><path class="c" d="M138.973,123.256a.45.45,0,0,1-.4-.264.3.3,0,0,1,.128-.374,5.965,5.965,0,0,0,1.2-.994c.024-.027.06-.074.1-.135.225-.3.695-.928,1.2-.928a.807.807,0,0,1,.774.408.33.33,0,0,1-.039.367h0c-.114.126-.254.056-.389-.01a.837.837,0,0,0-.378-.115c-.129,0-.342.19-.465.367a7.375,7.375,0,0,1-.577.75,6.585,6.585,0,0,1-1.1.926A.4.4,0,0,1,138.973,123.256Zm2.237-2.583c-.45,0-.9.6-1.112.883l-.111.15a6.062,6.062,0,0,1-1.227,1.014.183.183,0,0,0-.084.235.332.332,0,0,0,.339.192,7.563,7.563,0,0,0,1.038-.891,7.2,7.2,0,0,0,.567-.737c.117-.166.361-.415.558-.415a.933.933,0,0,1,.428.127c.15.072.2.093.255.035h0a.221.221,0,0,0,.021-.246A.69.69,0,0,0,141.21,120.673Zm.693.625Z" transform="translate(-117.768 -102.476)"/><path class="c" d="M157.519,121.831c.076-.138-.009-.441-.576-.441-.5,0-1.04.929-1.143,1.1a2.886,2.886,0,0,1-.9,1.03,6.716,6.716,0,0,0,.854,0A2.35,2.35,0,0,0,156.2,123c.124-.24.228-.6.324-.75a.814.814,0,0,1,.379-.345c.159-.04.5.125.615-.075Z" transform="translate(-131.665 -103.182)"/><path class="c" d="M155.1,123.276c-.126,0-.282,0-.459-.012a.057.057,0,0,1-.051-.04.06.06,0,0,1,.023-.063,2.676,2.676,0,0,0,.835-.94l.055-.093c.45-.735.84-1.107,1.179-1.107.408,0,.558.15.612.243a.285.285,0,0,1,.014.281h0c-.09.164-.291.135-.45.113a.6.6,0,0,0-.2-.009.75.75,0,0,0-.348.32,2.18,2.18,0,0,0-.15.355,3.88,3.88,0,0,1-.165.388,2.347,2.347,0,0,1-.45.538.052.052,0,0,1-.033.015C155.49,123.267,155.344,123.276,155.1,123.276Zm-.292-.117c.359.012.6,0,.667,0a2.249,2.249,0,0,0,.415-.493c.056-.109.108-.246.159-.378a2.153,2.153,0,0,1,.168-.377.856.856,0,0,1,.412-.367.658.658,0,0,1,.24,0c.168.022.29.033.339-.056a.174.174,0,0,0-.009-.171c-.04-.07-.162-.187-.514-.187-.2,0-.558.183-1.083,1.05l-.055.093a2.916,2.916,0,0,1-.747.886Zm2.451-1.65Z" transform="translate(-131.4 -102.867)"/><path class="c" d="M165.692,126.234c.064-.082.374.054.429.11s.271.568.519.738a2.6,2.6,0,0,0,.6.27.68.68,0,0,1,.253.486c-.018.16-.581.524-.581.524s.093-.5-.211-.693a2.267,2.267,0,0,0-.851-.132c-.16-.027-.7-.216-.691-.368a1.7,1.7,0,0,1,.227-.5s.423.412.523.307-.285-.655-.221-.738Z" transform="translate(-140.386 -107.277)"/><path class="c" d="M166.618,128.095a.063.063,0,0,1-.032-.009.059.059,0,0,1-.024-.057s.083-.461-.186-.635a1.313,1.313,0,0,0-.626-.114,1.5,1.5,0,0,1-.206-.012c-.072-.012-.75-.2-.736-.423a1.551,1.551,0,0,1,.234-.533.057.057,0,0,1,.041-.025.056.056,0,0,1,.046.015c.186.182.4.327.45.308.023-.041-.079-.255-.129-.358-.1-.209-.15-.312-.1-.374h0a.13.13,0,0,1,.1-.048.75.75,0,0,1,.41.15.768.768,0,0,1,.094.15,1.844,1.844,0,0,0,.417.576,1.966,1.966,0,0,0,.489.226l.107.039a.725.725,0,0,1,.285.545c-.02.173-.468.474-.6.563A.058.058,0,0,1,166.618,128.095Zm-1.515-1.663a1.35,1.35,0,0,0-.182.417c0,.086.439.276.643.311a1.861,1.861,0,0,0,.189.009,1.329,1.329,0,0,1,.684.132.683.683,0,0,1,.249.626c.228-.158.45-.343.45-.415a.647.647,0,0,0-.221-.428c-.022-.01-.055-.021-.1-.036a2.042,2.042,0,0,1-.516-.24,1.866,1.866,0,0,1-.45-.615,1.4,1.4,0,0,0-.075-.129.635.635,0,0,0-.339-.118,1.327,1.327,0,0,0,.1.26c.1.214.191.4.108.486a.116.116,0,0,1-.083.035h0C165.437,126.724,165.211,126.532,165.1,126.431Z" transform="translate(-140.087 -106.955)"/><path class="c" d="M165.269,136.772c0-.1-.639-.307-.948-.313s-.762.088-.8.282c-.036.165.37.488.5.488s.212-.261.406-.318S165.28,137.049,165.269,136.772Z" transform="translate(-138.988 -115.989)"/><path class="c" d="M163.709,137a.884.884,0,0,1-.465-.316.3.3,0,0,1-.09-.24c.057-.257.6-.332.859-.326s1,.195,1,.367h0a.165.165,0,0,1-.053.135c-.1.1-.324.079-.538.062a1.134,1.134,0,0,0-.3,0,.474.474,0,0,0-.208.171C163.859,136.922,163.8,137,163.709,137Zm.277-.77c-.322,0-.691.1-.723.237,0,.012,0,.056.068.15a.858.858,0,0,0,.378.274c.036,0,.081-.054.129-.111a.57.57,0,0,1,.262-.206,1.115,1.115,0,0,1,.335,0c.163.012.387.032.45-.031a.057.057,0,0,0,.016-.044,2.11,2.11,0,0,0-.9-.266Zm.921.27Z" transform="translate(-138.68 -115.7)"/><path class="c" d="M150.414,138.63a2.5,2.5,0,0,1-1.436-.317,5.475,5.475,0,0,0-1.408-.975c-.475-.085-1.1.577-1.559.084-.2-.213.4-.443.648-.51a3.545,3.545,0,0,1,1.27-.1,5.557,5.557,0,0,1,1.229.885C149.433,137.931,150.22,138.474,150.414,138.63Z" transform="translate(-124.077 -116.268)"/><path d="M149.384,137.944a2.593,2.593,0,0,1-1.339-.359c-.039-.028-.107-.085-.192-.159a4.129,4.129,0,0,0-1.152-.789,1.116,1.116,0,0,0-.523.12c-.344.132-.772.3-1.119-.081a.271.271,0,0,1-.067-.266c.084-.288.669-.459.786-.49a3.612,3.612,0,0,1,1.35-.1,4.66,4.66,0,0,1,1.208.848l.078.068c.158.132.506.382.786.583.207.15.386.277.468.343a.15.15,0,0,1-.074.266A1.452,1.452,0,0,1,149.384,137.944Zm-2.751-1.613a.751.751,0,0,1,.116.01,3.843,3.843,0,0,1,1.293.857c.079.068.15.12.178.15a2.1,2.1,0,0,0,.879.279l-.082-.059c-.3-.216-.638-.459-.8-.6l-.08-.067a5.2,5.2,0,0,0-1.092-.786,3.528,3.528,0,0,0-1.191.1,1.375,1.375,0,0,0-.567.271c.2.2.428.131.783,0A1.633,1.633,0,0,1,146.633,136.331Z" transform="translate(-123.233 -115.42)"/><path class="c" d="M184.975,128.4c.221-.048.324.612.338.928s-.1.99-.207.99-.178-.192-.178-.192.117-.434-.1-.626a1.385,1.385,0,0,0,.083-.529C184.893,128.754,184.827,128.429,184.975,128.4Z" transform="translate(-157.105 -109.134)"/><path class="c" d="M184.8,130.058c-.15,0-.223-.207-.232-.231a.061.061,0,0,1,0-.033s.106-.4-.079-.57a.054.054,0,0,1-.017-.055c.008-.033.017-.064.025-.1a1.035,1.035,0,0,0,.055-.412.342.342,0,0,0-.01-.1c-.028-.231-.06-.492.117-.529a.166.166,0,0,1,.139.033c.192.15.258.733.267.946a2.272,2.272,0,0,1-.193,1.016A.093.093,0,0,1,184.8,130.058Zm-.12-.253c.026.061.077.141.12.141a2.468,2.468,0,0,0,.15-.931,1.627,1.627,0,0,0-.223-.863.049.049,0,0,0-.046-.014h0c-.076.016-.048.261-.03.406,0,.036.009.071.012.1a1.183,1.183,0,0,1-.059.45l-.018.063A.786.786,0,0,1,184.677,129.8Zm-.01-1.722Z" transform="translate(-156.796 -108.821)"/><path class="c" d="M169.311,136.43c.359.14-.4,1.041-.559,1.137a2.639,2.639,0,0,1-1.482.138,3.843,3.843,0,0,1-.6-.437,4.72,4.72,0,0,0,1.65.009C168.845,137.066,169.089,136.345,169.311,136.43Z" transform="translate(-141.669 -115.96)"/><path d="M167.284,137.4a1.18,1.18,0,0,1-.459-.063,3.689,3.689,0,0,1-.615-.45.078.078,0,0,1-.018-.088.075.075,0,0,1,.079-.042,4.708,4.708,0,0,0,1.608.014,1.559,1.559,0,0,0,.6-.543c.15-.2.286-.365.45-.3h0a.217.217,0,0,1,.143.193c.027.337-.553,1-.69,1.077A2.658,2.658,0,0,1,167.284,137.4Zm-.774-.45a2.5,2.5,0,0,0,.382.26,2.591,2.591,0,0,0,1.41-.135c.129-.075.637-.687.617-.936a.066.066,0,0,0-.046-.066h0c-.054-.021-.168.126-.27.257a1.728,1.728,0,0,1-.666.59,3.849,3.849,0,0,1-1.426.025Z" transform="translate(-141.258 -115.529)"/><ellipse class="c" cx="0.204" cy="0.42" rx="0.204" ry="0.42" transform="translate(27.459 21.443) rotate(-30.47)"/><path class="c" d="M183.941,142.655a.527.527,0,0,1-.381-.3.6.6,0,0,1-.1-.426.185.185,0,0,1,.081-.116h0c.129-.075.33.045.467.279a.623.623,0,0,1,.1.426.185.185,0,0,1-.082.117A.162.162,0,0,1,183.941,142.655Zm-.341-.75a.072.072,0,0,0-.03.046.512.512,0,0,0,.086.34c.114.2.259.271.313.24a.075.075,0,0,0,.029-.048.505.505,0,0,0-.085-.34C183.8,141.95,183.655,141.874,183.6,141.905Z" transform="translate(-155.938 -120.523)"/><ellipse class="c" cx="0.164" cy="0.221" rx="0.164" ry="0.221" transform="translate(27.043 21.756) rotate(-32.1)"/><path class="c" d="M180.692,144.5a.288.288,0,0,1-.235-.15.3.3,0,0,1-.044-.228A.186.186,0,0,1,180.5,144h0a.25.25,0,0,1,.331.118.31.31,0,0,1,.045.228.2.2,0,0,1-.085.123A.186.186,0,0,1,180.692,144.5Zm-.135-.4a.075.075,0,0,0-.035.054.192.192,0,0,0,.03.141c.047.077.128.114.177.084a.077.077,0,0,0,.035-.052.188.188,0,0,0-.03-.15C180.688,144.1,180.607,144.066,180.557,144.1Z" transform="translate(-153.346 -122.377)"/><path class="c" d="M188.694,134.45a8.213,8.213,0,0,1-.2,1.182c.013.152.166.27.322.361s.358.165.414.116a.31.31,0,0,0,.013-.3c-.051-.092-.238-.114-.285-.261a4.034,4.034,0,0,1-.027-.523,1.587,1.587,0,0,0-.24-.567Z" transform="translate(-160.221 -114.283)"/><path class="c" d="M188.843,135.868a1.011,1.011,0,0,1-.384-.138c-.15-.084-.333-.216-.35-.406a1.167,1.167,0,0,1,.059-.316,3.575,3.575,0,0,0,.139-.872.056.056,0,0,1,.1-.035,1.6,1.6,0,0,1,.252.6,1.476,1.476,0,0,1,.009.277.7.7,0,0,0,.017.237c.02.064.079.1.15.135a.343.343,0,0,1,.137.115.36.36,0,0,1-.025.375A.135.135,0,0,1,188.843,135.868Zm-.432-1.542a3.99,3.99,0,0,1-.135.71,1.35,1.35,0,0,0-.055.277c.01.1.107.208.3.32a.651.651,0,0,0,.35.12.273.273,0,0,0,0-.237.27.27,0,0,0-.094-.072.369.369,0,0,1-.2-.2.831.831,0,0,1-.021-.275,1.359,1.359,0,0,0,0-.257,1.47,1.47,0,0,0-.146-.388Z" transform="translate(-159.893 -113.968)"/><path class="c" d="M171.6,145.4a5.4,5.4,0,0,1,1.021-.018,3.031,3.031,0,0,1,.626.916.777.777,0,0,1-.113.6A20.181,20.181,0,0,0,171.6,145.4Z" transform="translate(-145.86 -123.55)"/><path d="M172.285,146.123a.15.15,0,0,1-.1-.04c-.177-.165-.372-.372-.579-.6a7.324,7.324,0,0,0-.937-.9.15.15,0,0,1,.091-.274c.081,0,.23-.009.372-.02a1.481,1.481,0,0,1,.717.021,3,3,0,0,1,.7,1.012.922.922,0,0,1-.15.737.15.15,0,0,1-.107.051Zm-1.139-1.523c.213.2.45.443.675.684.15.15.289.3.42.438a.75.75,0,0,0,.01-.32,3.21,3.21,0,0,0-.557-.82,2.85,2.85,0,0,0-.541.018Z" transform="translate(-145.01 -122.622)"/><path class="c" d="M182.944,146.245c-.212.055.111.633.1.77s-.216.3-.212.376a1.063,1.063,0,0,0,.681.353,1.2,1.2,0,0,0,.7-.482,1.637,1.637,0,0,0,.087-.8c-.049-.271-.488-.555-.488-.555a1.154,1.154,0,0,0-.12.39,3.859,3.859,0,0,0,.15.513.783.783,0,0,1-.129.435.47.47,0,0,1-.41.056c-.082-.064.174-.353.174-.568,0-.192-.327-.546-.538-.491Z" transform="translate(-155.405 -124.024)"/><path class="c" d="M183.188,147.468c-.258,0-.729-.281-.738-.406a.342.342,0,0,1,.093-.177.537.537,0,0,0,.119-.207.944.944,0,0,0-.065-.232c-.07-.2-.141-.4-.081-.516a.141.141,0,0,1,.092-.07h0a.4.4,0,0,1,.328.1.689.689,0,0,1,.281.443.879.879,0,0,1-.123.362.6.6,0,0,0-.069.171.5.5,0,0,0,.327-.055.75.75,0,0,0,.116-.391.81.81,0,0,0-.062-.186.891.891,0,0,1-.09-.336,1.152,1.152,0,0,1,.126-.414.049.049,0,0,1,.036-.029.059.059,0,0,1,.045,0c.018.014.457.3.511.592a1.676,1.676,0,0,1-.091.831A1.207,1.207,0,0,1,183.188,147.468Zm-.552-1.5a.027.027,0,0,0-.021.017c-.038.069.038.283.087.424a.819.819,0,0,1,.072.28.578.578,0,0,1-.15.266.547.547,0,0,0-.069.105,1.223,1.223,0,0,0,.626.3,1.155,1.155,0,0,0,.652-.45,1.593,1.593,0,0,0,.084-.764c-.033-.177-.273-.382-.411-.481a.914.914,0,0,0-.086.307.792.792,0,0,0,.081.29.964.964,0,0,1,.07.214.831.831,0,0,1-.143.479.5.5,0,0,1-.486.064c-.079-.061-.022-.174.042-.3a.787.787,0,0,0,.111-.311.582.582,0,0,0-.237-.352.3.3,0,0,0-.231-.084Z" transform="translate(-155.083 -123.692)"/><path class="c" d="M142.073,141c.236,0,.669.45.669.45a6.483,6.483,0,0,1-1.05.479c-.339.084-.9.118-1.224.217s-.613.883-.908.868-.2-.51-.2-.51a1.2,1.2,0,0,1,.457-.77,4.6,4.6,0,0,1,1.361-.3c.384-.076.557-.423.9-.423Z" transform="translate(-118.442 -119.85)"/><path d="M138.7,142.326h-.016a.336.336,0,0,1-.257-.129.763.763,0,0,1-.089-.558,1.321,1.321,0,0,1,.531-.872,2.8,2.8,0,0,1,1.029-.264c.138-.018.267-.035.375-.057a1,1,0,0,0,.386-.2.915.915,0,0,1,.546-.226c.277,0,.66.372.771.486a.151.151,0,0,1-.034.236,6.587,6.587,0,0,1-1.083.493c-.161.04-.36.068-.57.1a4.928,4.928,0,0,0-.646.117c-.107.033-.251.232-.366.393C139.092,142.09,138.923,142.326,138.7,142.326Zm2.505-2.008a.656.656,0,0,0-.37.171,1.29,1.29,0,0,1-.5.249c-.12.025-.255.042-.4.062a2.6,2.6,0,0,0-.915.223,1.1,1.1,0,0,0-.387.663.544.544,0,0,0,.029.322.039.039,0,0,0,.036.015h0c.074,0,.242-.234.333-.36a1.216,1.216,0,0,1,.52-.5,5.052,5.052,0,0,1,.693-.128c.2-.028.395-.055.54-.091a4.949,4.949,0,0,0,.828-.367A1.01,1.01,0,0,0,141.2,140.317Z" transform="translate(-117.57 -119.017)"/><path class="c" d="M134.73,144.107s-.078.361-.169.417-.567-.477-.552-.725S134.73,144.107,134.73,144.107Z" transform="translate(-113.907 -122.176)"/><path class="c" d="M134.22,144.271a.184.184,0,0,1-.088-.03,1.251,1.251,0,0,1-.5-.758.116.116,0,0,1,.066-.1c.158-.072.574.236.75.37a.059.059,0,0,1,.02.057c-.02.09-.092.39-.2.45A.084.084,0,0,1,134.22,144.271Zm-.462-.794h-.018a1.176,1.176,0,0,0,.474.676.991.991,0,0,0,.129-.34A1.836,1.836,0,0,0,133.758,143.478Z" transform="translate(-113.583 -121.863)"/><ellipse class="c" cx="0.106" cy="0.283" rx="0.106" ry="0.283" transform="matrix(0.784, -0.62, 0.62, 0.784, 20.229, 22.502)"/><path class="c" d="M135.326,149.69a.433.433,0,0,1-.274-.187.45.45,0,0,1-.122-.3.106.106,0,0,1,.039-.075c.089-.069.238.037.339.166a.45.45,0,0,1,.122.293.106.106,0,0,1-.039.075A.1.1,0,0,1,135.326,149.69Zm-.285-.464a.53.53,0,0,0,.285.357.506.506,0,0,0-.106-.207.384.384,0,0,0-.179-.152Z" transform="translate(-114.69 -126.74)"/><path class="c" d="M131.439,145.893c-.2-.138-.309.185-.309.464a1.57,1.57,0,0,0,.459,1.017,2.531,2.531,0,0,0,.99.492l.1-.587a1.342,1.342,0,0,1-.958-.358C131.433,146.571,131.64,146.031,131.439,145.893Z" transform="translate(-111.461 -123.981)"/><path d="M132.154,147.537h-.018a2.549,2.549,0,0,1-1.027-.513,1.65,1.65,0,0,1-.479-1.07c0-.219.063-.474.2-.548a.207.207,0,0,1,.222.024c.123.086.131.254.14.45a.978.978,0,0,0,.15.6,1.289,1.289,0,0,0,.9.33.078.078,0,0,1,.059.025.075.075,0,0,1,.018.061l-.1.587a.076.076,0,0,1-.031.051A.086.086,0,0,1,132.154,147.537Zm-1.233-2.006a.045.045,0,0,0-.018,0,.557.557,0,0,0-.123.416,1.5,1.5,0,0,0,.438.967,2.293,2.293,0,0,0,.876.45l.069-.417a1.324,1.324,0,0,1-.928-.384,1.107,1.107,0,0,1-.189-.684c0-.15-.012-.286-.075-.33A.091.091,0,0,0,130.921,145.532Z" transform="translate(-111.036 -123.578)"/><path class="c" d="M129.153,137.5a1.641,1.641,0,0,0-.538.792,6.046,6.046,0,0,1-.184-1c0-.279.174-.627.387-.609S128.955,137.216,129.153,137.5Z" transform="translate(-109.166 -116.174)"/><path class="c" d="M128.3,138.025h0a.057.057,0,0,1-.054-.042,6.041,6.041,0,0,1-.186-1.018.876.876,0,0,1,.232-.583.288.288,0,0,1,.216-.083c.158.015.193.2.232.4a1.16,1.16,0,0,0,.15.439.053.053,0,0,1,.009.042.055.055,0,0,1-.022.037,1.6,1.6,0,0,0-.516.762A.057.057,0,0,1,128.3,138.025Zm.186-1.614a.177.177,0,0,0-.118.054.75.75,0,0,0-.2.5,4.528,4.528,0,0,0,.139.813,1.6,1.6,0,0,1,.45-.618,1.431,1.431,0,0,1-.133-.437c-.03-.15-.059-.3-.132-.313Z" transform="translate(-108.851 -115.853)"/><path class="c" d="M116.6,143.15c.247,0,.358.816.35.945a1.789,1.789,0,0,1-.7.75c-.369.237-.915.376-1.076.247s.229-.864.45-1.16.723-.775.972-.775Z" transform="translate(-97.868 -121.677)"/><path class="c" d="M115.051,144.874a.363.363,0,0,1-.227-.06c-.229-.183.293-1.036.45-1.237.212-.278.727-.8,1.015-.8a.2.2,0,0,1,.15.074,1.882,1.882,0,0,1,.257.932,1.782,1.782,0,0,1-.726.786,2.035,2.035,0,0,1-.92.3Zm1.236-1.982c-.217,0-.687.438-.927.75-.265.348-.567,1-.465,1.081.131.1.649-.027,1.012-.252a1.754,1.754,0,0,0,.672-.7,1.808,1.808,0,0,0-.227-.846A.091.091,0,0,0,116.287,142.893Z" transform="translate(-97.552 -121.363)"/><path class="c" d="M182.151,167.409c.033.109.175.123.351.072a.262.262,0,0,0,.2-.313c-.033-.11-.143-.133-.318-.083A.3.3,0,0,0,182.151,167.409Z" transform="translate(-154.827 -142)"/><path class="c" d="M181.987,167.251a.211.211,0,0,1-.229-.142.273.273,0,0,1,.031-.2.4.4,0,0,1,.242-.189c.284-.083.365.04.389.122a.3.3,0,0,1-.027.219.351.351,0,0,1-.214.163A.749.749,0,0,1,181.987,167.251Zm.212-.45a.465.465,0,0,0-.136.024.287.287,0,0,0-.176.135.168.168,0,0,0-.021.118h0c.022.078.159.069.279.035a.235.235,0,0,0,.15-.109.175.175,0,0,0,.018-.133c-.007-.021-.022-.07-.114-.07Z" transform="translate(-154.488 -141.685)"/><path class="c" d="M181.484,170.9a2.363,2.363,0,0,1-.73.15,2.279,2.279,0,0,1-.193.45s.669.029.828-.114S181.484,170.9,181.484,170.9Z" transform="translate(-153.476 -145.265)"/><path class="c" d="M180.338,171.237h-.15a.06.06,0,0,1-.046-.029.057.057,0,0,1,0-.054,2.134,2.134,0,0,0,.186-.423.054.054,0,0,1,.018-.04.059.059,0,0,1,.04-.016,2.222,2.222,0,0,0,.71-.143.06.06,0,0,1,.048,0,.055.055,0,0,1,.027.039c0,.015.066.372-.114.534A1.382,1.382,0,0,1,180.338,171.237Zm-.048-.113a1.561,1.561,0,0,0,.7-.1.476.476,0,0,0,.087-.363,2.328,2.328,0,0,1-.639.128A2.219,2.219,0,0,1,180.29,171.124Z" transform="translate(-153.114 -144.948)"/><path class="c" d="M180.241,175.76a4.633,4.633,0,0,1-1.023.078.711.711,0,0,1-.138.238s.5.384.75.288.415-.6.415-.6Z" transform="translate(-152.218 -149.396)"/><path class="c" d="M179.421,176.117a1.483,1.483,0,0,1-.69-.316.049.049,0,0,1-.022-.037.057.057,0,0,1,.013-.044.656.656,0,0,0,.126-.213.055.055,0,0,1,.062-.044,4.573,4.573,0,0,0,1-.078.056.056,0,0,1,.063.074c0,.021-.182.534-.45.639A.289.289,0,0,1,179.421,176.117Zm-.576-.372c.16.114.486.311.645.247s.281-.316.348-.48a4.459,4.459,0,0,1-.9.066A.7.7,0,0,1,178.845,175.745Z" transform="translate(-151.902 -149.076)"/><path class="c" d="M177.754,179.772a3.414,3.414,0,0,1-.822-.262,1.1,1.1,0,0,1-.192.276s.261.336.518.33S177.754,179.772,177.754,179.772Z" transform="translate(-150.229 -152.583)"/><path class="c" d="M176.919,179.845c-.277,0-.543-.337-.555-.351a.057.057,0,0,1,0-.074,1.115,1.115,0,0,0,.18-.257.057.057,0,0,1,.034-.033.059.059,0,0,1,.048,0,3.333,3.333,0,0,0,.8.255.055.055,0,0,1,.042.035.059.059,0,0,1,0,.054c-.012.014-.261.359-.541.366Zm-.436-.384c.072.081.259.271.435.271h.007a.654.654,0,0,0,.4-.25,3.405,3.405,0,0,1-.695-.219A1.237,1.237,0,0,1,176.482,179.461Z" transform="translate(-149.898 -152.257)"/><path class="c" d="M174.6,183.394a3.243,3.243,0,0,1-.75-.253,2.4,2.4,0,0,1-.3.336s.221.268.45.247A1.624,1.624,0,0,0,174.6,183.394Z" transform="translate(-147.518 -155.669)"/><path class="c" d="M173.6,183.484a.735.735,0,0,1-.468-.27.057.057,0,0,1,0-.077,2.111,2.111,0,0,0,.3-.316.059.059,0,0,1,.038-.03.056.056,0,0,1,.048.01,3.051,3.051,0,0,0,.73.245.056.056,0,0,1,.022.1,1.712,1.712,0,0,1-.637.343Zm-.345-.3a.537.537,0,0,0,.365.189,1.294,1.294,0,0,0,.484-.252,3.15,3.15,0,0,1-.6-.2,2.8,2.8,0,0,1-.255.264Z" transform="translate(-147.153 -155.371)"/><path class="c" d="M169.612,187l.621.232a1.286,1.286,0,0,1-.635.311.441.441,0,0,1-.408-.173Z" transform="translate(-143.812 -158.95)"/><path class="c" d="M169.241,187.274a.485.485,0,0,1-.425-.2.055.055,0,0,1,.012-.07l.42-.372a.057.057,0,0,1,.057-.01l.622.234a.057.057,0,0,1,.035.044.054.054,0,0,1-.018.053,1.363,1.363,0,0,1-.669.322Zm-.3-.224a.4.4,0,0,0,.327.109,1.1,1.1,0,0,0,.525-.235l-.5-.186Z" transform="translate(-143.488 -158.624)"/><path class="c" d="M137.944,165.087c.013.165-.077.137-.252.085s-.292-.182-.261-.291.15-.135.333-.084S137.935,164.973,137.944,165.087Z" transform="translate(-116.812 -140.056)"/><path class="c" d="M137.552,164.954a.749.749,0,0,1-.187-.041.46.46,0,0,1-.283-.2.2.2,0,0,1-.023-.161c.04-.138.192-.184.4-.123a.291.291,0,0,1,.217.312v.026a.18.18,0,0,1-.045.16A.123.123,0,0,1,137.552,164.954Zm-.261-.439c-.055,0-.108.015-.124.069a.1.1,0,0,0,.014.075.348.348,0,0,0,.208.15.5.5,0,0,0,.177.035.126.126,0,0,0,0-.061h0v-.029c-.008-.1-.012-.176-.137-.212A.564.564,0,0,0,137.291,164.514Z" transform="translate(-116.493 -139.742)"/><path class="c" d="M136.585,167.6a1.626,1.626,0,0,0,.775.423,2.512,2.512,0,0,0,.15.525,2.474,2.474,0,0,1-.8-.322C136.517,168.044,136.585,167.6,136.585,167.6Z" transform="translate(-116.087 -142.46)"/><path class="c" d="M137.192,168.293h-.012a2.393,2.393,0,0,1-.826-.338c-.2-.187-.15-.655-.141-.675a.057.057,0,0,1,.037-.045.056.056,0,0,1,.057.015,1.593,1.593,0,0,0,.75.406.057.057,0,0,1,.038.024.053.053,0,0,1,.009.042,2.345,2.345,0,0,0,.15.5.055.055,0,0,1-.009.057A.061.061,0,0,1,137.192,168.293Zm-.872-.887a.665.665,0,0,0,.117.467,2.259,2.259,0,0,0,.674.282,2.3,2.3,0,0,1-.114-.4A1.617,1.617,0,0,1,136.32,167.407Z" transform="translate(-115.77 -142.148)"/><path class="c" d="M137.47,174.183s.528.192.947.3a2.632,2.632,0,0,0,.15.4,1.95,1.95,0,0,1-.786-.055c-.27-.169-.3-.646-.3-.646Z" transform="translate(-116.85 -148.053)"/><path class="c" d="M137.911,174.66a1.05,1.05,0,0,1-.482-.081.989.989,0,0,1-.33-.69.056.056,0,0,1,.075-.057s.53.192.941.3a.056.056,0,0,1,.042.042,2.476,2.476,0,0,0,.141.387.054.054,0,0,1-.043.079A3.027,3.027,0,0,1,137.911,174.66Zm-.689-.691a.774.774,0,0,0,.267.514,1.575,1.575,0,0,0,.674.054,2.757,2.757,0,0,1-.109-.3C137.744,174.155,137.384,174.026,137.222,173.969Z" transform="translate(-116.534 -147.755)"/><path class="c" d="M140.24,180.43s.583.072.911.083c.013.117.22.324.22.324s-.434.27-.69.117A1.488,1.488,0,0,1,140.24,180.43Z" transform="translate(-119.204 -153.365)"/><path class="c" d="M140.536,180.738a.422.422,0,0,1-.217-.054,1.52,1.52,0,0,1-.464-.546.056.056,0,0,1,0-.057.052.052,0,0,1,.053-.024s.587.07.9.083a.054.054,0,0,1,.054.049.811.811,0,0,0,.206.289.06.06,0,0,1,.016.047.064.064,0,0,1-.027.042A1.181,1.181,0,0,1,140.536,180.738Zm-.527-.557a1.243,1.243,0,0,0,.368.4c.171.1.45-.018.57-.083a.9.9,0,0,1-.174-.253C140.533,180.238,140.185,180.2,140.01,180.181Z" transform="translate(-118.87 -153.048)"/><path class="c" d="M144.84,184.6a2.382,2.382,0,0,0,.629-.221,1.8,1.8,0,0,0,.247.29s-.207.253-.435.232a.812.812,0,0,1-.441-.3Z" transform="translate(-123.114 -156.723)"/><path class="c" d="M145.052,184.656h-.032a.853.853,0,0,1-.481-.326.051.051,0,0,1,0-.053.057.057,0,0,1,.04-.036,2.221,2.221,0,0,0,.6-.21.059.059,0,0,1,.084.02,1.741,1.741,0,0,0,.237.275.056.056,0,0,1,0,.075A.692.692,0,0,1,145.052,184.656Zm-.365-.327a.623.623,0,0,0,.343.213.512.512,0,0,0,.351-.176,2.122,2.122,0,0,1-.187-.213,2.371,2.371,0,0,1-.513.176Z" transform="translate(-122.852 -156.418)"/><path class="c" d="M150.025,188l-.385.165a.465.465,0,0,0,.4.227.333.333,0,0,0,.3-.15l-.316-.24Z" transform="translate(-127.194 -159.8)"/><path class="c" d="M149.769,188.126h-.015a.52.52,0,0,1-.45-.258.059.059,0,0,1,0-.045.054.054,0,0,1,.031-.031l.386-.165a.054.054,0,0,1,.055,0l.318.242a.055.055,0,0,1,.015.072.389.389,0,0,1-.34.186Zm-.333-.259a.425.425,0,0,0,.322.15.271.271,0,0,0,.214-.085l-.246-.186Z" transform="translate(-126.905 -159.476)"/><path class="c" d="M164.241,190.593a1.779,1.779,0,0,1-.621.282s.794,1.279,1.021,1.05c.345-.345-.138-1.142-.4-1.335Z" transform="translate(-139.077 -162.002)"/><path class="c" d="M164.276,191.724h-.021c-.311-.036-.915-.995-.982-1.1a.052.052,0,0,1,0-.051.054.054,0,0,1,.039-.033,1.773,1.773,0,0,0,.6-.271.057.057,0,0,1,.069,0,1.661,1.661,0,0,1,.542,1,.512.512,0,0,1-.135.42A.15.15,0,0,1,164.276,191.724Zm-.868-1.1c.253.4.676.966.859.988a.039.039,0,0,0,.035-.01.4.4,0,0,0,.1-.331,1.577,1.577,0,0,0-.464-.891,1.791,1.791,0,0,1-.534.245Z" transform="translate(-138.776 -161.715)"/><path class="c" d="M158.038,193a2.225,2.225,0,0,1-.358.261c.331.15.814,1,.966.62S158.038,193,158.038,193Z" transform="translate(-134.028 -164.05)"/><path class="c" d="M158.21,193.681c-.137,0-.3-.171-.479-.366a1.674,1.674,0,0,0-.4-.357.057.057,0,0,1-.033-.049.058.058,0,0,1,.031-.051,2.179,2.179,0,0,0,.347-.254.057.057,0,0,1,.069,0c.033.021.795.525.628.948a.186.186,0,0,1-.135.131.1.1,0,0,1-.03,0Zm-.75-.774a2.686,2.686,0,0,1,.346.33c.15.15.324.348.4.331.02,0,.036-.025.051-.063.1-.266-.333-.639-.551-.789a2.338,2.338,0,0,1-.244.19Z" transform="translate(-133.705 -163.704)"/><path class="c" d="M165.154,199.64a.994.994,0,0,0-.1.426c.061.392.966.852.972.508S165.154,199.64,165.154,199.64Z" transform="translate(-140.292 -169.694)"/><path class="c" d="M165.568,200.434a1.12,1.12,0,0,1-.888-.676.992.992,0,0,1,.108-.459.053.053,0,0,1,.036-.03.057.057,0,0,1,.046.007c.092.061.9.618.9.982a.171.171,0,0,1-.177.175Zm-.7-1.026a.771.771,0,0,0-.072.331,1,1,0,0,0,.789.582c.059,0,.07-.029.072-.066,0-.238-.523-.661-.789-.847Z" transform="translate(-139.978 -169.377)"/><path class="c" d="M154.519,190.7l.311.193s-.214.357-.45.248S154.519,190.7,154.519,190.7Z" transform="translate(-131.157 -162.095)"/><path class="c" d="M154.109,190.917a.289.289,0,0,1-.118-.027.176.176,0,0,1-.111-.135c-.024-.163.2-.361.242-.4a.054.054,0,0,1,.066,0l.312.192a.057.057,0,0,1,.018.076C154.508,190.634,154.337,190.917,154.109,190.917Zm.055-.45c-.085.081-.183.2-.174.27,0,.009,0,.03.046.049.15.066.29-.1.353-.18Z" transform="translate(-130.796 -161.793)"/><ellipse class="c" cx="0.308" cy="0.415" rx="0.308" ry="0.415" transform="translate(23.045 29.368)"/><path class="c" d="M153.615,196.355a.489.489,0,1,1,.363-.473A.429.429,0,0,1,153.615,196.355Zm0-.833c-.139,0-.252.162-.252.36s.113.36.252.36.25-.162.25-.36S153.753,195.523,153.615,195.523Z" transform="translate(-130.262 -166.099)"/><path class="c" d="M158.767,199.46c-.082.13-.207.322-.207.322a2.119,2.119,0,0,1,.242.585c.15.014.338-.138.338-.412A.651.651,0,0,0,158.767,199.46Z" transform="translate(-134.776 -169.541)"/><path class="c" d="M158.5,200.108h-.025a.057.057,0,0,1-.049-.045,2.067,2.067,0,0,0-.234-.565.054.054,0,0,1,0-.06l.207-.322a.056.056,0,0,1,.054-.027.7.7,0,0,1,.423.552.5.5,0,0,1-.15.377A.336.336,0,0,1,158.5,200.108Zm-.195-.641a2.154,2.154,0,0,1,.221.525.234.234,0,0,0,.123-.062.388.388,0,0,0,.114-.3.645.645,0,0,0-.3-.429Z" transform="translate(-134.452 -169.225)"/><path class="c" d="M163.472,205.19l-.132.158a6.009,6.009,0,0,0,.518.9A1.05,1.05,0,0,0,163.472,205.19Z" transform="translate(-138.839 -174.411)"/><path class="c" d="M163.54,205.984a.059.059,0,0,1-.042-.02,6.062,6.062,0,0,1-.527-.914.059.059,0,0,1,.008-.06l.132-.158a.056.056,0,0,1,.075-.01,1.116,1.116,0,0,1,.41,1.116.057.057,0,0,1-.041.044Zm-.45-.95a7.146,7.146,0,0,0,.415.75.994.994,0,0,0-.342-.837Z" transform="translate(-138.521 -174.091)"/><path class="c" d="M168.724,208.33a1.077,1.077,0,0,0,.048.626,1.567,1.567,0,0,0,.724.654,7.276,7.276,0,0,0,1.878.1s-1.063-.45-1.56-.715a1.927,1.927,0,0,1-.663-.708S168.772,208.247,168.724,208.33Z" transform="translate(-143.394 -177.037)"/><path class="c" d="M170.387,209.446a4.722,4.722,0,0,1-1.24-.124,1.62,1.62,0,0,1-.759-.684,1.107,1.107,0,0,1-.046-.678c.063-.109.327-.085.483-.067a.055.055,0,0,1,.043.029,1.881,1.881,0,0,0,.639.685c.49.257,1.546.708,1.557.713a.057.057,0,0,1-.02.108C171.02,209.428,170.739,209.446,170.387,209.446Zm-1.95-1.428a1.059,1.059,0,0,0,.051.573,1.529,1.529,0,0,0,.692.623,6.006,6.006,0,0,0,1.614.111c-.34-.15-.987-.434-1.341-.62a1.906,1.906,0,0,1-.671-.7.81.81,0,0,0-.343.018Z" transform="translate(-143.06 -176.695)"/><path class="c" d="M155.064,202.85c-.167,0-.284.178-.284.4,0,.165.15.508.345.522s.215-.439.215-.439S155.229,202.85,155.064,202.85Z" transform="translate(-131.563 -172.423)"/><path class="c" d="M154.811,203.548H154.8c-.229-.015-.4-.39-.4-.577,0-.26.15-.45.34-.45s.3.4.33.525a.057.057,0,0,1,0,.015.744.744,0,0,1-.15.45A.174.174,0,0,1,154.811,203.548Zm-.07-.923c-.128,0-.228.15-.228.344,0,.15.139.45.3.466a.056.056,0,0,0,.045-.018.657.657,0,0,0,.108-.362C154.911,202.85,154.81,202.625,154.741,202.625Z" transform="translate(-131.24 -172.142)"/><path class="c" d="M160.6,207a.673.673,0,0,0-.15.439,4.035,4.035,0,0,0,.868,1.589,4.686,4.686,0,0,1,.663.859c.262.412.759,1.458.759,1.458A4.118,4.118,0,0,0,162.6,210a5.1,5.1,0,0,0-.552-.852c-.145-.2-.475-.45-.7-.75s-.759-1.389-.759-1.389Z" transform="translate(-136.382 -175.95)"/><path class="c" d="M162.5,211.1a.055.055,0,0,1-.051-.031c0-.01-.5-1.05-.75-1.452a4.82,4.82,0,0,0-.654-.849,4.012,4.012,0,0,1-.887-1.618.732.732,0,0,1,.15-.485.06.06,0,0,1,.051-.022.058.058,0,0,1,.045.032c0,.01.538,1.086.75,1.382a3.774,3.774,0,0,0,.41.45,2.878,2.878,0,0,1,.288.309l.048.066a4.5,4.5,0,0,1,.512.8,4.14,4.14,0,0,1,.141,1.369.055.055,0,0,1-.046.051Zm-2.154-4.288a.5.5,0,0,0-.083.317,3.972,3.972,0,0,0,.852,1.557,4.777,4.777,0,0,1,.671.87c.193.3.505.93.664,1.257a3.7,3.7,0,0,0-.142-1.1,4.741,4.741,0,0,0-.5-.77l-.049-.068a2.759,2.759,0,0,0-.276-.3,4.039,4.039,0,0,1-.421-.462A14.586,14.586,0,0,1,160.342,206.809Z" transform="translate(-136.13 -175.643)"/><path class="c" d="M156.35,210.5a1.99,1.99,0,0,0,.29.689s-.485,0-.621-.215a.582.582,0,0,1-.055-.432Z" transform="translate(-132.552 -178.925)"/><path class="c" d="M156.312,210.926c-.063,0-.519-.007-.663-.24a.636.636,0,0,1-.061-.479.057.057,0,0,1,.048-.04s.207-.02.386-.04a.055.055,0,0,1,.063.048,1.95,1.95,0,0,0,.281.664.055.055,0,0,1-.046.087Zm-.624-.651a.52.52,0,0,0,.055.353c.078.124.314.169.471.182a1.934,1.934,0,0,1-.234-.566Z" transform="translate(-132.231 -178.607)"/><path class="c" d="M172.912,219.786c-.178.131,1.239,1.382,1.749,2.592a1.625,1.625,0,0,0,.537-.934,2.3,2.3,0,0,0,.855.185,7.027,7.027,0,0,0,.822-.02s-.186-.6-.58-.7-.8.056-1.146-.013S173.025,219.705,172.912,219.786Z" transform="translate(-146.962 -186.815)"/><path class="c" d="M174.345,222.123a.057.057,0,0,1-.051-.035,8.284,8.284,0,0,0-1.279-1.874c-.35-.42-.5-.61-.489-.721a.09.09,0,0,1,.038-.064h0c.074-.054.255.03,1.15.525a7.728,7.728,0,0,0,1.131.572,1.65,1.65,0,0,0,.484,0,1.774,1.774,0,0,1,.665.02c.418.117.612.714.619.738a.059.059,0,0,1-.007.049.056.056,0,0,1-.042.024,7.259,7.259,0,0,1-.83.021,2.505,2.505,0,0,1-.811-.162,1.616,1.616,0,0,1-.557.907A.052.052,0,0,1,174.345,222.123Zm-1.7-2.593a3.8,3.8,0,0,0,.461.613,8.7,8.7,0,0,1,1.268,1.837,1.722,1.722,0,0,0,.457-.859.052.052,0,0,1,.03-.04.057.057,0,0,1,.049,0,2.273,2.273,0,0,0,.836.18,6.542,6.542,0,0,0,.74-.015c-.062-.15-.234-.518-.518-.6a1.671,1.671,0,0,0-.622-.015,1.772,1.772,0,0,1-.519,0,7.352,7.352,0,0,1-1.164-.583A9.1,9.1,0,0,0,172.641,219.53Z" transform="translate(-146.646 -186.503)"/><path class="c" d="M199.56,228.517l.352.522.573.013a.945.945,0,0,0-.393-.466,1.765,1.765,0,0,0-.533-.069" transform="translate(-169.626 -194.239)"/><path class="c" d="M200.186,228.787h0l-.573-.014a.06.06,0,0,1-.045-.025l-.353-.522a.059.059,0,0,1,0-.059.057.057,0,0,1,.049-.03,1.837,1.837,0,0,1,.558.075,1,1,0,0,1,.42.5.057.057,0,0,1-.053.076Zm-.543-.126.45.01a.841.841,0,0,0-.331-.359,1.254,1.254,0,0,0-.4-.06Z" transform="translate(-169.327 -193.917)"/><path class="c" d="M197.765,234.1l-.456-.365h-.7l.387.359Z" transform="translate(-167.118 -198.679)"/><path class="c" d="M197.451,233.83h0l-.766-.007a.052.052,0,0,1-.038-.015l-.389-.36a.06.06,0,0,1-.015-.062.057.057,0,0,1,.053-.036h.7a.06.06,0,0,1,.035.012l.45.365a.058.058,0,0,1,.018.063A.057.057,0,0,1,197.451,233.83Zm-.75-.12h.582l-.313-.251h-.534Z" transform="translate(-166.804 -198.347)"/><path class="c" d="M205.04,233.607l.462.447.607.027-.552-.481Z" transform="translate(-174.284 -198.56)"/><path class="c" d="M205.843,233.807h0l-.6-.029a.055.055,0,0,1-.037-.015l-.462-.45a.058.058,0,0,1-.014-.061.056.056,0,0,1,.053-.035l.516-.007a.077.077,0,0,1,.039.013l.552.482a.055.055,0,0,1,.015.063A.057.057,0,0,1,205.843,233.807Zm-.583-.14.426.02-.415-.358h-.36Z" transform="translate(-174.017 -198.228)"/><path class="c" d="M190.559,233.992l-.429-.37-.6-.021.58.564.462.04Z" transform="translate(-161.1 -198.56)"/><path class="c" d="M190.282,233.937h0l-.464-.042a.048.048,0,0,1-.033-.015l-.58-.564a.057.057,0,0,1-.012-.063.056.056,0,0,1,.053-.033l.6.021a.054.054,0,0,1,.036.014l.428.37a.053.053,0,0,1,.02.039l.013.213a.051.051,0,0,1-.016.044A.054.054,0,0,1,190.282,233.937Zm-.438-.15.378.033-.009-.124-.395-.342-.435-.015Z" transform="translate(-160.81 -198.237)"/><path class="c" d="M187.291,236.27l-.546-.42-.255.35.414.462.456.042Z" transform="translate(-158.517 -200.473)"/><path class="c" d="M187.109,236.44h0l-.45-.042a.049.049,0,0,1-.036-.018l-.415-.46a.057.057,0,0,1,0-.072l.255-.35a.049.049,0,0,1,.038-.022.053.053,0,0,1,.042.01l.546.42a.068.068,0,0,1,.021.036l.069.434a.057.057,0,0,1-.056.064Zm-.428-.15.36.033-.054-.339-.482-.372-.195.267Z" transform="translate(-158.265 -200.153)"/><path class="c" d="M194.918,239.591l-.3-.351h-.331l-.014.372.38.323.276-.014Z" transform="translate(-165.13 -203.354)"/><path class="c" d="M194.309,239.677a.057.057,0,0,1-.038-.014l-.382-.324a.058.058,0,0,1-.02-.044l.013-.372a.057.057,0,0,1,.057-.054h.331a.056.056,0,0,1,.044.02l.3.35a.063.063,0,0,1,.014.036l.007.33a.059.059,0,0,1-.054.059l-.276.014Zm-.322-.4.342.291.2-.01V239.3l-.273-.315H194Z" transform="translate(-164.79 -203.039)"/><path class="c" d="M191.794,243.628l-.468-.487-.366.021.014.275.573.48.247-.006Z" transform="translate(-162.316 -206.669)"/><path class="c" d="M191.223,243.656a.051.051,0,0,1-.036-.013l-.573-.48a.052.052,0,0,1-.02-.04l-.015-.276a.057.057,0,0,1,.054-.059l.366-.02a.05.05,0,0,1,.043.017l.468.487a.057.057,0,0,1,.016.039v.282a.057.057,0,0,1-.055.057h-.247Zm-.518-.564.537.45h.173v-.205l-.435-.45-.285.017Z" transform="translate(-161.993 -206.352)"/><path class="c" d="M199.665,238.152l-.36-.276-.385-.006.006.2.36.309.393.006Z" transform="translate(-169.082 -202.189)"/><path class="c" d="M199.385,238.152h-.393a.064.064,0,0,1-.036-.015l-.359-.309a.053.053,0,0,1-.02-.04l-.007-.2a.058.058,0,0,1,.016-.041.06.06,0,0,1,.04-.018h.387a.051.051,0,0,1,.033.01l.36.276a.057.057,0,0,1,.021.04l.014.234a.052.052,0,0,1-.015.042.054.054,0,0,1-.042.02Zm-.372-.118h.312l-.009-.15-.324-.249h-.307v.116Z" transform="translate(-168.785 -201.9)"/><path class="c" d="M205.9,238.09l-.635.014.684.449h.316v-.221Z" transform="translate(-174.48 -202.376)"/><path class="c" d="M205.95,238.276h-.316a.055.055,0,0,1-.032-.009l-.684-.45a.055.055,0,0,1-.022-.063.052.052,0,0,1,.052-.04l.635-.014a.1.1,0,0,1,.033.009l.366.24a.06.06,0,0,1,.025.048v.22a.056.056,0,0,1-.057.059Zm-.3-.113h.245v-.133l-.327-.215-.437.009Z" transform="translate(-174.159 -202.045)"/><path class="c" d="M206.273,241.358l-.456-.411-.278-.007.029.288.311.365.387.021Z" transform="translate(-174.709 -204.799)"/><path class="c" d="M205.967,241.344h0l-.387-.02a.062.062,0,0,1-.04-.02l-.311-.366a.06.06,0,0,1-.014-.03l-.027-.29a.054.054,0,0,1,.015-.043.047.047,0,0,1,.042-.018l.277.008a.056.056,0,0,1,.036.015l.45.411a.054.054,0,0,1,.018.044l-.008.255a.048.048,0,0,1-.018.039A.053.053,0,0,1,205.967,241.344Zm-.36-.131.3.015v-.171l-.422-.38h-.192l.02.209Z" transform="translate(-174.41 -204.474)"/><path class="c" d="M201.867,243.805l-.007-.3.367.02.413.433-.014.344-.359-.04Z" transform="translate(-171.581 -206.983)"/><path class="c" d="M202.367,244.022h0l-.359-.04a.054.054,0,0,1-.036-.02l-.4-.461a.055.055,0,0,1-.015-.035l-.008-.3a.054.054,0,0,1,.018-.042.051.051,0,0,1,.042-.017l.368.021a.054.054,0,0,1,.037.016l.413.434a.059.059,0,0,1,.017.04l-.014.345a.063.063,0,0,1-.021.04A.051.051,0,0,1,202.367,244.022Zm-.33-.15.276.032.01-.26-.385-.4-.285-.017v.215Z" transform="translate(-171.317 -206.642)"/><path class="c" d="M198.275,244.78l-.236-.007.326.447.351.021-.38-.681Z" transform="translate(-168.334 -207.876)"/><path class="c" d="M198.427,244.921h0l-.353-.021a.058.058,0,0,1-.042-.023l-.324-.45a.054.054,0,0,1,0-.06.067.067,0,0,1,.051-.03h.192l.049-.177a.059.059,0,0,1,.048-.042.057.057,0,0,1,.055.029l.38.681a.058.058,0,0,1,0,.059A.055.055,0,0,1,198.427,244.921Zm-.323-.132.224.014-.263-.471-.025.088a.06.06,0,0,1-.055.041h-.121Z" transform="translate(-168.044 -207.5)"/><path class="c" d="M214.137,240.567l-.4-.357-.27.006-.008.336.374.228.311.062Z" transform="translate(-181.441 -204.179)"/><path class="c" d="M213.86,240.652h0l-.312-.063a.042.042,0,0,1-.018,0l-.373-.228a.059.059,0,0,1-.027-.049v-.336a.058.058,0,0,1,.055-.055h.27a.053.053,0,0,1,.039.015l.4.357a.055.055,0,0,1,.02.041v.274a.052.052,0,0,1-.02.045.054.054,0,0,1-.033,0Zm-.289-.173.231.046v-.18l-.365-.327h-.194v.252Z" transform="translate(-181.16 -203.932)"/><path class="c" d="M209.194,247.284l-.428-.344-.276.008v.3l.429.3.311.008Z" transform="translate(-177.217 -209.899)"/><path class="c" d="M208.915,247.32H208.6a.055.055,0,0,1-.031-.009l-.428-.3a.057.057,0,0,1-.025-.045v-.3a.057.057,0,0,1,.055-.057h.276a.05.05,0,0,1,.036.012l.429.344a.063.063,0,0,1,.021.036l.035.262a.06.06,0,0,1-.013.045A.057.057,0,0,1,208.915,247.32Zm-.292-.118h.228l-.024-.174-.395-.316h-.2v.212Z" transform="translate(-176.902 -209.618)"/><path class="c" d="M212.977,244.7l-.607-.5-.29-.008.006.323.561.406.4.035Z" transform="translate(-180.268 -207.562)"/><path class="c" d="M212.79,244.7h0l-.4-.035a.047.047,0,0,1-.027-.01l-.561-.4a.057.057,0,0,1-.023-.045v-.322a.051.051,0,0,1,.017-.042.066.066,0,0,1,.04-.016l.289.008a.065.065,0,0,1,.035.013l.607.5a.055.055,0,0,1,.018.03l.069.253a.056.056,0,0,1-.064.071Zm-.38-.15.3.027-.044-.159-.579-.479h-.212v.237Z" transform="translate(-180.012 -207.247)"/><path class="c" d="M197.641,115.11a27.908,27.908,0,0,1-3.581,3.41.827.827,0,0,0,.726.165c.571-.15,1.792-1.6,2.08-1.989A4.819,4.819,0,0,0,197.641,115.11Z" transform="translate(-164.951 -97.843)"/><path class="c" d="M194.26,118.451a.9.9,0,0,1-.562-.205.057.057,0,0,1,0-.087,28.281,28.281,0,0,0,3.571-3.4.057.057,0,0,1,.1.051,4.8,4.8,0,0,1-.783,1.6c-.3.4-1.521,1.858-2.11,2.01A.885.885,0,0,1,194.26,118.451Zm-.432-.249a.759.759,0,0,0,.621.113c.552-.15,1.771-1.591,2.049-1.968a4.9,4.9,0,0,0,.69-1.317A28.9,28.9,0,0,1,193.828,118.2Z" transform="translate(-164.628 -97.527)"/><path class="c" d="M193.587,125.31a1.638,1.638,0,0,1,.037.816,5.223,5.223,0,0,1-.9.787l-.064-.375A6.018,6.018,0,0,0,193.587,125.31Z" transform="translate(-163.761 -106.513)"/><path class="c" d="M192.387,126.672h-.021a.062.062,0,0,1-.035-.042l-.064-.377a.06.06,0,0,1,.017-.049,5.941,5.941,0,0,0,.919-1.215.056.056,0,0,1,.054-.03.053.053,0,0,1,.048.037,1.681,1.681,0,0,1,.036.856,4.582,4.582,0,0,1-.921.813A.061.061,0,0,1,192.387,126.672Zm0-.414.043.258a4.482,4.482,0,0,0,.81-.709,1.483,1.483,0,0,0,0-.645,6.245,6.245,0,0,1-.856,1.1Z" transform="translate(-163.427 -106.215)"/><path class="c" d="M201.51,107.9a7.117,7.117,0,0,1-1.527,0c-.051.263.33.569.312.77-.032.381-.271.75-.3,1.05a6.779,6.779,0,0,0,.2,1.246,4.233,4.233,0,0,0,.479-.935c.116-.4.06-.984.12-1.219S201.551,108.38,201.51,107.9Z" transform="translate(-169.982 -91.715)"/><path class="c" d="M199.883,110.7h-.01a.062.062,0,0,1-.045-.042,7.179,7.179,0,0,1-.2-1.265,1.81,1.81,0,0,1,.136-.481,2.167,2.167,0,0,0,.158-.564.619.619,0,0,0-.133-.286.72.72,0,0,1-.178-.489.054.054,0,0,1,.064-.045,6.978,6.978,0,0,0,1.512,0,.072.072,0,0,1,.042.012.06.06,0,0,1,.021.04c.027.328-.246.528-.465.688-.117.086-.228.166-.246.237a2.431,2.431,0,0,0-.033.426,3.463,3.463,0,0,1-.087.795,4.184,4.184,0,0,1-.486.951A.057.057,0,0,1,199.883,110.7Zm-.169-3.052a.852.852,0,0,0,.166.352.657.657,0,0,1,.15.357,2.25,2.25,0,0,1-.165.6,1.7,1.7,0,0,0-.129.45,5.887,5.887,0,0,0,.171,1.1,3.625,3.625,0,0,0,.4-.809,3.349,3.349,0,0,0,.082-.768,2.4,2.4,0,0,1,.038-.45c.027-.11.15-.2.288-.3.191-.141.4-.3.419-.531A7.616,7.616,0,0,1,199.713,107.643Z" transform="translate(-169.661 -91.394)"/><path class="c" d="M211.878,97.74l-.588.544V99a1.991,1.991,0,0,0,.546-.557A2.419,2.419,0,0,0,211.878,97.74Z" transform="translate(-179.597 -83.079)"/><path class="c" d="M210.975,98.742a.058.058,0,0,1-.055-.057v-.714a.054.054,0,0,1,.018-.042l.594-.543a.054.054,0,0,1,.059-.01.055.055,0,0,1,.036.048,2.4,2.4,0,0,1-.046.727,1.934,1.934,0,0,1-.564.581A.066.066,0,0,1,210.975,98.742Zm.057-.75v.579a1.581,1.581,0,0,0,.438-.468,1.771,1.771,0,0,0,.042-.555Z" transform="translate(-179.282 -82.765)"/><path class="c" d="M207.714,100.64s.042.633-.061.75a.219.219,0,0,1-.249.062l-.013-.591Z" transform="translate(-176.281 -85.544)"/><path class="c" d="M207.124,101.221a.286.286,0,0,1-.106-.019.06.06,0,0,1-.035-.051l-.014-.591a.06.06,0,0,1,.024-.048l.326-.227a.053.053,0,0,1,.055,0,.054.054,0,0,1,.031.047c.008.109.038.663-.075.8A.261.261,0,0,1,207.124,101.221Zm-.028-.114a.15.15,0,0,0,.15-.055,1.567,1.567,0,0,0,.054-.617l-.216.15Z" transform="translate(-175.924 -85.236)"/><path class="c" d="M203.812,100.474V99.54s-.282.083-.282.254A2.709,2.709,0,0,0,203.812,100.474Z" transform="translate(-173.001 -84.609)"/><path class="c" d="M203.43,100.256a.058.058,0,0,1-.049-.029,2.547,2.547,0,0,1-.3-.709c0-.212.311-.3.324-.3a.058.058,0,0,1,.049.009.057.057,0,0,1,.023.043v.936a.055.055,0,0,1-.04.054Zm-.063-.91c-.077.035-.171.094-.171.173a1.541,1.541,0,0,0,.176.45Z" transform="translate(-172.618 -84.334)"/><path class="c" d="M198.626,100.551l-.339-.921-.387.385s.015.474.18.556A1.084,1.084,0,0,0,198.626,100.551Z" transform="translate(-168.215 -84.686)"/><path class="c" d="M197.948,100.366a.48.48,0,0,1-.208-.039c-.186-.093-.207-.521-.21-.6a.059.059,0,0,1,.017-.042l.387-.385a.058.058,0,0,1,.051-.015.055.055,0,0,1,.04.036l.339.921a.059.059,0,0,1,0,.045.054.054,0,0,1-.036.029A1.6,1.6,0,0,1,197.948,100.366Zm-.3-.624c.009.183.059.441.15.485a.852.852,0,0,0,.45-.011l-.286-.778Z" transform="translate(-167.9 -84.391)"/><path class="c" d="M212.3,90.123l-.395.282-.144-.825.4-.35Z" transform="translate(-179.996 -75.846)"/><path class="c" d="M211.559,90.164a.06.06,0,0,1-.022,0,.055.055,0,0,1-.033-.042l-.15-.825a.054.054,0,0,1,.018-.052l.4-.351a.06.06,0,0,1,.057-.01.055.055,0,0,1,.036.045l.138.9a.062.062,0,0,1-.022.056l-.395.282A.06.06,0,0,1,211.559,90.164Zm-.085-.859.124.705.292-.21-.117-.752Z" transform="translate(-179.649 -75.548)"/><path class="c" d="M209.033,93.17l.18.735-.146.165-.207-.6Z" transform="translate(-177.531 -79.194)"/><path class="c" d="M208.736,93.815h-.012a.059.059,0,0,1-.042-.037l-.207-.6a.058.058,0,0,1,0-.045l.174-.3a.052.052,0,0,1,.055-.027.054.054,0,0,1,.047.042l.18.735a.059.059,0,0,1-.012.051l-.15.163a.055.055,0,0,1-.033.018Zm-.15-.648.167.483.061-.07-.138-.57Z" transform="translate(-177.199 -78.884)"/><path class="c" d="M205.68,91.88l.132,1.169a1.317,1.317,0,0,1-.3-.488,2.079,2.079,0,0,1,.165-.681Z" transform="translate(-174.683 -78.098)"/><path class="c" d="M205.515,92.784a.057.057,0,0,1-.042-.018,1.289,1.289,0,0,1-.31-.519,2.075,2.075,0,0,1,.168-.709.057.057,0,0,1,.109.015l.13,1.168a.054.054,0,0,1-.033.057A.042.042,0,0,1,205.515,92.784Zm-.161-.978a1.259,1.259,0,0,0-.081.426.822.822,0,0,0,.162.314Z" transform="translate(-174.386 -77.777)"/><path class="c" d="M201.245,90.78l.277.7-.326.446-.167-.632Z" transform="translate(-170.876 -77.163)"/><path class="c" d="M200.871,91.678h-.01a.054.054,0,0,1-.044-.041L200.651,91a.05.05,0,0,1,0-.036l.213-.514a.057.057,0,0,1,.052-.035.063.063,0,0,1,.053.035l.276.7a.059.059,0,0,1,0,.054l-.324.45A.063.063,0,0,1,200.871,91.678Zm-.106-.684.13.5.237-.326-.215-.543Z" transform="translate(-170.55 -76.857)"/><path class="c" d="M196.16,92.845l.006-.529.18-.3.337.3v.577l-.324.282Z" transform="translate(-166.736 -78.217)"/><path class="c" d="M196.037,92.885h-.009a.06.06,0,0,1-.039-.027l-.2-.33a.069.069,0,0,1-.007-.03l.007-.528a.057.057,0,0,1,0-.029l.18-.3a.055.055,0,0,1,.039-.027.054.054,0,0,1,.046.013l.338.3a.055.055,0,0,1,.022.043v.577a.061.061,0,0,1-.02.044l-.32.279A.057.057,0,0,1,196.037,92.885Zm-.15-.4.158.258.255-.221V92l-.268-.234-.137.225Z" transform="translate(-166.413 -77.872)"/><path class="c" d="M197.657,84.04l.247.186.118.606-.222.294-.331-.232-.02-.489Z" transform="translate(-167.833 -71.434)"/><path class="c" d="M197.479,84.843a.066.066,0,0,1-.033-.01l-.331-.239a.053.053,0,0,1-.024-.044l-.021-.487a.069.069,0,0,1,.007-.03l.207-.365a.057.057,0,0,1,.083-.018l.249.193a.065.065,0,0,1,.021.035l.117.6a.056.056,0,0,1-.009.044l-.221.3A.063.063,0,0,1,197.479,84.843Zm-.27-.319.264.184.174-.229-.109-.56-.18-.135-.166.3Z" transform="translate(-167.509 -71.094)"/><path class="c" d="M202.609,82.274l-.18-.474-.2.426.111.66.284.207Z" transform="translate(-171.895 -69.53)"/><path class="c" d="M202.3,82.826a.051.051,0,0,1-.033-.01l-.283-.206a.061.061,0,0,1-.023-.037l-.111-.66a.062.062,0,0,1,0-.033l.2-.426a.066.066,0,0,1,.054-.033.056.056,0,0,1,.049.036l.182.476a.076.076,0,0,1,0,.018l.014.819a.057.057,0,0,1-.03.051A.049.049,0,0,1,202.3,82.826Zm-.232-.3.174.126-.012-.695-.129-.34-.136.29Z" transform="translate(-171.568 -69.207)"/><path class="c" d="M206.688,83.868l-.249-.468-.151.255-.008.619.387.3Z" transform="translate(-175.338 -70.89)"/><path class="c" d="M206.352,84.325a.048.048,0,0,1-.035-.012l-.387-.3a.056.056,0,0,1-.021-.045V83.35a.062.062,0,0,1,.007-.029l.15-.255a.06.06,0,0,1,.049-.027.056.056,0,0,1,.048.03l.249.466a.046.046,0,0,1,0,.029l-.021.708a.054.054,0,0,1-.031.049l-.009,0Zm-.33-.392.277.217.016-.583-.195-.365-.093.15Z" transform="translate(-175.023 -70.584)"/><path class="c" d="M210.725,83.333l-.117-.343-.228.426.02.688.262-.215Z" transform="translate(-178.823 -70.541)"/><path class="c" d="M210.077,83.836a.06.06,0,0,1-.023,0,.055.055,0,0,1-.033-.049L210,83.093a.055.055,0,0,1,.008-.027l.228-.427a.055.055,0,0,1,.054-.03.057.057,0,0,1,.048.039l.117.343a.066.066,0,0,1,0,.024l-.059.552a.052.052,0,0,1-.021.037l-.262.215A.061.061,0,0,1,210.077,83.836Zm.037-.73.015.56.15-.128.057-.522-.07-.209Z" transform="translate(-178.5 -70.217)"/><path class="c" d="M206.47,74.936l.02.541.442.242.221-.4-.247-.695-.243-.2Z" transform="translate(-175.499 -63.257)"/><path class="c" d="M206.56,75.49a.058.058,0,0,1-.027,0l-.45-.242a.054.054,0,0,1-.029-.047l-.021-.543a.06.06,0,0,1,0-.022l.192-.515a.055.055,0,0,1,.039-.035.052.052,0,0,1,.049.01l.243.2a.054.054,0,0,1,.016.024l.247.695a.055.055,0,0,1,0,.046l-.22.4a.058.058,0,0,1-.033.027Zm-.382-.33.365.2.181-.334-.238-.651-.169-.15-.161.432Z" transform="translate(-175.128 -62.972)"/><path class="c" d="M99.141,134.167a3.943,3.943,0,0,0-.786-.261c-.353-.063-1.678-.042-2.167-.055a9.633,9.633,0,0,1-1.878-.261c0,.1,0,.378.51.591a11.121,11.121,0,0,0,2.568.1c.489.014,1.567.344,1.671.29S99.141,134.167,99.141,134.167Z" transform="translate(-80.163 -113.551)"/><path class="c" d="M98.736,134.326a3.864,3.864,0,0,1-.6-.114,6.625,6.625,0,0,0-1.023-.18c-.126,0-.331,0-.568.009a6.684,6.684,0,0,1-2.019-.111c-.546-.23-.546-.54-.546-.642a.052.052,0,0,1,.078-.047,9.1,9.1,0,0,0,1.858.257c.15,0,.375,0,.629.008a14.423,14.423,0,0,1,1.546.049,3.848,3.848,0,0,1,.8.266.054.054,0,0,1,.033.046c0,.09.014.385-.112.45A.162.162,0,0,1,98.736,134.326Zm-1.713-.408h.085a6.64,6.64,0,0,1,1.05.183,3.273,3.273,0,0,0,.6.11.536.536,0,0,0,.051-.309,3.667,3.667,0,0,0-.75-.243,14.467,14.467,0,0,0-1.529-.048c-.253,0-.481,0-.63-.008a10.115,10.115,0,0,1-1.815-.237c.017.117.1.3.471.459a6.688,6.688,0,0,0,1.973.1C96.725,133.922,96.9,133.918,97.023,133.918Z" transform="translate(-79.883 -113.249)"/><path class="c" d="M106.388,140.529c0-.083-.614-.186-.849-.138a2.722,2.722,0,0,0-.979.572,5.6,5.6,0,0,0-.75.9,9.94,9.94,0,0,1,2.057-.817A1.433,1.433,0,0,0,106.388,140.529Z" transform="translate(-88.239 -119.322)"/><path class="c" d="M103.555,141.6a.055.055,0,0,1-.047-.089,5.519,5.519,0,0,1,.75-.91,2.766,2.766,0,0,1,1.007-.584,1.723,1.723,0,0,1,.881.126.079.079,0,0,1,.036.066c0,.125-.384.474-.548.566h-.014a10,10,0,0,0-2.043.813A.061.061,0,0,1,103.555,141.6Zm1.88-1.485a.768.768,0,0,0-.15.012,2.7,2.7,0,0,0-.954.558,4.638,4.638,0,0,0-.6.7,9.666,9.666,0,0,1,1.859-.715,1.812,1.812,0,0,0,.477-.45A1.9,1.9,0,0,0,105.434,140.119Zm.646.116Z" transform="translate(-87.973 -119.007)"/><path class="c" d="M91.735,139.695a2.409,2.409,0,0,1-.6.365,5.407,5.407,0,0,0-1.125.124,3.581,3.581,0,0,0-1.2,1.091,3.686,3.686,0,0,0-.6-1.595,1.929,1.929,0,0,1,.577.111.683.683,0,0,0,.416.193c.2-.014.337-.193.586-.228s1.95-.062,1.95-.062Z" transform="translate(-74.979 -118.728)"/><path class="c" d="M88.491,141.015h-.014a.059.059,0,0,1-.042-.048,3.684,3.684,0,0,0-.6-1.568.058.058,0,0,1,0-.059.055.055,0,0,1,.048-.031,2,2,0,0,1,.6.115.062.062,0,0,1,.02.012.624.624,0,0,0,.372.177.615.615,0,0,0,.247-.1.926.926,0,0,1,.336-.13c.249-.035,1.884-.062,1.95-.062a.06.06,0,0,1,.054.036.057.057,0,0,1-.018.063,2.331,2.331,0,0,1-.615.375,1.479,1.479,0,0,1-.34.024,2.358,2.358,0,0,0-.78.1,3.5,3.5,0,0,0-1.17,1.07A.06.06,0,0,1,88.491,141.015ZM88,139.425a3.948,3.948,0,0,1,.534,1.388,3.382,3.382,0,0,1,1.141-1,2.458,2.458,0,0,1,.818-.105,1.49,1.49,0,0,0,.312-.02,1.658,1.658,0,0,0,.438-.25c-.436,0-1.572.03-1.768.059a.783.783,0,0,0-.3.117.726.726,0,0,1-.3.11.7.7,0,0,1-.45-.2A2.132,2.132,0,0,0,88,139.425Z" transform="translate(-74.654 -118.413)"/><path class="c" d="M85.56,148.109l.594-.449.111.544-.347.392-.351-.014Z" transform="translate(-72.726 -125.511)"/><path class="c" d="M85.7,148.322h0l-.353-.013a.055.055,0,0,1-.054-.055v-.474a.054.054,0,0,1,.022-.045l.6-.45a.054.054,0,0,1,.054-.008.059.059,0,0,1,.035.042l.111.543a.054.054,0,0,1-.013.048l-.347.393a.054.054,0,0,1-.056.02Zm-.3-.123.271.011.309-.351-.087-.429-.5.376Z" transform="translate(-72.496 -125.182)"/><path class="c" d="M83.029,144.82l.257.075-.795.62-.324-.029-.006-.322Z" transform="translate(-69.836 -123.097)"/><path class="c" d="M82.226,145.256h0l-.324-.027a.06.06,0,0,1-.052-.055v-.322a.057.057,0,0,1,.036-.054l.87-.344a.058.058,0,0,1,.036,0l.255.075a.056.056,0,0,1,.02.1l-.8.618A.048.048,0,0,1,82.226,145.256Zm-.269-.135.252.021.69-.537-.132-.039-.815.321Z" transform="translate(-69.572 -122.783)"/><path class="c" d="M82.924,140.575l-.814.3v-.3s.324-.385.5-.385.316.378.316.378Z" transform="translate(-69.794 -119.161)"/><path class="c" d="M81.8,140.637a.063.063,0,0,1-.031-.009.055.055,0,0,1-.024-.045v-.3a.053.053,0,0,1,.013-.038c.035-.042.347-.4.548-.4s.354.372.37.414a.055.055,0,0,1-.035.072l-.814.3Zm.049-.332v.2l.686-.255c-.052-.118-.15-.288-.243-.288S81.968,140.164,81.845,140.3Z" transform="translate(-69.479 -118.864)"/><path class="c" d="M80.475,155.429l.552-.564-.489-.145-.45.343-.007.38Z" transform="translate(-68.068 -131.512)"/><path class="c" d="M79.767,155.181a.057.057,0,0,1-.057-.057v-.38a.057.057,0,0,1,.022-.044l.45-.343a.058.058,0,0,1,.049-.009l.491.15a.053.053,0,0,1,.037.039.054.054,0,0,1-.013.054l-.543.559a.054.054,0,0,1-.039.017l-.393.013Zm.393-.069Zm-.331-.337v.3l.31-.011.473-.481-.373-.111Z" transform="translate(-67.754 -131.194)"/><path class="c" d="M78.169,151.647l.56-.438v-.236l-.422-.014-.387.311v.37Z" transform="translate(-66.232 -128.316)"/><path class="c" d="M77.863,151.363h-.249a.057.057,0,0,1-.054-.057v-.381a.055.055,0,0,1,.021-.045l.387-.309a.05.05,0,0,1,.037-.012l.42.014a.056.056,0,0,1,.054.055v.236a.056.056,0,0,1-.021.044l-.56.439A.06.06,0,0,1,77.863,151.363Zm-.192-.117h.173l.522-.411v-.15l-.345-.012-.35.281Z" transform="translate(-65.926 -127.975)"/><path class="c" d="M75.21,147.747l.483-.35.234-.008-.013.288-.483.393-.215-.036Z" transform="translate(-63.928 -125.282)"/><path class="c" d="M75.142,147.795h-.009l-.215-.036a.057.057,0,0,1-.048-.054v-.288a.057.057,0,0,1,.024-.046l.483-.351a.057.057,0,0,1,.032-.01L75.64,147a.066.066,0,0,1,.042.016.065.065,0,0,1,.017.042l-.014.289a.063.063,0,0,1-.021.042l-.485.391A.057.057,0,0,1,75.142,147.795Zm-.159-.139.142.024.45-.36.009-.2h-.15l-.45.322Z" transform="translate(-63.64 -124.95)"/><path class="c" d="M74.107,143.741l.408-.021v.207l-.8.384-.264-.04Z" transform="translate(-62.432 -122.162)"/><path class="c" d="M73.4,144.013h-.009l-.263-.041a.058.058,0,0,1-.047-.042.056.056,0,0,1,.02-.059l.657-.528a.06.06,0,0,1,.031-.014l.408-.021a.05.05,0,0,1,.04.017.054.054,0,0,1,.018.04v.207a.058.058,0,0,1-.031.051l-.8.389A.07.07,0,0,1,73.4,144.013Zm-.129-.133.12.018.75-.361v-.113l-.33.018Z" transform="translate(-62.115 -121.813)"/><path class="c" d="M73.358,139.466l.642-.1.408.061-.257.3-.772.171-.339-.067Z" transform="translate(-62.084 -118.464)"/><path class="c" d="M73.089,139.648h-.01l-.335-.07a.054.054,0,0,1-.042-.036.057.057,0,0,1,.01-.055l.316-.372a.06.06,0,0,1,.035-.018l.644-.1h.017l.406.061a.056.056,0,0,1,.045.036.054.054,0,0,1-.011.055l-.255.3a.06.06,0,0,1-.032.018l-.772.173Zm-.234-.162.234.048.75-.165.179-.212-.3-.045-.614.091Z" transform="translate(-61.794 -118.15)"/><path class="c" d="M67.374,143.069a.953.953,0,0,1-.4-.269,1.747,1.747,0,0,0-.579.385c-.024.038-.111.317-.021.372a1.07,1.07,0,0,0,.38.04A2.438,2.438,0,0,0,67.374,143.069Z" transform="translate(-56.384 -121.38)"/><path class="c" d="M66.368,143.34a.778.778,0,0,1-.327-.051.15.15,0,0,1-.06-.093.666.666,0,0,1,.063-.357,1.732,1.732,0,0,1,.6-.407.057.057,0,0,1,.066.015.9.9,0,0,0,.375.252.054.054,0,0,1,.036.036.063.063,0,0,1-.009.051,2.518,2.518,0,0,1-.637.544.072.072,0,0,1-.025.008Zm.288-.789a1.426,1.426,0,0,0-.518.348c-.032.053-.075.27-.039.3a.916.916,0,0,0,.335.033,2.525,2.525,0,0,0,.546-.45A1.05,1.05,0,0,1,66.656,142.551Z" transform="translate(-56.081 -121.064)"/><path class="c" d="M69.521,149.382,69.5,149l-.407-.014-.284.2.048.146Z" transform="translate(-58.488 -126.642)"/><path class="c" d="M69.217,149.109h0l-.664-.048a.056.056,0,0,1-.049-.039l-.048-.15a.058.058,0,0,1,.021-.064l.284-.2a.057.057,0,0,1,.035-.009l.407.014a.055.055,0,0,1,.055.053l.021.378a.066.066,0,0,1-.017.043A.058.058,0,0,1,69.217,149.109Zm-.621-.15.561.04-.013-.263-.338-.012-.234.165Z" transform="translate(-58.184 -126.309)"/><path class="c" d="M71.979,153.809l.4-.24-.042-.242-.353-.027-.263.242-.013.3Z" transform="translate(-60.953 -130.305)"/><path class="c" d="M71.387,153.557a.057.057,0,0,1-.057-.059l.015-.3a.048.048,0,0,1,.018-.039l.263-.24a.048.048,0,0,1,.042-.014l.353.027a.055.055,0,0,1,.051.046l.042.24a.059.059,0,0,1-.027.059l-.4.242a.066.066,0,0,1-.024.009l-.269.027Zm.269-.084Zm-.2-.242-.01.207.192-.02.357-.214-.027-.161-.284-.021Z" transform="translate(-60.63 -129.97)"/><path class="c" d="M72.085,157.12l.537-.24.3.054-.006.242-.546.261H72.03Z" transform="translate(-61.225 -133.348)"/><path class="c" d="M72.033,157.219h-.349a.055.055,0,0,1-.042-.02.066.066,0,0,1-.014-.046l.056-.315a.052.052,0,0,1,.033-.042l.537-.242a.051.051,0,0,1,.033,0l.3.054a.057.057,0,0,1,.047.057v.242a.063.063,0,0,1-.032.049l-.546.26A.044.044,0,0,1,72.033,157.219Zm-.277-.112h.266l.5-.24v-.159l-.24-.042-.493.221Z" transform="translate(-60.884 -133.069)"/><path class="c" d="M64.62,157.348l.435-.338.326.035-.021.331-.471.261-.261.006Z" transform="translate(-54.927 -133.458)"/><path class="c" d="M64.3,157.356a.057.057,0,0,1-.057-.054l-.007-.3a.054.054,0,0,1,.022-.045l.435-.339a.057.057,0,0,1,.04-.01l.326.035a.057.057,0,0,1,.05.06l-.021.33a.055.055,0,0,1-.029.045l-.469.261a.062.062,0,0,1-.027.008h-.261Zm.049-.324v.21h.192l.43-.239.017-.246-.249-.027Z" transform="translate(-54.604 -133.116)"/><path class="c" d="M65.91,152.693l.385-.213.333.048-.063.213-.345.178-.3.014Z" transform="translate(-56.024 -129.608)"/><path class="c" d="M65.685,152.666a.059.059,0,0,1-.037-.015.054.054,0,0,1-.018-.04v-.24a.056.056,0,0,1,.029-.051l.385-.213a.063.063,0,0,1,.036-.007l.331.049a.054.054,0,0,1,.039.025.055.055,0,0,1,0,.046l-.063.212a.058.058,0,0,1-.028.035l-.343.18h-.024l-.3.013Zm.051-.264v.15l.234-.01.315-.158.037-.128-.249-.036Z" transform="translate(-55.785 -129.284)"/><path class="c" d="M61.447,149.122l.389-.382.2.006-.023.2.239-.032-.015.178-.38.33-.416-.006Z" transform="translate(-52.224 -126.429)"/><path class="c" d="M61.549,149.173h-.414a.054.054,0,0,1-.056-.057v-.3a.054.054,0,0,1,.016-.039l.389-.381a.055.055,0,0,1,.041-.016h.2a.062.062,0,0,1,.042.02.059.059,0,0,1,.013.044l-.015.13.167-.022a.052.052,0,0,1,.046.014.055.055,0,0,1,.018.046l-.016.18a.057.057,0,0,1-.02.038l-.38.329A.051.051,0,0,1,61.549,149.173Zm-.357-.117h.336l.347-.3.007-.087-.169.024a.063.063,0,0,1-.048-.017.058.058,0,0,1-.017-.046l.017-.141h-.113l-.355.349Z" transform="translate(-51.918 -126.123)"/><path class="c" d="M56.5,155.419l.567-.419.475.035v.336l-.552.407-.56-.131Z" transform="translate(-47.965 -131.75)"/><path class="c" d="M56.693,155.517H56.68l-.558-.131a.054.054,0,0,1-.036-.027.057.057,0,0,1,0-.044l.069-.228a.064.064,0,0,1,.021-.029l.565-.42a.06.06,0,0,1,.037-.01l.477.035a.058.058,0,0,1,.052.057v.336a.057.057,0,0,1-.024.047l-.552.4A.051.051,0,0,1,56.693,155.517Zm-.488-.232.474.111.51-.372v-.257l-.4-.03-.535.4Z" transform="translate(-47.669 -131.435)"/></svg>