<svg xmlns="http://www.w3.org/2000/svg" width="422" height="444.303" viewBox="0 0 422 444.303"><defs><style>.a{fill:#b1d8fa;fill-rule:evenodd;}</style></defs><path class="a" d="M250.778,212.419c6.543,22.649,2.909,44.665-21.984,65.588-6.363,4.913-13.9,4.822-22.714-.271C188.819,261,180.643,241.894,181.55,220.243c0-16.467,17.988-15.559,28.892-19.014,1.907-.546,7.179-4,8.085-4s6.814,3.458,8.36,3.73C235.879,203.14,246.418,203.411,250.778,212.419Zm-24.959,21.7c0-.353-.381-1.494,0-1.669a4.268,4.268,0,0,1,2.37-.087c.759.262,1.423,1.229,1.9,1.756,0,0,.189.436.381.436.381.178,1.706.614,2.276.793.287.174,1.333,0,1.71.353s.377.614.377,1.138c0,.44-.189.618-.754.618h-2.092a12.582,12.582,0,0,1-3.228-2.109C228.382,235.087,225.819,234.381,225.819,234.119Zm-18.033,15.148c-.367-2.157.821-4.4,2.829-2.424,1.278,1.257-1.369,3.859,1.464,5.205,2.285,1.167,8.949,2.6,11.138.539,4.021-3.948.825-8.258-.177-6.283-2.1,4.4-1.464-7-1.464-7.629,0-3.146-.821-10.686.276-13.11,3.744-7.183,16.9-10.953,23.468-4.4,3.382,3.235,1.831,6.648,1.192,5.209-2.652-5.209-15.988-1.168-19.275.45-.639.361-2.008,2.335-.363,2.335,1.827,0,4.017-2.424,6.85-2.424,1,0,12.788.807,12.969.985,1.918,1.885-.734,2.7-4.751,5.031a6.677,6.677,0,0,1-2.285,1.885,19.924,19.924,0,0,1-3.015,1.168c-.363.268-.181,1.074,0,1.346,1.278,1.346,8.037-1.168,8.676-2.607.095-.178,2.194-3.231,2.194-.628,0,5.57-10.685,6.555-14.615,6.555-5.843,0-5.843-7.09-8.491.989-.186.45,4.017,5.387,4.017,8.618,0,2.513-8.5,7.362-10.87,5.927C212.261,252.677,210.253,255.733,207.786,249.268Zm1.683,18.929c0-2.272,3.271,0,3.535.18,1.324.636,8.394,1.817,9.806.816a14.734,14.734,0,0,1,2.741-1.181c2.118,0,.351,3.178-1.237,3.178-.355,0-3.1,1.636-3.535,1.817-1.592.82-6.008-.18-7.245-.816C211.767,271.371,209.469,270.555,209.469,268.2Zm-6.988-6.67c1.169-3.408,5.395.81,7.372.81,4.944,0,10.969.717,16.363.717,2.16,0,3.954-.178,6.113-.178.451,0,2.427-2.784,3.775-1.528,2.61,2.605-6.292,3.59-7.551,3.59-3.6,0-10.969,4.485-14.565.806C212.281,264.132,202.125,264.938,202.482,261.527Zm-8.876-21.439c-.986-.526-2.066-.787-2.066-2.1,0-.613,4.046,0,4.764,0,1.258,0,4.582.439,5.84.174a14.424,14.424,0,0,0,6.562-3.5,3.3,3.3,0,0,1,2.605-.7c2.61,0-2.155,2.891-2.155,2.891-1.079,1.139-5.032,3.065-6.652,3.851-.99.439-3.774.178-4.943.178h-2.248C194.774,240.878,194.145,240.088,193.606,240.088Zm-3.448-8.314c-1.817.184-2.178-3.883-2.633-4.994a4.914,4.914,0,0,1,1.362-5.457c4.725-4.9,11.353-5.365,17.985-3.144.82.184,7.994,4.718,6.267,6.38-.271.372-3.724-2.221-4.085-2.5-2.362-2.405-11.628-3.052-14.9-1.386-1.817.831-3.363,5.365-1.546,4.53,5.18-2.5,14.08,0,18.26,2.869,5.086,3.42-1.362,5.269-3,6.935-2,2.033-9.9-1.019-11.263-1.019-1.271,0,.361-4.714-1.817-4.714C192.339,229.276,192.975,233.623,190.157,231.773Zm56.483,48.722c36.09,27.046,83.243,46.44,146.625,54.729,21.31,2.274,30.285-16.393,17.773-29.871-4.536-36.058-15.6-73.3-28.2-109.725-11.333-32.781,2.448-52.636,23.124-68.569,7.345-5.74,9.883-7.467,8.07-8.1-3.083-1-6.17-.366-9.253,2.459-9.245-3.552-17.949,1.18-28.835,7.919-2.354,1.46-2.628,4.556-5.437,7.2-2.9,2.644-8.07,5.189-11.337,8.926-13.961.09-18.768,4.642-14.326,13.564,12.061,17.211,14.78,38.7,13.236,62.381-10.334,44.253,12.516,50.9,14.149,61.1,4.168,26.228-16.323,9.017-30.649-11.11-6.256-8.741-14.6-10.924-17.5-10.924-8.25-.09-24.389-10.016-29.56-8.289-1.089.275-23.03-15.936-23.03-3.824C271.488,266.289,253.261,267.017,246.64,280.495Zm36.734-89.676c5.845,0,9.081-1.089,12.86,2.539,4.766,4.9,4.766,12.424,8,17.867,5.3,8.616,8,29.746,8,40.537,0,3.178-2.7-2.174-3.686-2.719-1.62-1.089-7.015-5.987-7.015-7.617,0-4.808-1.08-21.04-3.775-23.764-3.686-3.718-5.846-4.8-11.776-4.8-2.07,0-1.08,0-1.08-3.268C284.9,204.238,285.984,194.992,283.374,190.819Zm5.248,27.461c0-1.376.093-1.376,1.411-1.376,3.486,0,3.294,6.7,4.332,9,1.5,2.844,1.977,6.239,2.355,9.547.374,3.764,5.458,7.619,5.458,9.915,0,1.741-.565,1.194-2.542,1.194-4.893,0-6.5-14.6-7.813-17.812C290.6,225.352,288.622,221.861,288.622,218.28Zm-8.746,1.654v-1.468c1.686-7.9,2.835-10.927,2.835-5.049,0,1.559.18,4.038.18,5.231.529,4.593,2.927,8.171,5.141,12.03a21.242,21.242,0,0,1,2.747,9.087s.18,2.939-.352,2.939c-1.686-.369-2.571-5.14-2.747-6.334-.713-3.764-3.9-5.878-5.321-9.364C281.381,224.341,279.876,222.6,279.876,219.934Zm-3.493,4.248c0-1.446,0-2.615,1.735-1.715,1.092.452.911,1.532.911,2.7a41.472,41.472,0,0,0,.367,4.872c.363,2.078,3.1,3.878,3.1,6.318,0,3.605-4.019-2.8-4.567-3.34C276.2,231.307,276.383,226.434,276.383,224.182Zm-7.44-.281c1.508,1.111,2.093,1.479,2.093,3.609,0,1.57,3.264,5.271,3.85,6.934.166.372,2.176,3.889.166,3.889-1.254,0-4.1-5.923-4.349-6.754C270.118,229.268,268.943,226.4,268.943,223.9Zm-7.741.049a6.548,6.548,0,0,1,3.5,1.9,3.906,3.906,0,0,1,.849,1.451c0,.18.375.45.375.633a10.4,10.4,0,0,0,1.323,2.983,7.894,7.894,0,0,0,1.041,1.267c.375.454,1.7,3.081,1.51,3.8-.563,1.9-2.739-1.357-3.119-1.541a6.993,6.993,0,0,1-2.359-2.624,24.48,24.48,0,0,0-1.608-2.624c-.188-.364-.755-1.087-1.131-1.631a4.484,4.484,0,0,1-.947-2.264,1.046,1.046,0,0,1,.38-.993C261.2,224.129,261.389,223.77,261.2,223.95Zm-2.564,16.794c0-.363-.19-1-.19-1.356v-.723l.376-.543a2.791,2.791,0,0,1,.748-.363,2.791,2.791,0,0,0,.748-.363c.19,0,.376-.27.469-.449a2.79,2.79,0,0,1,.748-.363h1.311l.376.18.283.363.186.27v3.349l-.186.18-.283.363-.186.18h-.19c-.186,0-.748.363-.935.363h-1.78a2.791,2.791,0,0,1-.748-.363l-.376-.363v-.18Zm-.7-12.908c.543.358.992,1.619,1.719,1.981a10.193,10.193,0,0,1,1.446,1.172c0,.179.453.541.633.541.363.358,1.086.988,1.086,1.53s-1.719.9-2.083.9c-1.895,0-2.442-1.8-2.985-2.97a5.02,5.02,0,0,1-.18-1.713C257.573,228.556,257.937,228.373,257.937,227.836Zm-4.3,22.3c0-1.9.912-3.972,2.832-4.156a7.786,7.786,0,0,0,2.106-.363,20.732,20.732,0,0,1,3.563-.722c1.193,0,1.557,1.807,1.557,2.618a2.492,2.492,0,0,1-1.371,2.439c-.917.363-1.1.905-2.469.905-1.28,0-2.837.359-3.935,0-.091,0-.64-.542-.822-.542A3.624,3.624,0,0,0,253.637,250.132Zm-3.5,6.8c0-1.631,2.727-1.154,3.855-1.154a6.546,6.546,0,0,0,2.439-.477c.187,0,.377-.581.755-.581s1.5-.959,1.781-.959c.377,0,3.478-.382,3.665.2,0,.382.187,1.631.187,2.018-.187.768-1.124,2.113-1.595,2.209-.187,0-.751.577-1.128.577-1.128.191-6.1.191-6.858-.191l-.56-.386C251.738,257.892,251.925,256.933,250.139,256.933Zm-3.5,7.024a2.18,2.18,0,0,1,1.747-2.011h1.56c.552.174,1.286,1.225,1.747,1.225,1.1,0,3.215.438,4.315,0h1.2c.182,0,.365,1.311.365,1.485,0,.7-1.747,1.663-2.481,1.663-1.929,0-4.41,0-5.788-1.312C248.752,264.482,246.64,265.008,246.64,263.957Zm-7.434,7.4c.481-.746,1.438-1.589,2.014-2.336a2.6,2.6,0,0,1,.58-.746c.286-.375,4.6-.19,5.08.186.767.561,2.109,1.307,2.3,2.15a1.915,1.915,0,0,1-1.347,2.521,26.493,26.493,0,0,1-3.832.185C243.043,273.316,239.206,271.912,239.206,271.356Zm-5.248,6.474a5.571,5.571,0,0,1,1.035.582c.171.192.6.966.946,1.356,1.035,1.063,3.192.385,4.313.385.86,0,.689-1.163.689-1.74,0-.678-.343-1.649-.946-1.649-1.207,0-2.674.192-4.056.192A3.361,3.361,0,0,0,233.959,277.83Zm26.7-76.468c0-1.513,1.721-1.513,2.808-1.513,1.357,0,1.537,1.872,1.537,2.761,0,2.942,2.808,2.765,2.808,5.707,0,2.049-2.808,3.031-3.351,4.1-.813,1.694,1.267,2.938,2.808,2.938,1.81,0,1.99-.712,3.347-1.067,1.087-.358,2.264-1.872,2.264.712,0,2.407-.723,2.226-2.808,3.119-4.7,2.23-13.306-2.942-9.232-8.291.544-.712,1.541-1.872,1.541-2.761,0-2.407-1.721-1.517-2.808-3.119C258.943,202.968,259.573,201.185,260.66,201.362Zm8.346-8.947c.981,1.722,2.227,3.624,4.1,4.528,1.869,1,2.4,2.45,2.758,4.352.181,1.538,0,4.528,0,6.155,0,1-4.185,4.352-5.339,4.532-3.12.724-.181-2.266,0-2.81,1.335-3.984.711-5.072-.892-8.425C268.652,198.844,269.006,194.86,269.006,192.415Zm-28.925,2.3c0-1.621.74-1.264,2.133-1.264,1.761,0,3.8-.358,5.555,0s3.062,1.893,4.446,2.251a4.467,4.467,0,0,1,3.058,3.868c0,1.17,1.949,3.421,2.133,4.319a14.991,14.991,0,0,1,.556,2.791c0,.991.368,2.791-.929,2.791-3.89,0-5.371-.183-5.371-4.23,0-1.711.368-4.319-1.393-5.043-2.5-1.166-3.237-4.136-5.927-4.5C243.787,195.7,240.081,194.98,240.081,194.712Zm14.431-1.3c.7-1.537.174-.633.7-.813.174,0,.351-.18.525-.18h.7a1.913,1.913,0,0,1,.612.36s.351.454.351.633.174.364.348.544l.351.364.351.36.351.18.434.364s.351.454.351.633l.174.364v1.267l-.174.18h-2.361c-.351,0-.79-.723-.79-1.087,0-.18-.174-.723-.174-.9,0-.27-.351-.454-.351-.633l-.174-.364h-.174l-.178-.18-.347-.364S254.512,193.588,254.512,193.408Zm6.639-4.446c0-.187-.178-.738,0-.92h1.138c2.186,0,1.047,3.673,2.537,4.407a7.572,7.572,0,0,1,2.889,2.666c.174.456.7,1.924,0,2.11h-2.363a4.559,4.559,0,0,1-3.853-4.776A21.372,21.372,0,0,0,261.151,188.962Zm8.667-3.688c0-.81.38-1.169,1.143-1.169a2.31,2.31,0,0,1,1.627.358,2.032,2.032,0,0,0,.574.179l.19.362A5.507,5.507,0,0,0,274.4,186v2.252a4.545,4.545,0,0,0,.38,2.256c.194.452,2.2.631,2.58.81h.574c.384.183,1.627,2.435.764,2.8a24.642,24.642,0,0,1-3.724-.179,5.2,5.2,0,0,1-2.775-2.076c-.38-.721-1.812-2.524-1.812-3.424A7.592,7.592,0,0,0,269.818,185.274Zm.612-13.413c3.291,1.216.357,6.263,2.934,7.572,1.866.937,2.576,2.9,2.576,5.048,0,.561-.177.937-.71.937-.979,0-1.336-3.085-2.043-3.461-.357-.186-.891-.747-1.248-.933a3.145,3.145,0,0,1-2.043-2.338,31.9,31.9,0,0,1,0-4.111C269.9,173.638,269.72,172.237,270.43,171.861Zm-8.484-9.183c2.9,0,3.945,2.042,5.961,4.176,2.372,2.508,0,10.773-.523,13.93-.353,2.231-.7,4.55.7,6.131.7.742-1.842-.373-2.194-.558-2.016-1.023-3.07-6.407-3.07-8.546C262.821,173.819,263.7,165.923,261.946,162.678Zm-29.737,27.67c0-2.19,4.072-1.46,5.971-1.46,4.521,0,12.212,1.46,15.557-1.918a13.328,13.328,0,0,0,2.986-3.931c.27-.639,1.9-8.95,4.525-4.751,3.165,4.937-5.248,12.79-9.316,13.52C249.486,192.175,232.209,193.544,232.209,190.348Zm-3.178-5.967a1.848,1.848,0,0,0,.9.192h2.793l.179.192h.183v1.456H232.9v.192l-.179.192-.362.389-.179.385-.358.2H229.75c-.179,0-.541-.2-.72-.2a2.676,2.676,0,0,1-.63-.192l-.541-.385-.358-.389c-.183,0-.541,0-.541-.389v-1.452c.179-.192.358-.385.541-.385C227.86,183.991,228.039,184.381,229.031,184.381Zm10.619-26.061c1.548-3.188,1.548-2.568,5.286-2.568,2.281,0,6.2-.356,8.115.528.729.356,1.733.712,2.462,1.064,2.1.976,4.924,4.427,4.924,6.823,0,2.568,1.914,8.059-.91,9.035-3.652,1.064-3.285,0-2.462-2.572.181-.62.362-6.643,0-7.351,0-.176-2.462-2.212-2.828-2.568-2.281-2.216-6.476-.62-9.482-1.328C243.2,159.027,239.465,159.911,239.65,158.319Zm-13.525,7.329c3.833,0,5.749.73,8.032,3,3.375,3.363,1.459-.176.915-1.542-.552-1.271.911-4.9-.185-6-1.368-1.271-2.646-.906-2.646-3.359,0-1.181,3.557,1.271,3.923,1.632,1.916,1.907,3.837,1.546,5.11,4.725,1.187,2.813.457,6.086,3.837,7.722,3.008,1.542,3.008-2.092,5.658-.726,5.11,2.448,4.929,11.081-.185,13.53-3.008,1.546-7.937.82-3.375-2.268,3.013-2,.729-6-2.283-6.722-6.845-1.727-11.774,2.088-17.247-3.453-2.831-2.813,2.46-1.452.363-3.543-.548-.541-1.644-.176-2.283-1.087C225.577,167.1,225.577,165.648,226.125,165.648Zm-3.1,14.268c1.51-.817,3.911-.329,5.42-1.145,1.783-1.227,6.227-.654,8.628-.654a8.884,8.884,0,0,1,3.734.983c1.421.654,3.646-.329,3.646,2.372,0,1.227-10.848.82-12.539.82a16.311,16.311,0,0,1-4.091-.82c-.711-.163-2.044-.329-2.935-.491C224.359,180.818,223.825,179.754,223.026,179.916Zm-34.069,5.113c-1.182-7.531,23.9-6.911,28.448-4.7,3.18,1.42,5.815,5.671,8.269,8.063,4,3.719,15.27,5.223,17,10.182.726,2.572-10.543-1.5-12.09-2.92-2.815-2.748-14.084-12.05-17.54-12.754C204.768,180.865,196.68,185.473,188.957,185.029Zm17.015-9.958c0-1.76,6.223-4.072,8.117-6.016,5.054-5.189,6.133-12.689,11.366-18.058,2.435-2.5,11.094-2.5,13.529,0,4.24,4.444-5.05,2.684-6.765,2.684-5.775,0-10.283,12.317-11.277,17.134C219.863,176.923,206.419,177.107,205.971,175.071Zm-17.93,3.689s.168-1.456.508-1.649l.508-.192.336-.192h1.1l.336-.2a1.582,1.582,0,0,0,.512-.192l.336-.192.168-.389h.68l.252.192h.168l.34.2v1.644c0,.778-2.117.971-2.622.971-.172,0-.6.385-.764.385s-.336.192-.508.192h-.336l-.172-.192-.168-.192h-.34S188.21,178.567,188.042,178.76Zm7.6-6.663c0-.342-.167-.858-.167-1.2,0-.171.754-.687.754-.687.5-.171,1.512-.171,1.845.516.421.858.924,2.15,1.765,2.492a2.474,2.474,0,0,1,1.758,2.15c0,1.033-1.424.858-2.1.858-1.008,0-2.6-.342-2.936-1.634,0-.171-.337-1.2-.337-1.374C195.98,172.873,195.476,172.1,195.642,172.1Zm6.337-1c.57-2.687,3.508-2.5,6.074-2.5a3.565,3.565,0,0,0,2.18-.561l.57-.368c.664-.28.852-.28.852.368a2.8,2.8,0,0,1-2.562,2.319c-1.234,0-1.611,1.114-2.369,1.3s-3.324,2.131-4.177,1.946c-.57-.184-.951-1.206-.951-1.574v-.741C201.6,170.911,201.979,170.911,201.979,171.095Zm-.335-10.249.723-.544c.543-.186,2.986,1.093,3.525,1.278.184,0,1,.639,1.18.639a8.416,8.416,0,0,0,2.259.181c.727,0,1.266,0,1.45-.639a10.151,10.151,0,0,1,1.715-2.194c.363-.458,1.9-.458,2.447-.272.539.272,1.087.639,1.087,1.369,0,1.918-.364,3.2-1.993,3.745-.633.272-1.176.458-1.72.639-1.356.363-6.241.363-7.327-.181-.723-.458-1.72-1.369-2.442-1.736A2.247,2.247,0,0,1,201.644,160.846Zm6.142-6.715c-6.018,0-11.3,14.143-15.133,17.86-3.919,3.987-6.2,3.807-10.576,5.891-2.1.909-10.576-.634-6.018-2.084,1.914-.544,19.056-12.059,10.576-12.059-13.585,0-21.332,20.672-4.195,22.756a101.778,101.778,0,0,0,10.58.364c11.395,0,0,4.077-3.557,4.077-10.394,0-21.974,4.265-21.974-9.882,0-9.247,4.014-12.416,10.032-18.4,4.738-4.716,12.309-1,16.137-3.447,2.643-1.633,3.19-7.524,7.385-8.433,6.2-1.543,15.861-1.543,15.861,7.164C216.9,159.208,211.07,154.312,207.785,154.132Zm2.087,43.093,2.148-.537c-2.148.268-1.591.537-2.806,0-.278,0-.84-.63-1.118-.9-.376-.272-.376-2.342-.376-2.882,0-1.439,2.152-4.862,3.924-4.862a24.3,24.3,0,0,1,4.578.272c2.059.9,2.43,1.439,2.43,3.96,0,.63-1.211.63-1.869.63-1.211,0-3.27.272-4.2.272a22.632,22.632,0,0,0-2.709,1.707Zm-25.943,5.244c0,2.335-.276,9.625-3.556,9.625-3.556,0-5.013-2.611-5.013-5.848,0-6.388,4.742-9.893,10.3-10.973,3.556-.9,4.742-2.339,9.755-2.339,1.733,0,14.406-2.246,9.393,2.607-.552.544-2.647.544-3.832.544-.547,0,0,2.067-.91,2.335a38.4,38.4,0,0,1-10.3,1.17c-4.1,0,7.384-2.875,1.461-2.875C189.214,196.714,183.929,200.487,183.929,202.469Zm-16.878-9.132c0-1.229,0-1.8,1.187-1.8,1.459,0,2.007,1.8,2.646,2.739.548.943,1.735,1.515,2.374,2.176.276.282,4.109,1.792,2.646,3.3a20.822,20.822,0,0,0-1.187,1.895,3.169,3.169,0,0,1-.272,1.51c-.911.849-2.374-1.51-2.374-1.51,0-.38-1.187-2.176-1.187-2.458,0-.661-2.37-2.739-2.646-3.119C167.323,195.222,167.323,193.712,167.051,193.336Zm-.428,7.371s-2.173-3.92-.946-3.92c3.021,0,3.021,2.425,3.682,4.573.281,1.491,3.3,2.981,3.963,4.754,0,.278.852,3.356-.375,3.356C170.207,209.469,166.9,202.851,166.623,200.708Zm-4.749.527c0-.541-.36-3.135.538-3.135,2.869,0,2.331,2.864,2.6,4.831a14.556,14.556,0,0,0,7.8,10.466l4.391,1.163c1.165,0,3.407-.355,3.407,1.163,0,5.457-10.667,2.238-12.371-1.163-.894-2.056-3.76-4.649-4.929-6.35C162.146,206.421,161.874,202.393,161.874,201.234Zm-2.248-.073a25.029,25.029,0,0,1-2.077-8.225v-6.673c0-.916-.269-5.027,0-5.666a11.574,11.574,0,0,1,1.173-1.461c.273-.276.9-.276,1.441-.276a6.227,6.227,0,0,1,3.249,2.01,16.361,16.361,0,0,1,.269,3.566c0,.64,1.445,2.377,1.714,3.017.362.549,2.7,2.926-.269,2.926-.81,0-2.345-2.654-3.791-1.189C158.453,192.019,159.895,197.046,159.626,201.161Zm-28.434,14.868c0-6.684,5.635-15.174,8.684-21.316.551-1.444,3.508-3.523,4.709-4.6.926-.816,9.61,0,9.886,1.713.279,1.174,0,4.339,0,5.783,0,1.807,2.031,8.49.83,9.661a25.2,25.2,0,0,1-5.635,3.165c-3.233,1.174-5.635,4.694-9.239,5.326C138.028,216.029,133.87,216.029,131.192,216.029ZM92.709,171.861c8.512,4.2,19.289,4.749,29.248,4.749,6.427,0,17.294-.912,23.361.549a13.908,13.908,0,0,1,6.157,3.016c5.883,5.847-.274,2.649-3.173,2.377-10.229-1.188-21.1-2.649-32.232-2.649C108.465,179.9,92.709,182.185,92.709,171.861Zm70.844-85.037c1.189-2.419,3.921-4.287,5.744-5.588,3.641-2.424,7.015-8.667,10.023-11.743,1.185-1.3,5.74-6.522,7.928-6.522,2.732,0-2.46,7.456-2.46,7.456-1.185,1.208-3.645,3.728-4.283,5.588-.547,2.146-4.193,2.8-5.1,3.728-1.275,1.212-4.559,4.01-6.743,4.94C168.383,84.683,163.828,89.063,163.552,86.824ZM90.968,139.36c2.013-1.226,4.667-1.038,7.048-1.038,1.645,0,2.654-1.413,3.48-2.639.182-.472,5.034-7.537,6.4-6.03,1.009,1.034-4.849,9.988-6.039,10.558-2.2,1.034-3.662,1.034-6.407,1.034C93.8,141.245,90.782,141.433,90.968,139.36Zm16.116-32C128.9,81.268,152.252,56.363,180.6,35.181c5.092-5.545,9.725-8.274,14.542-14.546C212.409-1.726,230.767,4,238.489,40.27c14.542,33.816,19.084,70.357,19.084,108.175-3.816-6.546-7.451,1-10.722-.911-8.818-5.36-20.266-8.09-25.99,0q-13.633-10.226-27.266,0c-1-28.722,7.726-52.359,16.359-72.721,6.364-14.907-10.09-20.452-15.083-9.087-23.446,53.176-55.8,37.723-77.608,65.083-4.362,5.545-14.361,24-21.447,24-12.995,0-16.811-6.817-24.993-15-4.271-2-7.271-4.638-12.9-5a41.034,41.034,0,0,1-13.992-4.638c-5.818-3.817-6-8.816-9-13.454-1.818-2.816-5.995-4-7.817-6.362,0-6.091,8.362,2.364,11,3.181,11.633,3.817,22.629,8.18,36.079,8.18,7.267,0,10.451-.181,16.63-3.177C92.272,117.9,107.084,109.539,107.084,107.356ZM280.75,178.462c1.815-2.156,6.09-4.677,8.455-7.012a37.384,37.384,0,0,1,8.825-6.926c5.453-3.236,13.913-11.327,16.093-16.455.821-1.977,6.189-9.8,4.915-3.593-.912,4.494-6,12.586-9.642,15.733-4.64,4.137-11.827,13.577-18.557,15.915C287.115,177.386,284.023,179.81,280.75,178.462Zm-2.621-3.671c0-2.522,6.167-7.838,7.382-10.359,1.493-2.88,2.24-6.845,3.176-9.818v-2.522c0-1.623.371,2.973.371,3.152a51.854,51.854,0,0,1-1.308,13.243C287,171.188,277.944,179.566,278.129,174.791Zm41.541-69.357c-.375-.742-.375.742-.375.742l-.371.369v.838l-.375.742a5.4,5.4,0,0,1-.746,1.484c-.375,1.115-.375.742-1.121,1.857l-1.492,2.322v.742l-.746,1.488-.375.742h-1.585l-.375-.373-.375-.369-.371-.746v-2.318a3.733,3.733,0,0,1,.371-1.115,3.706,3.706,0,0,0,.375-1.115l.375-.742.371-.742.746-.742.843-1.58.371-1.484.75-1.488c.371-.742.371-.742,1.117-.742.375,0,.746.373,1.121.373C318.549,103.946,318.549,103.946,319.671,105.434Zm-8.309,3.292c-.365-1.069-.365.354-.365.354l-.361.358v.712l-1.091,2.139c0,.354-.726,1.065-.726,1.512a12.738,12.738,0,0,0-1.091,2.492v.358l-.455.354-.361.712-.365.358h-1.091l-.361-.358h-.365v-.354l-.365-.358v-2.492a4.439,4.439,0,0,1,.365-1.158,3.527,3.527,0,0,0,.365-1.065l.361-.716c0-.354.726-1.069.726-1.423V109.08l1.091-1.065h1.546A3.987,3.987,0,0,1,311.362,108.726Zm-9.385-.591v4.924a14.711,14.711,0,0,1-.389,1.988v1.513l-.385.38v1.133H299.17l-.389-.376-.385-.38-.389-.376v-2.274l.389-.376v-5.4c0-.376.385-.757.385-1.513,0-.474.774-1.231.774-1.607l1.163-.38C301.2,105.771,301.588,106.523,301.977,108.135Zm.5,13.777c1.474.363,8.945-2.263,6.734,2.532-1.112,2.622-9.041,6.967-9.041,9.949a49.982,49.982,0,0,1-1.845,14.653c0,.727-4.889,11.035-4.889,6.244v-5.158c0-1.809,2.674-11.668,3.781-12.844.737-.723.366-6.6.366-8.05,0-2.173-4.148-3.708-4.148-5.881C293.432,120.1,300.532,120.1,302.473,121.912Zm-7.729-9.239c.7-.369.352,0,.352.373l-.352.369v.839L294.4,115v4.457h-.352l-.352.369h-2.449v-.369h-.352l-.7-.373-.79-.369-.348-.746v-7.149c0-.373.348-.742.348-1.484,0-.373.79-1.115.79-1.484s.348-1.212.7-1.212l1.051-.369h1.4s.348,1.208.7,1.208.7.742.7,1.484v3.715Zm13.868-20.838c.346.372.346.372.346,1.125V93.7l.342.377.342.377a5.046,5.046,0,0,0,.346,1.218l1.033,1.5c0,.377.342,1.125.342,1.5v4.59l-.342.749v.749l-.346.377-.342.749-.346.377h-1.721l-.687-.377-.773-.377-.346-.749-.346-.749V98.3c0-.377.691-1.125.691-1.874l.342-1.595C307.147,94.081,308.266,92.583,308.612,91.834Zm-6.667-2.624c.717.749,1.431,0,1.431.749v.377h.355v.377l.713.749a1.414,1.414,0,0,1,.359,1.125v9.181l-.359,1.125-.713.749H302.3l-.713-.377-.806-.749-.355-.749v-.846c0-.749.355,0,.355-.749V92.21A10.478,10.478,0,0,1,301.945,89.21Zm-4-1.312c-.37,0-.37.829,0,.829l.366.371.37.371v7.1l-.37.737v.741l-.736,1.474-.366.737v.366l-.37.466-.366.366h-1.2l-.736-.366-.74-.833a3.725,3.725,0,0,1-.366-1.108V94.26c0-.366.366-1.108.366-1.474V90.942a16.045,16.045,0,0,1,.37-1.844c0-.371,0-1.2.736-1.2Zm-9.722,5.053s1.119.369,1.119.742v.373h.346v.369l.342.838c0,.742.342,1.111.342,1.484v1.488c0,.742-.684,2.226-.684,3.064v.738l-.346.746v1.484l-.431.373-.342.369-.346.373h-1.034l-.342-.373H286.5l-.688-.369-.688-.746V95.642a2.8,2.8,0,0,1,.342-1.576.775.775,0,0,1,.692-.746C287.533,92.582,285.811,92.582,288.221,92.951ZM312.363,77.4c2.49,1.443,1.8,5.133,1.8,8.011,0,1.443,1.032,1.443,1.032,2.162a5.669,5.669,0,0,0,.687,2.252,10.311,10.311,0,0,1,.687,4.678c0,.451.341,5.853-1.032,5.133a15.738,15.738,0,0,1-2.149-2.52V94.958c0-2.248-2.747-5.129-3.778-7.381V83.256A7.7,7.7,0,0,1,312.363,77.4Zm-9.011-3.5a5.245,5.245,0,0,0,1.472.726v.359h.37l.366.363.736.722,1.106,1.175a1.156,1.156,0,0,1,.462,1.086v8.4l-.462.363h-.366l-.37.359H305.56l-.736-.359h-.736c-.37,0-1.106-.722-1.106-.722a3.647,3.647,0,0,1-.366-1.086V80.867a15.244,15.244,0,0,1,.366-1.808c0-.363.37-1.808.37-2.171Zm-16.164,2.624a4.058,4.058,0,0,1,1.977.359v.355h.378V77.6l.748.359.757,1.069.752,1.432c0,.714.757,1.073.757,1.875V83.4l-.378.359v2.859l-.378.355-.378.718v.355l-.374.448s-.378.714-.757.714h-.748l-.85-.714-.753-.8-.378-.718-.753-.714a3.482,3.482,0,0,1-.374-1.073V83.049a17.237,17.237,0,0,1,.374-1.875c0-.359.379-1.431.379-1.786Zm9.878-2.518c.334-.377,1.344.373,1.344.373v.377h.676l.672.75a2.251,2.251,0,0,1,.672,1.221v6.85l-.338.754v1.123l-.334.377v.377l-.338.373h-.672l-.676-.373-.672-.377-.672-.75-.334-.75-.338-.754v-6.1C296.056,75.888,296.394,75.888,297.066,74.011Zm7.5-15.412c1.163,0,1.163.369,1.548.369l.778.742h.385v.373l.485.373.385.742c0,.742.389.742.389,1.484v9.474h-.389l-.87-.746-.385-.369a3.992,3.992,0,0,1-1.163-.373l-.774-.834-.389-.746V58.6Zm3.31,332.184s-.663.8-.38,1.068h.38v.353l.282.269a4.152,4.152,0,0,1,1.137.53l.569.534.945.8c.286.353,1.137.622,1.424.887l.569.534h2.082l.282-.265h.569V394.34c0-.269-.282-.534-.282-.8l-.286-.534-.564-.53-.573-.269-.282-.622-.569-.269-.663-.265c-.282,0-.569-.534-.851-.534h-1.137C309.578,390.514,308.732,390.783,307.876,390.783Zm-12.695-6.262c.948-1.695,1.8-1.425,3.608-1.425a5.625,5.625,0,0,1,2.664,1.425c.283.27,4.368,3.3,4.368,4.1,0,.624.948,2.766-.571,2.766a11.873,11.873,0,0,1-3.514-.54C299.648,389.513,295.181,386.127,295.181,384.521Zm-13.513-6.69a8.465,8.465,0,0,0,4.186,5.8l.805.625c.266.536,1.159,1.609,1.695,2.5,0,.27.8.536.8.807,0,1.428,1.159,2.5,1.96,3.3.535.625,3.836,3.4,5.261,3.125,1.071-.355,1.429-.625,1.429-1.964,0-2.234-5-3.4-5.885-5v-1.968c0-1.069-2.765-4.464-3.3-5.267s-1.695-1.964-2.226-2.77a9.436,9.436,0,0,0-1.34-1.7,10.218,10.218,0,0,0-2.85,0C281.4,375.327,281.668,377.295,281.668,377.831Zm-3.485,9.973a27.837,27.837,0,0,1-2.871-2.939c0-.287-.556-2.373,0-2.373.831,0,2.035-.287,2.871-.287,1.107,0,3.7,2.943,4.626,3.8,1.111,1.229,2.315,3.221,2.315,4.742,0,1.139-.28,1.516-1.483,1.516-.556,0-2.866-2.373-3.142-2.656C279.938,388.943,278.739,387.8,278.183,387.8Zm36.475-2.975c1.789.559,4.14.843,5.27,2.064,1.224,1.127,3.2,2.627,4.705,4.034.285.28.285,1.22.285,1.784,0,2.064-3.485,1.127-4.705.843-1.7-.564-3.2-4.411-5.275-4.97-.561,0-2.35-.284-2.635-1.127C311.738,385.388,314.939,385.109,314.658,384.829Zm-12.48-5.248v1.292l.266.257.266.864.27.518c.358.518.624.518.894.774a5.8,5.8,0,0,1,1.067,1.639l.535.518h.624l.266.261h5v-1.035c0-.261-.27-.518-.27-.864l-.266-.518-.624-.518-.535-.257-.531-.518s-.539-.518-.805-.518c-.358,0-.358-.346-.624-.346s-.536-.257-.8-.257l-1.429-.257c-.535,0-.535-.261-1.071-.261S302.98,379.582,302.178,379.582Zm13.557-.875c1.434,0,1.434.623,2.24.623.272,0,.9.265,1.167.265a2.7,2.7,0,0,1,.806.265l1.706,1.692.539.269.271.53.267.534v1.069h-3.318l-.539-.534c-.628,0-.628-.265-1.167-.8l-.806-.8c-.271-.269-.271-.627-.539-.892l-.361-.534v-.8C316,379.33,316,378.707,315.735,378.707Zm-15.26-5.62c0-.87-.287-1.74.57-1.74,1.135,0,4.459-.293,5.6.289a11.822,11.822,0,0,1,2.373,2.129c.565.582,3.221,3,3.221,3.874v1.841c0,3-5.024-1.841-5.594-2.13a25.319,25.319,0,0,1-3.512-2.422C302.467,374.346,300.475,373.476,300.475,373.087Zm-11.612,1.83a2.616,2.616,0,0,1-1.117-2.084c0-.248,3.438-.248,4-.248,1.209,0,3.811,2.08,4.928,2.584.84.248,2.884,1.58,2.884,2.581,0,1.335,0,1.832-1.767,1.832a12.425,12.425,0,0,1-3.161-.248A14.584,14.584,0,0,0,291.743,377,12.813,12.813,0,0,1,288.864,374.917Zm15.979-10.641c.285.272-.29,0-.575,0h-.86l-.674.272c-.285,0-.86.54-.86.54-.57.268-.57.268-.57.9,0,.54.285.54.57.813l1.15,1.077.385.272v.357l.575.544.57.268h.29l.285.268.575.272a5.23,5.23,0,0,0,1.245.54h2.969l.57-.272v-1.349l-.285-.63-.86-.808c-.29,0-.29-.272-.575-.272l-.955-.808-.864-.63C306.088,364.816,306.948,364.816,304.843,364.276Zm-13.525-7.124c0-.272-.292-1.354.3-1.354.292,0,.589-.268.881-.268.982,0,2.155.268,2.744.268a4.4,4.4,0,0,1,1.571.809l.584.545.593.63.686.537.292.541.589.541v1.984l-.3.268H297.1l-.589-.541-.589-.541c-.389-.268-1.275-.9-1.567-1.171s-.3-.268-.589-.541l-.589-.541-.292-.268H292.2v-.268A7.822,7.822,0,0,1,291.318,357.152Zm-6.195,7.124h5.493c1.922,0,6.77,1.081,7.965,2.252.546.541.546.541.822.809,0,0,3.658,2.793.823,2.793-1.1,0-2.84.268-4.212.268a16.114,16.114,0,0,1-4.026-1.35,7.2,7.2,0,0,0-2.29-.63C287.686,367.878,285.123,366.8,285.123,364.276Zm-13.565-.113c-.272-.535-1.08-1.436-.812-2.243,0-.268,1.437-.268,1.709-.268,1.348,0,2.789,1.346,3.6,1.975,2.517,1.614,6.475,2.243,8.721,4.4a8.777,8.777,0,0,1,1.08,1.975c.808,1.707-1.977,1.707-2.789,1.707-1.437,0-5.034-2.782-6.2-3.683a22.69,22.69,0,0,1-3.325-2.786S271.558,364.7,271.558,364.162Zm-4.364,4.615c.571-.821.571-1,1.425-1,2,0,2.189.821,3.52,1.642a17.861,17.861,0,0,1,2.567,2.649c1.236,1.465,2.756,2.744,3.232,4.572,0,.367.189,1.007.189,1.646s-.665.363-1.043.363c-2.189,0-3.421.276-4.945-1a9.768,9.768,0,0,1-2-2.835C269.1,372.891,267.387,370.881,267.194,368.777Zm-27.988-33.363c.181,3.1,10.123,13.561,12.585,16.014,1.824,1.914,12.132,15.472,13.047,15.472,2.459,0,2.825-5.1,5.107-6.553,3.282-2.091,20.426,3.915,20.426-.271,0-5.1-18.149-7.374-22.708-8.829C260.456,348.975,242.764,342.422,239.206,335.414Zm-28.377-12.036v-1.762c0-.167,0-.587.175-.587h2.026c.616-.167,1.14-.921,1.756-.921,2.2,0,2.992,1.341,2.992,3.27v2.6c0,.25-1.407.25-1.581.25a3.6,3.6,0,0,1-2.551-1.595c-.795-.754-.441-.754-2.2-.754C211,323.881,210.65,323.377,210.829,323.377ZM216.9,315.3c0-2.114,3.579-1.288,3.761-.274,1.837,6.073,9.185,18.305,13.684,22.908,4.777,4.781,9.185,10.21,10.379,16.835.274,1.47.46,4.228-1.654,3.128-1.194-.644-4.317-10.214-6.245-12.054-3.3-3.31-9.276-10.21-11.569-13.89-1.285-2.3-5.237-7.36-5.42-9.844A9.449,9.449,0,0,0,216.9,315.3Zm8.471-1.7s-.365-1.466,0-1.653a2.051,2.051,0,0,1,2.574,1.011c.187.642.187,1.835.37,2.659,0,.46,1.47,1.466,1.657,1.926.644.824.461,3.119.461,4.129,0,.182-.648.182-.83.182-2.113,0-1.931-3.3-2.3-4.494-.183-.642-1.009-1.284-1.287-1.926C225.836,314.8,225.836,313.785,225.375,313.6Zm5.085.383a8.5,8.5,0,0,1,6.791,3.24c1.467,2.252.916,4.952,3.576,6.936,2.3,1.618,4.591,2.252,7.251,3.24,1.284.451,10.371,3.513,10.371,4.143,0,.362-3.949.362-4.773.362-5.138,0-15.326.447-16.793-5.493C236.058,322.723,230.642,317.5,230.46,313.986Zm-6.56-12.977c0-.838.188-1.958,1.137-2.143.376,0,1.038-.185,1.419-.185.662,0,1.7,2.143,2.367,2.328.474,0,1.325,1.217,1.7,1.495,1.7,1.213,3.5,4.008,5.2,5.688a3.548,3.548,0,0,1,.855,2.333c0,.838-.662.838-1.517.838a4.5,4.5,0,0,1-1.987-.278,5.541,5.541,0,0,1-2.555-2.522c0-.185-.85-.653-1.038-.838-1.325-1.213-3.029-2.05-3.41-3.823a5.438,5.438,0,0,0-.662-1.865A7.287,7.287,0,0,0,223.9,301.008Zm-10.151-2.144c0,.184.417-.184.747-.184a2.014,2.014,0,0,1,1.746.833,7.125,7.125,0,0,1,1.246,3.335,12.561,12.561,0,0,0,.252,3.151,21.377,21.377,0,0,1,.912,2.686c0,.649,0,.929-.582.929h-1.077c-.582-.28-1.333-.28-1.333-1.113,0-2.038-1.329-4.355-2.076-6.025C213.168,301.642,213.585,299.881,213.75,298.864ZM208.1,312.506v-3.1c0-1.275-1.243-3.733.8-3.733l1.424.822c.8.452,1.155,2.455,1.6,3.277a16.819,16.819,0,0,1,.18,3.1c0,1.275-2.4,2.278-3.553,1.912-.622-.276-.622-2.915-.622-3.552Zm13.191-28.422c2.714,0,5.711-4.779,8.239-1.012,1.683,2.481,4.211,5.605,4.211,8.912,0,1.842,1.124,5.24-1.683,5.792-1.218.274-2.718-1.382-3.183-2.85-.19-1.1-1.408-2.112-2.063-2.941-.841-1.008-1.027-4.132-1.683-4.315C223.814,287.026,221.1,285.74,221.286,284.084Zm-9.193,4.244c.463-1.6,1.476-1.334,3.139-1.334,1.017,0,1.842-.441,2.676.357.646.621,1.663,1.418,2.122,1.775a7.349,7.349,0,0,1,1.476,1.863c0,.176.646.8.646.974a7.384,7.384,0,0,1-1.1,4.258.814.814,0,0,1-.829.357s-.646.8-1.017,0c-.183-.357-.183-.8-.646-1.154-1.017-1.062-2.305-3.017-3.51-3.637-.829-.445-1.659-1.418-2.305-1.594C212.277,289.922,212.093,288.769,212.093,288.328Zm-7.872,5.155c.186-.387.559-1.253.838-1.736.19-.579,2.066-.579,2.535-.387.186,0,.842.674.842.674.656.2,1.689.2,2.345.87,1.029,1.057,0,4.525-.656,5.4a8.3,8.3,0,0,1-2.154,2.889c-.847.387-1.223-.287-1.5-.866-.377-1.157-1.41-2.411-1.41-3.759a3.386,3.386,0,0,0-.279-1.732A9.419,9.419,0,0,0,204.222,293.483Zm2-8.948a3.608,3.608,0,0,1,.34-1.452c.252-.289.168-.481.252-.678l.508-.192c.168-.192.168-.192.34-.192.252,0,.42-.2.592-.2h1.1c.168,0,.42.2.592.2h.336c.172,0,.508.385.508.385l.256.389.168.289v2.038h-.168l-.172.092h-.252l-.34.2h-.336l-.256.192h-.845l-.084.2h-3.3c-.508-.2-.34-.389-.34-.586v-.481l.172-.2h.929Zm-7.238-6.9c0-.377,0-.848.337-.848.429,0,1.188-.564,1.7-.373.762.187,2.207,1.785,3.306,1.785.766,0,.766,1.217.766,1.874,0,.377-1.613.657-1.866.657-.851.191-1.87-1.315-2.548-1.5C200.511,279.232,198.817,278.011,198.986,277.638Zm-9.2-6.62c0-1.067.285-.774,1.052-.971a3.233,3.233,0,0,1,1.906.2,9.535,9.535,0,0,0,2.294.385c1.626.192,3.057-.582,3.057,1.649v1.063c0,.678-.194.293-.763.485a11.272,11.272,0,0,1-2.678.192c-.668,0-2.1-1.452-2.578-1.644C191.511,272.278,189.791,271.7,189.791,271.018Zm-10.058-7.909c0-.369,0-1.012.09-1.012a5.753,5.753,0,0,1,3.533.369c1.358.643,2.9.274,4.347.456,1.722.187,3.893.556,4.711,2.206v1.837c0,1.1-3.169,1.1-3.9,1.1-.814,0-1.808-.921-2.262-1.381a2.515,2.515,0,0,0-1.9-.734,10.256,10.256,0,0,1-3.533-1.286,3.54,3.54,0,0,1-1.088-2.571Zm-4.373-8.9a2.418,2.418,0,0,1,.838-1.907c.467-.573,1.4-.383,2.05-.383s1.027.573,1.587.762c1.213.478,1.865,1.907,3.078,2.48.371.095,1.4.667,1.676.667.56,0,1.213.194,1.773.194.467,0,1.68,1.046,1.68,1.714v1.813c0,1.24-1.865,1.524-2.893,1.524-2.236,0-3.263-2.954-5.128-2.954-1.12,0-2.236-1.24-2.985-1.907A14.075,14.075,0,0,1,175.36,254.209Zm-3.2-15.888c-1.245-1.749,1.721-2.115,2.49-1.379,1.53,1.475,3.16,3.59,4.881,5.243.77.644,3.26,3.224,3.26,4.234,0,1.566-.96,2.576-2.49,1.566-1.055-.644-1.055-1.749-1.82-2.393-.67-.644-2.11-.827-2.78-1.566C174.463,242.828,173.693,239.608,172.163,238.32Zm5.873.052a3.005,3.005,0,0,0-1.338-2.32c-.177-.177-.983-1.156-1.161-1.337a4.987,4.987,0,0,1-.177-1.7c0-.443,0-.8.536-.8,1.161,0,2.5-.177,3.124.983a9.738,9.738,0,0,1,.536.979c0,1.341.177,2.855.177,4.192C179.733,240.334,178.395,238.2,178.036,238.373Zm-13.609-1.079a6.856,6.856,0,0,1,1.369-4.741,23.945,23.945,0,0,0,3.423-6.379c.3-.638.98-4.284,2.252-4.008,1.758.453,1.17,5.831,1.17,7.107-.194,2.461-3.321,4.008-4.3,6.2C166.971,238.388,166.777,237.2,164.427,237.294Zm-4.373-3.335a22.784,22.784,0,0,1,.854-4.833,25.756,25.756,0,0,1,1.62-2.687,19.962,19.962,0,0,0,.85-6c0-1.968,1.874-2.505,2.386-.626.854,2.954.342,8.058-1.193,10.563a18.388,18.388,0,0,1-2.555,2.683C161.674,233.332,160.4,233.51,160.054,233.959Zm-2.19-24.154c0-1,3.5.36,3.5,2.356a70.591,70.591,0,0,1-1.328,13.4c-.282,1.632-3.212,6.159-3.212,6.613a9.543,9.543,0,0,1-.286,2.356c-.38,1.632-5.108,6.07-4.254,2.356.282-1.178,1.414-2.9,1.7-3.9,1.61-4.708,3.5-9.779,3.5-14.945C157.488,215.965,157.014,211.617,157.864,209.805ZM141.25,244.759c0-2.283,2.494-4.109,2.879-6.211.191-1-.1-3.1.481-3.742,1.147-1.55,2.2-1.278,2.585-3.923.58-3.194.866-8.943,2.975-11.407a8.414,8.414,0,0,0,.576-1.372c.862-3.647,1.437,2.1,1.437,3.017,0,5.568-3.646,12.961-4.7,18.434-.385,2.464-2.589,3.013-3.356,4.381C144.034,244.392,141.25,245.212,141.25,244.759Zm-7.762,2.393c0-4.612,3.349-13.56,5.524-17.988A19.734,19.734,0,0,0,141,220.486c0-1.359,4.62-5.608,4.62-4.159,0,6.506-2.989,16.27-5.074,22.507-.724,2.082-2.445,4.159-3.439,6.057a10.659,10.659,0,0,1-1.811,2.261c-.364.363-2.445.363-2.355.363C133.214,247.515,133.757,247.242,133.488,247.152Zm-9.017-10.975c0-1.172,2.116-4.7,2.577-6.242.366-1.356,3.039-13.116,5.154-11.037,4.88,4.8.553,32.568-7.731,32.568-2.764,0-3.774,1.54-3.774-1.266C120.7,245.678,124.471,240.793,124.471,236.177Zm54.577,33.8c-9.928,7.926-37.894,22.318-52.555,26.506-7.288,2.1-42.085,6.2-46.362,10.386-13.21,13.3,12.749,12.393,19.856,12.393,23.228,0,40.805,8.013,57.745,21.224,17.035,13.3,46,17.218,59.662,17.58,4.643.091-.456,32.614,2.821,35.987,3.282,3.278,3.825,19.4.913,23.594-1.365,1.913-8.924,17.033-10.384,17.033-4.281,0-2.825-8.926-2.825-11.842,0-8.017-1.456-13.208-6.65-18.4-3-15.939-26.14-30.15-62.389-38.352-38.346-8.654-62.668-17.67-98.465-25.05-31.967-9.929-11.565-30.7,14.119-54.476,23.047-21.319,41.9-41.906,62.483-53.476-.909,7.926-2.821,15.305-7.1,21.771,2.369,5.557,4.01,5.376,7.1,5.2,17.215-.732,32.885-17.584,51.646-18.493C168.116,254.4,173.31,262.235,179.048,269.98Zm8.994,90.865c.463,0,4.25-.942,4.25-.942h6.282c1.481,0,4.342.942,4.8,1.879.922,2.443,4.342,5.45,4.342,8.831,0,1.5,0,1.972-1.481,1.972-.459,0-2.861-3.478-3.324-3.945-1.939-1.972-3.42-4.415-6.745-4.415C194.231,364.225,188.042,363.754,188.042,360.844ZM112.388,200.555c.179-2.225,3.072-6.052,5.328-6.852,2.529-.711,4.879-3.289,6.96-4.446,3.252-1.867,10.207-4.715,14.275-4.715,3.615,0,4.247,3.2,1.354,4.892-5.242,3.024-8.853,5.607-15.45,6.759-2.26.357-5.422,1.956-7.5,2.847C117.357,199.041,112.388,201.355,112.388,200.555Zm-29.731-14.41c1.549,4.816,4.277,5.175,5.28,11.863,0,.536-.181,8.565,1.911,5.529,1.549-2.5,1.183-6.33,4.277-8.561,7.371-5.618,19.02-7.136,28.3-8.114,1.364,0,7.371-2.32,2.548-2.32a128.144,128.144,0,0,0-28.483,3.3c-3.55.717-5.461.181-8.555-1.337C86.934,186.146,82.475,184.185,82.656,186.146Zm102.935,88.081c-33.438,20.446-61.789,37.166-94.866,34.438l-1.908,1h-.911l-.455.455c0,.455.455,1.908.455,2.363,62.154-7.542,60.521,23.445,91.14,31.258,7.816,1.912,15.537,7.18,24.08,7.18,5.814,0,16.538-.546,20.625,3.545,3,3,2.183,8,2.728,12.629,0,6.36-1.908,19.264.816,24.717,4.907,9.819,5.362,25.448-1.908,33.26-2.634,2.909-3.816,7.726-7.451,10.18-1.087.817-1.087,5-2.724,6.631-2.454,2.458-7.635,3.545-10.45.821-2.453-2.454-1.637-10.18-1.637-13.721,0-6.906-2.728-11.813-6.269-16.811,0-2.183-10.175-20.9-12.448-21.993-13.72-6.815-21.991-12.543-38.981-15.9-15.086-3-49.25-15.629-62.974-16.54-3.27-.181-36.8-12.9-41.435-12.9-15.447,0-20.9-6.27-20.9-20.626,0-23.355,24.99-27.171,33.532-44.166,23.895-28.172,46.432-45.893,68.058-55.068,0-1.182,4.817-8.178,5.543-9.088.816-1,5.814-15.719,3.18-15.719-6.63,0-25.807,12.81-25.807,12.174a23.812,23.812,0,0,1,4.817-13.9c8.177-10.726-11.537-.73-14.085,2.544-2.179,2.725-8.177,8.9-7.812,12.629-3.274,3.184-6.454,14.632-6.454,4.727,0-3.635-9.268,8.814-10.811,9.9-2.183,1.543-13.814,7.361-9.9,4.362,3-2.179,11.447-11.723,1.543-6.725-5.633,2.819-21.355,7.726-20.99,7.546,17.9-8.818,5.818-6.91-4.542-2.819-2.544,1.091-19.357,2.819-15.722,2.634,5.814-.455,20.719-10.36,9.9-8.268-3.18.726-6.179,4.362-8.813,4.813-.816.185-9.268,1.727-7.726.821,1.272-.821,3-1.727,3.635-3,.455-.907,1.727-3.27,0-2.183-2.815,1.727-11.632,5-8.632.455,1.547-2.179-2.179.455-2.544.455-9.268,3-7.816-1.362-.636-3.09,4.271-1,9.268-6.179,14.175-7.726,13.814-4.542-2.179-12.264-7.36-1.908,5.453-5.453,5.182-9.084,14.9-11.448,7.36-1.727,12.994-11-.816-6.454-3.455,1.091,4.726-5.088,5.362-5.539,3.45-2.363,16.173-3.639,13.63-6.274-1.547-1.453-6.905-2.815-6.725-3.18,1.727-2.634,11-1.362,14.266-1.362,1.908,0,10.725,2.363,10.725.271,0-3-10.36-3.27-12.087-3.27-2.819,0,2.815-.636,3.27-.636,14.266,0,27.444,7.726,40.528,7.726-6-5.092-8.452-10.27-7.27-15.452,23.809,7.271,50.252.911,71.332,5.453,5.994-12.268,14.992-17.627,25.261-19.81-.546-28.172,4.271-54.522,16.719-78.333,1.272-2.729-1.547-9.269-3.545-1.637-4.907,19.178-16.534,32.169-37.619,39.259-15.628,3.455-31.8,15.087-44.524,30.806-4.636,5.634-16.9,27.807-36.8,14.722-3.18-2.093-3.455-6.54-11.632-10.085-7.451-3.274-19.9-5.909-25.351-9.724-2.544-1.818-5.9-3.82-7.36-6-1.908-2.819-1.908-5.724-4.452-7.271-5.178-3.27-7.722-6.725-8-8.268-2.909-13.631.726-17.906,10.811-12.724C48.38,112.1,64.553,120.2,81.912,114.016c19.624-6.91,32.527-27.807,51.7-47.436,20.539-20.992,41.529-35.258,57.612-52.889C208.94-5.758,227.3-5.939,238.021,22.6a447.3,447.3,0,0,1,27.715,131.948c4.452,2.634,8.448,7,11.993,12.995,0-4.456,7.27-12.359,8.452-18.632,1.633-8.178,1.272-20.811-1.547-28.353-3.725-9.724-8.452-25.169-6.269-36.53,0-7.542.636,5.728,3.455,1.637,4.086-6,2.544-13.906,2.544-21.176,0-2.179,1.818-10.356,1.818-4.723,0,1-.636,15.173,2.9,11.723,4.091-4.091,2.454-12,2.454-17.992,0-2.819,2.273-9.454,2.273-2.548v13.27c0,5.363,3.725-1.908,3.725-4.091V45.588c0-2.183,1-3.455,1-.911,0,1.908,3.725,9.815,5.633,9.815,3.816,0,1.272-9.815,1.543-12.359,0,3.455,6,12.634,7.545,16.72.636,1.908,3.18,15.087,5.087,9.179,5-15.173,1.272,9.724,1.272,12.268,0,10.09,5.633.636,7.18,2.183,1.908,1.908-5,21.443-3.093,21.443,4.365,0,5-4.452,3.093,1.547C323.7,115.559,306.354,127.827,306.354,136c0,6.274-3.09,10.726-4.727,15.448,9.268-4.087,18.537-14.357,27.9-27.351q-1.772,41.3-39.075,60.25c16.629,13.265,26.447,34.167,29.627,62.429,16.083,11.267,31.44,23.72,43.707,41.438,2.724,3.91,6,.73,3.18-2.634-17.355-20.356-18.537-39.8-15.447-61.7,2.909-20.992-3.545-40.075-11.812-56.434-12.633-18.989-6.179-28.533,19.173-28.533,14.446-20.265,33.893-26.354,56.7-22.719,9.449,1.457,7.361,2.819.907,8.452C396.037,142,378.863,159.815,387.86,189.715c10.175,33.531,21.445,67.152,27.715,105.229,12.994,24.356,5.633,51.072-17.449,47.711-61.789-9-113.037-27.626-153.019-54.161-5.358,0-4.817,10.451-4.817,15.173,0,5.453,9.088,11.087,9.088,12.724,0,3.455-6.815.365-6.544.636,1.182,1.091,2.548,3.365,4.275,4.181a48.5,48.5,0,0,1,6.72,4c4,2.548,12.448,6.725,17.265,7.361,8.181,0,1.727,2.819-2,3.635-1.637.275-18.627-.546-14.631,3.361,8.452,8.543,18.631,8.818,30.8,8.818a58.929,58.929,0,0,1,17.72,2.815c6,2,12.177,11.271,17.265,12.453,0,2.815-7.906-1.457-5.088,1.362,4.271,4.271,9.088,6.27,14.175,9.634,0,0,8.993,4.813,4.181,4.813-2.273,0-7.906-5.088-5.362.275.546,1.087,14.992,9.905,10.175,9.63-14.081-1.453.546,2.273,5.362,5.363,1.182.821,8.177,6.725,2.544,3.906-.816-.271-2.815-2.544-3.635-2.544-9.629-.816-11.357,4.546-3.725,6,2.273.271-10.721-.271-15.263-3.18,0,0-3.639-1.908-3.639-.817,0,2.269,2.819,4.542,4.817,5.088,8.181,2.544-6.269,2-10.175,0-7.36-3.635-18.081-6.815-5.087,2,5.9,3.906-20.354-10.451-20.354-8.814,0,4.817,0,4-7.09-.546-4.452-2.819-11-5.092-13.539-10.451a132.534,132.534,0,0,0-19.173-28.808c.546,1.091.817,1.091.817,2.273v16.9c-2.815-1.087-11.266-16.084-12.719-19.445-2.819-7.09-8.181-11.362-12.994-16.088-1.091-1.178-3.089-1.178-5.092-1.178-3.635,0-9.9,2.544-4.817-2.544,1.182-1.091,5.092-.821,5.092-2.819,0-4.271-16.354,4.817-16.354-7.632-1.186-2.544-.911-11.271-.275-14.086.275-2,1.362-9.634-.275-10.721-4.813-3.184-.907-15.908-3.176-17-1.912-.821-11.816-7.09-11.816-9.359a5.6,5.6,0,0,0-.365-.455.68.68,0,0,0-.451-.181c-.185,0-1,.271-1.091.09,0,0-.271-.185-.271-.09a.09.09,0,0,1-.094.09.315.315,0,0,1-.181.09ZM50.333,222.754c-.448.272,2.77.272,3.219.272,1.7,0,4.382,0,5.722-.912,1.074-.64,1.074-1.92,1.074-3.2,0-.917-2.415-2.01-3.041-2.01-1.878,0-2.77,2.374-4.022,2.832S50.511,221.292,50.333,222.754Zm-.917-5.413v-3.313c0-.831,3.227-3.5,3.713-3.5a7.8,7.8,0,0,1,2.053-.183,4.356,4.356,0,0,1,2.349,1.289,9.246,9.246,0,0,1,.194,2.395C57.724,217.341,51.959,217.341,49.416,217.341Zm16.18,2.787c0-1.75,1.354-2.852,2.323-4.145,0-.183.869-.827.869-.827.192-.462,1.162-1.75,1.839-1.75h2.511a2.21,2.21,0,0,1,2.323,1.933c0,.461.192,2.582.192,3.039-.384,1.289-5.223,2.025-6.189,2.025A18.377,18.377,0,0,1,65.6,220.128Zm-3.944-7.16H64c1.712-.346,4.964-1.034,6.228-2.238a7.116,7.116,0,0,0,.179-2.067,2.019,2.019,0,0,0-.363-.944c-.448-1.033-1.712-.863-2.8-.863a10.276,10.276,0,0,0-2.168.6,10.8,10.8,0,0,0-2.348,2.067A6.054,6.054,0,0,0,61.652,212.968Zm-5.239-6.161a13.635,13.635,0,0,1,.292-3.433c.192-1.763,3.186-3.525,5.22-3.525,1.157,0,3.671.373,3.671,1.951a13.556,13.556,0,0,1-.192,2.872,10.806,10.806,0,0,1-2.322,1.486C61.729,207.083,58.058,206.807,56.412,206.807Zm19.743,4.412c0-.622,1.967-.622,2.251-1.067,0-.177.465-.177.656-.445.842-.353,4.214-1.866,4.214-2.752V206.6c0-.265.656-.265.939-.445a4.386,4.386,0,0,0,1.5-3.2,2.747,2.747,0,0,0-2.437-2.668,6.4,6.4,0,0,0-4.683,2.311,15.83,15.83,0,0,0-2.437,2.491C75.313,206.332,75.686,209.975,76.155,211.219Zm-7.936-8.893c0-1.009.184-2.434.924-3.026.648-.588,1.943-2.6,2.775-2.772a21.517,21.517,0,0,1,3.519-.755c.928,0,5.278-.671,5.926,0,.74.588,2.219,2.938.464,3.359a29.325,29.325,0,0,0-5.462,1.763c-.464.25-1.575.421-1.943.842C73.034,202.913,69.331,202.326,68.22,202.326ZM52.914,191.54v-1.5c0-1.418,2.366-2.584,3.184-3.337,1.729-1.58,5-2.163,7.37-2.163a3.761,3.761,0,0,1,2.547,1.166c.456.414.456,1.749.456,2.581,0,1.753-5.369,2.25-6.914,2.25-1.093,0-2.547.418-3.911.418a1.736,1.736,0,0,0-1.278.418A4.934,4.934,0,0,0,52.914,191.54Zm15.306,1.749c0-2.675,3.044-4.678,5.438-5.682,1.386-.585,4.43-.419,5.9-.419a4.093,4.093,0,0,1,2.028,1,5.6,5.6,0,0,1,.187,1.837c0,1.505-2.586,1.837-3.968,2.09A69.917,69.917,0,0,1,68.22,193.289Zm-16.18,5.928c0-2.7,2.655-4.971,4.855-6.019a17.771,17.771,0,0,1,6.5-.784,1.985,1.985,0,0,1,2.2,2.265c0,2.269-4.4,4.1-6.137,4.364-1.1.173-3.205,0-4.305.173C54.876,199.217,52.039,199.654,52.039,199.217Zm-13.556.7c.468.628,3.083.81,4.016.81a17.284,17.284,0,0,0,4.859-1.078c1.122-.446,2.43-1.884,3.737-2.78,1.586-.81.932-2.962-.186-4.04-.936-.806-5.137-.178-6.259-.178-1.308,0-2.43,1.256-3.273,2.152a6.426,6.426,0,0,0-1.586,1.256A15.7,15.7,0,0,0,38.483,199.913Zm3.936,7.11c.184-2.271,2.176-5.326,4.9-5.326,1.718,0,3.714-.615,4.528,1.222a4.077,4.077,0,0,1,.634,1.833c0,2.531-2.356,2.968-4.442,2.968h-4.8C42.873,207.72,42.6,206.845,42.419,207.023Zm-3.061,7.532c0,.433,1.073,1.037,1.876,1.037h2.589c1.25,0,3.844-2.071,3.844-3.284,0-.6,0-2.676-.448-2.847l-.625-.694c0-.172-1.073-.172-1.521-.172a12.268,12.268,0,0,0-2.5.172c-.625.261-1.7,1.642-2.142,2.075C39.358,211.879,39.358,213.088,39.358,214.554Zm-2.6,8.87a19.918,19.918,0,0,1,.182-3.376,9.612,9.612,0,0,1,2.018-2.486c.823-.886,3.659-.621,5.218-.621,1.282,0,1.741.8,1.741,2.041,0,2.31-1.559,3.376-3.3,4.443-.641.441-2.654.265-3.477.265C38.5,223.689,36.486,224.31,36.759,223.424Zm-6.148-11.768v-1.851c0-.193.941-1.363.941-1.657.192-.875,1.324-2.237,1.511-2.919a2.426,2.426,0,0,1,2.073-1.851c1.507,0,2.826-.29,3.959.879.945.971.66,2.725.66,3.89,0,.976-3.3,3.02-3.959,3.02C34.476,211.168,32.212,211.458,30.611,211.656Zm-7.434,10.422a3.534,3.534,0,0,1,1.743-2.891c.461-.185,1.286-1.957,1.747-2.424a6.615,6.615,0,0,1,4.78-1.582,3.183,3.183,0,0,1,2.664,3.168c0,1.022-.274,2.424-1.286,2.794-2.664,1.4-6.8.934-9.646.934Z"/></svg>