<?xml version="1.0" encoding="utf-8"?>
<svg version="1.1" id="Layer_1" xmlns="http://www.w3.org/2000/svg" xmlns:xlink="http://www.w3.org/1999/xlink" x="0px" y="0px"
	 width="692px" height="481px" viewBox="0 0 692 481" enable-background="new 0 0 692 481" xml:space="preserve">
<g transform="translate(0.000000,481.000000) scale(0.100000,-0.100000)">
	<path fill="#FFFFFF" d="M4390,3771v-991h205h205v299v299l258,5c213,3,267,7,316,22c72,23,129,74,145,130c15,55,15,1015,0,1070
		c-16,56-67,100-147,127c-65,21-83,22-524,26l-458,3V3771z M5120,4070v-460h-160h-160v460v460h160h160V4070z"/>
	<path fill="#FFFFFF" d="M5910,4741c-70-10-149-36-177-60c-12-10-31-33-42-52c-21-34-21-41-21-946v-913h205h205v305v305h160h160
		v-350c0-193-5-394-11-448c-50-461-247-914-553-1269c-513-596-1319-894-2071-767c-374,63-739,228-1040,471c-164,132-415,404-388,421
		c31,20,193,148,193,152c-1,7-821,573-824,568c-3-3,30-1062,36-1157l3-54l120,100c66,54,125,102,131,106c7,4,41-30,87-86
		c94-115,304-322,417-409c925-716,2174-752,3129-90c564,391,969,1005,1115,1692c59,278,59,283,64,1326c2,663,0,974-7,1002
		c-20,73-63,110-166,140c-38,11-124,15-360,17C6105,4747,5940,4745,5910,4741z M6400,4060v-460h-160h-160v460v460h160h160V4060z"/>
	<path fill="#FFFFFF" d="M0,3176v-996h175h175v304v305l218,4c139,2,231,8,257,16c52,17,110,76,124,126c15,56,15,1019,0,1080
		c-14,57-69,108-141,131c-45,15-107,18-430,22l-378,4V3176z M610,3475v-465H480H350v465v465h130h130V3475z"/>
	<path fill="#FFFFFF" d="M2411,4160c-116-17-189-67-210-145c-15-54-15-1025,0-1078c17-62,62-104,136-127c56-17,93-20,264-20h199
		v-190v-190h-130h-130v90v90h-175h-175v-107c0-60,5-125,10-145c15-51,56-97,110-122c42-20,65-21,338-24c246-3,301-1,348,13
		c73,21,128,71,143,130c8,31,11,314,11,939v896l-342-1C2619,4168,2441,4164,2411,4160z M2800,3475v-465h-130h-130v465v465h130h130
		V3475z"/>
	<path fill="#FFFFFF" d="M3476,4159c-65-10-134-39-161-69c-42-47-44-71-45-609c0-364,3-525,12-553c14-49,73-103,130-120
		c59-18,605-18,664-1c57,18,104,52,128,93c20,34,21,51,24,544c3,570,1,596-54,651c-59,59-106,67-389,71
		C3648,4167,3508,4165,3476,4159z M3880,3475v-465h-130h-130v465v465h130h130V3475z"/>
	<path fill="#FFFFFF" d="M1235,4144c-64-20-113-58-131-100c-9-23-14-74-14-159v-125h170h170v90v90h130h130v-169v-169l-217-4
		c-204-3-222-5-271-27c-61-27-97-66-112-119c-13-49-13-466,1-515c14-50,59-101,112-123c38-17,78-19,433-22l391-3l6,293
		c10,439,8,887-3,930c-15,51-56,97-110,122c-42,20-64,21-340,23C1337,4159,1276,4157,1235,4144z M1695,3195v-180l-132-3l-133-3v186
		v186l133-3l132-3V3195z"/>
</g>
</svg>
